<?xml version="1.0" encoding="utf-8"?>
<!-- Generator: Adobe Illustrator 25.3.1, SVG Export Plug-In . SVG Version: 6.00 Build 0)  -->
<svg version="1.1" xmlns="http://www.w3.org/2000/svg" xmlns:xlink="http://www.w3.org/1999/xlink" x="0px" y="0px"
	 viewBox="0 0 128 128" style="enable-background:new 0 0 128 128;" xml:space="preserve">
<style type="text/css">
	.st0{display:none;}
	.st1{display:inline;fill:#392726;}
	.st2{display:inline;}
	.st3{display:none;fill:#E6E7E8;}
	.st4{fill:#FFFFFF;}
	.st5{fill:#FFD7E5;}
	.st6{fill:#FFFFFF;stroke:#FFFFFF;stroke-width:3;stroke-miterlimit:10;}
	.st7{fill:#FFFFFF;stroke:#FFFFFF;stroke-miterlimit:10;}
	.st8{display:none;fill:#FFFFFF;}
	.st9{fill:#7B7294;stroke:#F393BD;stroke-width:2;stroke-miterlimit:10;}
	.st10{fill:#FA759E;}
</style>
<g id="Layer_2" class="st0">
	<rect x="-3.1" y="-1.4" class="st1" width="134.6" height="133"/>
</g>
<g id="Layer_1" class="st0">
	<g class="st2">
		<g>
			<path class="st3" d="M128.5,58.3L117,54.5l6.3-10.4c-6.6-5.3-18.3-6.4-30-2.2c-1.6,0.6-3.1,1.3-4.6,2c0.1-1.1,0.1-2.1,0.1-3.2
				c0-12.4-5.1-23-12.3-27.4L69,22.8l-7.6-9.5c-7.2,4.4-12.3,15-12.3,27.4c0,1.1,0,2.2,0.1,3.2c-1.5-0.7-3-1.4-4.6-2
				c-11.6-4.2-23.3-3.1-30,2.2L21,54.5L9.5,58.3c1.7,8.3,9.9,16.7,21.6,20.9c1.4,0.5,2.8,0.9,4.2,1.3c-0.3,0.4-0.7,0.7-1,1.1
				c-8.2,9.2-11.5,20.6-9,28.7l12-2.1l-0.7,12.1c8.3,1.5,19.2-3.1,27.4-12.3c2-2.3,3.7-4.7,5.2-7.1c1.4,2.4,3.1,4.8,5.2,7.1
				c8.2,9.2,19.1,13.8,27.4,12.3l-0.7-12.1l12,2.1c2.4-8.1-0.8-19.4-9-28.7c-0.3-0.4-0.7-0.8-1-1.1c1.4-0.4,2.8-0.8,4.2-1.3
				C118.6,75.1,126.8,66.7,128.5,58.3z"/>
			<path class="st4" d="M123.5,53.3L112,49.5l6.3-10.4c-6.6-5.3-18.3-6.4-30-2.2c-1.6,0.6-3.1,1.3-4.6,2c0.1-1.1,0.1-2.1,0.1-3.2
				c0-12.4-5.1-23-12.3-27.4L64,17.8l-7.6-9.5c-7.2,4.4-12.3,15-12.3,27.4c0,1.1,0,2.2,0.1,3.2c-1.5-0.7-3-1.4-4.6-2
				c-11.6-4.2-23.3-3.1-30,2.2L16,49.5L4.5,53.3c1.7,8.3,9.9,16.7,21.6,20.9c1.4,0.5,2.8,0.9,4.2,1.3c-0.4,0.4-0.7,0.7-1,1.1
				c-8.2,9.2-11.5,20.6-9,28.7l12-2.1l-0.6,12.1c8.3,1.5,19.2-3.1,27.4-12.3c2-2.3,3.7-4.7,5.2-7.1c1.4,2.4,3.1,4.8,5.2,7.1
				c8.2,9.2,19.1,13.8,27.4,12.3l-0.7-12.1l12,2.1c2.4-8.1-0.8-19.4-9-28.7c-0.3-0.4-0.7-0.8-1-1.1c1.4-0.4,2.8-0.8,4.2-1.3
				C113.6,70.1,121.8,61.7,123.5,53.3z"/>
			<path class="st5" d="M123.5,56.3L112,52.5l6.3-10.4c-6.6-5.3-18.3-6.4-30-2.2c-1.6,0.6-3.1,1.3-4.6,2c0.1-1.1,0.1-2.1,0.1-3.2
				c0-12.4-5.1-23-12.3-27.4L64,20.8l-7.6-9.5c-7.2,4.4-12.3,15-12.3,27.4c0,1.1,0,2.2,0.1,3.2c-1.5-0.7-3-1.4-4.6-2
				c-11.6-4.2-23.3-3.1-30,2.2L16,52.5L4.5,56.3c1.7,8.3,9.9,16.7,21.6,20.9c1.4,0.5,2.8,0.9,4.2,1.3c-0.4,0.4-0.7,0.7-1,1.1
				c-8.2,9.2-11.5,20.6-9,28.7l12-2.1l-0.6,12.1c8.3,1.5,19.2-3.1,27.4-12.3c2-2.3,3.7-4.7,5.2-7.1c1.4,2.4,3.1,4.8,5.2,7.1
				c8.2,9.2,19.1,13.8,27.4,12.3l-0.7-12.1l12,2.1c2.4-8.1-0.8-19.4-9-28.7c-0.3-0.4-0.7-0.8-1-1.1c1.4-0.4,2.8-0.8,4.2-1.3
				C113.6,73.1,121.8,64.7,123.5,56.3z"/>
			<g>
				<path class="st4" d="M57.7,102.9c-1.5,1.7-3.2,3.2-4.9,4.6c-0.4,0.3-0.5,1-0.2,1.4c0.2,0.2,0.5,0.4,0.8,0.4
					c0.2,0,0.4-0.1,0.6-0.2c1.8-1.4,3.5-3.1,5.1-4.8c0.4-0.4,0.3-1-0.1-1.4C58.7,102.5,58.1,102.5,57.7,102.9z"/>
				<path class="st6" d="M123.8,52.4l-10.3-3.5l5.7-9.3c0.3-0.4,0.2-1-0.2-1.3c-7.1-5.7-19.3-6.6-30.9-2.3c-1.1,0.4-2.1,0.8-3.2,1.3
					c0-0.5,0-1.1,0-1.6c0-12.4-5-23.5-12.8-28.3c-0.4-0.3-1-0.2-1.3,0.2L64,16.2l-6.8-8.5c-0.3-0.4-0.9-0.5-1.3-0.2
					c-7.8,4.8-12.8,15.9-12.8,28.3c0,0.5,0,1,0,1.6C42.1,36.8,41,36.4,40,36C28.3,31.8,16.2,32.7,9,38.3c-0.4,0.3-0.5,0.9-0.2,1.3
					l5.7,9.3L4.2,52.4c-0.5,0.2-0.8,0.7-0.7,1.1C5.3,62.5,14,71,25.7,75.2c0.9,0.3,1.8,0.6,2.6,0.9c-8.2,9.3-11.8,20.8-9.2,29.6
					c0.1,0.5,0.6,0.8,1.1,0.7l10.7-1.8l-0.6,10.9c0,0.5,0.3,0.9,0.8,1c5.8,1,12.9-0.8,19.4-4.9c0.5-0.3,0.6-0.9,0.3-1.4
					c-0.3-0.5-0.9-0.6-1.4-0.3c-5.7,3.7-11.9,5.4-17.1,4.8l0.6-10.9l5.2-5.8c0.4-0.4,0.3-1-0.1-1.4c-0.4-0.4-1-0.3-1.4,0.1l-5.2,5.8
					l-10.7,1.8c-2-8,1.5-18.4,9.1-26.9c0.3-0.3,0.6-0.6,0.8-0.9l7.6-2.1c0.5-0.1,0.8-0.7,0.7-1.2c-0.1-0.5-0.7-0.8-1.2-0.7l-7.6,2.1
					c-1.3-0.3-2.6-0.7-3.8-1.2C15.7,69.5,7.7,62,5.7,54L16,50.5l7.3,2.7c0.1,0,0.2,0.1,0.3,0.1c0.4,0,0.8-0.3,0.9-0.7
					c0.2-0.5-0.1-1.1-0.6-1.3l-7.3-2.7L11,39.4c6.7-4.8,17.7-5.4,28.3-1.5c1.5,0.5,2.9,1.2,4.3,1.9l5.7,5.7c0.2,0.2,0.5,0.3,0.7,0.3
					s0.5-0.1,0.7-0.3c0.4-0.4,0.4-1,0-1.4l-5.5-5.5c-0.1-0.9-0.1-1.9-0.1-2.8c0-11.3,4.3-21.4,11.1-26.1l6.8,8.5v7.8
					c0,0.6,0.4,1,1,1c0.6,0,1-0.4,1-1v-7.8l6.8-8.5c6.8,4.7,11.1,14.8,11.1,26.1c0,0.9,0,1.8-0.1,2.8L77.3,44c-0.4,0.4-0.4,1,0,1.4
					c0.2,0.2,0.5,0.3,0.7,0.3s0.5-0.1,0.7-0.3l5.6-5.6c1.4-0.7,2.9-1.3,4.4-1.9c10.6-3.9,21.6-3.3,28.3,1.5l-5.7,9.3l-7.3,2.7
					c-0.5,0.2-0.8,0.8-0.6,1.3c0.1,0.4,0.5,0.7,0.9,0.7c0.1,0,0.2,0,0.3-0.1l7.3-2.7l10.3,3.5c-2.1,8-10.1,15.5-20.7,19.3
					c-1.2,0.4-2.5,0.8-3.8,1.2l-7.6-2.1c-0.5-0.1-1.1,0.2-1.2,0.7c-0.1,0.5,0.2,1.1,0.7,1.2l7.6,2.1c0.3,0.3,0.6,0.6,0.8,0.9
					c7.5,8.5,11,18.9,9.1,26.9l-10.7-1.8l-5.2-5.8c-0.4-0.4-1-0.4-1.4-0.1c-0.4,0.4-0.4,1-0.1,1.4l5.2,5.8l0.6,10.9
					c-8.2,1-18.1-3.7-25.6-12.1c-1.9-2.1-3.5-4.4-4.9-6.7v-7.8c0-0.6-0.4-1-1-1c-0.6,0-1,0.4-1,1v7.8c-0.8,1.4-1.8,2.8-2.8,4.1
					c-0.3,0.4-0.2,1.1,0.2,1.4c0.4,0.3,1.1,0.2,1.4-0.2c0.8-1,1.5-2.1,2.2-3.1c1.3,2,2.8,4,4.4,5.8c7.2,8.1,16.6,12.9,24.9,12.9
					c1.2,0,2.3-0.1,3.4-0.3c0.5-0.1,0.9-0.5,0.8-1L97,104.5l10.7,1.8c0.5,0.1,1-0.2,1.1-0.7c2.6-8.7-1-20.3-9.2-29.6
					c0.9-0.3,1.8-0.6,2.6-0.9c11.7-4.2,20.4-12.8,22.2-21.7C124.6,53,124.3,52.6,123.8,52.4z"/>
			</g>
		</g>
		<path class="st7" d="M86.3,58c-0.5-1.9-2.5-3.1-4.4-2.5c-1.6,0.4-2.6,1.8-2.6,3.4l-10.8,2.9c-0.7-1.3-1.9-2.4-3.5-2.7V46.9
			c1.5-0.4,2.6-1.8,2.6-3.4c0-2-1.6-3.6-3.6-3.6c-2,0-3.6,1.6-3.6,3.6c0,1.6,1.1,3,2.6,3.4v12.2c-1.5,0.3-2.8,1.3-3.5,2.7l-10.8-2.9
			c0-1.6-1.1-3-2.6-3.4c-1.9-0.5-3.9,0.6-4.4,2.5s0.6,3.9,2.5,4.4c1.6,0.4,3.2-0.3,4-1.6L59,63.7c0,0.1,0,0.2,0,0.3
			c0,1.3,0.5,2.4,1.3,3.3l-6.7,8.9c-1.5-0.5-3.2-0.1-4.1,1.2c-1.2,1.6-0.9,3.8,0.7,5c1.6,1.2,3.8,0.9,5-0.7c1-1.3,0.9-3.1,0-4.3
			l6.7-8.9c0.7,0.3,1.4,0.5,2.1,0.5c0.8,0,1.5-0.2,2.1-0.5l6.7,8.9c-0.9,1.2-1,3,0,4.3c1.2,1.6,3.4,1.9,5,0.7s1.9-3.4,0.7-5
			c-1-1.3-2.7-1.7-4.1-1.2l-6.7-8.9c0.8-0.9,1.3-2,1.3-3.3c0-0.1,0-0.2,0-0.3l10.8-2.9c0.8,1.3,2.4,2,4,1.6
			C85.7,61.9,86.8,59.9,86.3,58z"/>
	</g>
</g>
<g id="Color">
	<g>
		<g>
			<path class="st3" d="M128.5,56.3L117,52.5l6.3-10.4c-6.6-5.3-18.3-6.4-30-2.2c-1.6,0.6-3.1,1.3-4.6,2c0.1-1.1,0.1-2.1,0.1-3.2
				c0-12.4-5.1-23-12.3-27.4L69,20.8l-7.6-9.5c-7.2,4.4-12.3,15-12.3,27.4c0,1.1,0,2.2,0.1,3.2c-1.5-0.7-3-1.4-4.6-2
				c-11.6-4.2-23.3-3.1-30,2.2L21,52.5L9.5,56.3c1.7,8.3,9.9,16.7,21.6,20.9c1.4,0.5,2.8,0.9,4.2,1.3c-0.3,0.4-0.7,0.7-1,1.1
				c-8.2,9.2-11.5,20.6-9,28.7l12-2.1l-0.7,12.1c8.3,1.5,19.2-3.1,27.4-12.3c2-2.3,3.7-4.7,5.2-7.1c1.4,2.4,3.1,4.8,5.2,7.1
				c8.2,9.2,19.1,13.8,27.4,12.3l-0.7-12.1l12,2.1c2.4-8.1-0.8-19.4-9-28.7c-0.3-0.4-0.7-0.8-1-1.1c1.4-0.4,2.8-0.8,4.2-1.3
				C118.6,73.1,126.8,64.7,128.5,56.3z"/>
			<path class="st8" d="M123.5,51.3L112,47.5l6.3-10.4c-6.6-5.3-18.3-6.4-30-2.2c-1.6,0.6-3.1,1.3-4.6,2c0.1-1.1,0.1-2.1,0.1-3.2
				c0-12.4-5.1-23-12.3-27.4L64,15.8l-7.6-9.5c-7.2,4.4-12.3,15-12.3,27.4c0,1.1,0,2.2,0.1,3.2c-1.5-0.7-3-1.4-4.6-2
				c-11.6-4.2-23.3-3.1-30,2.2L16,47.5L4.5,51.3c1.7,8.3,9.9,16.7,21.6,20.9c1.4,0.5,2.8,0.9,4.2,1.3c-0.4,0.4-0.7,0.7-1,1.1
				c-8.2,9.2-11.5,20.6-9,28.7l12-2.1l-0.6,12.1c8.3,1.5,19.2-3.1,27.4-12.3c2-2.3,3.7-4.7,5.2-7.1c1.4,2.4,3.1,4.8,5.2,7.1
				c8.2,9.2,19.1,13.8,27.4,12.3l-0.7-12.1l12,2.1c2.4-8.1-0.8-19.4-9-28.7c-0.3-0.4-0.7-0.8-1-1.1c1.4-0.4,2.8-0.8,4.2-1.3
				C113.6,68.1,121.8,59.7,123.5,51.3z"/>
			<path class="st5" d="M123.5,53.3L112,49.5l6.3-10.4c-6.6-5.3-18.3-6.4-30-2.2c-1.6,0.6-3.1,1.3-4.6,2c0.1-1.1,0.1-2.1,0.1-3.2
				c0-12.4-5.1-23-12.3-27.4L64,17.8l-7.6-9.5c-7.2,4.4-12.3,15-12.3,27.4c0,1.1,0,2.2,0.1,3.2c-1.5-0.7-3-1.4-4.6-2
				c-11.6-4.2-23.3-3.1-30,2.2L16,49.5L4.5,53.3c1.7,8.3,9.9,16.7,21.6,20.9c1.4,0.5,2.8,0.9,4.2,1.3c-0.4,0.4-0.7,0.7-1,1.1
				c-8.2,9.2-11.5,20.6-9,28.7l12-2.1l-0.6,12.1c8.3,1.5,19.2-3.1,27.4-12.3c2-2.3,3.7-4.7,5.2-7.1c1.4,2.4,3.1,4.8,5.2,7.1
				c8.2,9.2,19.1,13.8,27.4,12.3l-0.7-12.1l12,2.1c2.4-8.1-0.8-19.4-9-28.7c-0.3-0.4-0.7-0.8-1-1.1c1.4-0.4,2.8-0.8,4.2-1.3
				C113.6,70.1,121.8,61.7,123.5,53.3z"/>
			<g>
				<path class="st9" d="M57.7,100.9c-1.5,1.7-3.2,3.2-4.9,4.6c-0.4,0.3-0.5,1-0.2,1.4c0.2,0.2,0.5,0.4,0.8,0.4
					c0.2,0,0.4-0.1,0.6-0.2c1.8-1.4,3.5-3.1,5.1-4.8c0.4-0.4,0.3-1-0.1-1.4C58.7,100.5,58.1,100.5,57.7,100.9z"/>
				<path class="st9" d="M123.8,50.4l-10.3-3.5l5.7-9.3c0.3-0.4,0.2-1-0.2-1.3c-7.1-5.7-19.3-6.6-30.9-2.3c-1.1,0.4-2.1,0.8-3.2,1.3
					c0-0.5,0-1.1,0-1.6c0-12.4-5-23.5-12.8-28.3c-0.4-0.3-1-0.2-1.3,0.2L64,14.2l-6.8-8.5c-0.3-0.4-0.9-0.5-1.3-0.2
					c-7.8,4.8-12.8,15.9-12.8,28.3c0,0.5,0,1,0,1.6C42.1,34.8,41,34.4,40,34C28.3,29.8,16.2,30.7,9,36.3c-0.4,0.3-0.5,0.9-0.2,1.3
					l5.7,9.3L4.2,50.4c-0.5,0.2-0.8,0.7-0.7,1.1C5.3,60.5,14,69,25.7,73.2c0.9,0.3,1.8,0.6,2.6,0.9c-8.2,9.3-11.8,20.8-9.2,29.6
					c0.1,0.5,0.6,0.8,1.1,0.7l10.7-1.8l-0.6,10.9c0,0.5,0.3,0.9,0.8,1c5.8,1,12.9-0.8,19.4-4.9c0.5-0.3,0.6-0.9,0.3-1.4
					c-0.3-0.5-0.9-0.6-1.4-0.3c-5.7,3.7-11.9,5.4-17.1,4.8l0.6-10.9l5.2-5.8c0.4-0.4,0.3-1-0.1-1.4c-0.4-0.4-1-0.3-1.4,0.1l-5.2,5.8
					l-10.7,1.8c-2-8,1.5-18.4,9.1-26.9c0.3-0.3,0.6-0.6,0.8-0.9l7.6-2.1c0.5-0.1,0.8-0.7,0.7-1.2c-0.1-0.5-0.7-0.8-1.2-0.7l-7.6,2.1
					c-1.3-0.3-2.6-0.7-3.8-1.2C15.7,67.5,7.7,60,5.7,52L16,48.5l7.3,2.7c0.1,0,0.2,0.1,0.3,0.1c0.4,0,0.8-0.3,0.9-0.7
					c0.2-0.5-0.1-1.1-0.6-1.3l-7.3-2.7L11,37.4c6.7-4.8,17.7-5.4,28.3-1.5c1.5,0.5,2.9,1.2,4.3,1.9l5.7,5.7c0.2,0.2,0.5,0.3,0.7,0.3
					s0.5-0.1,0.7-0.3c0.4-0.4,0.4-1,0-1.4l-5.5-5.5c-0.1-0.9-0.1-1.9-0.1-2.8c0-11.3,4.3-21.4,11.1-26.1l6.8,8.5v7.8
					c0,0.6,0.4,1,1,1c0.6,0,1-0.4,1-1v-7.8l6.8-8.5c6.8,4.7,11.1,14.8,11.1,26.1c0,0.9,0,1.8-0.1,2.8L77.3,42c-0.4,0.4-0.4,1,0,1.4
					c0.2,0.2,0.5,0.3,0.7,0.3s0.5-0.1,0.7-0.3l5.6-5.6c1.4-0.7,2.9-1.3,4.4-1.9c10.6-3.9,21.6-3.3,28.3,1.5l-5.7,9.3l-7.3,2.7
					c-0.5,0.2-0.8,0.8-0.6,1.3c0.1,0.4,0.5,0.7,0.9,0.7c0.1,0,0.2,0,0.3-0.1l7.3-2.7l10.3,3.5c-2.1,8-10.1,15.5-20.7,19.3
					c-1.2,0.4-2.5,0.8-3.8,1.2l-7.6-2.1c-0.5-0.1-1.1,0.2-1.2,0.7c-0.1,0.5,0.2,1.1,0.7,1.2l7.6,2.1c0.3,0.3,0.6,0.6,0.8,0.9
					c7.5,8.5,11,18.9,9.1,26.9l-10.7-1.8l-5.2-5.8c-0.4-0.4-1-0.4-1.4-0.1c-0.4,0.4-0.4,1-0.1,1.4l5.2,5.8l0.6,10.9
					c-8.2,1-18.1-3.7-25.6-12.1c-1.9-2.1-3.5-4.4-4.9-6.7v-7.8c0-0.6-0.4-1-1-1c-0.6,0-1,0.4-1,1v7.8c-0.8,1.4-1.8,2.8-2.8,4.1
					c-0.3,0.4-0.2,1.1,0.2,1.4c0.4,0.3,1.1,0.2,1.4-0.2c0.8-1,1.5-2.1,2.2-3.1c1.3,2,2.8,4,4.4,5.8c7.2,8.1,16.6,12.9,24.9,12.9
					c1.2,0,2.3-0.1,3.4-0.3c0.5-0.1,0.9-0.5,0.8-1L97,102.5l10.7,1.8c0.5,0.1,1-0.2,1.1-0.7c2.6-8.7-1-20.3-9.2-29.6
					c0.9-0.3,1.8-0.6,2.6-0.9c11.7-4.2,20.4-12.8,22.2-21.7C124.6,51.1,124.3,50.6,123.8,50.4z"/>
			</g>
		</g>
		<path class="st10" d="M86.3,58c-0.5-1.9-2.5-3.1-4.4-2.5c-1.6,0.4-2.6,1.8-2.6,3.4l-10.8,2.9c-0.7-1.3-1.9-2.4-3.5-2.7V46.9
			c1.5-0.4,2.6-1.8,2.6-3.4c0-2-1.6-3.6-3.6-3.6c-2,0-3.6,1.6-3.6,3.6c0,1.6,1.1,3,2.6,3.4v12.2c-1.5,0.3-2.8,1.3-3.5,2.7l-10.8-2.9
			c0-1.6-1.1-3-2.6-3.4c-1.9-0.5-3.9,0.6-4.4,2.5s0.6,3.9,2.5,4.4c1.6,0.4,3.2-0.3,4-1.6L59,63.7c0,0.1,0,0.2,0,0.3
			c0,1.3,0.5,2.4,1.3,3.3l-6.7,8.9c-1.5-0.5-3.2-0.1-4.1,1.2c-1.2,1.6-0.9,3.8,0.7,5c1.6,1.2,3.8,0.9,5-0.7c1-1.3,0.9-3.1,0-4.3
			l6.7-8.9c0.7,0.3,1.4,0.5,2.1,0.5c0.8,0,1.5-0.2,2.1-0.5l6.7,8.9c-0.9,1.2-1,3,0,4.3c1.2,1.6,3.4,1.9,5,0.7s1.9-3.4,0.7-5
			c-1-1.3-2.7-1.7-4.1-1.2l-6.7-8.9c0.8-0.9,1.3-2,1.3-3.3c0-0.1,0-0.2,0-0.3l10.8-2.9c0.8,1.3,2.4,2,4,1.6
			C85.7,61.9,86.8,59.9,86.3,58z"/>
	</g>
</g>
</svg>
