<svg xmlns="http://www.w3.org/2000/svg" viewBox="0 0 80 35.45"><defs><style>.cls-1{fill:#fff;}</style></defs><g id="Layer_2" data-name="Layer 2"><g id="Layer_1-2" data-name="Layer 1"><path class="cls-1" d="M76.66,0H3.34A3.35,3.35,0,0,0,0,3.34V32.1a3.35,3.35,0,0,0,3.34,3.35h28a9.48,9.48,0,0,1,17.26,0l28,0A3.35,3.35,0,0,0,80,32.1V3.34A3.35,3.35,0,0,0,76.66,0ZM18,27.09a9.36,9.36,0,0,1-9.37-9.36,9.19,9.19,0,0,1,.56-3.17,9.35,9.35,0,0,1,17.61,0,9.19,9.19,0,0,1,.56,3.17A9.35,9.35,0,0,1,18,27.09Zm44,0a9.35,9.35,0,0,1-9.36-9.36,9.19,9.19,0,0,1,.56-3.17,9.35,9.35,0,0,1,17.61,0,9.19,9.19,0,0,1,.56,3.17A9.36,9.36,0,0,1,62,27.09Z"/></g></g></svg>