<svg id="Layer_1" data-name="Layer 1" xmlns="http://www.w3.org/2000/svg" viewBox="0 0 319.84 51.01"><defs><style>.cls-1{isolation:isolate;}.cls-2{fill:#fff;}</style></defs><g id="Black"><g class="cls-1"><path class="cls-2" d="M3.5,48.37a1.17,1.17,0,0,1-1.32-1.32q0-3.55,8-13.53A118.17,118.17,0,0,1,26.92,16.37Q30.1,9.7,30.09,6c0-2.94-1.47-4.42-4.42-4.42q-4.16,0-9.8,4.16A46.44,46.44,0,0,0,6.34,15c-2.6,3.41-3.9,6.09-3.9,8,0,1.41.82,2.11,2.44,2.11q3.51,0,7.63-3.56a30.82,30.82,0,0,0,6.17-6.93c.48-.79.88-1.19,1.18-1.19a.42.42,0,0,1,.47.46,1.23,1.23,0,0,1-.27.8,43.06,43.06,0,0,1-7.13,7.72Q8.06,26.79,4,26.79t-4-3q0-2.57,2.77-6.66A48,48,0,0,1,9.54,9.27a42.81,42.81,0,0,1,9-6.53A18.85,18.85,0,0,1,27.39,0c3.38,0,5.08,1.67,5.08,5q0,3.3-2.38,8.91,6.54-4.81,10.49-4.81c1.59,0,2.38.83,2.38,2.5s-1.47,4.92-4.42,9.74a157.27,157.27,0,0,1-8.84,13l-4.43,5.87c0,.09,0,.14.07.14a99.69,99.69,0,0,0,8.81-7.53q6.3-5.8,11.61-10c3.55-2.81,6.17-4.22,7.89-4.22a1.35,1.35,0,0,1,1.52,1.52q0,1.52-4,6.79T43.29,37.75q-4,5.53-4,7.65c0,1.41.59,2.11,1.78,2.11q2.05,0,5.35-2.08a31.38,31.38,0,0,0,4.62-3.33c.88-.83,1.43-1.25,1.65-1.25s.33.09.33.26c0,.53-.74,1.43-2.21,2.71a29,29,0,0,1-5.55,3.63,13,13,0,0,1-5.71,1.71c-2.11,0-3.16-.87-3.16-2.6a13.21,13.21,0,0,1,2.21-6.37,55.31,55.31,0,0,1,4.85-7q7.51-9,8.38-11.88,0-.72-.66-.72-1.59,0-9.77,7.13t-12,10.82q-3.83,3.69-5.15,5c-.88.88-1.56,1.59-2,2.12s-1,1-1.45,1.45c-.93.83-1.54,1.25-1.85,1.25a.19.19,0,0,1-.13-.06,1,1,0,0,1-.6-.93q0-1.65,4.23-6.93A188.79,188.79,0,0,0,35.14,22.9q5.25-8.31,5.25-11.09,0-1.05-1.32-1.05-3.24,0-10.17,5.8A110.55,110.55,0,0,1,15.18,37.61Q6.47,48.38,3.5,48.37ZM5,46.65c1.14,0,4-3,8.64-9A128.82,128.82,0,0,0,25.27,19.73,140.88,140.88,0,0,0,11,35.07Q4.23,43.49,4.22,45.93A.64.64,0,0,0,5,46.65Z" transform="translate(0 0)"/><path class="cls-2" d="M66.52,39.4c-.27,0-.4-.1-.4-.3s.16-.43.46-.69c1.46-1.19,2.18-2.27,2.18-3.24q0-.91-1.65-1.05-3,.06-7.09,4.29t-4.13,6.33c0,.49.28.73.83.73a4.08,4.08,0,0,0,2.21-1.12,43.39,43.39,0,0,0,4.68-4,2.26,2.26,0,0,1,1.52-.8c.62,0,.93.29.93.86a.72.72,0,0,1-.2.53c-.13.13-.38.41-.73.83s-.66.8-.92,1.15A6,6,0,0,0,63,45.2c0,.88.35,1.32,1.06,1.32.92,0,2.66-.84,5.21-2.54s4.88-3.4,7-5.11l3.17-2.51a1.53,1.53,0,0,1,.86-.33c.26,0,.4.15.4.46v.13A119.66,119.66,0,0,1,70,44.68c-3.76,2.5-6.23,3.76-7.42,3.76-1.41,0-2.11-.75-2.11-2.25a2.37,2.37,0,0,1,.2-1,1.88,1.88,0,0,0,.19-.66.25.25,0,0,0-.13-.26,16.7,16.7,0,0,0-2.54,1.78,7.16,7.16,0,0,1-4.09,1.78c-1.17,0-1.75-.61-1.75-1.84s.82-2.9,2.47-5a25.2,25.2,0,0,1,6.64-5.7,15.35,15.35,0,0,1,8.11-2.58,2.57,2.57,0,0,1,1.55.46,1.65,1.65,0,0,1,.63,1.42c0,.64-.64,1.6-1.91,2.87S67.44,39.4,66.52,39.4Z" transform="translate(0 0)"/><path class="cls-2" d="M95.49,36.36a1.78,1.78,0,0,1,.89-.33c.24,0,.36.15.36.46v.13A83,83,0,0,1,86,44.74q-5.53,3.49-9.23,3.5-2.91,0-2.91-3.47c0-2.31,1.4-4.82,4.19-7.55a12.81,12.81,0,0,1,9.08-4.09,3.62,3.62,0,0,1,1.81.46,1.19,1.19,0,0,1,.36.92,4.78,4.78,0,0,1-1.22,2.15c-.81,1-1.55,1.55-2.21,1.55s-1.12-.4-1.12-.79c0-.18.2-.47.6-.86.74-.66,1.12-1.14,1.12-1.45s-.25-.47-.73-.47c-1.54,0-3.47,1.31-5.81,3.8S76.42,43,76.42,44.61c0,1.23.8,1.85,2.41,1.85A9.87,9.87,0,0,0,84,44.74a83.46,83.46,0,0,0,9.84-7.06Z" transform="translate(0 0)"/><path class="cls-2" d="M113,9q2,0,2,1.32c0,1.24-1,2.61-2.94,4.13a11.25,11.25,0,0,1-6.37,2.47c-.44,0-.66-.06-.66-.19s.22-.26.66-.37.87-.23,1.29-.36.89-.31,1.42-.53a8.57,8.57,0,0,0,1.39-.72c1-.62,1.45-1.26,1.45-1.92L111.19,11a2.16,2.16,0,0,1,.53-1.42A1.65,1.65,0,0,1,113,9Z" transform="translate(0 0)"/><path class="cls-2" d="M131.12,36.36A1.78,1.78,0,0,1,132,36c.24,0,.36.15.36.46v.13a118.1,118.1,0,0,1-10.72,8.06c-3.76,2.5-6.15,3.76-7.16,3.76a5.27,5.27,0,0,1-2.54-.56q-1-.57-1-1.29a1.9,1.9,0,0,1,.39-1.22c.27-.33.51-.5.73-.5s.58.34,1.09,1a2,2,0,0,0,1.48,1c1,0,1.81-1.08,2.38-3.24a21.13,21.13,0,0,0,.86-4.45c0-.81-.06-1.22-.17-1.22a.45.45,0,0,0-.3.13l-1.91,1.52-.26-1q4.16-3.3,4.81-4.42c.27-.7.64-1.06,1.13-1.06.3,0,.46.11.46.33a5.22,5.22,0,0,1-.46,1.42,32.21,32.21,0,0,0-1.23,4.92,43.47,43.47,0,0,0-.75,4.42c0,.4.11.59.33.59a88.07,88.07,0,0,0,9.76-7.06Z" transform="translate(0 0)"/><path class="cls-2" d="M141.55,23.29a29.42,29.42,0,0,0,7.65-1.12A92.86,92.86,0,0,1,165.8,7.09Q174.6.93,180.68.92c2,0,3,.51,3,1.52,0,1.37-1.54,3.32-4.62,5.87a75.57,75.57,0,0,1-12,7.86,90.37,90.37,0,0,1-14.51,6.4,76.07,76.07,0,0,0-8.65,12q-3.3,5.81-3.3,9.57,0,5.28,6.73,5.28a18.32,18.32,0,0,0,8.32-2.38,50,50,0,0,0,7.52-4.68,2.11,2.11,0,0,1,1.15-.47c.33,0,.5.18.5.53a.86.86,0,0,1-.26.6q-3.11,2.23-5.51,3.69a37.15,37.15,0,0,1-6.31,2.87A21.63,21.63,0,0,1,145.31,51Q137,51,137,44.61q0-7.72,10.69-20.66a34.36,34.36,0,0,1-6.07,1,.8.8,0,0,1-.79-.85A.72.72,0,0,1,141.55,23.29ZM178.63,2.77q-3.9,0-10.79,5.18a95.72,95.72,0,0,0-13.62,12.7A78.56,78.56,0,0,0,166.59,15a69.21,69.21,0,0,0,10-6.67c2.5-2.09,3.76-3.62,3.76-4.58C180.35,3.08,179.77,2.77,178.63,2.77Z" transform="translate(0 0)"/><path class="cls-2" d="M177.71,41.64q3.69,0,8.84-4.16l1.12.33q-6.46,5.41-11.15,5.41a3.81,3.81,0,0,1-.79-.06,16.7,16.7,0,0,1-3.9,3.53A7.13,7.13,0,0,1,168.14,48c-1.67,0-2.51-.93-2.51-2.8s1.56-4.37,4.69-7.49a10.42,10.42,0,0,1-.8-4A4.33,4.33,0,0,1,171,30.29,5.21,5.21,0,0,1,174.57,29a4.74,4.74,0,0,1,3.4,1.32,4.92,4.92,0,0,1,1.39,3.76,13.76,13.76,0,0,1-2.44,7.52A3.07,3.07,0,0,0,177.71,41.64Zm-9.37,3.23q0,1.32,1.71,1.32t4.36-3.49a8.3,8.3,0,0,1-3.17-3.24C169.3,41.57,168.34,43.38,168.34,44.87ZM175.6,41a12,12,0,0,0,2-5.84,4.76,4.76,0,0,0-1.19-3.56,3.41,3.41,0,0,0-2.31-1.16,2.07,2.07,0,0,0-2.31,2.38,11.43,11.43,0,0,0,1.06,4.71A7.93,7.93,0,0,0,175.6,41Z" transform="translate(0 0)"/><path class="cls-2" d="M203.77,36.36a1.53,1.53,0,0,1,.86-.33c.26,0,.4.15.4.46v.13a110.45,110.45,0,0,1-10.43,7.92c-3.08,2.34-5.68,3.5-7.79,3.5-1.84,0-2.77-1.1-2.77-3.3q0-4.43,5.71-13.1A92.34,92.34,0,0,1,202.58,16q7.14-6.93,10.76-6.93c1.1,0,1.65.48,1.65,1.45q0,3.63-8.68,12a144.44,144.44,0,0,1-17.06,14.22c-1.62,3.12-2.44,5.5-2.44,7.12s.57,2.44,1.72,2.44,2.64-.65,4.49-2a62.76,62.76,0,0,0,9.1-6.6Zm7.92-25.14q-2.77,0-9.83,8a99.74,99.74,0,0,0-11.68,16A97.92,97.92,0,0,0,205,21.94c4.83-5.21,7.26-8.59,7.26-10.13A.53.53,0,0,0,211.69,11.22Z" transform="translate(0 0)"/><path class="cls-2" d="M219.74,36.36a1.53,1.53,0,0,1,.86-.33c.26,0,.39.15.39.46v.13a110.63,110.63,0,0,1-10.42,7.92c-3.08,2.34-5.68,3.5-7.79,3.5Q200,48,200,44.74q0-4.43,5.71-13.1A92.34,92.34,0,0,1,218.55,16q7.14-6.93,10.76-6.93c1.1,0,1.65.48,1.65,1.45q0,3.63-8.68,12a144.44,144.44,0,0,1-17.06,14.22c-1.62,3.12-2.44,5.5-2.44,7.12s.57,2.44,1.72,2.44,2.64-.65,4.48-2a62.84,62.84,0,0,0,9.11-6.6Zm7.92-25.14q-2.78,0-9.83,8a99.74,99.74,0,0,0-11.68,16A97.87,97.87,0,0,0,221,21.94q7.26-7.82,7.26-10.13A.52.52,0,0,0,227.66,11.22Z" transform="translate(0 0)"/><path class="cls-2" d="M236.77,36.36a1.48,1.48,0,0,1,.85-.33c.27,0,.4.15.4.46v.13a110.77,110.77,0,0,1-11.42,8.52A15.94,15.94,0,0,1,218.36,48c-2,0-3-1-3-2.9q0-4.29,4.35-8.81c2.9-3,5.35-4.52,7.33-4.52,1.09,0,1.65.62,1.65,1.85q-.34,3.63-10.43,9.77V44c0,1.46.76,2.18,2.28,2.18a10,10,0,0,0,4.91-1.51,66.71,66.71,0,0,0,9.64-6.93Zm-11.42-2.57q-1.46,0-3.73,2.44a12.59,12.59,0,0,0-3.07,5.54,28.59,28.59,0,0,0,5.35-4.06c1.45-1.43,2.18-2.44,2.18-3S225.83,33.79,225.35,33.79Z" transform="translate(0 0)"/><path class="cls-2" d="M252.8,36.36a1.78,1.78,0,0,1,.89-.33c.24,0,.37.15.37.46v.13a83.64,83.64,0,0,1-10.76,8.12q-5.55,3.49-9.24,3.5c-1.94,0-2.9-1.16-2.9-3.47s1.39-4.82,4.19-7.55a12.78,12.78,0,0,1,9.07-4.09,3.67,3.67,0,0,1,1.82.46,1.19,1.19,0,0,1,.36.92,4.89,4.89,0,0,1-1.22,2.15c-.82,1-1.55,1.55-2.21,1.55s-1.12-.4-1.12-.79c0-.18.19-.47.59-.86.75-.66,1.12-1.14,1.12-1.45s-.24-.47-.73-.47c-1.54,0-3.47,1.31-5.8,3.8s-3.5,4.54-3.5,6.17c0,1.23.8,1.85,2.41,1.85a9.93,9.93,0,0,0,5.18-1.72,84.21,84.21,0,0,0,9.83-7.06Z" transform="translate(0 0)"/><path class="cls-2" d="M288.5,19.34l-9.44-.47q-5.81,0-11.54.47l.33,1.31q0,.74-4.29,5.52T255,36.59q-4.29,5.64-4.29,8.35c0,.7.25,1.06.76,1.06s1.66-.62,3.46-1.85a112.29,112.29,0,0,0,9.17-6.67l1.46-1.19a1.43,1.43,0,0,1,.79-.33c.22,0,.33.14.33.4v.2c.17,0-1,1-3.53,2.9s-5.24,3.87-8.12,5.81-4.7,2.9-5.44,2.9q-1.92,0-1.92-1.71,0-2.51,2.81-6.93a73.84,73.84,0,0,1,6.14-8.35q3.33-3.93,6.33-7.42a24.32,24.32,0,0,0,3.27-4.29A84.3,84.3,0,0,0,255,21.05l-1.32.26c-.35.05-.52.38-.52,1q0,.39-.93.39a7.65,7.65,0,0,1-2.27-.43c-.91-.28-1.36-.69-1.36-1.22s.44-.88,1.32-1.06q9.77-1.71,13.86-2.07l5.45-.47c.9-.06,2.3-.12,4.22-.16s3.2-.07,3.86-.07c2-.08,4.3-.13,7-.13a19.66,19.66,0,0,1,4.85.33,1.24,1.24,0,0,1,.86,1.26C290,19.12,289.51,19.34,288.5,19.34Z" transform="translate(0 0)"/><path class="cls-2" d="M277.94,36.29a1.75,1.75,0,0,1,.83-.33c.2,0,.29.14.29.4v.2q.27,0-3.53,2.9t-8.11,5.81c-2.89,1.94-4.7,2.9-5.45,2.9-1.27,0-1.91-.53-1.91-1.58q0-1.92,3.3-7.23c2.2-3.54,3.8-5.31,4.82-5.31.74,0,1.12.29,1.12.86s-1,2.13-3,4.68-3,4.38-3,5.48q0,.93.69.93c.46,0,1.62-.62,3.46-1.85q5-3.3,9.11-6.67Zm-5.44-8.9a1.28,1.28,0,0,1,1,.39,1.62,1.62,0,0,1,.36,1.12,3.17,3.17,0,0,1-1,1.85c-.66.75-1.23,1.12-1.71,1.12a1.24,1.24,0,0,1-1.06-.43,1.55,1.55,0,0,1-.33-1,3.7,3.7,0,0,1,1.06-1.81C271.52,27.8,272.08,27.39,272.5,27.39Z" transform="translate(0 0)"/><path class="cls-2" d="M282.89,41.64q3.69,0,8.84-4.16l1.13.33c-4.32,3.61-8,5.41-11.16,5.41a3.88,3.88,0,0,1-.79-.06A16.66,16.66,0,0,1,277,46.69a7.16,7.16,0,0,1-3.7,1.35c-1.67,0-2.51-.93-2.51-2.8s1.57-4.37,4.69-7.49a10.41,10.41,0,0,1-.79-4,4.3,4.3,0,0,1,1.52-3.43A5.2,5.2,0,0,1,279.76,29a4.72,4.72,0,0,1,3.39,1.32,4.92,4.92,0,0,1,1.39,3.76,13.67,13.67,0,0,1-2.44,7.52A3.12,3.12,0,0,0,282.89,41.64Zm-9.37,3.23c0,.88.57,1.32,1.72,1.32s2.59-1.16,4.35-3.49a8.37,8.37,0,0,1-3.17-3.24C274.49,41.57,273.52,43.38,273.52,44.87ZM280.78,41a12,12,0,0,0,2-5.84,4.76,4.76,0,0,0-1.18-3.56,3.43,3.43,0,0,0-2.31-1.16A2.07,2.07,0,0,0,277,32.8a11.41,11.41,0,0,0,1.05,4.71A8.07,8.07,0,0,0,280.78,41Z" transform="translate(0 0)"/><path class="cls-2" d="M319.84,36.56q-13.92,11.61-17.22,11.61c-1.28,0-1.91-.53-1.91-1.58a7.19,7.19,0,0,1,1.42-3.76A39.1,39.1,0,0,1,305,39a6.58,6.58,0,0,0,1.42-2c0-.22-.06-.33-.2-.33q-6.14,4.1-7.29,5l-3.76,3q-2.61,2.1-3.4,2.63a3,3,0,0,1-1.71.53c-.62,0-.93-.26-.93-.79s1.23-2.55,3.7-5.81,3.56-5.08,3.56-5.47c0-.09-.08-.14-.23-.14s-2.06,1.35-5.71,4l-.26-1c3.12-2.51,5.23-4.11,6.33-4.82a5.45,5.45,0,0,1,2.68-1.05.89.89,0,0,1,1,1q0,.66-3.73,5.38c-2.48,3.14-3.73,4.84-3.73,5.08s.08.36.23.36,2.66-1.77,7.53-5.31S308.3,34,309.35,34a1.37,1.37,0,0,1,.89.37,1,1,0,0,1,.43.69c0,.53-1.16,2.28-3.5,5.25s-3.49,4.65-3.49,5.05.27.59.82.59,1.73-.59,3.53-1.78a101.69,101.69,0,0,0,9.11-6.67l1.45-1.19a1.5,1.5,0,0,1,.86-.33.35.35,0,0,1,.39.4Z" transform="translate(0 0)"/></g></g></svg>