<svg width="497" height="179" viewBox="0 0 497 179" fill="none" xmlns="http://www.w3.org/2000/svg">
<path d="M6.80859 156L34.2988 84.418H44.5039L73.8008 156H63.0098L54.6602 134.32H24.7285L16.8672 156H6.80859ZM27.4629 126.605H51.7305L44.2598 106.781C41.9811 100.759 40.2884 95.8112 39.1816 91.9375C38.2702 96.5273 36.9844 101.085 35.3242 105.609L27.4629 126.605ZM80.2949 94.5254V84.418H89.084V94.5254H80.2949ZM80.2949 156V104.145H89.084V156H80.2949ZM102.512 156V104.145H110.373V111.42C112.001 108.881 114.165 106.846 116.867 105.316C119.569 103.754 122.645 102.973 126.096 102.973C129.937 102.973 133.078 103.77 135.52 105.365C137.993 106.96 139.735 109.19 140.744 112.055C144.846 106 150.184 102.973 156.76 102.973C161.903 102.973 165.858 104.405 168.625 107.27C171.392 110.102 172.775 114.48 172.775 120.404V156H164.035V123.334C164.035 119.818 163.742 117.296 163.156 115.766C162.603 114.203 161.577 112.95 160.08 112.006C158.583 111.062 156.825 110.59 154.807 110.59C151.161 110.59 148.133 111.811 145.725 114.252C143.316 116.661 142.111 120.535 142.111 125.873V156H133.322V122.309C133.322 118.402 132.606 115.473 131.174 113.52C129.742 111.566 127.398 110.59 124.143 110.59C121.669 110.59 119.374 111.241 117.258 112.543C115.174 113.845 113.661 115.749 112.717 118.256C111.773 120.762 111.301 124.376 111.301 129.096V156H102.512ZM185.861 94.5254V84.418H194.65V94.5254H185.861ZM185.861 156V104.145H194.65V156H185.861ZM207.883 156V84.418H216.672V156H207.883ZM229.953 175.971L228.977 167.719C230.897 168.24 232.574 168.5 234.006 168.5C235.959 168.5 237.521 168.174 238.693 167.523C239.865 166.872 240.826 165.961 241.574 164.789C242.128 163.91 243.023 161.729 244.26 158.246C244.423 157.758 244.683 157.042 245.041 156.098L225.363 104.145H234.836L245.627 134.174C247.027 137.982 248.28 141.986 249.387 146.186C250.396 142.149 251.6 138.21 253 134.369L264.084 104.145H272.873L253.146 156.879C251.031 162.576 249.387 166.498 248.215 168.646C246.652 171.544 244.862 173.66 242.844 174.994C240.826 176.361 238.417 177.045 235.617 177.045C233.924 177.045 232.036 176.687 229.953 175.971ZM295.871 156L323.361 84.418H333.566L362.863 156H352.072L343.723 134.32H313.791L305.93 156H295.871ZM316.525 126.605H340.793L333.322 106.781C331.044 100.759 329.351 95.8112 328.244 91.9375C327.333 96.5273 326.047 101.085 324.387 105.609L316.525 126.605ZM369.309 175.873V104.145H377.316V110.883C379.204 108.246 381.337 106.277 383.713 104.975C386.089 103.64 388.97 102.973 392.355 102.973C396.783 102.973 400.689 104.112 404.074 106.391C407.46 108.669 410.015 111.892 411.74 116.059C413.465 120.193 414.328 124.734 414.328 129.682C414.328 134.988 413.368 139.773 411.447 144.037C409.559 148.269 406.792 151.524 403.146 153.803C399.533 156.049 395.725 157.172 391.721 157.172C388.791 157.172 386.154 156.553 383.811 155.316C381.499 154.079 379.595 152.517 378.098 150.629V175.873H369.309ZM377.268 130.365C377.268 137.038 378.618 141.97 381.32 145.16C384.022 148.35 387.294 149.945 391.135 149.945C395.041 149.945 398.378 148.301 401.145 145.014C403.944 141.693 405.344 136.566 405.344 129.633C405.344 123.025 403.977 118.077 401.242 114.789C398.54 111.501 395.301 109.857 391.525 109.857C387.782 109.857 384.462 111.615 381.564 115.131C378.7 118.614 377.268 123.692 377.268 130.365ZM424.973 175.873V104.145H432.98V110.883C434.868 108.246 437.001 106.277 439.377 104.975C441.753 103.64 444.634 102.973 448.02 102.973C452.447 102.973 456.353 104.112 459.738 106.391C463.124 108.669 465.679 111.892 467.404 116.059C469.13 120.193 469.992 124.734 469.992 129.682C469.992 134.988 469.032 139.773 467.111 144.037C465.223 148.269 462.456 151.524 458.811 153.803C455.197 156.049 451.389 157.172 447.385 157.172C444.455 157.172 441.818 156.553 439.475 155.316C437.163 154.079 435.259 152.517 433.762 150.629V175.873H424.973ZM432.932 130.365C432.932 137.038 434.283 141.97 436.984 145.16C439.686 148.35 442.958 149.945 446.799 149.945C450.705 149.945 454.042 148.301 456.809 145.014C459.608 141.693 461.008 136.566 461.008 129.633C461.008 123.025 459.641 118.077 456.906 114.789C454.204 111.501 450.965 109.857 447.189 109.857C443.446 109.857 440.126 111.615 437.229 115.131C434.364 118.614 432.932 123.692 432.932 130.365Z" fill="black"/>
<path d="M484.5 73C477.608 73 472 78.605 472 85.4987C472 92.3898 477.608 97.9976 484.5 97.9976C491.393 97.9976 497 92.3898 497 85.4987C497 78.605 491.393 73 484.5 73ZM484.5 95.2129C479.143 95.2129 474.785 90.8552 474.785 85.4988C474.785 80.1401 479.143 75.7825 484.5 75.7825C489.858 75.7825 494.215 80.1402 494.215 85.4988C494.215 90.8552 489.857 95.2129 484.5 95.2129Z" fill="black"/>
<path d="M488.603 87.7625C487.804 89.1327 486.319 89.9827 484.728 89.9827C482.256 89.9827 480.243 87.97 480.243 85.4983C480.243 83.0246 482.256 81.0112 484.728 81.0112C486.319 81.0112 487.804 81.8643 488.603 83.2318L488.706 83.4106H491.718L491.537 82.9256C491.013 81.5368 490.093 80.356 488.876 79.5132C487.655 78.6682 486.221 78.22 484.728 78.22C480.715 78.22 477.452 81.486 477.452 85.4983C477.452 89.5109 480.715 92.7739 484.728 92.7739C486.221 92.7739 487.655 92.3271 488.876 91.4808C490.093 90.6378 491.013 89.4574 491.537 88.0687L491.718 87.5834H488.706L488.603 87.7625Z" fill="black"/>
<path d="M20.2891 25.7695V22.4102L32.418 22.3906V33.0156C30.556 34.5 28.6354 35.6198 26.6562 36.375C24.6771 37.1172 22.6458 37.4883 20.5625 37.4883C17.75 37.4883 15.1914 36.8893 12.8867 35.6914C10.5951 34.4805 8.86328 32.7357 7.69141 30.457C6.51953 28.1784 5.93359 25.6328 5.93359 22.8203C5.93359 20.0339 6.51302 17.4362 7.67188 15.0273C8.84375 12.6055 10.5234 10.8086 12.7109 9.63672C14.8984 8.46484 17.418 7.87891 20.2695 7.87891C22.3398 7.87891 24.2083 8.21745 25.875 8.89453C27.5547 9.55859 28.8698 10.4896 29.8203 11.6875C30.7708 12.8854 31.4935 14.4479 31.9883 16.375L28.5703 17.3125C28.1406 15.8542 27.6068 14.7083 26.9688 13.875C26.3307 13.0417 25.4193 12.3776 24.2344 11.8828C23.0495 11.375 21.7344 11.1211 20.2891 11.1211C18.5573 11.1211 17.0599 11.388 15.7969 11.9219C14.5339 12.4427 13.5117 13.1328 12.7305 13.9922C11.9622 14.8516 11.3633 15.7956 10.9336 16.8242C10.2044 18.5951 9.83984 20.5156 9.83984 22.5859C9.83984 25.138 10.276 27.2734 11.1484 28.9922C12.0339 30.7109 13.3164 31.987 14.9961 32.8203C16.6758 33.6536 18.4596 34.0703 20.3477 34.0703C21.9883 34.0703 23.5898 33.7578 25.1523 33.1328C26.7148 32.4948 27.8997 31.8177 28.707 31.1016V25.7695H20.2891ZM51.7734 30.3203L55.4062 30.7695C54.8333 32.8919 53.7721 34.5391 52.2227 35.7109C50.6732 36.8828 48.694 37.4688 46.2852 37.4688C43.2513 37.4688 40.8424 36.5378 39.0586 34.6758C37.2878 32.8008 36.4023 30.1771 36.4023 26.8047C36.4023 23.3151 37.3008 20.6068 39.0977 18.6797C40.8945 16.7526 43.2253 15.7891 46.0898 15.7891C48.8633 15.7891 51.1289 16.7331 52.8867 18.6211C54.6445 20.5091 55.5234 23.1654 55.5234 26.5898C55.5234 26.7982 55.5169 27.1107 55.5039 27.5273H40.0352C40.1654 29.806 40.8099 31.5508 41.9688 32.7617C43.1276 33.9727 44.5729 34.5781 46.3047 34.5781C47.5938 34.5781 48.694 34.2396 49.6055 33.5625C50.5169 32.8854 51.2396 31.8047 51.7734 30.3203ZM40.2305 24.6367H51.8125C51.6562 22.8919 51.2135 21.5833 50.4844 20.7109C49.3646 19.3568 47.9128 18.6797 46.1289 18.6797C44.5143 18.6797 43.1536 19.2201 42.0469 20.3008C40.9531 21.3815 40.3477 22.8268 40.2305 24.6367ZM67.5156 33.8555L68.0234 36.9609C67.0339 37.1693 66.1484 37.2734 65.3672 37.2734C64.0911 37.2734 63.1016 37.0716 62.3984 36.668C61.6953 36.2643 61.2005 35.737 60.9141 35.0859C60.6276 34.4219 60.4844 33.0352 60.4844 30.9258V18.9922H57.9062V16.2578H60.4844V11.1211L63.9805 9.01172V16.2578H67.5156V18.9922H63.9805V31.1211C63.9805 32.1237 64.0391 32.7682 64.1562 33.0547C64.2865 33.3411 64.4883 33.569 64.7617 33.7383C65.0482 33.9076 65.4518 33.9922 65.9727 33.9922C66.3633 33.9922 66.8776 33.9466 67.5156 33.8555ZM80.6992 30.8086L84.1758 30.2617C84.3711 31.6549 84.9115 32.7227 85.7969 33.4648C86.6953 34.207 87.9453 34.5781 89.5469 34.5781C91.1615 34.5781 92.3594 34.2526 93.1406 33.6016C93.9219 32.9375 94.3125 32.1628 94.3125 31.2773C94.3125 30.4831 93.9674 29.8581 93.2773 29.4023C92.7956 29.0898 91.5977 28.6927 89.6836 28.2109C87.1055 27.5599 85.3151 27 84.3125 26.5312C83.3229 26.0495 82.5677 25.3919 82.0469 24.5586C81.5391 23.7122 81.2852 22.7812 81.2852 21.7656C81.2852 20.8411 81.4935 19.9883 81.9102 19.207C82.3398 18.4128 82.9193 17.7552 83.6484 17.2344C84.1953 16.8307 84.9375 16.4922 85.875 16.2188C86.8255 15.9323 87.8411 15.7891 88.9219 15.7891C90.5495 15.7891 91.9753 16.0234 93.1992 16.4922C94.4362 16.9609 95.3477 17.599 95.9336 18.4062C96.5195 19.2005 96.9232 20.2682 97.1445 21.6094L93.707 22.0781C93.5508 21.0104 93.0951 20.1771 92.3398 19.5781C91.5977 18.9792 90.543 18.6797 89.1758 18.6797C87.5612 18.6797 86.4089 18.9466 85.7188 19.4805C85.0286 20.0143 84.6836 20.6393 84.6836 21.3555C84.6836 21.8112 84.8268 22.2214 85.1133 22.5859C85.3997 22.9635 85.849 23.276 86.4609 23.5234C86.8125 23.6536 87.8477 23.9531 89.5664 24.4219C92.0534 25.0859 93.7852 25.6328 94.7617 26.0625C95.7513 26.4792 96.526 27.0911 97.0859 27.8984C97.6458 28.7057 97.9258 29.7083 97.9258 30.9062C97.9258 32.0781 97.5807 33.1849 96.8906 34.2266C96.2135 35.2552 95.2305 36.056 93.9414 36.6289C92.6523 37.1888 91.194 37.4688 89.5664 37.4688C86.8711 37.4688 84.8138 36.9089 83.3945 35.7891C81.9883 34.6693 81.0898 33.0091 80.6992 30.8086ZM109.781 33.8555L110.289 36.9609C109.299 37.1693 108.414 37.2734 107.633 37.2734C106.357 37.2734 105.367 37.0716 104.664 36.668C103.961 36.2643 103.466 35.737 103.18 35.0859C102.893 34.4219 102.75 33.0352 102.75 30.9258V18.9922H100.172V16.2578H102.75V11.1211L106.246 9.01172V16.2578H109.781V18.9922H106.246V31.1211C106.246 32.1237 106.305 32.7682 106.422 33.0547C106.552 33.3411 106.754 33.569 107.027 33.7383C107.314 33.9076 107.717 33.9922 108.238 33.9922C108.629 33.9922 109.143 33.9466 109.781 33.8555ZM126.773 34.4414C125.471 35.5482 124.215 36.3294 123.004 36.7852C121.806 37.2409 120.517 37.4688 119.137 37.4688C116.858 37.4688 115.107 36.9154 113.883 35.8086C112.659 34.6888 112.047 33.263 112.047 31.5312C112.047 30.5156 112.275 29.5911 112.73 28.7578C113.199 27.9115 113.805 27.2344 114.547 26.7266C115.302 26.2188 116.148 25.8346 117.086 25.5742C117.776 25.3919 118.818 25.2161 120.211 25.0469C123.049 24.7083 125.139 24.3047 126.48 23.8359C126.493 23.3542 126.5 23.0482 126.5 22.918C126.5 21.4857 126.168 20.4766 125.504 19.8906C124.605 19.0964 123.271 18.6992 121.5 18.6992C119.846 18.6992 118.622 18.9922 117.828 19.5781C117.047 20.151 116.467 21.1732 116.09 22.6445L112.652 22.1758C112.965 20.7044 113.479 19.5195 114.195 18.6211C114.911 17.7096 115.947 17.013 117.301 16.5312C118.655 16.0365 120.224 15.7891 122.008 15.7891C123.779 15.7891 125.217 15.9974 126.324 16.4141C127.431 16.8307 128.245 17.3581 128.766 17.9961C129.286 18.6211 129.651 19.4154 129.859 20.3789C129.977 20.9779 130.035 22.0586 130.035 23.6211V28.3086C130.035 31.5768 130.107 33.6471 130.25 34.5195C130.406 35.3789 130.706 36.2057 131.148 37H127.477C127.112 36.2708 126.878 35.418 126.773 34.4414ZM126.48 26.5898C125.204 27.1107 123.29 27.5534 120.738 27.918C119.293 28.1263 118.271 28.3607 117.672 28.6211C117.073 28.8815 116.611 29.2656 116.285 29.7734C115.96 30.2682 115.797 30.8216 115.797 31.4336C115.797 32.3711 116.148 33.1523 116.852 33.7773C117.568 34.4023 118.609 34.7148 119.977 34.7148C121.331 34.7148 122.535 34.4219 123.59 33.8359C124.645 33.237 125.419 32.4232 125.914 31.3945C126.292 30.6003 126.48 29.4284 126.48 27.8789V26.5898ZM135.465 37V16.2578H138.629V19.4023C139.436 17.931 140.178 16.9609 140.855 16.4922C141.546 16.0234 142.301 15.7891 143.121 15.7891C144.306 15.7891 145.51 16.1667 146.734 16.9219L145.523 20.1836C144.664 19.6758 143.805 19.4219 142.945 19.4219C142.177 19.4219 141.487 19.6562 140.875 20.125C140.263 20.5807 139.827 21.2188 139.566 22.0391C139.176 23.2891 138.98 24.6562 138.98 26.1406V37H135.465ZM156.5 33.8555L157.008 36.9609C156.018 37.1693 155.133 37.2734 154.352 37.2734C153.076 37.2734 152.086 37.0716 151.383 36.668C150.68 36.2643 150.185 35.737 149.898 35.0859C149.612 34.4219 149.469 33.0352 149.469 30.9258V18.9922H146.891V16.2578H149.469V11.1211L152.965 9.01172V16.2578H156.5V18.9922H152.965V31.1211C152.965 32.1237 153.023 32.7682 153.141 33.0547C153.271 33.3411 153.473 33.569 153.746 33.7383C154.033 33.9076 154.436 33.9922 154.957 33.9922C155.348 33.9922 155.862 33.9466 156.5 33.8555ZM174.156 30.3203L177.789 30.7695C177.216 32.8919 176.155 34.5391 174.605 35.7109C173.056 36.8828 171.077 37.4688 168.668 37.4688C165.634 37.4688 163.225 36.5378 161.441 34.6758C159.671 32.8008 158.785 30.1771 158.785 26.8047C158.785 23.3151 159.684 20.6068 161.48 18.6797C163.277 16.7526 165.608 15.7891 168.473 15.7891C171.246 15.7891 173.512 16.7331 175.27 18.6211C177.027 20.5091 177.906 23.1654 177.906 26.5898C177.906 26.7982 177.9 27.1107 177.887 27.5273H162.418C162.548 29.806 163.193 31.5508 164.352 32.7617C165.51 33.9727 166.956 34.5781 168.688 34.5781C169.977 34.5781 171.077 34.2396 171.988 33.5625C172.9 32.8854 173.622 31.8047 174.156 30.3203ZM162.613 24.6367H174.195C174.039 22.8919 173.596 21.5833 172.867 20.7109C171.747 19.3568 170.296 18.6797 168.512 18.6797C166.897 18.6797 165.536 19.2201 164.43 20.3008C163.336 21.3815 162.73 22.8268 162.613 24.6367ZM195.68 37V34.3828C194.365 36.4401 192.431 37.4688 189.879 37.4688C188.225 37.4688 186.702 37.013 185.309 36.1016C183.928 35.1901 182.854 33.9206 182.086 32.293C181.331 30.6523 180.953 28.7708 180.953 26.6484C180.953 24.5781 181.298 22.7031 181.988 21.0234C182.678 19.3307 183.714 18.0352 185.094 17.1367C186.474 16.2383 188.017 15.7891 189.723 15.7891C190.973 15.7891 192.086 16.056 193.062 16.5898C194.039 17.1107 194.833 17.7943 195.445 18.6406V8.36719H198.941V37H195.68ZM184.566 26.6484C184.566 29.3047 185.126 31.2904 186.246 32.6055C187.366 33.9206 188.688 34.5781 190.211 34.5781C191.747 34.5781 193.049 33.9531 194.117 32.7031C195.198 31.4401 195.738 29.5195 195.738 26.9414C195.738 24.1029 195.191 22.0195 194.098 20.6914C193.004 19.3633 191.656 18.6992 190.055 18.6992C188.492 18.6992 187.184 19.3372 186.129 20.6133C185.087 21.8893 184.566 23.901 184.566 26.6484ZM219.449 37L213.102 16.2578H216.734L220.035 28.2305L221.266 32.6836C221.318 32.4622 221.676 31.0365 222.34 28.4062L225.641 16.2578H229.254L232.359 28.2891L233.395 32.2539L234.586 28.25L238.141 16.2578H241.559L235.074 37H231.422L228.121 24.5781L227.32 21.043L223.121 37H219.449ZM244.547 12.4102V8.36719H248.062V12.4102H244.547ZM244.547 37V16.2578H248.062V37H244.547ZM261.109 33.8555L261.617 36.9609C260.628 37.1693 259.742 37.2734 258.961 37.2734C257.685 37.2734 256.695 37.0716 255.992 36.668C255.289 36.2643 254.794 35.737 254.508 35.0859C254.221 34.4219 254.078 33.0352 254.078 30.9258V18.9922H251.5V16.2578H254.078V11.1211L257.574 9.01172V16.2578H261.109V18.9922H257.574V31.1211C257.574 32.1237 257.633 32.7682 257.75 33.0547C257.88 33.3411 258.082 33.569 258.355 33.7383C258.642 33.9076 259.046 33.9922 259.566 33.9922C259.957 33.9922 260.471 33.9466 261.109 33.8555ZM264.566 37V8.36719H268.082V18.6406C269.723 16.7396 271.793 15.7891 274.293 15.7891C275.829 15.7891 277.164 16.0951 278.297 16.707C279.43 17.306 280.237 18.1393 280.719 19.207C281.214 20.2747 281.461 21.8242 281.461 23.8555V37H277.945V23.8555C277.945 22.0977 277.561 20.8216 276.793 20.0273C276.038 19.2201 274.964 18.8164 273.57 18.8164C272.529 18.8164 271.546 19.0898 270.621 19.6367C269.71 20.1706 269.059 20.8997 268.668 21.8242C268.277 22.7487 268.082 24.0247 268.082 25.6523V37H264.566Z" fill="black"/>
</svg>