<svg width="497" height="169" viewBox="0 0 497 169" fill="none" xmlns="http://www.w3.org/2000/svg">
<path d="M6.80859 146L34.2988 74.418H44.5039L73.8008 146H63.0098L54.6602 124.32H24.7285L16.8672 146H6.80859ZM27.4629 116.605H51.7305L44.2598 96.7812C41.9811 90.7591 40.2884 85.8112 39.1816 81.9375C38.2702 86.5273 36.9844 91.0846 35.3242 95.6094L27.4629 116.605ZM80.2949 84.5254V74.418H89.084V84.5254H80.2949ZM80.2949 146V94.1445H89.084V146H80.2949ZM102.512 146V94.1445H110.373V101.42C112.001 98.8809 114.165 96.8464 116.867 95.3164C119.569 93.7539 122.645 92.9727 126.096 92.9727C129.937 92.9727 133.078 93.7702 135.52 95.3652C137.993 96.9603 139.735 99.1901 140.744 102.055C144.846 96 150.184 92.9727 156.76 92.9727C161.903 92.9727 165.858 94.4049 168.625 97.2695C171.392 100.102 172.775 104.48 172.775 110.404V146H164.035V113.334C164.035 109.818 163.742 107.296 163.156 105.766C162.603 104.203 161.577 102.95 160.08 102.006C158.583 101.062 156.825 100.59 154.807 100.59C151.161 100.59 148.133 101.811 145.725 104.252C143.316 106.661 142.111 110.535 142.111 115.873V146H133.322V112.309C133.322 108.402 132.606 105.473 131.174 103.52C129.742 101.566 127.398 100.59 124.143 100.59C121.669 100.59 119.374 101.241 117.258 102.543C115.174 103.845 113.661 105.749 112.717 108.256C111.773 110.762 111.301 114.376 111.301 119.096V146H102.512ZM185.861 84.5254V74.418H194.65V84.5254H185.861ZM185.861 146V94.1445H194.65V146H185.861ZM207.883 146V74.418H216.672V146H207.883ZM229.953 165.971L228.977 157.719C230.897 158.24 232.574 158.5 234.006 158.5C235.959 158.5 237.521 158.174 238.693 157.523C239.865 156.872 240.826 155.961 241.574 154.789C242.128 153.91 243.023 151.729 244.26 148.246C244.423 147.758 244.683 147.042 245.041 146.098L225.363 94.1445H234.836L245.627 124.174C247.027 127.982 248.28 131.986 249.387 136.186C250.396 132.149 251.6 128.21 253 124.369L264.084 94.1445H272.873L253.146 146.879C251.031 152.576 249.387 156.498 248.215 158.646C246.652 161.544 244.862 163.66 242.844 164.994C240.826 166.361 238.417 167.045 235.617 167.045C233.924 167.045 232.036 166.687 229.953 165.971ZM295.871 146L323.361 74.418H333.566L362.863 146H352.072L343.723 124.32H313.791L305.93 146H295.871ZM316.525 116.605H340.793L333.322 96.7812C331.044 90.7591 329.351 85.8112 328.244 81.9375C327.333 86.5273 326.047 91.0846 324.387 95.6094L316.525 116.605ZM369.309 165.873V94.1445H377.316V100.883C379.204 98.2461 381.337 96.2767 383.713 94.9746C386.089 93.64 388.97 92.9727 392.355 92.9727C396.783 92.9727 400.689 94.112 404.074 96.3906C407.46 98.6693 410.015 101.892 411.74 106.059C413.465 110.193 414.328 114.734 414.328 119.682C414.328 124.988 413.368 129.773 411.447 134.037C409.559 138.269 406.792 141.524 403.146 143.803C399.533 146.049 395.725 147.172 391.721 147.172C388.791 147.172 386.154 146.553 383.811 145.316C381.499 144.079 379.595 142.517 378.098 140.629V165.873H369.309ZM377.268 120.365C377.268 127.038 378.618 131.97 381.32 135.16C384.022 138.35 387.294 139.945 391.135 139.945C395.041 139.945 398.378 138.301 401.145 135.014C403.944 131.693 405.344 126.566 405.344 119.633C405.344 113.025 403.977 108.077 401.242 104.789C398.54 101.501 395.301 99.8574 391.525 99.8574C387.782 99.8574 384.462 101.615 381.564 105.131C378.7 108.614 377.268 113.692 377.268 120.365ZM424.973 165.873V94.1445H432.98V100.883C434.868 98.2461 437.001 96.2767 439.377 94.9746C441.753 93.64 444.634 92.9727 448.02 92.9727C452.447 92.9727 456.353 94.112 459.738 96.3906C463.124 98.6693 465.679 101.892 467.404 106.059C469.13 110.193 469.992 114.734 469.992 119.682C469.992 124.988 469.032 129.773 467.111 134.037C465.223 138.269 462.456 141.524 458.811 143.803C455.197 146.049 451.389 147.172 447.385 147.172C444.455 147.172 441.818 146.553 439.475 145.316C437.163 144.079 435.259 142.517 433.762 140.629V165.873H424.973ZM432.932 120.365C432.932 127.038 434.283 131.97 436.984 135.16C439.686 138.35 442.958 139.945 446.799 139.945C450.705 139.945 454.042 138.301 456.809 135.014C459.608 131.693 461.008 126.566 461.008 119.633C461.008 113.025 459.641 108.077 456.906 104.789C454.204 101.501 450.965 99.8574 447.189 99.8574C443.446 99.8574 440.126 101.615 437.229 105.131C434.364 108.614 432.932 113.692 432.932 120.365Z" fill="black"/>
<path d="M484.5 63C477.608 63 472 68.605 472 75.4987C472 82.3898 477.608 87.9976 484.5 87.9976C491.393 87.9976 497 82.3898 497 75.4987C497 68.605 491.393 63 484.5 63ZM484.5 85.2129C479.143 85.2129 474.785 80.8552 474.785 75.4988C474.785 70.1401 479.143 65.7825 484.5 65.7825C489.858 65.7825 494.215 70.1402 494.215 75.4988C494.215 80.8552 489.857 85.2129 484.5 85.2129Z" fill="black"/>
<path d="M488.603 77.7625C487.804 79.1327 486.319 79.9827 484.728 79.9827C482.256 79.9827 480.243 77.97 480.243 75.4983C480.243 73.0246 482.256 71.0112 484.728 71.0112C486.319 71.0112 487.804 71.8643 488.603 73.2318L488.706 73.4106H491.718L491.537 72.9256C491.013 71.5368 490.093 70.356 488.876 69.5132C487.655 68.6682 486.221 68.22 484.728 68.22C480.715 68.22 477.452 71.486 477.452 75.4983C477.452 79.5109 480.715 82.7739 484.728 82.7739C486.221 82.7739 487.655 82.3271 488.876 81.4808C490.093 80.6378 491.013 79.4574 491.537 78.0687L491.718 77.5834H488.706L488.603 77.7625Z" fill="black"/>
<path d="M27.2148 25.7695V22.4102L39.3438 22.3906V33.0156C37.4818 34.5 35.5612 35.6198 33.582 36.375C31.6029 37.1172 29.5716 37.4883 27.4883 37.4883C24.6758 37.4883 22.1172 36.8893 19.8125 35.6914C17.5208 34.4805 15.7891 32.7357 14.6172 30.457C13.4453 28.1784 12.8594 25.6328 12.8594 22.8203C12.8594 20.0339 13.4388 17.4362 14.5977 15.0273C15.7695 12.6055 17.4492 10.8086 19.6367 9.63672C21.8242 8.46484 24.3438 7.87891 27.1953 7.87891C29.2656 7.87891 31.1341 8.21745 32.8008 8.89453C34.4805 9.55859 35.7956 10.4896 36.7461 11.6875C37.6966 12.8854 38.4193 14.4479 38.9141 16.375L35.4961 17.3125C35.0664 15.8542 34.5326 14.7083 33.8945 13.875C33.2565 13.0417 32.3451 12.3776 31.1602 11.8828C29.9753 11.375 28.6602 11.1211 27.2148 11.1211C25.4831 11.1211 23.9857 11.388 22.7227 11.9219C21.4596 12.4427 20.4375 13.1328 19.6562 13.9922C18.888 14.8516 18.2891 15.7956 17.8594 16.8242C17.1302 18.5951 16.7656 20.5156 16.7656 22.5859C16.7656 25.138 17.2018 27.2734 18.0742 28.9922C18.9596 30.7109 20.2422 31.987 21.9219 32.8203C23.6016 33.6536 25.3854 34.0703 27.2734 34.0703C28.9141 34.0703 30.5156 33.7578 32.0781 33.1328C33.6406 32.4948 34.8255 31.8177 35.6328 31.1016V25.7695H27.2148ZM58.6992 30.3203L62.332 30.7695C61.7591 32.8919 60.6979 34.5391 59.1484 35.7109C57.599 36.8828 55.6198 37.4688 53.2109 37.4688C50.1771 37.4688 47.7682 36.5378 45.9844 34.6758C44.2135 32.8008 43.3281 30.1771 43.3281 26.8047C43.3281 23.3151 44.2266 20.6068 46.0234 18.6797C47.8203 16.7526 50.151 15.7891 53.0156 15.7891C55.7891 15.7891 58.0547 16.7331 59.8125 18.6211C61.5703 20.5091 62.4492 23.1654 62.4492 26.5898C62.4492 26.7982 62.4427 27.1107 62.4297 27.5273H46.9609C47.0911 29.806 47.7357 31.5508 48.8945 32.7617C50.0534 33.9727 51.4987 34.5781 53.2305 34.5781C54.5195 34.5781 55.6198 34.2396 56.5312 33.5625C57.4427 32.8854 58.1654 31.8047 58.6992 30.3203ZM47.1562 24.6367H58.7383C58.582 22.8919 58.1393 21.5833 57.4102 20.7109C56.2904 19.3568 54.8385 18.6797 53.0547 18.6797C51.4401 18.6797 50.0794 19.2201 48.9727 20.3008C47.8789 21.3815 47.2734 22.8268 47.1562 24.6367ZM74.4414 33.8555L74.9492 36.9609C73.9596 37.1693 73.0742 37.2734 72.293 37.2734C71.0169 37.2734 70.0273 37.0716 69.3242 36.668C68.6211 36.2643 68.1263 35.737 67.8398 35.0859C67.5534 34.4219 67.4102 33.0352 67.4102 30.9258V18.9922H64.832V16.2578H67.4102V11.1211L70.9062 9.01172V16.2578H74.4414V18.9922H70.9062V31.1211C70.9062 32.1237 70.9648 32.7682 71.082 33.0547C71.2122 33.3411 71.4141 33.569 71.6875 33.7383C71.974 33.9076 72.3776 33.9922 72.8984 33.9922C73.2891 33.9922 73.8034 33.9466 74.4414 33.8555ZM88.1914 27.8008L91.7656 27.4883C91.9349 28.9206 92.3255 30.099 92.9375 31.0234C93.5625 31.9349 94.526 32.6771 95.8281 33.25C97.1302 33.8099 98.5951 34.0898 100.223 34.0898C101.668 34.0898 102.944 33.875 104.051 33.4453C105.158 33.0156 105.978 32.4297 106.512 31.6875C107.059 30.9323 107.332 30.112 107.332 29.2266C107.332 28.3281 107.072 27.5469 106.551 26.8828C106.03 26.2057 105.171 25.6393 103.973 25.1836C103.204 24.8841 101.505 24.4219 98.875 23.7969C96.2448 23.1589 94.4023 22.5599 93.3477 22C91.9805 21.2839 90.9583 20.3984 90.2812 19.3438C89.6172 18.276 89.2852 17.0846 89.2852 15.7695C89.2852 14.3242 89.6953 12.9766 90.5156 11.7266C91.3359 10.4635 92.5339 9.50651 94.1094 8.85547C95.6849 8.20443 97.4362 7.87891 99.3633 7.87891C101.486 7.87891 103.354 8.22396 104.969 8.91406C106.596 9.59115 107.846 10.5938 108.719 11.9219C109.591 13.25 110.06 14.7539 110.125 16.4336L106.492 16.707C106.297 14.8971 105.633 13.5299 104.5 12.6055C103.38 11.681 101.72 11.2188 99.5195 11.2188C97.2279 11.2188 95.5547 11.6419 94.5 12.4883C93.4583 13.3216 92.9375 14.3307 92.9375 15.5156C92.9375 16.5443 93.3086 17.3906 94.0508 18.0547C94.7799 18.7188 96.681 19.4023 99.7539 20.1055C102.84 20.7956 104.956 21.401 106.102 21.9219C107.768 22.6901 108.999 23.6667 109.793 24.8516C110.587 26.0234 110.984 27.3776 110.984 28.9141C110.984 30.4375 110.548 31.8763 109.676 33.2305C108.803 34.5716 107.547 35.6198 105.906 36.375C104.279 37.1172 102.443 37.4883 100.398 37.4883C97.8073 37.4883 95.6328 37.1107 93.875 36.3555C92.1302 35.6003 90.7565 34.4674 89.7539 32.957C88.7643 31.4336 88.2435 29.7148 88.1914 27.8008ZM123.387 33.8555L123.895 36.9609C122.905 37.1693 122.02 37.2734 121.238 37.2734C119.962 37.2734 118.973 37.0716 118.27 36.668C117.566 36.2643 117.072 35.737 116.785 35.0859C116.499 34.4219 116.355 33.0352 116.355 30.9258V18.9922H113.777V16.2578H116.355V11.1211L119.852 9.01172V16.2578H123.387V18.9922H119.852V31.1211C119.852 32.1237 119.91 32.7682 120.027 33.0547C120.158 33.3411 120.359 33.569 120.633 33.7383C120.919 33.9076 121.323 33.9922 121.844 33.9922C122.234 33.9922 122.749 33.9466 123.387 33.8555ZM140.379 34.4414C139.077 35.5482 137.82 36.3294 136.609 36.7852C135.411 37.2409 134.122 37.4688 132.742 37.4688C130.464 37.4688 128.712 36.9154 127.488 35.8086C126.264 34.6888 125.652 33.263 125.652 31.5312C125.652 30.5156 125.88 29.5911 126.336 28.7578C126.805 27.9115 127.41 27.2344 128.152 26.7266C128.908 26.2188 129.754 25.8346 130.691 25.5742C131.382 25.3919 132.423 25.2161 133.816 25.0469C136.655 24.7083 138.745 24.3047 140.086 23.8359C140.099 23.3542 140.105 23.0482 140.105 22.918C140.105 21.4857 139.773 20.4766 139.109 19.8906C138.211 19.0964 136.876 18.6992 135.105 18.6992C133.452 18.6992 132.228 18.9922 131.434 19.5781C130.652 20.151 130.073 21.1732 129.695 22.6445L126.258 22.1758C126.57 20.7044 127.085 19.5195 127.801 18.6211C128.517 17.7096 129.552 17.013 130.906 16.5312C132.26 16.0365 133.829 15.7891 135.613 15.7891C137.384 15.7891 138.823 15.9974 139.93 16.4141C141.036 16.8307 141.85 17.3581 142.371 17.9961C142.892 18.6211 143.257 19.4154 143.465 20.3789C143.582 20.9779 143.641 22.0586 143.641 23.6211V28.3086C143.641 31.5768 143.712 33.6471 143.855 34.5195C144.012 35.3789 144.311 36.2057 144.754 37H141.082C140.717 36.2708 140.483 35.418 140.379 34.4414ZM140.086 26.5898C138.81 27.1107 136.896 27.5534 134.344 27.918C132.898 28.1263 131.876 28.3607 131.277 28.6211C130.678 28.8815 130.216 29.2656 129.891 29.7734C129.565 30.2682 129.402 30.8216 129.402 31.4336C129.402 32.3711 129.754 33.1523 130.457 33.7773C131.173 34.4023 132.215 34.7148 133.582 34.7148C134.936 34.7148 136.141 34.4219 137.195 33.8359C138.25 33.237 139.025 32.4232 139.52 31.3945C139.897 30.6003 140.086 29.4284 140.086 27.8789V26.5898ZM149.07 37V16.2578H152.234V19.4023C153.042 17.931 153.784 16.9609 154.461 16.4922C155.151 16.0234 155.906 15.7891 156.727 15.7891C157.911 15.7891 159.116 16.1667 160.34 16.9219L159.129 20.1836C158.27 19.6758 157.41 19.4219 156.551 19.4219C155.783 19.4219 155.092 19.6562 154.48 20.125C153.868 20.5807 153.432 21.2188 153.172 22.0391C152.781 23.2891 152.586 24.6562 152.586 26.1406V37H149.07ZM170.105 33.8555L170.613 36.9609C169.624 37.1693 168.738 37.2734 167.957 37.2734C166.681 37.2734 165.691 37.0716 164.988 36.668C164.285 36.2643 163.79 35.737 163.504 35.0859C163.217 34.4219 163.074 33.0352 163.074 30.9258V18.9922H160.496V16.2578H163.074V11.1211L166.57 9.01172V16.2578H170.105V18.9922H166.57V31.1211C166.57 32.1237 166.629 32.7682 166.746 33.0547C166.876 33.3411 167.078 33.569 167.352 33.7383C167.638 33.9076 168.042 33.9922 168.562 33.9922C168.953 33.9922 169.467 33.9466 170.105 33.8555ZM188.523 37L182.176 16.2578H185.809L189.109 28.2305L190.34 32.6836C190.392 32.4622 190.75 31.0365 191.414 28.4062L194.715 16.2578H198.328L201.434 28.2891L202.469 32.2539L203.66 28.25L207.215 16.2578H210.633L204.148 37H200.496L197.195 24.5781L196.395 21.043L192.195 37H188.523ZM213.621 12.4102V8.36719H217.137V12.4102H213.621ZM213.621 37V16.2578H217.137V37H213.621ZM230.184 33.8555L230.691 36.9609C229.702 37.1693 228.816 37.2734 228.035 37.2734C226.759 37.2734 225.77 37.0716 225.066 36.668C224.363 36.2643 223.868 35.737 223.582 35.0859C223.296 34.4219 223.152 33.0352 223.152 30.9258V18.9922H220.574V16.2578H223.152V11.1211L226.648 9.01172V16.2578H230.184V18.9922H226.648V31.1211C226.648 32.1237 226.707 32.7682 226.824 33.0547C226.954 33.3411 227.156 33.569 227.43 33.7383C227.716 33.9076 228.12 33.9922 228.641 33.9922C229.031 33.9922 229.546 33.9466 230.184 33.8555ZM233.641 37V8.36719H237.156V18.6406C238.797 16.7396 240.867 15.7891 243.367 15.7891C244.904 15.7891 246.238 16.0951 247.371 16.707C248.504 17.306 249.311 18.1393 249.793 19.207C250.288 20.2747 250.535 21.8242 250.535 23.8555V37H247.02V23.8555C247.02 22.0977 246.635 20.8216 245.867 20.0273C245.112 19.2201 244.038 18.8164 242.645 18.8164C241.603 18.8164 240.62 19.0898 239.695 19.6367C238.784 20.1706 238.133 20.8997 237.742 21.8242C237.352 22.7487 237.156 24.0247 237.156 25.6523V37H233.641Z" fill="black"/>
</svg>
