<?xml version="1.0" standalone="no"?>
<!DOCTYPE svg PUBLIC "-//W3C//DTD SVG 1.1//EN"
  "http://www.w3.org/Graphics/SVG/1.1/DTD/svg11.dtd">
<svg version="1.1" xmlns="http://www.w3.org/2000/svg" xmlns:xlink="http://www.w3.org/1999/xlink" width="1280" height="759" viewBox="-992.3372859025033 -32 1792.6745718050065 1063" id="ccdiagram"><filter id="grayscale"><feColorMatrix type="matrix" values="0.3333 0.3333 0.3333 0 0 0.3333 0.3333 0.3333 0 0 0.3333 0.3333 0.3333 0 0 0 0 0 1 0"></feColorMatrix></filter><defs><style type="text/css">@import url('https://fonts.googleapis.com/css?family=Open+Sans:400,700|Inconsolata:400');</style></defs><g><g style="pointer-events: none;"><g><pattern id="gridPatternMinor" x="0" y="37" width="128" height="74" patternUnits="userSpaceOnUse"><path d="M 0 0 L 128 74" stroke="#eee" stroke-width="1"></path><path d="M 128 0 L 0 74" stroke="#eee" stroke-width="1"></path></pattern><polygon points="0 0, 768 444, -192 999, -960 555" fill="url(#gridPatternMinor)"></polygon></g><polygon points="-960 555, -960 565, -192 1009, -192 999" stroke-linejoin="round" stroke="#54626f" stroke-width="1" fill="#f9f9f9"></polygon><polygon points="-192 1009, 768 454, 768 444, -192 999" stroke-linejoin="round" stroke="#54626f" stroke-width="1" fill="#e2e2e2"></polygon></g><g pointer-events="auto"><g opacity="1"><g><g><polygon points="160 211, 480 396, 493 417, 477 519, 436 542, 260 551, 224 544, -96 359, -109 338, -93 236, -52 213, 124 203" fill="#000000" opacity="0.2"></polygon><polygon points="160 204, 480 389, 493 409, 477 511, 436 535, 260 544, 224 537, -96 352, -109 331, -93 229, -52 205, 124 196" fill="#ffffff" stroke-width="2" stroke="#818181"></polygon><polygon points="128 222, 448 407, 432 509, 256 518, -64 333, -48 231" fill="#e6e7e8" stroke-width="0" stroke="#818181"></polygon></g></g></g></g><g style="pointer-events: none;"><g><pattern id="gridPatternMajor" x="0" y="37" width="128" height="74" patternUnits="userSpaceOnUse"><path d="M 64 0 L 128 37 64 74 0 37 z" stroke="#54626f" stroke-width="1" fill="none"></path></pattern><polygon points="0 0, 768 444, -192 999, -960 555" fill="url(#gridPatternMajor)"></polygon></g></g><g pointer-events="auto"></g><g pointer-events="auto"></g><g></g><g pointer-events="auto"></g><g></g><g pointer-events="auto"></g><g pointer-events="auto"></g><g pointer-events="none"></g><g pointer-events="auto"><g id="b825b1ab-9e1f-4737-ae05-7f7087c27584-e544ef07-7490-45e2-941c-b6bccf2c821b"><g cursor="cell"><line x1="-368" y1="361" x2="-134" y2="496" stroke="red" stroke-width="8" opacity="0"></line><line x1="-368" y1="361" x2="-134" y2="496" stroke="#000000" stroke-width="2" stroke-linecap="round"></line><polygon points="-124 502, -133 487, -137 495, -150 496, -124 502" stroke-linejoin="round" fill="#000000" stroke="#000000" stroke-width="1"></polygon></g></g><g id="d2bc3dde-c590-4011-a201-3817c847bfd5-9863092b-b75c-4de0-8bac-fb90d30ed7aa"><g cursor="cell"><line x1="-304" y1="601" x2="-318" y2="658" stroke="red" stroke-width="8" opacity="0"></line><line x1="-304" y1="601" x2="-318" y2="658" stroke="#000000" stroke-width="2" stroke-linecap="round"></line><polygon points="-320 666, -305 653, -318 656, -328 651, -320 666" stroke-linejoin="round" fill="#000000" stroke="#000000" stroke-width="1"></polygon></g></g><g id="42a0a26e-2c17-4529-84f4-107aecd5a9d3-e544ef07-7490-45e2-941c-b6bccf2c821b"><g cursor="cell"><line x1="160" y1="389" x2="-29" y2="498" stroke="red" stroke-width="8" opacity="0"></line><line x1="160" y1="389" x2="-29" y2="498" stroke="#000000" stroke-width="2" stroke-linecap="round"></line><polygon points="-39 504, -14 498, -27 496, -30 489, -39 504" stroke-linejoin="round" fill="#000000" stroke="#000000" stroke-width="1"></polygon></g></g><g id="efaf6cdc-3f6b-4a03-9f3e-58be4f9bb2ab-b825b1ab-9e1f-4737-ae05-7f7087c27584"><g cursor="cell"><line x1="-333" y1="266" x2="-348" y2="342" stroke="red" stroke-width="8" opacity="0"></line><line x1="-333" y1="266" x2="-348" y2="342" stroke="#000000" stroke-width="2" stroke-linecap="round"></line><polygon points="-350 350, -336 337, -348 340, -358 335, -350 350" stroke-linejoin="round" fill="#000000" stroke="#000000" stroke-width="1"></polygon></g></g><g id="49ddaacb-3633-4173-baad-2639e7c65804-42a0a26e-2c17-4529-84f4-107aecd5a9d3"><g cursor="cell"><line x1="352" y1="278" x2="266" y2="327" stroke="red" stroke-width="8" opacity="0"></line><line x1="352" y1="278" x2="266" y2="327" stroke="#000000" stroke-width="2" stroke-linecap="round"></line><polygon points="256 333, 282 328, 268 326, 265 318, 256 333" stroke-linejoin="round" fill="#000000" stroke="#000000" stroke-width="1"></polygon></g></g><g id="e544ef07-7490-45e2-941c-b6bccf2c821b-19f80e78-d646-44f5-8f94-d342e41656a5"><g cursor="cell"><line x1="-101" y1="539" x2="-88" y2="672" stroke="red" stroke-width="8" opacity="0"></line><line x1="-101" y1="539" x2="-88" y2="672" stroke="#000000" stroke-width="2" stroke-linecap="round"></line><polygon points="-88 680, -78 665, -89 670, -100 666, -88 680" stroke-linejoin="round" fill="#000000" stroke="#000000" stroke-width="1"></polygon></g></g><g id="19f80e78-d646-44f5-8f94-d342e41656a5-d2bc3dde-c590-4011-a201-3817c847bfd5"><g cursor="cell"><line x1="-169" y1="661" x2="-262" y2="607" stroke="red" stroke-width="8" opacity="0"></line><line x1="-169" y1="661" x2="-262" y2="607" stroke="#000000" stroke-width="2" stroke-linecap="round"></line><polygon points="-272 601, -263 616, -260 608, -246 607, -272 601" stroke-linejoin="round" fill="#000000" stroke="#000000" stroke-width="1"></polygon></g></g><g id="9863092b-b75c-4de0-8bac-fb90d30ed7aa-2685515d-0fdf-4c31-b26d-7cf5ad8c321d"><g cursor="cell"><line x1="-416" y1="722" x2="-482" y2="760" stroke="red" stroke-width="8" opacity="0"></line><line x1="-416" y1="722" x2="-482" y2="760" stroke="#000000" stroke-width="2" stroke-linecap="round"></line><polygon points="-492 765, -466 760, -479 758, -482 750, -492 765" stroke-linejoin="round" fill="#000000" stroke="#000000" stroke-width="1"></polygon></g></g></g><g pointer-events="auto"><g opacity="1"><g id="49ddaacb-3633-4173-baad-2639e7c65804" transform="translate(0 0)"><g><polygon points="384 185, 448 222, 384 259, 320 222" fill="#fff"></polygon><polygon points="320 259, 384 296, 384 259, 320 222" fill="#e6e6e6" stroke="#999"></polygon><polygon points="384 296, 448 259, 448 222, 384 259" fill="#ccc" stroke="#999"></polygon><polygon points="384 185, 320 222, 320 259, 384 296, 448 259, 448 222" fill="none" stroke="#000000" stroke-width="2"></polygon></g></g></g><g opacity="1"><g id="42a0a26e-2c17-4529-84f4-107aecd5a9d3" transform="translate(0 0)"><g><polygon points="192 296, 256 333, 192 370, 128 333" fill="#ececed"></polygon><polygon points="128 370, 192 407, 192 370, 128 333" fill="#d2d2d4" stroke="#83838a"></polygon><polygon points="192 407, 256 370, 256 333, 192 370" fill="#b8b8bb" stroke="#83838a"></polygon><polygon points="192 296, 128 333, 128 370, 192 407, 256 370, 256 333" fill="none" stroke="#000000" stroke-width="2"></polygon></g></g></g><g opacity="1"><g id="efaf6cdc-3f6b-4a03-9f3e-58be4f9bb2ab" transform="translate(0 0)"><svg x="-371" y="157" height="115.695" width="100.625" viewBox="0 0 26.624 30.611"><g fill-rule="evenodd"><path d="M13.312.306v15l12.99-7.5z" fill="#4286c5" stroke-width=".265"></path><path d="M.322 7.806l12.99 7.5v-15z" fill="#26527b" stroke-width=".265"></path><path d="M13.312.306v15" fill="none" stroke="#b7d1e9" stroke-width=".265"></path><path d="M13.312 15.306l12.99-7.5-6.495 18.75-6.495 3.75z" fill="#26527b" stroke-width=".265"></path><path d="M.322 7.806l12.99 7.5v15l-6.495-3.75z" fill="#326ca2" stroke-width=".265"></path><path d="M.322 7.806l12.99 7.5 12.99-7.5-12.99 7.5v15" fill="none" stroke="#deeaf5" stroke-width=".265"></path><path d="M13.312.306l-12.99 7.5 6.495 18.75 6.495 3.75 6.495-3.75 6.495-18.75z" fill="none" stroke="#000000" stroke-width=".529"></path></g></svg></g></g><g opacity="1"><g id="e544ef07-7490-45e2-941c-b6bccf2c821b" transform="translate(0 0)"><svg x="-128" y="407" height="148.142" width="93" viewBox="0 0 24.606 39.196"><g transform="translate(-90.671 -137.288)"><path d="M91.985 141.821l14.632 8.448 7.316-4.224-14.632-8.447z" fill="#ececed" fill-rule="evenodd" stroke-width=".268"></path><path d="M91.985 165.958l-1.045 1.81v-1.207z" fill="#d2d2d4" fill-rule="evenodd" stroke-width=".268"></path><path d="M91.985 165.958l14.632 8.447-1.046 1.81-14.566-8.56zM106.617 174.405l-1.046 1.81h2.09z" fill="#d2d2d4" fill-rule="evenodd" stroke-width=".268"></path><path d="M91.985 141.821v24.137l14.632 8.447V150.27z" fill="#d2d2d4" fill-rule="evenodd" stroke-width=".268"></path><path d="M106.617 174.405l1.045 1.81 7.316-4.223v-1.207l-1.045-.603z" fill="#b8b8bb" fill-rule="evenodd" stroke-width=".268"></path><path d="M106.617 150.27l7.316-4.225v24.137l-7.316 4.223z" fill="#b8b8bb" fill-rule="evenodd" stroke-width=".268"></path><g fill="none" fill-rule="evenodd" stroke="#83838a"><path d="M113.933 170.182l-7.316 4.223-14.632-8.447-1.045 1.81M91.985 141.821l14.632 8.448 7.316-4.224M106.617 150.27v24.135M105.571 176.216l1.046-1.81 1.045 1.81M113.933 170.182l1.045 1.81" stroke-width=".26818"></path></g><path d="M90.94 167.768v-1.207l1.045-.603V141.82l7.316-4.223 14.632 8.447v24.137l1.045.603v1.207l-7.316 4.224h-2.09z" fill="none" fill-rule="evenodd" stroke="#000000" stroke-width=".529"></path><ellipse cx="141.009" cy="74.394" fill="#4286c5" rx="6.047" ry="4.714" stroke-width=".278" transform="matrix(.19572 .98066 .96381 .26658 0 0)"></ellipse><ellipse cx="141.009" cy="74.394" fill="#ffffff" rx="5.037" ry="3.927" stroke-width=".278" transform="matrix(.19572 .98066 .96381 .26658 0 0)"></ellipse><path d="M99.03 153.239c-3.067 2.89-1.034 7.41.27 9.702" fill="none" fill-rule="evenodd" stroke="#4286c5" stroke-width=".51973284"></path><g transform="translate(374.17 163.896) scale(.26818)"><ellipse cx="272.14" cy="-1124.64" fill="#4286c5" rx="3.335" ry="2.648" transform="matrix(.19572 .98066 .96381 .26658 0 0)"></ellipse><ellipse cx="290.38" cy="-1128.297" fill="#4286c5" rx="3.687" ry="2.835" transform="matrix(.19572 .98066 .96381 .26658 0 0)"></ellipse><ellipse cx="290.282" cy="-1113.221" fill="#4286c5" rx="3.51" ry="2.717" transform="matrix(.19572 .98066 .96381 .26658 0 0)"></ellipse><path d="M-1033.087-41.48c4.26 21.344 17.38 30.943 23.61 33.65M-1039.896-25.075c12.675 15.122 22.864 16.4 30.106 8.948" fill="none" fill-rule="evenodd" stroke="#4286c5" stroke-width="1.938"></path></g></g></svg></g></g><g opacity="1"><g id="19f80e78-d646-44f5-8f94-d342e41656a5" transform="translate(0 0)"><svg x="-169" y="632" height="93.28" width="81" viewBox="0 0 21.431 24.68"><path d="M.268 5.102l12.537 7.238 5.224-.603 3.134-9.048L16.984.276 1.313 2.086z" fill="#ececed" fill-rule="evenodd" stroke-width=".268"></path><path d="M.268 5.102v12.064l12.537 7.238V12.34z" fill="#d2d2d4" fill-rule="evenodd" stroke-width=".268"></path><path d="M12.805 12.34l5.224-.603v12.064l-5.224.603z" fill="#d2d2d4" fill-rule="evenodd" stroke-width=".268"></path><path d="M18.029 11.737l3.134-9.048v12.064l-3.134 9.048z" fill="#b8b8bb" fill-rule="evenodd" stroke-width=".268"></path><path d="M.268 5.102l12.537 7.238 5.224-.603 3.134-9.048M18.029 11.737v12.064M12.805 12.34v12.064" fill="none" fill-rule="evenodd" stroke="#83838a" stroke-width=".265"></path><path d="M.268 17.166l12.537 7.238 5.224-.603 3.134-9.048V2.689L16.984.276 1.313 2.086.268 5.102z" fill="none" fill-rule="evenodd" stroke="#000000" stroke-width=".529"></path><path d="M16.852 3.319c-.637-.01-1.269-.156-1.755-.437-.486-.28-.738-.645-.756-1.013l-3.498.035c.11.43-.121.884-.694 1.215-.364.21-.812.34-1.282.391-.625.068-1.225.242-1.709.521-1.273.735-1.277 1.926-.013 2.664.733.423 1.145.956 1.247 1.509.957.059 1.88.296 2.613.72 1.279.73 3.34.727 4.614-.008.483-.28.784-.626.902-.987.089-.271.315-.53.678-.74.573-.33 1.36-.464 2.104-.4l.061-2.02c-.637-.01-1.269-.156-1.755-.437-.486-.28-.739-.645-.757-1.013z" fill="none" fill-rule="evenodd" stroke-linecap="round" stroke-width="0"></path><path d="M17.277 4.302c.467.27 1.056.427 1.664.471l-.05 1.693c-.73-.014-1.466.14-2.023.462-.404.234-.655.522-.754.824-.107.33-.381.647-.823.902-1.16.671-3.041.674-4.207.007-.722-.418-1.619-.665-2.555-.75-.144-.54-.573-1.06-1.296-1.477C6.081 5.759 6.086 4.672 7.247 4c.441-.256.989-.414 1.559-.476.522-.057 1.02-.203 1.424-.436.557-.322.823-.749.8-1.17l2.926-.03c.076.352.348.693.815.963.473.274 1.071.432 1.688.473.072.357.345.703.818.976z" fill="#4286c5" fill-rule="evenodd" stroke-width=".268"></path><g fill="#ffffff" font-family="Interstate" font-size="5.176" stroke-width=".268" style="line-height: 0%;"><path d="M11.246 3.567l1.863 1.078-.399.231-1.429-.826-.86.497q.139.04.259.09.122.049.225.108.588.34.609.725.021.385-.529.703-.566.327-1.233.305-.665-.023-1.307-.394-.22-.127-.414-.282-.19-.154-.36-.339l.478-.276q.096.19.265.352.17.163.421.309.407.235.858.249.45.013.818-.199.366-.212.343-.473-.024-.26-.43-.496-.19-.11-.423-.196-.23-.084-.517-.147zM14.127 7.104q.268.239.228.482-.038.245-.376.44-.52.3-1.16.259-.642-.042-1.3-.423-.221-.128-.412-.29-.19-.158-.352-.353l.458-.265q.082.18.259.35.176.17.432.319.446.258.855.29.412.035.748-.16.31-.179.265-.406-.04-.227-.428-.451l-.408-.237.39-.225.427.247q.35.202.675.23.326.026.59-.127.27-.156.22-.35-.044-.195-.401-.401-.195-.113-.461-.218-.266-.104-.623-.208l.423-.244q.346.112.618.227.275.115.484.236.54.313.609.638.07.323-.348.565-.291.168-.66.189-.367.019-.752-.114z" style="line-height: 1.25;"></path></g></svg></g></g><g opacity="1"><g id="d2bc3dde-c590-4011-a201-3817c847bfd5" transform="translate(0 0)"><g><polygon points="-288 537, -256 555, -288 574, -320 555" fill="#ff9800"></polygon><polygon points="-320 592, -288 611, -288 574, -320 555" fill="#cc7a00" stroke="#ffeacc"></polygon><polygon points="-288 611, -256 592, -256 555, -288 574" fill="#995b00" stroke="#ffeacc"></polygon><polygon points="-288 537, -320 555, -320 592, -288 611, -256 592, -256 555" fill="none" stroke="#000000" stroke-width="2"></polygon></g></g></g><g opacity="1"><g id="9863092b-b75c-4de0-8bac-fb90d30ed7aa" transform="translate(0 0)"><g><polygon points="-384 629, -320 666, -384 703, -448 666" fill="#fff"></polygon><polygon points="-448 703, -384 740, -384 703, -448 666" fill="#e6e6e6" stroke="#999"></polygon><polygon points="-384 740, -320 703, -320 666, -384 703" fill="#ccc" stroke="#999"></polygon><polygon points="-384 629, -448 666, -448 703, -384 740, -320 703, -320 666" fill="none" stroke="#000000" stroke-width="2"></polygon></g></g></g><g opacity="1"><g id="2685515d-0fdf-4c31-b26d-7cf5ad8c321d" transform="translate(0 0)"><svg x="-552" y="700" height="95.068" width="63" viewBox="0 0 16.669 25.153"><path d="M16.668 22.903q0 1.64-.864 2.091-.865.451-2.297-.376L3.161 18.645q-1.433-.827-2.297-2.276Q.001 14.921 0 13.28q0-.723.042-1.39.042-.666.166-1.394.124-.727.313-1.302.19-.575.51-1.039.319-.464.733-.683.414-.22 1.012-.147.598.073 1.32.49.107.06.497.58.391.52.882 1.165.491.646 1.279 1.394.788.75 1.58 1.207.793.458 1.58.618.788.161 1.28.083.49-.079.881-.147.39-.069.497-.007.722.416 1.32 1.035.598.619 1.013 1.315.414.697.734 1.531t.509 1.627q.19.793.313 1.664.124.872.166 1.586.042.713.042 1.438zM12.88 8.51q0 2.173-1.332 2.942-1.332.769-3.214-.318-1.882-1.086-3.214-3.393Q3.79 5.434 3.79 3.26q0-2.173 1.331-2.942 1.332-.77 3.214.317t3.214 3.394q1.332 2.306 1.332 4.48z" fill="#000" stroke="#000000" stroke-width=".268"></path></svg></g></g></g><g pointer-events="auto"></g><g pointer-events="auto"><g opacity="1"><g id="b825b1ab-9e1f-4737-ae05-7f7087c27584" transform="translate(0 0)"><svg x="-368" y="361" overflow="visible"><g transform="scale(1.118033988749895) matrix(0.707 0.409 -0.707 0.409 0 0)"><circle cx="0" cy="0" fill="#ffc107" r="23"></circle><svg width="27" height="32" x="-13.5" y="-16" style="fill: rgb(255, 255, 255);"><svg xmlns="http://www.w3.org/2000/svg" width="27" height="32" viewBox="0 0 27 32"><path d="M26.214 6.786c.661.661 1.214 1.982 1.214 2.929v20.571c0 .946-.768 1.714-1.714 1.714h-24A1.715 1.715 0 0 1 0 30.286V1.715C0 .769.768.001 1.714.001h16c.946 0 2.268.554 2.929 1.214zm-7.928-4.357v6.714H25c-.107-.304-.268-.607-.393-.732l-5.589-5.589c-.125-.125-.429-.286-.732-.393zm6.857 27.285V11.428h-7.429A1.715 1.715 0 0 1 16 9.714V2.285H2.286v27.429h22.857zM6.857 14.286c0-.321.25-.571.571-.571h12.571c.321 0 .571.25.571.571v1.143c0 .321-.25.571-.571.571H7.428a.564.564 0 0 1-.571-.571v-1.143zm13.143 4c.321 0 .571.25.571.571V20c0 .321-.25.571-.571.571H7.429A.564.564 0 0 1 6.858 20v-1.143c0-.321.25-.571.571-.571H20zm0 4.571c.321 0 .571.25.571.571v1.143c0 .321-.25.571-.571.571H7.429a.564.564 0 0 1-.571-.571v-1.143c0-.321.25-.571.571-.571H20z"></path></svg></svg></g></svg></g></g><g opacity="1"><g id="6b40b99f-9fb7-4c9a-975d-275e8791e723" transform="translate(0 0)"><svg x="192" y="333" overflow="visible"><g transform="scale(1.2074767078498865) matrix(0.707 0.409 -0.707 0.409 0 0)"><circle cx="0" cy="0" fill="transparent" r="37.5"></circle><svg width="75" height="75" x="-37.5" y="-37.5" style=""><svg xmlns="http://www.w3.org/2000/svg" viewBox="0 0 75 75"><defs><linearGradient id="RedGradient" x1="31.22" y1="-154.4" x2="181.22" y2="-154.4" gradientTransform="rotate(-45 303.497 24.497)" gradientUnits="userSpaceOnUse"><stop offset="0" stop-color="#bd0816"></stop><stop offset="1" stop-color="#ff5252"></stop></linearGradient></defs><g id="Reference"><path id="Red_Gradient" data-name="Red Gradient" style="fill:url(#RedGradient)" d="M0 0h75v75H0z"></path><g id="Icon_Test" data-name="Icon Test"><path d="M40.4 55.88H14.32a1 1 0 0 1-.87-1.49l12.78-22.83a1 1 0 0 1 .84-.51 1 1 0 0 1 .87.45l3.58 5.5a1 1 0 0 1 .05 1l-5.2 10H37.5a1 1 0 0 1 .9.56l2.9 6a1 1 0 0 1-.06 1 1 1 0 0 1-.84.32zm-24.4-2h22.8l-1.93-4H24.72a1 1 0 0 1-.86-.48 1 1 0 0 1 0-1l5.7-10.89L27.17 34zM50.45 55.88h-6.3a1 1 0 0 1-.88-.51L28.79 29.12a1 1 0 0 1 0-.89L31.14 23a1 1 0 0 1 .85-.59 1 1 0 0 1 .92.49l18.4 31.53a1 1 0 0 1-.86 1.5zm-5.71-2h4L32.16 25.53l-1.38 3.06zM60.68 55.88H54.2a1 1 0 0 1-.87-.5L33.39 20.62a1 1 0 0 1 0-1 1 1 0 0 1 .86-.5h6.15a1 1 0 0 1 .86.49l20.28 34.77a1 1 0 0 1-.86 1.5zm-5.9-2h4.15L39.82 21.12H36z" style="fill:#fff"></path></g></g></svg></svg></g></svg></g></g><g opacity="1"><g id="3b00b9e8-1cbe-472e-8cef-dbd6f0d47988" transform="translate(0 0)"><svg x="384" y="222" overflow="visible"><g transform="scale(1.3975424859373686) matrix(0.707 0.409 -0.707 0.409 0 0)"><circle cx="0" cy="0" fill="#000000" r="23"></circle><svg width="27" height="32" x="-13.5" y="-16" style="fill: rgb(255, 255, 255);"><svg xmlns="http://www.w3.org/2000/svg" width="27" height="32" viewBox="0 0 27 32"><path d="M13.714 2.286c7.571 0 13.714 6.143 13.714 13.714 0 6.054-3.929 11.196-9.375 13.018-.696.125-.946-.304-.946-.661 0-.446.018-1.929.018-3.768 0-1.286-.429-2.107-.929-2.536 3.054-.339 6.268-1.5 6.268-6.768 0-1.5-.536-2.714-1.411-3.679.143-.357.607-1.75-.143-3.643-1.143-.357-3.768 1.411-3.768 1.411a12.895 12.895 0 0 0-6.858 0S7.659 7.606 6.516 7.963c-.75 1.893-.286 3.286-.143 3.643-.875.964-1.411 2.179-1.411 3.679 0 5.25 3.196 6.429 6.25 6.768-.393.357-.75.964-.875 1.839-.786.357-2.786.964-3.982-1.143-.75-1.304-2.107-1.411-2.107-1.411-1.339-.018-.089.839-.089.839.893.411 1.518 2 1.518 2 .804 2.446 4.625 1.625 4.625 1.625 0 1.143.018 2.214.018 2.554 0 .357-.25.786-.946.661-5.446-1.821-9.375-6.964-9.375-13.018 0-7.571 6.143-13.714 13.714-13.714zM5.196 21.982c.036-.071-.018-.161-.125-.214-.107-.036-.196-.018-.232.036-.036.071.018.161.125.214.089.054.196.036.232-.036zm.554.607c.071-.054.054-.179-.036-.286-.089-.089-.214-.125-.286-.054-.071.054-.054.179.036.286.089.089.214.125.286.054zm.536.804c.089-.071.089-.214 0-.339-.071-.125-.214-.179-.304-.107-.089.054-.089.196 0 .321s.232.179.304.125zm.75.75c.071-.071.036-.232-.071-.339-.125-.125-.286-.143-.357-.054-.089.071-.054.232.071.339.125.125.286.143.357.054zm1.018.446c.036-.107-.071-.232-.232-.286-.143-.036-.304.018-.339.125s.071.232.232.268c.143.054.304 0 .339-.107zm1.125.09c0-.125-.143-.214-.304-.196-.161 0-.286.089-.286.196 0 .125.125.214.304.196.161 0 .286-.089.286-.196zm1.035-.179c-.018-.107-.161-.179-.321-.161-.161.036-.268.143-.25.268.018.107.161.179.321.143s.268-.143.25-.25z"></path></svg></svg></g></svg></g></g><g opacity="1"><g id="58c7a096-7bd8-4654-9391-3ea187b183f2" transform="translate(0 0)"><svg x="-384" y="666" overflow="visible"><g transform="scale(1.118033988749895) matrix(0.707 0.409 -0.707 0.409 0 0)"><circle cx="0" cy="0" fill="#000000" r="23"></circle><svg width="27" height="32" x="-13.5" y="-16" style="fill: rgb(255, 255, 255);"><svg xmlns="http://www.w3.org/2000/svg" width="27" height="32" viewBox="0 0 27 32"><path d="M13.714 14.036H26.66c.125.696.214 1.375.214 2.286 0 7.821-5.25 13.393-13.161 13.393-7.589 0-13.714-6.125-13.714-13.714S6.124 2.287 13.713 2.287c3.696 0 6.804 1.357 9.196 3.589l-3.732 3.589c-1.018-.982-2.804-2.125-5.464-2.125-4.679 0-8.5 3.875-8.5 8.661s3.821 8.661 8.5 8.661c5.429 0 7.464-3.893 7.786-5.911h-7.786v-4.714z"></path></svg></svg></g></svg></g></g><g opacity="1"><g id="f77d0987-dd23-4ece-b1cb-4cd9f9e60190" transform="translate(0 0)"><svg x="64" y="296" overflow="visible"><g transform="scale(1.2074767078498865) matrix(0.707 0.409 -0.707 0.409 0 0)"><circle cx="0" cy="0" fill="transparent" r="37.5"></circle><svg width="75" height="75" x="-37.5" y="-37.5" style=""><svg xmlns="http://www.w3.org/2000/svg" viewBox="0 0 75 75"><defs><linearGradient id="BlueGradient" x1="900.13" y1="337.75" x2="750.13" y2="337.75" gradientTransform="rotate(135 493.499 24.501)" gradientUnits="userSpaceOnUse"><stop offset="0" stop-color="#2e27ad"></stop><stop offset="1" stop-color="#527fff"></stop></linearGradient></defs><g id="Reference"><path id="Blue_Gradient" data-name="Blue Gradient" style="fill:url(#BlueGradient)" d="M0 0h75v75H0z"></path><g id="Icon_Test" data-name="Icon Test"><path d="m42.92 48.25 1.39-1.43L41.45 44l3.2-2.39-1.2-1.61-4.14 3.1a1 1 0 0 0-.1 1.52zM54.05 44.85l-3.2 2.4 1.2 1.6 4.14-3.1a1 1 0 0 0 .4-.74 1 1 0 0 0-.3-.78l-3.71-3.6-1.39 1.43z" style="fill:#fff"></path><path transform="rotate(-66.25 47.715 44.999)" style="fill:#fff" d="M41.16 44h13.11v2H41.16z"></path><path d="m63.39 20.73-2.8-2.32-4.44-3.68-1.17-1a1 1 0 0 0-.64-.23H17.26a1 1 0 0 0-1-1h-4a1 1 0 0 0-1 1v10a1 1 0 0 0 1 1h4v37a1 1 0 0 0 1 1h11a1 1 0 0 0 1-1v-39h18v7.33L36.05 34.5h-.8a1 1 0 0 0-1 1v18a1 1 0 0 0 1 1h26a1 1 0 0 0 1-1v-18a1 1 0 0 0-1-1h-.8l-11.2-4.67V22.5h13.5a1 1 0 0 0 .94-.66 1 1 0 0 0-.3-1.11zM54 15.54l-5.16 4.66-6.18-4.68H54zm-25.73 5h-8l4.94-3.75 4.89 3.71zM18.76 41l8.49-7.53v15.06zm8 9.75-8.49 7.53V43.22zm-8.49-12V23.72l8.49 7.53zm8.58-23.27h12.47l-6.24 4.74zM41 16.75l4.94 3.75h-9.89zM23.5 15.5l-6.25 4.75V15.5zm-8.25 7h-2v-8h2v8zm3.51 38 8.49-7.5v7.5zM27.25 29l-7.36-6.5h7.36zm33 23.47h-24v-16h24zm-19-18 7-2.92 7 2.92zm10.24-14 4-3.68L60 20.5z" style="fill:#fff"></path></g></g></svg></svg></g></svg></g></g><g opacity="1"><g id="95bbe800-ca28-4ff6-a45f-b42af8356876" transform="translate(0 0)"><svg x="320" y="444" overflow="visible"><g transform="scale(1.2074767078498865) matrix(0.707 0.409 -0.707 0.409 0 0)"><circle cx="0" cy="0" fill="transparent" r="37.5"></circle><svg width="75" height="75" x="-37.5" y="-37.5" style=""><svg xmlns="http://www.w3.org/2000/svg" viewBox="0 0 75 75"><g id="Reference"><path id="Green_Light_BG" data-name="Green Light BG" style="fill:#3f8624" d="M0 0h75v75H0z"></path><g id="Product_Icon" data-name="Product Icon"><path d="M49.47 25.89a2.74 2.74 0 0 0-.09-.39c-.89-2.72-6.42-4.13-11.88-4.13s-11 1.41-11.88 4.13a2.74 2.74 0 0 0-.09.39 2.43 2.43 0 0 0 0 .38V48.6c0 3.22 6 4.9 12 4.9s12-1.68 12-4.9V26.27a2.43 2.43 0 0 0-.06-.38zm-12-2.52c5.72 0 9.14 1.5 9.86 2.52-.74 1-4.16 2.51-9.86 2.51s-9.12-1.48-9.86-2.51c.75-1.02 4.17-2.52 9.89-2.52zm10 25.23c0 1-3.53 2.9-10 2.9s-10-1.92-10-2.9V28.34c2.27 1.36 6.15 2.06 10 2.06s7.73-.7 10-2.06z" style="fill:#fff"></path><path d="M25.62 25.5a2.74 2.74 0 0 0-.09.39 2.56 2.56 0 0 1 0-.39zM49.5 25.5a2.56 2.56 0 0 1 0 .39 2.74 2.74 0 0 0-.09-.39zM23.21 21.79l-1.42 1.42-7.29-7.29v5.58h-2v-8a1 1 0 0 1 1-1h8v2h-5.58zM62.5 13.5v8h-2v-5.58l-7.29 7.29-1.42-1.42 7.29-7.29H53.5v-2h8a1 1 0 0 1 1 1zM15.92 60.5h5.58v2h-8a1 1 0 0 1-1-1v-8h2v5.58l7.29-7.29 1.42 1.42zM62.5 53.5v8a1 1 0 0 1-1 1h-8v-2h5.58l-7.29-7.29 1.42-1.42 7.29 7.29V53.5z" style="fill:#fff"></path></g></g></svg></svg></g></svg></g></g></g><g pointer-events="auto"><g opacity="1"><g id="34e3c7b8-71a7-4231-8aab-5f31312f0f64" transform="translate(0 0)"><svg x="16" y="546" overflow="visible"><text stroke="#ffffff" stroke-width="4" font-family="Open Sans" y="46.76" font-size="34pt" fill="#f5b720" font-weight="bold" transform="matrix(0.707 0.409 -0.707 0.409 0 0)" xml:space="preserve"><tspan x="8" dy="0">CloudFront</tspan><tspan x="8" dy="1.1em">CDN</tspan></text><text font-family="Open Sans" y="46.76" font-size="34pt" fill="#f5b720" font-weight="bold" transform="matrix(0.707 0.409 -0.707 0.409 0 0)" xml:space="preserve"><tspan x="8" dy="0">CloudFront</tspan><tspan x="8" dy="1.1em">CDN</tspan></text></svg></g></g><g opacity="1"><g id="fd919d09-45b6-4938-a185-3afed1027e1c" transform="translate(0 0)"><svg x="-256" y="241" overflow="visible"><text stroke="#ffffff" stroke-width="4" font-family="Open Sans" y="59.3" font-size="45pt" fill="#ffc107" font-weight="bold" transform="matrix(0.707 0.409 -0.707 0.409 0 0)" xml:space="preserve"><tspan x="8" dy="0">S3</tspan></text><text font-family="Open Sans" y="59.3" font-size="45pt" fill="#ffc107" font-weight="bold" transform="matrix(0.707 0.409 -0.707 0.409 0 0)" xml:space="preserve"><tspan x="8" dy="0">S3</tspan></text></svg></g></g><g opacity="1"><g id="1a2dc397-a74c-4cd7-9741-ab02bcc41004" transform="translate(0 0)"><svg x="80" y="361" overflow="visible"><text stroke="#ffffff" stroke-width="4" font-family="Open Sans" y="46.76" font-size="34pt" fill="#000000" font-weight="bold" transform="matrix(0.707 0.409 -0.707 0.409 0 0)" xml:space="preserve"><tspan x="8" dy="0">Amplify</tspan></text><text font-family="Open Sans" y="46.76" font-size="34pt" fill="#000000" font-weight="bold" transform="matrix(0.707 0.409 -0.707 0.409 0 0)" xml:space="preserve"><tspan x="8" dy="0">Amplify</tspan></text></svg></g></g><g opacity="1"><g id="f581279c-99de-48f7-9fa0-5aaaf3ba5b29" transform="translate(0 0)"><svg x="-592" y="361" overflow="visible"><text stroke="#ffffff" stroke-width="4" font-family="Open Sans" y="36.5" font-size="25pt" fill="#607d8b" font-weight="bold" transform="matrix(0.707 -0.409 0.707 0.409 0 0)" xml:space="preserve"><tspan x="8" dy="0">Video Content</tspan><tspan x="8" dy="1.1em">Delivery</tspan></text><text font-family="Open Sans" y="36.5" font-size="25pt" fill="#607d8b" font-weight="bold" transform="matrix(0.707 -0.409 0.707 0.409 0 0)" xml:space="preserve"><tspan x="8" dy="0">Video Content</tspan><tspan x="8" dy="1.1em">Delivery</tspan></text></svg></g></g><g opacity="1"><g id="9982e4f2-50f5-46ee-bcd9-e35e9d8dae9b"><svg x="-64" y="722" overflow="visible"><text stroke="#ffffff" stroke-width="4" font-family="Open Sans" y="46.76" font-size="34pt" fill="#f5b720" font-weight="bold" transform="matrix(0.707 0.409 -0.707 0.409 0 0)" xml:space="preserve"><tspan x="8" dy="0">Route 53</tspan></text><text font-family="Open Sans" y="46.76" font-size="34pt" fill="#f5b720" font-weight="bold" transform="matrix(0.707 0.409 -0.707 0.409 0 0)" xml:space="preserve"><tspan x="8" dy="0">Route 53</tspan></text></svg></g></g><g opacity="1"><g id="ce273ea8-cfed-4f62-b160-655beeec16ba" transform="translate(0 0)"><svg x="-320" y="722" overflow="visible"><text stroke="#ffffff" stroke-width="4" font-family="Open Sans" y="36.5" font-size="25pt" fill="#000000" font-weight="bold" transform="matrix(0.707 0.409 -0.707 0.409 0 0)" xml:space="preserve"><tspan x="8" dy="0">Google Domain</tspan></text><text font-family="Open Sans" y="36.5" font-size="25pt" fill="#000000" font-weight="bold" transform="matrix(0.707 0.409 -0.707 0.409 0 0)" xml:space="preserve"><tspan x="8" dy="0">Google Domain</tspan></text></svg></g></g><g opacity="1"><g id="02cc0a27-6b12-4adc-955b-532c7de9d112" transform="translate(0 0)"><svg x="-480" y="444" overflow="visible"><text stroke="#ffffff" stroke-width="4" font-family="Open Sans" y="36.5" font-size="25pt" fill="#607d8b" font-weight="bold" transform="matrix(0.707 0.409 -0.707 0.409 0 0)" xml:space="preserve"><tspan x="8" dy="0">Hosted zones</tspan></text><text font-family="Open Sans" y="36.5" font-size="25pt" fill="#607d8b" font-weight="bold" transform="matrix(0.707 0.409 -0.707 0.409 0 0)" xml:space="preserve"><tspan x="8" dy="0">Hosted zones</tspan></text></svg></g></g><g opacity="1"><g id="a4e51647-5c10-4abd-a795-8d53c1ad1160" transform="translate(0 0)"><svg x="-736" y="611" overflow="visible"><text stroke="#ffffff" stroke-width="4" font-family="Open Sans" y="46.76" font-size="34pt" fill="#000000" font-weight="bold" transform="matrix(0.707 0.409 -0.707 0.409 0 0)" xml:space="preserve"><tspan x="8" dy="0">END USER</tspan></text><text font-family="Open Sans" y="46.76" font-size="34pt" fill="#000000" font-weight="bold" transform="matrix(0.707 0.409 -0.707 0.409 0 0)" xml:space="preserve"><tspan x="8" dy="0">END USER</tspan></text></svg></g></g><g opacity="1"><g id="656caddf-3735-41bf-bdb4-39aceca018bb" transform="translate(0 0)"><svg x="448" y="278" overflow="visible"><text stroke="#ffffff" stroke-width="4" font-family="Open Sans" y="36.5" font-size="25pt" fill="#000000" font-weight="bold" transform="matrix(0.707 0.409 -0.707 0.409 0 0)" xml:space="preserve"><tspan x="8" dy="0">GitHub Repository</tspan></text><text font-family="Open Sans" y="36.5" font-size="25pt" fill="#000000" font-weight="bold" transform="matrix(0.707 0.409 -0.707 0.409 0 0)" xml:space="preserve"><tspan x="8" dy="0">GitHub Repository</tspan></text></svg></g></g><g opacity="1"><g id="3b253d8f-cc6b-4f27-9fd0-454a0a724636" transform="translate(0 0)"><svg x="48" y="194" overflow="visible"><text stroke="#ffffff" stroke-width="4" font-family="Open Sans" y="36.5" font-size="25pt" fill="#607d8b" font-weight="bold" transform="matrix(0.707 0.409 -0.707 0.409 0 0)" xml:space="preserve"><tspan x="8" dy="0">CodeBuild</tspan></text><text font-family="Open Sans" y="36.5" font-size="25pt" fill="#607d8b" font-weight="bold" transform="matrix(0.707 0.409 -0.707 0.409 0 0)" xml:space="preserve"><tspan x="8" dy="0">CodeBuild</tspan></text></svg></g></g><g opacity="1"><g id="52e15ece-c7c1-43e6-980c-4aee729350ff" transform="translate(0 0)"><svg x="368" y="379" overflow="visible"><text stroke="#ffffff" stroke-width="4" font-family="Open Sans" y="36.5" font-size="25pt" fill="#607d8b" font-weight="bold" transform="matrix(0.707 0.409 -0.707 0.409 0 0)" xml:space="preserve"><tspan x="8" dy="0">Storage</tspan></text><text font-family="Open Sans" y="36.5" font-size="25pt" fill="#607d8b" font-weight="bold" transform="matrix(0.707 0.409 -0.707 0.409 0 0)" xml:space="preserve"><tspan x="8" dy="0">Storage</tspan></text></svg></g></g></g><g></g><g></g><g></g><g></g><g></g><g></g><g></g><g></g><g></g></g></svg>