<svg width="400" height="291.7" viewBox="0 0 441 322" fill="none" xmlns="http://www.w3.org/2000/svg">
<rect x="2.05725" y="2" width="435.754" height="316.895" fill="#C4C4C4" stroke="#767676" stroke-width="4"/>
<rect x="51.5356" y="63.0959" width="337" height="194.703" stroke="#A4A4A4" stroke-width="3"/>
<path d="M1.3031 1.11804L49.8878 62.0545" stroke="#A4A4A4" stroke-width="3"/>
<path d="M388.792 258.281L437.377 319.218" stroke="#A4A4A4" stroke-width="3"/>
<path d="M2.36041 320.336L50.8355 259.326" stroke="#A4A4A4" stroke-width="3"/>
<path d="M390.148 62.1279L438.623 1.1181" stroke="#A4A4A4" stroke-width="3"/>
<path d="M176.182 157.114H165.862V155.034L169.222 154.274V131.434L165.862 130.634V128.554H176.182V130.634L172.822 131.434V154.274L176.182 155.034V157.114ZM204.737 135.274C207.164 135.274 208.977 135.9 210.177 137.154C211.377 138.38 211.977 140.38 211.977 143.154V157.114H208.497V143.314C208.497 139.927 207.044 138.234 204.137 138.234C202.057 138.234 200.564 138.834 199.657 140.034C198.777 141.234 198.337 142.98 198.337 145.274V157.114H194.857V143.314C194.857 139.927 193.39 138.234 190.457 138.234C188.297 138.234 186.804 138.9 185.977 140.234C185.15 141.567 184.737 143.487 184.737 145.994V157.114H181.217V135.674H184.057L184.577 138.594H184.777C185.444 137.474 186.337 136.647 187.457 136.114C188.604 135.554 189.817 135.274 191.097 135.274C194.457 135.274 196.644 136.474 197.657 138.874H197.857C198.577 137.647 199.55 136.74 200.777 136.154C202.03 135.567 203.35 135.274 204.737 135.274ZM226.72 135.314C229.333 135.314 231.266 135.887 232.52 137.034C233.773 138.18 234.4 140.007 234.4 142.514V157.114H231.84L231.16 154.074H231C230.066 155.247 229.08 156.114 228.04 156.674C227.026 157.234 225.613 157.514 223.8 157.514C221.853 157.514 220.24 157.007 218.96 155.994C217.68 154.954 217.04 153.34 217.04 151.154C217.04 149.02 217.88 147.38 219.56 146.234C221.24 145.06 223.826 144.42 227.32 144.314L230.96 144.194V142.914C230.96 141.127 230.573 139.887 229.8 139.194C229.026 138.5 227.933 138.154 226.52 138.154C225.4 138.154 224.333 138.327 223.32 138.674C222.306 138.994 221.36 139.367 220.48 139.794L219.4 137.154C220.333 136.647 221.44 136.22 222.72 135.874C224 135.5 225.333 135.314 226.72 135.314ZM227.76 146.754C225.093 146.86 223.24 147.287 222.2 148.034C221.186 148.78 220.68 149.834 220.68 151.194C220.68 152.394 221.04 153.274 221.76 153.834C222.506 154.394 223.453 154.674 224.6 154.674C226.413 154.674 227.92 154.18 229.12 153.194C230.32 152.18 230.92 150.634 230.92 148.554V146.634L227.76 146.754ZM248.622 135.274C250.035 135.274 251.302 135.54 252.422 136.074C253.568 136.607 254.542 137.42 255.342 138.514H255.542L256.022 135.674H258.822V157.474C258.822 160.54 258.035 162.847 256.462 164.394C254.915 165.94 252.502 166.714 249.222 166.714C246.075 166.714 243.502 166.26 241.502 165.354V162.114C243.608 163.234 246.248 163.794 249.422 163.794C251.262 163.794 252.702 163.247 253.742 162.154C254.808 161.087 255.342 159.62 255.342 157.754V156.914C255.342 156.594 255.355 156.14 255.382 155.554C255.408 154.94 255.435 154.514 255.462 154.274H255.302C253.862 156.434 251.648 157.514 248.662 157.514C245.888 157.514 243.715 156.54 242.142 154.594C240.595 152.647 239.822 149.927 239.822 146.434C239.822 143.02 240.595 140.314 242.142 138.314C243.715 136.287 245.875 135.274 248.622 135.274ZM249.102 138.234C247.315 138.234 245.928 138.954 244.942 140.394C243.955 141.807 243.462 143.834 243.462 146.474C243.462 149.114 243.942 151.14 244.902 152.554C245.888 153.94 247.315 154.634 249.182 154.634C251.342 154.634 252.915 154.06 253.902 152.914C254.888 151.74 255.382 149.86 255.382 147.274V146.434C255.382 143.5 254.875 141.407 253.862 140.154C252.848 138.874 251.262 138.234 249.102 138.234ZM273.911 135.274C275.751 135.274 277.324 135.674 278.631 136.474C279.964 137.274 280.978 138.407 281.671 139.874C282.391 141.314 282.751 143.007 282.751 144.954V147.074H268.071C268.124 149.5 268.738 151.354 269.911 152.634C271.111 153.887 272.778 154.514 274.911 154.514C276.271 154.514 277.471 154.394 278.511 154.154C279.578 153.887 280.671 153.514 281.791 153.034V156.114C280.698 156.594 279.618 156.94 278.551 157.154C277.484 157.394 276.218 157.514 274.751 157.514C272.724 157.514 270.924 157.1 269.351 156.274C267.804 155.447 266.591 154.22 265.711 152.594C264.858 150.94 264.431 148.927 264.431 146.554C264.431 144.207 264.818 142.194 265.591 140.514C266.391 138.834 267.498 137.54 268.911 136.634C270.351 135.727 272.018 135.274 273.911 135.274ZM273.871 138.154C272.191 138.154 270.858 138.7 269.871 139.794C268.911 140.86 268.338 142.354 268.151 144.274H279.071C279.044 142.46 278.618 140.994 277.791 139.874C276.964 138.727 275.658 138.154 273.871 138.154ZM125.116 168.554C128.85 168.554 131.57 169.287 133.276 170.754C134.983 172.22 135.836 174.287 135.836 176.954C135.836 178.527 135.476 180.007 134.756 181.394C134.063 182.754 132.876 183.86 131.196 184.714C129.543 185.567 127.29 185.994 124.436 185.994H121.156V197.114H117.556V168.554H125.116ZM124.796 171.634H121.156V182.914H124.036C126.756 182.914 128.783 182.474 130.116 181.594C131.45 180.714 132.116 179.22 132.116 177.114C132.116 175.274 131.53 173.9 130.356 172.994C129.183 172.087 127.33 171.634 124.796 171.634ZM144.815 197.114H141.295V166.714H144.815V197.114ZM159.728 175.314C162.341 175.314 164.274 175.887 165.528 177.034C166.781 178.18 167.408 180.007 167.408 182.514V197.114H164.848L164.168 194.074H164.008C163.074 195.247 162.088 196.114 161.048 196.674C160.034 197.234 158.621 197.514 156.808 197.514C154.861 197.514 153.248 197.007 151.968 195.994C150.688 194.954 150.048 193.34 150.048 191.154C150.048 189.02 150.888 187.38 152.568 186.234C154.248 185.06 156.834 184.42 160.328 184.314L163.968 184.194V182.914C163.968 181.127 163.581 179.887 162.808 179.194C162.034 178.5 160.941 178.154 159.528 178.154C158.408 178.154 157.341 178.327 156.328 178.674C155.314 178.994 154.368 179.367 153.488 179.794L152.408 177.154C153.341 176.647 154.448 176.22 155.728 175.874C157.008 175.5 158.341 175.314 159.728 175.314ZM160.768 186.754C158.101 186.86 156.248 187.287 155.208 188.034C154.194 188.78 153.688 189.834 153.688 191.194C153.688 192.394 154.048 193.274 154.768 193.834C155.514 194.394 156.461 194.674 157.608 194.674C159.421 194.674 160.928 194.18 162.128 193.194C163.328 192.18 163.928 190.634 163.928 188.554V186.634L160.768 186.754ZM182.629 197.514C180.736 197.514 179.043 197.127 177.549 196.354C176.083 195.58 174.923 194.38 174.069 192.754C173.243 191.127 172.829 189.047 172.829 186.514C172.829 183.874 173.269 181.727 174.149 180.074C175.029 178.42 176.216 177.207 177.709 176.434C179.229 175.66 180.949 175.274 182.869 175.274C183.963 175.274 185.016 175.394 186.029 175.634C187.043 175.847 187.869 176.114 188.509 176.434L187.429 179.354C186.789 179.114 186.043 178.887 185.189 178.674C184.336 178.46 183.536 178.354 182.789 178.354C178.576 178.354 176.469 181.06 176.469 186.474C176.469 189.06 176.976 191.047 177.989 192.434C179.029 193.794 180.563 194.474 182.589 194.474C183.763 194.474 184.789 194.354 185.669 194.114C186.576 193.874 187.403 193.58 188.149 193.234V196.354C187.429 196.727 186.629 197.007 185.749 197.194C184.896 197.407 183.856 197.514 182.629 197.514ZM201.528 175.274C203.368 175.274 204.942 175.674 206.248 176.474C207.582 177.274 208.595 178.407 209.288 179.874C210.008 181.314 210.368 183.007 210.368 184.954V187.074H195.688C195.742 189.5 196.355 191.354 197.528 192.634C198.728 193.887 200.395 194.514 202.528 194.514C203.888 194.514 205.088 194.394 206.128 194.154C207.195 193.887 208.288 193.514 209.408 193.034V196.114C208.315 196.594 207.235 196.94 206.168 197.154C205.102 197.394 203.835 197.514 202.368 197.514C200.342 197.514 198.542 197.1 196.968 196.274C195.422 195.447 194.208 194.22 193.328 192.594C192.475 190.94 192.048 188.927 192.048 186.554C192.048 184.207 192.435 182.194 193.208 180.514C194.008 178.834 195.115 177.54 196.528 176.634C197.968 175.727 199.635 175.274 201.528 175.274ZM201.488 178.154C199.808 178.154 198.475 178.7 197.488 179.794C196.528 180.86 195.955 182.354 195.768 184.274H206.688C206.662 182.46 206.235 180.994 205.408 179.874C204.582 178.727 203.275 178.154 201.488 178.154ZM219.346 175.634C219.346 176.7 219.28 177.7 219.146 178.634H219.386C220.08 177.54 221.013 176.714 222.186 176.154C223.386 175.594 224.68 175.314 226.066 175.314C228.68 175.314 230.64 175.94 231.946 177.194C233.253 178.42 233.906 180.407 233.906 183.154V197.114H230.426V183.394C230.426 179.954 228.826 178.234 225.626 178.234C223.226 178.234 221.573 178.914 220.666 180.274C219.786 181.607 219.346 183.527 219.346 186.034V197.114H215.826V166.714H219.346V175.634ZM259.193 186.354C259.193 189.9 258.286 192.647 256.473 194.594C254.686 196.54 252.26 197.514 249.193 197.514C247.3 197.514 245.606 197.087 244.113 196.234C242.646 195.354 241.486 194.087 240.633 192.434C239.78 190.754 239.353 188.727 239.353 186.354C239.353 182.807 240.246 180.074 242.033 178.154C243.82 176.234 246.246 175.274 249.313 175.274C251.26 175.274 252.966 175.714 254.433 176.594C255.926 177.447 257.086 178.7 257.913 180.354C258.766 181.98 259.193 183.98 259.193 186.354ZM242.993 186.354C242.993 188.887 243.486 190.9 244.473 192.394C245.486 193.86 247.086 194.594 249.273 194.594C251.433 194.594 253.02 193.86 254.033 192.394C255.046 190.9 255.553 188.887 255.553 186.354C255.553 183.82 255.046 181.834 254.033 180.394C253.02 178.954 251.42 178.234 249.233 178.234C247.046 178.234 245.46 178.954 244.473 180.394C243.486 181.834 242.993 183.82 242.993 186.354ZM268.292 197.114H264.772V166.714H268.292V197.114ZM282.684 197.514C280.017 197.514 277.884 196.594 276.284 194.754C274.684 192.887 273.884 190.114 273.884 186.434C273.884 182.754 274.684 179.98 276.284 178.114C277.911 176.22 280.057 175.274 282.724 175.274C284.377 175.274 285.724 175.58 286.764 176.194C287.831 176.807 288.697 177.554 289.364 178.434H289.604C289.577 178.087 289.524 177.58 289.444 176.914C289.391 176.22 289.364 175.674 289.364 175.274V166.714H292.884V197.114H290.044L289.524 194.234H289.364C288.724 195.14 287.871 195.914 286.804 196.554C285.737 197.194 284.364 197.514 282.684 197.514ZM283.244 194.594C285.511 194.594 287.097 193.98 288.004 192.754C288.937 191.5 289.404 189.62 289.404 187.114V186.474C289.404 183.807 288.964 181.767 288.084 180.354C287.204 178.914 285.577 178.194 283.204 178.194C281.311 178.194 279.884 178.954 278.924 180.474C277.991 181.967 277.524 183.98 277.524 186.514C277.524 189.074 277.991 191.06 278.924 192.474C279.884 193.887 281.324 194.594 283.244 194.594ZM307.973 175.274C309.813 175.274 311.387 175.674 312.693 176.474C314.027 177.274 315.04 178.407 315.733 179.874C316.453 181.314 316.813 183.007 316.813 184.954V187.074H302.133C302.187 189.5 302.8 191.354 303.973 192.634C305.173 193.887 306.84 194.514 308.973 194.514C310.333 194.514 311.533 194.394 312.573 194.154C313.64 193.887 314.733 193.514 315.853 193.034V196.114C314.76 196.594 313.68 196.94 312.613 197.154C311.547 197.394 310.28 197.514 308.813 197.514C306.787 197.514 304.987 197.1 303.413 196.274C301.867 195.447 300.653 194.22 299.773 192.594C298.92 190.94 298.493 188.927 298.493 186.554C298.493 184.207 298.88 182.194 299.653 180.514C300.453 178.834 301.56 177.54 302.973 176.634C304.413 175.727 306.08 175.274 307.973 175.274ZM307.933 178.154C306.253 178.154 304.92 178.7 303.933 179.794C302.973 180.86 302.4 182.354 302.213 184.274H313.133C313.107 182.46 312.68 180.994 311.853 179.874C311.027 178.727 309.72 178.154 307.933 178.154ZM332.272 175.274C332.672 175.274 333.098 175.3 333.552 175.354C334.032 175.38 334.445 175.434 334.792 175.514L334.352 178.754C334.005 178.674 333.618 178.607 333.192 178.554C332.792 178.5 332.405 178.474 332.032 178.474C330.938 178.474 329.912 178.78 328.952 179.394C327.992 179.98 327.218 180.82 326.632 181.914C326.072 182.98 325.792 184.234 325.792 185.674V197.114H322.272V175.674H325.152L325.552 179.594H325.712C326.405 178.42 327.298 177.407 328.392 176.554C329.485 175.7 330.778 175.274 332.272 175.274Z" fill="#6B6B6B"/>
<path d="M0 0V-1H-1V0H0ZM440.036 0H441.036V-1H440.036V0ZM440.036 320.895V321.895H441.036V320.895H440.036ZM0 320.895H-1V321.895H0V320.895ZM0 1H440.036V-1H0V1ZM439.036 0V320.895H441.036V0H439.036ZM440.036 319.895H0V321.895H440.036V319.895ZM1 320.895V0H-1V320.895H1Z" fill="black"/>
</svg>
