<svg width="700" height="440" viewBox="0 0 700 440" fill="none" xmlns="http://www.w3.org/2000/svg">
<path d="M99.1922 184.6C99.1922 198.4 98.7922 205 97.5922 213.8C105.992 213.4 111.592 213.2 126.992 213.2H169.192C192.992 213.2 211.992 206.4 225.392 193.2C240.592 178 248.592 156 248.592 128.6C248.592 102 241.192 81 226.592 66.6C213.192 53.6 193.392 46.8 168.792 46.8H126.992C110.392 46.8 105.392 46.6 97.3922 46.2C98.7922 55.4 99.1922 62 99.1922 75.6V184.6ZM138.792 178.2V81.8H164.992C179.392 81.8 188.992 85 195.992 92C203.792 99.8 207.592 112.2 207.592 129.2C207.592 145.8 203.192 159.2 194.992 167.6C187.792 174.8 178.592 178.2 165.592 178.2H138.792ZM267.481 46.8V76.8H308.081V46.8H267.481ZM266.881 91.2C268.081 100.2 268.481 108.4 268.481 121.4V183C268.481 195.8 268.081 203.4 266.881 213.2H308.681C307.681 204.6 307.081 193.8 307.081 183V121.4C307.081 107.4 307.481 99.4 308.681 91.2H266.881ZM451.567 163.4C451.367 161.4 451.367 160.2 451.367 159.4C450.767 148 449.967 139.6 448.367 133.2C441.367 103.4 419.567 86.4 388.367 86.4C350.167 86.4 324.767 112.6 324.767 152.2C324.767 172 331.167 189 342.967 201C354.367 212.4 369.767 218 389.367 218C409.167 218 425.167 212.2 436.567 201C442.167 195.4 445.167 190.8 449.767 180.4L414.967 170.6C413.367 175.8 411.967 178 408.967 180.8C403.767 185.6 396.767 188.2 388.767 188.2C372.967 188.2 363.567 179.6 361.567 163.4H451.567ZM362.167 135.8C365.567 122.6 374.167 116.2 388.367 116.2C402.167 116.2 410.767 123 413.567 135.8H362.167ZM508.863 213.2C507.663 203.4 507.263 195.6 507.263 183V142.6C512.863 129 522.063 121.2 532.863 121.2C537.663 121.2 541.663 123 543.863 126.2C546.463 129.6 547.263 133.4 547.263 141.8V183C547.263 195.8 546.863 204.2 545.663 213.2H587.263C586.063 203.6 585.663 195.2 585.663 183.2V142.4C590.663 129 599.863 121 610.063 121C621.463 121 625.863 126.8 625.863 141.8V183C625.863 196.6 625.463 203.8 624.263 213.2H665.863C664.663 203.8 664.263 195.6 664.263 183.2V133.6C664.263 103.4 649.663 87.8 621.063 87.8C603.663 87.8 591.463 93 579.063 105.2C576.463 100.2 574.463 97.8 570.863 95.2C564.263 90.4 555.663 88 545.263 88C529.463 88 517.263 93.2 507.062 104.4C507.062 104 507.062 103.6 507.062 103.4C507.062 102.8 507.062 102.4 507.062 102.4C507.263 100.4 507.263 100.4 507.263 99.6V91.2H467.663C468.863 99 469.263 106.2 469.263 121.4V183C469.263 195.6 468.863 204 467.663 213.2H508.863Z" fill="white"/>
<path d="M159.664 294.31C157.194 283.1 153.964 276.07 147.884 268.28C135.534 251.75 116.344 243.39 91.8342 243.39C69.6042 243.39 50.4142 250.42 37.3042 263.15C22.2942 277.97 14.3142 299.82 14.3142 325.66C14.3142 351.12 22.2942 373.35 36.3542 387.6C49.8442 401.28 69.4142 408.5 92.5942 408.5C115.584 408.5 134.014 401.28 145.794 387.79C153.774 378.48 157.954 369.17 161.564 353.02L122.044 347.13C120.904 355.11 119.574 358.91 116.344 363.47C110.834 371.07 101.904 375.44 91.4542 375.44C67.8942 375.44 53.8342 356.63 53.8342 325.66C53.8342 294.31 67.3242 276.07 90.5042 276.07C106.844 276.07 116.914 284.62 120.524 301.91L159.664 294.31ZM254.042 329.84C240.362 330.22 234.662 330.41 227.252 331.17C210.152 332.69 197.422 336.68 187.732 343.52C178.612 349.79 173.862 359.29 173.862 371.26C173.862 381.71 177.472 390.83 184.312 397.1C191.912 404.13 202.742 407.55 217.182 407.55C232.762 407.55 243.402 404.32 254.042 396.15V404.89H290.902C289.952 396.34 289.572 389.5 289.572 377.91V326.61C289.572 309.51 284.252 299.06 272.092 292.41C264.682 288.42 251.002 285.76 236.942 285.76C218.512 285.76 204.452 289.37 194.192 296.59C186.212 302.29 182.032 308.37 178.232 319.58L214.522 325.47C217.372 316.16 223.832 312.17 235.992 312.17C248.532 312.17 254.042 316.35 254.042 325.47V329.84ZM254.042 359.48C254.042 365.18 251.572 370.31 247.202 374.11C242.072 378.48 233.522 381.33 225.732 381.33C215.852 381.33 210.152 377.34 210.152 370.5C210.152 364.99 214.332 360.24 221.172 357.96C228.962 355.49 237.132 354.54 254.042 354.16V359.48ZM405.695 288.99C396.765 287.09 392.965 286.71 386.885 286.71C369.595 286.71 358.195 291.84 348.885 304V288.99H311.075C312.215 297.16 312.595 303.81 312.595 317.68V376.2C312.595 388.55 312.215 395.39 311.075 404.89H350.405C349.265 395.77 348.885 388.55 348.885 376.39V346.75C349.645 338.39 350.975 334.4 354.585 329.84C360.095 323 367.505 319.58 377.195 319.58C383.085 319.58 387.835 320.53 396.575 323.19L405.695 288.99ZM455.972 439.28C454.832 431.11 454.452 422.37 454.452 411.73V398.62C454.262 395.96 454.262 393.49 454.262 391.78C459.582 396.34 462.432 398.43 467.372 400.52C474.402 403.56 484.092 405.46 493.022 405.46C508.602 405.46 522.472 400.14 532.162 390.45C542.992 379.62 548.692 363.85 548.692 344.47C548.692 325.28 543.562 310.27 533.492 300.2C523.612 290.51 509.932 285.57 493.212 285.57C477.442 285.57 465.662 289.56 454.262 299.06C454.262 298.11 454.452 296.59 454.452 295.45V288.99H417.022C418.162 298.68 418.542 306.47 418.542 318.82V411.54C418.542 421.61 417.972 431.11 417.022 439.28H455.972ZM484.662 376.77C467.562 376.77 454.832 363.28 454.832 345.42C454.832 328.13 467.752 314.26 483.522 314.26C501.382 314.26 511.642 325.47 511.642 344.85C511.642 355.68 508.602 364.42 503.282 369.55C498.342 374.3 491.882 376.77 484.662 376.77ZM679.495 357.58C679.305 355.68 679.305 354.54 679.305 353.78C678.735 342.95 677.975 334.97 676.455 328.89C669.805 300.58 649.095 284.43 619.455 284.43C583.165 284.43 559.035 309.32 559.035 346.94C559.035 365.75 565.115 381.9 576.325 393.3C587.155 404.13 601.785 409.45 620.405 409.45C639.215 409.45 654.415 403.94 665.245 393.3C670.565 387.98 673.415 383.61 677.785 373.73L644.725 364.42C643.205 369.36 641.875 371.45 639.025 374.11C634.085 378.67 627.435 381.14 619.835 381.14C604.825 381.14 595.895 372.97 593.995 357.58H679.495ZM594.565 331.36C597.795 318.82 605.965 312.74 619.455 312.74C632.565 312.74 640.735 319.2 643.395 331.36H594.565Z" fill="white"/>
<circle cx="681" cy="423" r="13" fill="white"/>
</svg>
