<svg width="714" height="481" viewBox="0 0 714 481" fill="none" xmlns="http://www.w3.org/2000/svg">
<path d="M312.8 139C319.4 138.2 325 138 333.8 138H389.6C397.4 138 404.6 138.4 411.2 139V125C424.6 132.8 431.8 136.4 444.6 141.8C448.4 129.6 452 121.6 459.2 110.2C435.4 102.8 416.2 92.6 397 76.6C388 69.2 384 65 377.8 56.4H344.6C341.6 61 340.6 62.4 337.8 65.4C331 72.8 319.2 83.2 311.8 88.6C298.4 98 283.4 105.6 265 111.6C272.4 121.8 275.6 128 280.2 141C293 135.8 298.8 133 312.8 124.8V139ZM333.8 110.8C346.2 101 353.2 94.4 361.6 83.8C370.2 94.4 377.2 100.8 390.2 110.8H333.8ZM426.8 150.8C422.8 151.8 418.2 152 407.6 152H314.2C304.6 152 296.2 151.6 287.4 150.8V181.8C296.8 181 305.2 180.6 314 180.6H396.2L369.2 214.6C363.6 221.8 359 226.6 354.4 231L385.2 248C390.4 240 392.8 236.6 397.4 230.6L434.6 181.6C437.4 177.8 441.6 172.8 444 170.4L426.8 150.8ZM500.2 108.4C501.6 108.4 502.8 108.4 503.2 108.4C506 108.4 507.4 108.4 510.2 108.6C518.8 108.8 518.8 108.8 527.4 108.8C528.8 108.8 531 108.8 533.8 108.8C533 110.2 533 110.2 530 115.2C527 120 519 131.6 514.6 137C508.2 144.8 499.8 153 493.4 157.8L518.8 183C524.2 175.8 529.6 170.2 538 162.8C552 150.6 565.8 143.6 576 143.6C579.8 143.6 582.2 145.2 584 148.6C576 152.2 574 153 569.2 155.4C556.8 161.6 547.8 168.2 540.4 176.8C533.6 185 530.6 192.6 530.6 202C530.6 214 536.4 224.6 546.4 230.4C557.2 236.8 571.4 239.6 594 239.6C609.6 239.6 626.2 238.6 642.2 236.6C654.2 235 654.2 235 660 234.8L657.8 198.8C640.8 205.2 617.8 208.8 593.8 208.8C574.4 208.8 567 205.8 567 198.2C567 194.6 568.8 191 572.2 188C575.8 184.8 577 184 586.2 179.6L588 178.8C587.8 190.8 587.6 197 587 200L619.6 199C619 193.8 618.8 190.8 618.8 181.8C618.8 173 618.8 172.8 618.6 167.4C637.8 160.8 659.2 155.2 669.6 153.8L657.4 122.2C654.2 124 652.8 124.4 641.4 128.2C635 130.2 629.6 132 629 132.2C618.4 135.8 618.4 135.8 615 137C611 124 601 117.6 584.4 117.6C575.8 117.6 567.6 119.6 559 123.6C563.8 117.2 565.2 114.8 568.6 108.8C589 108.2 614 106.8 628.2 105.4C634 104.8 640 104.2 646.2 103.6L645 71.8C634.4 74.6 614 77.2 594.4 78.2C584.2 78.8 584.2 78.8 582.2 79C582.4 78.6 583.6 75.4 586.2 69.6C588.6 63.4 588.8 63.2 590.4 60.2L553.8 57.4C553 64.6 551.6 70 547.6 79.6C545.2 79.6 543.2 79.6 542 79.6C521.2 79.6 509.2 78.8 500.6 76.8L500.2 108.4Z" fill="white"/>
<path d="M97.8 305.4C98.4 310.8 98.4 312.8 98.6 319.6C99 347.4 99.8 364.2 100.8 378.2C103.4 410 108.8 430 119.2 444.8C127 456.2 136.6 462 147.8 462C160 462 170.8 454.8 178.2 441.6C184.4 430.4 189.2 418.4 193.4 403C180.2 393.4 174.8 388.8 165.6 377.8C163.2 389.8 159.6 401.2 155.2 412.4C153.2 417.6 151 420.2 148.8 420.2C140.4 420.2 134 386.4 134 341.6C134 327 134.8 314.4 136.2 305.4H97.8ZM198 326.6C222.8 358 236.6 397.4 238.8 442.2L274.6 429C269 380.6 254.4 344 228.4 312.6L198 326.6ZM308.6 343.6C313.2 343.4 314.6 343.4 323.6 343.2C349 343.2 358.2 342.8 375.8 341C378.2 346.4 379.8 350 380.4 351.6C364.2 353.4 345 354.4 325.8 354.4C314.8 354.4 311 354.2 305.2 353.6L306.6 383.2C311.4 382.6 312 382.6 324 382.2C352.8 381.4 375.8 380 392.8 377.8C396.8 384.2 399.8 389 402 392C393 390.2 385 389.6 374.4 389.6C357 389.6 343.4 392 331.6 397C317 403.2 307.8 416 307.8 430C307.8 437.8 310.6 446 315.2 452C325 464.6 345.4 471 375.8 471C394.4 471 412.8 469 431.8 464.8C441.6 462.6 441.6 462.6 445.8 462L441.2 428.2C425.2 435.8 400.6 440.6 377.6 440.6C356.4 440.6 346 437 346 429.6C346 421.2 358.2 416.6 380.4 416.6C397.8 416.6 410.6 419.2 422.4 425.4L451.8 410.2C440 395.8 434.4 387.8 426.2 373.4C428.8 372.8 438 371.2 438.2 371.2C458.2 367 458.2 367 462.8 366.4L459.8 337C450.6 340.4 441 342.6 413.2 347.6C412.4 346.2 410.2 341 408.6 337.2C428.6 334 428.8 333.8 440.4 331.4C451.4 329.2 451.4 329.2 455.2 328.4L452.4 299.2C440.8 303 417.4 307.8 398.2 310.4C394.4 300.6 393 296 392 289.6L357 293.8C358.8 297.4 361.2 302.8 365.4 313.8C356.4 314.6 341 315.2 329.6 315.2C320.4 315.2 313.8 315 306.8 314.2L308.6 343.6ZM519.4 331C523.4 330.6 527.2 330.2 532.6 330C560.8 328.6 568.8 328.2 579.4 327C554.6 351.6 512.4 384.4 494 393L512.6 423.4C519.2 417.4 525.6 412.4 531.8 408.4C549.8 396.6 572.2 390 593.4 390C615.6 390 629.2 398.6 629.2 412.6C629.2 422.8 624.2 429.6 613.4 434.4C610.4 427 608.2 423 604.2 418.6C595.6 408.8 582.8 403.2 568.4 403.2C545.2 403.2 528.6 416.6 528.6 435.2C528.6 457.4 549.2 470.8 583 470.8C603 470.8 622.2 466.2 636 458.2C654.2 447.4 663.6 431.4 663.6 411.2C663.6 396.8 658.6 385.2 649 376.6C638.4 367.4 625 363 606.2 363C595.8 363 590 363.8 578.8 366.6C592.2 356.8 595.8 353.8 606.4 344.8C633.4 321.6 633.4 321.6 638.6 318.6L622.2 294.4C618.4 296 615.8 296.6 607 297.2C586.8 298.8 564.6 299.6 546.8 299.6C533.8 299.6 526.4 299.2 518 298.2L519.4 331ZM583.6 443.4C579.8 444 579.4 444 577 444C566.2 444 559.8 440.6 559.8 435.2C559.8 431.2 563 428.6 567.6 428.6C575.4 428.6 581 433.8 583.6 443.4Z" fill="white"/>
<path d="M709.5 465C709.5 471.098 704.164 476.5 697 476.5C689.836 476.5 684.5 471.098 684.5 465C684.5 458.902 689.836 453.5 697 453.5C704.164 453.5 709.5 458.902 709.5 465Z" stroke="white" stroke-width="9"/>
</svg>
