<svg width="706" height="465" viewBox="0 0 706 465" fill="none" xmlns="http://www.w3.org/2000/svg">
<path d="M329.4 75C328.8 76.6 328.8 76.6 328.4 77.6C325.6 85 323.4 89.2 316 101C314.2 98.6 313.8 97.8 312.2 95.8C318 87 322.4 79 329.2 64.2L308.6 55C306.8 63.2 303.4 72 299 80.2C297.2 78 297 77.8 294.8 75.6L282.2 96.8C290.6 104.2 296.2 110.2 303.6 119.8C300.4 124.2 298.8 126.2 293.2 133C292 133 291.2 133 290.4 133C288 133 284.4 132.8 281.2 132.4L286.4 158C290.6 156.8 291.8 156.8 302.2 155.4C311.4 154.4 322.6 152.6 332.2 150.8C333 155.4 333.2 157 334 162.6L348 156.6C351.4 156.4 354.6 156.4 360.2 156.2C360.2 159 360.2 159.6 360.2 163.6V166.2H311.2C301.6 166.2 292.2 165.6 285.6 164.6V193.8C292.6 193 300.2 192.6 310.8 192.6H340.6C325.8 203.6 307.8 210.6 281.2 216.2C288.6 224.4 292 229.6 298.6 242C311.8 238.4 322 234.4 333 228.4C345.4 221.6 352.6 216.2 360.6 207.2C360.2 215 360.2 216.4 360.2 218.8V224.8C360.2 233 359.8 237.4 358.6 244H392.2C391 237.2 390.6 233.4 390.6 225V218.4C390.6 216.6 390.4 212.8 390.2 206.8C406.4 223.4 427.4 235 454.8 242.2C460.8 230.4 464.2 224.8 471 215.4C446.2 211 427 203.8 410 192.6H441.2C452 192.6 459.4 193 466.4 193.8V165C461.2 165.8 452.6 166.2 441.2 166.2H390.6V163.6C390.6 161.2 390.6 160 390.6 156.2C397 156.2 400.8 156.4 405.4 156.8C405 152.2 404.8 147.2 404.8 139V133.4L410 157.4C413 156.6 414 156.4 417.8 156C431.6 154.2 441.6 152.6 450.4 150.8C450.8 154.4 451 155.6 451.4 159.8L471.4 153C467.8 135.8 465.8 129.2 459.6 113.2L445 118C451.4 109.2 455.4 103.4 459.6 96.8C463.6 90.2 466 86.4 466.6 85.6L446.8 75C443 84.6 441.2 88.2 433.4 100.8C431.8 98.8 431.8 98.6 429.2 95.2C434.4 87.8 439.6 78.6 444.2 68.8C444.6 67.8 444.8 67.4 445 67C445.8 65.6 445.8 65.6 446.4 64.2L425.6 55C424 62.8 420.8 71.6 416 79.8C414 77.6 414 77.6 412.2 75.8L404.8 88C404.8 81.2 405 80 405.4 75C400.6 75.6 397.6 75.6 389.2 75.6H387.4C390.4 68.6 392.4 63.4 394.2 57.6L365.2 54.4C364 62.8 362.6 68.2 359.8 75.6C352.4 75.6 350.2 75.4 346 75C346.4 79.4 346.4 80.8 346.6 84L329.4 75ZM346.6 134.8C344.2 126.2 343.2 123 340 114.4L327.4 119C335.8 107.4 337 105.4 346.6 89.6V134.8ZM404.8 100.6C410.6 106.4 416.4 112.8 421.2 119C416.8 124.6 416.8 124.6 410 132.8C408.6 132.8 408.6 132.8 404.8 132.6V100.6ZM324.8 122.2C326.2 125.8 326.6 126.8 327.8 130.8C323.2 131.4 321.2 131.6 317 132C320.8 127.6 321.8 126.2 324.8 122.2ZM442.8 120.8C445 127.4 445.2 127.6 446 131C441.4 131.6 440 131.6 433.6 132C437.8 127.4 439 125.8 442.8 120.8ZM369.2 96.2H381.8V106H369.2V96.2ZM369.2 125.6H381.8V135.6H369.2V125.6ZM601 77.6C602.2 74.2 602.8 72.2 603.8 69C606 62.6 606.4 61.6 607.8 58.8L573.4 53.8C572.4 60.6 570.6 67.4 566.8 77.6H535.2C524.2 77.6 515.6 77.2 509.4 76.4V107.8C516.8 107 524.8 106.6 535.2 106.6H553C549.2 112.8 546.8 116.4 542.6 121.8H531C531.6 125 531.8 127.6 532 133.8C523.2 142.6 515 149.2 503.4 157.2C511.4 168.6 515.2 175.4 519.8 187.6C525.8 183 527.8 181.4 532 177.8V218.6C532 229.8 531.6 236.8 530.8 243.8H563.2C562.6 238.2 562.4 230.6 562.4 218.6V146.8C572.8 133.8 581.2 120.8 588.4 106.6H666.6C677 106.6 685 107 692.4 107.8V76.4C686 77.2 677.6 77.6 666.6 77.6H601ZM641.6 142.6V134.2C641.6 122.8 641.8 117.8 642.6 113.2H609.8C610.6 118.6 610.8 123.6 610.8 133.6V142.6H595.2C584.4 142.6 578.2 142.2 571.8 141.4V172C578.4 171.2 585.2 170.8 595.4 170.8H610.8V209.6H591.2C580.2 209.6 574 209.2 567 208.4V239.2C574.6 238.4 581.2 238 591.4 238H665.8C676 238 682.4 238.4 690.2 239.2V208.4C683.8 209.2 677.2 209.6 666 209.6H641.6V170.8H660.4C670.6 170.8 677.4 171.2 684 172V141.4C677.6 142.2 671.4 142.6 660.6 142.6H641.6Z" fill="white"/>
<path d="M325.54 303.59H314.33C310.53 295.99 307.3 290.67 301.79 282.5L274.62 290.1C278.61 295.04 280.89 298.46 283.74 303.59H275.57C268.54 303.59 263.79 303.4 257.9 302.83C258.47 309.48 258.66 313.66 258.66 320.5V335.32C258.66 341.02 258.28 345.39 257.71 350.33H283.93V364.39C283.93 370.85 283.74 374.84 283.17 379.59C289.25 379.21 291.15 379.21 301.98 379.21H380.07C391.09 379.21 392.8 379.21 399.07 379.59C398.5 375.6 398.31 371.04 398.31 364.39V350.33H424.91C424.15 345.2 423.96 341.4 423.96 335.13V320.31C423.96 312.33 424.15 307.2 424.53 302.83C420.16 303.4 416.17 303.59 405.34 303.59H398.12C402.11 297.89 403.44 295.61 406.86 289.72L378.74 282.12C374.94 290.86 371.9 296.18 366.77 303.59H354.8V294.85C354.8 289.53 354.99 285.16 355.75 281.74H324.59C325.16 285.73 325.54 289.34 325.54 294.66V303.59ZM396.03 333.04C387.48 333.23 382.16 333.23 380.07 333.23H301.41C297.23 333.23 294.95 333.23 286.59 333.04V327.53H396.03V333.04ZM370.57 352.8V360.21H311.67V352.8H370.57ZM389.76 455.59V461.29H418.83C418.07 454.45 417.88 447.99 417.88 438.68V404.67C417.88 396.69 418.07 390.42 418.64 384.15C412.75 384.72 408 384.91 398.31 384.91H285.26C275.38 384.91 270.63 384.72 264.93 384.15C265.5 390.99 265.69 396.5 265.69 404.67V438.68C265.69 447.61 265.31 454.26 264.74 461.29H293.81V455.59H389.76ZM326.68 410.56H293.81V404.1H326.68V410.56ZM326.68 434.5H293.81V427.66H326.68V434.5ZM389.76 404.1V410.56H354.61V404.1H389.76ZM389.76 427.66V434.5H354.61V427.66H389.76ZM539.29 318.03V429.56C539.29 443.81 539.1 450.46 538.15 459.39H571.02C570.07 450.27 569.88 443.62 569.88 429.56V362.68C587.93 374.08 600.66 384.15 618.14 400.68L638.09 376.93C624.98 365.53 616.81 359.26 600.85 349C591.35 342.73 586.22 339.69 569.88 330.95V318.03H617.57C628.21 318.03 636.95 318.41 646.45 319.17V289.15C637.71 289.91 628.21 290.29 617.57 290.29H502.05C491.03 290.29 481.34 289.91 473.17 289.15V319.17C482.1 318.41 491.6 318.03 502.05 318.03H539.29Z" fill="white"/>
<path d="M701.251 449C701.251 455.099 695.916 460.5 688.756 460.5C681.595 460.5 676.26 455.099 676.26 449C676.26 442.901 681.595 437.5 688.756 437.5C695.916 437.5 701.251 442.901 701.251 449Z" stroke="white" stroke-width="9"/>
</svg>