<svg id="Layer_1" data-name="Layer 1" xmlns="http://www.w3.org/2000/svg" viewBox="0 0 139.07 139.07"><defs><style>.cls-1{fill:#009444;}.cls-2{fill:#9e1f63;}.cls-3{fill:#b8aacf;}.cls-4{fill:#92278f;}.cls-5{fill:#27aae1;}.cls-6{fill:#f2c7c8;}.cls-7{fill:#ec008c;}.cls-8{fill:#44c8f5;}.cls-9{fill:#8a5a37;}.cls-10{fill:#a87948;}.cls-11{fill:#e5b59a;}.cls-12{fill:#c4161c;}.cls-13{fill:#023f88;}.cls-14{fill:#602d23;}.cls-15{fill:#ffcb05;}.cls-16{fill:#fab8a5;}.cls-17{fill:#1c75bc;}.cls-18{fill:#92adda;}.cls-19{fill:#39b54a;}.cls-20{fill:#e39717;}.cls-21{fill:#ef413d;}.cls-22{fill:#da1c5c;}.cls-23{fill:#bcbec0;}.cls-24{fill:#00a79d;}.cls-25{fill:#3d5799;}.cls-26{fill:#558560;}.cls-27{fill:#dda07f;}.cls-28{fill:#fbc4b4;}.cls-29{fill:#da785d;}.cls-30{fill:#d0543b;}.cls-31{fill:#fab485;}.cls-32{fill:#f37021;}.cls-33{fill:#f15a22;}.cls-34{fill:#33a3dc;}.cls-35{fill:#8dc63f;}.cls-36{fill:#bfdc92;}.cls-37{fill:#cfe5ae;}.cls-38{fill:#f9ec00;}.cls-39{fill:#d7df23;}.cls-40{fill:#ee3d96;}.cls-41{fill:#eeb0b4;}.cls-42{fill:#ed1c24;}.cls-43{fill:#ed0677;}.cls-44{fill:#fff;stroke:#fff;}.cls-44,.cls-46{stroke-miterlimit:10;stroke-width:2px;}.cls-45{opacity:0.22;}.cls-46{fill:#231f20;stroke:#231f20;}</style></defs><polygon class="cls-1" points="69.54 23.18 92.72 0 69.54 0 69.54 23.18"/><polygon class="cls-2" points="23.18 69.54 46.36 46.36 23.18 46.36 23.18 69.54"/><polygon class="cls-3" points="69.54 23.18 92.72 46.36 92.72 23.18 69.54 23.18"/><polygon class="cls-4" points="46.36 23.18 69.54 46.36 69.54 23.18 46.36 23.18"/><polygon class="cls-5" points="92.72 23.18 115.89 46.36 115.89 23.18 92.72 23.18"/><polygon class="cls-6" points="46.36 46.36 69.54 69.54 69.54 46.36 46.36 46.36"/><polygon class="cls-7" points="23.18 23.18 46.36 46.36 46.36 23.18 23.18 23.18"/><polygon class="cls-8" points="46.36 0 69.54 23.18 69.54 0 46.36 0"/><polygon class="cls-9" points="46.36 139.07 69.54 115.89 46.36 115.89 46.36 139.07"/><polygon class="cls-9" points="69.54 115.89 92.72 92.72 69.54 92.72 69.54 115.89"/><polygon class="cls-10" points="69.54 115.89 46.36 139.07 69.54 139.07 69.54 115.89"/><polygon class="cls-11" points="46.36 69.54 69.54 92.71 69.54 69.54 46.36 69.54"/><polygon class="cls-12" points="23.18 92.72 46.36 115.89 46.36 92.72 23.18 92.72"/><polygon class="cls-13" points="115.89 69.54 139.07 92.71 139.07 69.54 115.89 69.54"/><polygon class="cls-14" points="23.18 115.89 46.36 139.07 46.36 115.89 23.18 115.89"/><polygon class="cls-15" points="92.72 139.07 69.54 115.89 69.54 139.07 92.72 139.07"/><polygon class="cls-16" points="92.72 139.07 115.89 115.89 92.72 115.89 92.72 139.07"/><polygon class="cls-4" points="46.36 46.36 23.18 23.18 23.18 46.36 46.36 46.36"/><polygon class="cls-17" points="46.36 0 69.54 23.18 46.36 23.18 46.36 0"/><polygon class="cls-18" points="46.36 23.18 69.54 46.36 46.36 46.36 46.36 23.18"/><polygon class="cls-19" points="115.89 69.54 92.72 46.36 115.89 46.36 115.89 69.54"/><polygon class="cls-20" points="23.18 69.54 0 92.71 0 69.54 23.18 69.54"/><polyline class="cls-21" points="23.18 23.18 0 46.36 23.18 46.36"/><polyline class="cls-22" points="46.36 0 23.18 23.18 46.36 23.18"/><polygon class="cls-23" points="69.54 46.36 92.72 69.54 69.54 69.54 69.54 46.36"/><polygon class="cls-24" points="69.54 23.18 92.72 46.36 69.54 46.36 69.54 23.18"/><polygon class="cls-25" points="115.89 92.72 92.72 69.54 115.89 69.54 115.89 92.72"/><polygon class="cls-26" points="115.89 69.54 139.07 46.36 139.07 69.54 115.89 69.54"/><polygon class="cls-15" points="23.18 115.89 0 92.71 23.18 92.71 23.18 115.89"/><polygon class="cls-27" points="0 46.36 23.18 69.54 0 69.54 0 46.36"/><polygon class="cls-28" points="46.36 115.89 69.54 92.72 46.36 92.72 46.36 115.89"/><polygon class="cls-21" points="23.18 92.71 46.36 69.54 23.18 69.54 23.18 92.71"/><polygon class="cls-29" points="92.72 92.71 69.54 69.54 69.54 92.71 92.72 92.71"/><polygon class="cls-30" points="46.36 115.89 23.18 92.72 23.18 115.89 46.36 115.89"/><polygon class="cls-17" points="139.07 92.71 115.89 69.54 115.89 92.71 139.07 92.71"/><polygon class="cls-31" points="0 92.71 23.18 69.54 23.18 92.71 0 92.71"/><polygon class="cls-32" points="23.18 92.71 46.36 69.54 46.36 92.71 23.18 92.71"/><polygon class="cls-33" points="92.72 92.71 69.54 115.89 92.72 115.89 92.72 92.71"/><polygon class="cls-34" points="139.07 92.71 115.89 115.89 115.89 92.71 139.07 92.71"/><polygon class="cls-34" points="115.89 92.71 92.72 115.89 92.72 92.71 115.89 92.71"/><polygon class="cls-35" points="115.89 23.18 92.72 0 92.72 23.18 115.89 23.18"/><polygon class="cls-36" points="115.89 46.36 92.72 23.18 92.72 46.36 115.89 46.36"/><polygon class="cls-36" points="115.89 69.54 92.72 46.36 92.72 69.54 115.89 69.54"/><polygon class="cls-36" points="115.89 92.72 92.72 69.54 92.72 92.72 115.89 92.72"/><polygon class="cls-1" points="139.07 46.36 115.89 23.18 115.89 46.36 139.07 46.36"/><polygon class="cls-1" points="115.89 23.18 115.89 23.18 115.89 23.18 115.89 23.18"/><polygon class="cls-1" points="92.72 0 92.72 0 92.72 23.18 92.72 23.18 92.72 0 115.89 23.18 115.89 23.18 92.72 0"/><path class="cls-37" d="M121.44,28.61h0l23.17,23.18h0a46.08,46.08,0,0,0-6.21-23.18Z" transform="translate(-5.54 -5.43)"/><path class="cls-38" d="M121.44,11.65v17h17A46.59,46.59,0,0,0,121.44,11.65Z" transform="translate(-5.54 -5.43)"/><path class="cls-39" d="M121.44,11.65A46.09,46.09,0,0,0,98.26,5.43l23.18,23.18Z" transform="translate(-5.54 -5.43)"/><path class="cls-40" d="M28.72,28.61h0L5.54,51.79h0a46.09,46.09,0,0,1,6.22-23.18Z" transform="translate(-5.54 -5.43)"/><path class="cls-41" d="M28.72,11.65v17h-17A46.59,46.59,0,0,1,28.72,11.65Z" transform="translate(-5.54 -5.43)"/><path class="cls-42" d="M28.72,11.65A46.12,46.12,0,0,1,51.9,5.43L28.72,28.61Z" transform="translate(-5.54 -5.43)"/><path class="cls-14" d="M28.72,121.33h0L5.54,98.15h0a46.12,46.12,0,0,0,6.22,23.18Z" transform="translate(-5.54 -5.43)"/><path class="cls-9" d="M28.72,138.28v-17h-17A46.64,46.64,0,0,0,28.72,138.28Z" transform="translate(-5.54 -5.43)"/><path class="cls-10" d="M28.72,138.28A46.12,46.12,0,0,0,51.9,144.5L28.72,121.33Z" transform="translate(-5.54 -5.43)"/><path class="cls-8" d="M121.44,121.33h0l23.17-23.18h0a46.11,46.11,0,0,1-6.21,23.18Z" transform="translate(-5.54 -5.43)"/><path class="cls-4" d="M121.44,138.28v-17h17A46.64,46.64,0,0,1,121.44,138.28Z" transform="translate(-5.54 -5.43)"/><path class="cls-43" d="M121.44,138.28a46.09,46.09,0,0,1-23.18,6.22l23.18-23.17Z" transform="translate(-5.54 -5.43)"/><path class="cls-44" d="M28.87,118.88a2.24,2.24,0,0,1-2.54-2.54q0-6.86,15.43-26A228.41,228.41,0,0,1,74,57.29q6.1-12.82,6.1-19.94,0-8.51-8.51-8.51-8,0-18.86,8A89.56,89.56,0,0,0,34.33,54.69q-7.5,9.84-7.49,15.43,0,4.06,4.69,4.06,6.74,0,14.67-6.86A58.57,58.57,0,0,0,58.08,54c.93-1.53,1.69-2.29,2.28-2.29a.79.79,0,0,1,.89.89,2.35,2.35,0,0,1-.51,1.52Q56.43,60.59,47,69T29.88,77.35q-7.74,0-7.74-5.71,0-5,5.33-12.83a92.78,92.78,0,0,1,13-15.17A83.09,83.09,0,0,1,57.76,31.06q9.59-5.26,17.08-5.27,9.78,0,9.78,9.65,0,6.36-4.57,17.15,12.57-9.27,20.19-9.27,4.58,0,4.57,4.82T96.3,66.88A299.42,299.42,0,0,1,79.29,92l-8.51,11.3c0,.17,0,.26.12.26q4.83-3.3,17-14.48t22.35-19.31q10.23-8.12,15.18-8.12a2.58,2.58,0,0,1,2.92,2.92q0,2.93-7.62,13.08T105.45,98.44q-7.62,10.66-7.62,14.73t3.43,4.06q3.93,0,10.28-4a60.61,60.61,0,0,0,8.89-6.41c1.7-1.61,2.75-2.41,3.18-2.41s.63.17.63.5c0,1-1.41,2.76-4.25,5.21a53.86,53.86,0,0,1-10.67,7c-4.27,2.2-7.94,3.3-11,3.3q-6.11,0-6.1-5t4.26-12.25a105.74,105.74,0,0,1,9.33-13.47Q120.31,72.41,122,66.81c0-.93-.43-1.39-1.27-1.39q-3,0-18.8,13.71T78.78,100q-7.36,7.11-9.91,9.65c-1.69,1.7-3,3-3.93,4.07s-1.87,1.94-2.8,2.79c-1.78,1.61-3,2.41-3.55,2.41a.39.39,0,0,1-.26-.12A1.81,1.81,0,0,1,57.19,117q0-3.18,8.13-13.34A361.41,361.41,0,0,0,89.76,69.86q10.11-16,10.1-21.33c0-1.36-.85-2-2.54-2q-6.22,0-19.56,11.18Q68.11,77.48,51.35,98.18T28.87,118.88Zm2.79-3.3q3.3,0,16.64-17.33A249.41,249.41,0,0,0,70.78,63.77a271,271,0,0,0-27.5,29.52q-13,16.2-13,20.89A1.24,1.24,0,0,0,31.66,115.58Z" transform="translate(-5.54 -5.43)"/><g class="cls-45"><path class="cls-44" d="M32.36,109.29a2.24,2.24,0,0,1-2.54-2.54q0-6.85,15.43-26a227.94,227.94,0,0,1,32.2-33q6.09-12.83,6.09-19.94,0-8.51-8.51-8.51-8,0-18.86,8A90.07,90.07,0,0,0,37.82,45.1q-7.49,9.84-7.49,15.43,0,4.06,4.7,4.06,6.74,0,14.67-6.86A58.26,58.26,0,0,0,61.57,44.4c.93-1.53,1.7-2.29,2.29-2.29a.79.79,0,0,1,.89.89,2.35,2.35,0,0,1-.51,1.52Q59.92,51,50.52,59.38T33.38,67.76q-7.76,0-7.75-5.71,0-4.95,5.34-12.83A92.71,92.71,0,0,1,44,34.05,83.09,83.09,0,0,1,61.25,21.47q9.6-5.26,17.09-5.27,9.76,0,9.78,9.65,0,6.36-4.58,17.15,12.57-9.27,20.2-9.27c3,0,4.57,1.61,4.57,4.82S105.47,48,99.8,57.29a299.42,299.42,0,0,1-17,25.08l-8.51,11.3c0,.17,0,.26.13.26q4.83-3.3,16.95-14.48t22.36-19.31Q123.93,52,128.88,52a2.58,2.58,0,0,1,2.92,2.92q0,2.93-7.62,13.08T108.94,88.85q-7.62,10.66-7.62,14.73c0,2.71,1.15,4.06,3.43,4.06,2.63,0,6-1.33,10.29-4a61.76,61.76,0,0,0,8.89-6.41c1.69-1.61,2.75-2.41,3.17-2.41s.64.17.64.5q0,1.53-4.26,5.21a53.77,53.77,0,0,1-10.66,7q-6.42,3.3-11,3.3-6.09,0-6.09-5T100,93.55a107.83,107.83,0,0,1,9.33-13.47q14.49-17.27,16.13-22.86c0-.93-.42-1.39-1.27-1.39q-3,0-18.79,13.71T82.27,90.37q-7.36,7.11-9.9,9.65c-1.7,1.7-3,3-3.94,4.07s-1.86,2-2.79,2.79c-1.78,1.61-3,2.41-3.56,2.41a.37.37,0,0,1-.25-.12,1.8,1.8,0,0,1-1.15-1.78q0-3.18,8.13-13.34A359.8,359.8,0,0,0,93.26,60.27q10.09-16,10.1-21.33c0-1.36-.85-2-2.54-2q-6.22,0-19.56,11.18Q71.6,67.9,54.84,88.59T32.36,109.29Zm2.8-3.3q3.3,0,16.63-17.33A248.5,248.5,0,0,0,74.27,54.18,269.9,269.9,0,0,0,46.78,83.7q-13,16.2-13,20.89A1.23,1.23,0,0,0,35.16,106Z" transform="translate(-5.54 -5.43)"/></g><path class="cls-46" d="M29,115.79a2.3,2.3,0,0,1-2.6-2.6q0-7,15.79-26.65a233.57,233.57,0,0,1,33-33.8q6.24-13.12,6.24-20.41,0-8.71-8.71-8.71-8.19,0-19.31,8.19A91.7,91.7,0,0,0,34.62,50.08Q26.94,60.15,27,65.87c0,2.78,1.6,4.16,4.81,4.16q6.89,0,15-7A59.66,59.66,0,0,0,58.93,49.36Q60.36,47,61.27,47a.81.81,0,0,1,.91.91,2.44,2.44,0,0,1-.52,1.56q-4.42,6.63-14,15.21T30.07,73.28q-7.93,0-7.93-5.85,0-5.07,5.46-13.13A95.23,95.23,0,0,1,40.92,38.77,84.64,84.64,0,0,1,58.6,25.9q9.83-5.4,17.49-5.4,10,0,10,9.88,0,6.51-4.68,17.55,12.87-9.49,20.67-9.49,4.68,0,4.68,4.94T98.06,62.56A306.92,306.92,0,0,1,80.64,88.23L71.93,99.8c0,.17,0,.26.13.26Q77,96.69,89.41,85.24t22.88-19.76q10.47-8.31,15.54-8.32a2.65,2.65,0,0,1,3,3q0,3-7.8,13.39t-15.6,21.32q-7.8,10.92-7.8,15.08t3.51,4.16c2.68,0,6.2-1.36,10.53-4.1a62.85,62.85,0,0,0,9.1-6.56c1.73-1.65,2.82-2.47,3.25-2.47s.65.17.65.52q0,1.56-4.36,5.33A55.21,55.21,0,0,1,111.38,114q-6.55,3.38-11.24,3.38-6.24,0-6.24-5.14t4.35-12.54a110,110,0,0,1,9.56-13.78q14.82-17.69,16.51-23.4c0-1-.44-1.43-1.3-1.43q-3.12,0-19.24,14T80.12,96.42Q72.58,103.7,70,106.3c-1.73,1.74-3.08,3.12-4,4.16s-1.91,2-2.86,2.86q-2.73,2.48-3.64,2.47a.35.35,0,0,1-.26-.13A1.84,1.84,0,0,1,58,113.84q0-3.25,8.32-13.65a369.72,369.72,0,0,0,25-34.58Q101.7,49.23,101.7,43.77c0-1.38-.87-2.08-2.6-2.08q-6.37,0-20,11.44Q69.19,73.41,52,94.6T29,115.79Zm2.86-3.38q3.38,0,17-17.74a255.37,255.37,0,0,0,23-35.3A277.2,277.2,0,0,0,43.78,89.59Q30.46,106.18,30.46,111A1.27,1.27,0,0,0,31.89,112.41Z" transform="translate(-5.54 -5.43)"/></svg>