<svg xmlns="http://www.w3.org/2000/svg" viewBox="0 0 189.39 189.39"><defs><style>.cls-1{isolation:isolate;}.cls-2{mix-blend-mode:multiply;}.cls-3{fill:#d1d3d4;opacity:0;}.cls-4{fill:#caccce;opacity:0.05;}.cls-5{fill:#c3c5c7;opacity:0.1;}.cls-6{fill:#bcbec0;opacity:0.14;}.cls-7{fill:#b5b7b9;opacity:0.19;}.cls-8{fill:#aeb0b2;opacity:0.24;}.cls-9{fill:#a7a9ac;opacity:0.29;}.cls-10{fill:#a0a2a5;opacity:0.33;}.cls-11{fill:#9a9c9e;opacity:0.38;}.cls-12{fill:#939598;opacity:0.43;}.cls-13{fill:#8d8f92;opacity:0.48;}.cls-14{fill:#87888b;opacity:0.52;}.cls-15{fill:#808285;opacity:0.57;}.cls-16{fill:#7a7c7e;opacity:0.62;}.cls-17{fill:#747578;opacity:0.67;}.cls-18{fill:#6d6e71;opacity:0.71;}.cls-19{fill:#66686a;opacity:0.76;}.cls-20{fill:#5f6063;opacity:0.81;}.cls-21{fill:#58595b;opacity:0.86;}.cls-22{fill:#515153;opacity:0.9;}.cls-23{fill:#49494b;opacity:0.95;}.cls-24,.cls-64{fill:#414042;}.cls-25{fill:#009444;}.cls-26{fill:#9e1f63;}.cls-27{fill:#b8aacf;}.cls-28{fill:#c1b6d6;}.cls-29{fill:#542785;}.cls-30{fill:#44c8f5;}.cls-31{fill:#8a5a37;}.cls-32{fill:#a87948;}.cls-33{fill:#e5b59a;}.cls-34{fill:#92278f;}.cls-35{fill:#ffcb05;}.cls-36{fill:#fab8a5;}.cls-37{fill:#1c75bc;}.cls-38{fill:#92adda;}.cls-39{fill:#00a99d;}.cls-40{fill:#e39717;}.cls-41{fill:#ef413d;}.cls-42{fill:#3d5799;}.cls-43{fill:#558560;}.cls-44{fill:#dda07f;}.cls-45{fill:#fbc4b4;}.cls-46{fill:#da785d;}.cls-47{fill:#d0543b;}.cls-48{fill:#fab485;}.cls-49{fill:#f37021;}.cls-50{fill:#f15a22;}.cls-51{fill:#33a3dc;}.cls-52{fill:#8dc63f;}.cls-53{fill:#bfdc92;}.cls-54{fill:#cfe5ae;}.cls-55{fill:#f9ec00;}.cls-56{fill:#d7df23;}.cls-57{fill:#ee3d96;}.cls-58{fill:#eeb0b4;}.cls-59{fill:#ed1c24;}.cls-60{fill:#602d23;}.cls-61{fill:#ed0677;}.cls-62{fill:#fff;stroke:#fff;}.cls-62,.cls-64{stroke-miterlimit:10;stroke-width:2px;}.cls-63{opacity:0.22;}.cls-64{stroke:#414042;}</style></defs><g class="cls-1"><g id="Layer_1" data-name="Layer 1"><g class="cls-2"><path class="cls-3" d="M150.93,220.83H100.8l-.62,0a71.66,71.66,0,0,1-67.12-71.48V103a71.52,71.52,0,0,1,71.51-71.51h46.36A71.53,71.53,0,0,1,222.45,103v46.36a71.56,71.56,0,0,1-71.52,71.52Z" transform="translate(-33.06 -31.44)"/><path class="cls-4" d="M43.48,67.65A70.59,70.59,0,0,1,104.57,32.4h46a74.15,74.15,0,0,1,9.66.63,70.56,70.56,0,0,1,25.86,8.75c1.4.81,2.76,1.66,4.1,2.55a70.45,70.45,0,0,1,31,52.24c.2,2.12.3,4.53.3,6.66v46.08a70.57,70.57,0,0,1-70.56,70.56H101.21l-.61,0a70.47,70.47,0,0,1-31.16-9.35q-2.1-1.2-4.11-2.55a70.48,70.48,0,0,1-31-52.24c-.19-2.12-.3-4.52-.3-6.66V103A70.6,70.6,0,0,1,43.48,67.65Z" transform="translate(-33.06 -31.44)"/><path class="cls-5" d="M44.31,68.13a69.67,69.67,0,0,1,60.26-34.78h45.59a76.69,76.69,0,0,1,9.59.61,69.4,69.4,0,0,1,25.67,8.56q2.09,1.18,4.07,2.52a69.37,69.37,0,0,1,30.75,51.85c.19,2,.29,4.59.29,6.62v45.8a69.61,69.61,0,0,1-69.6,69.6h-49.3l-.61,0a75.42,75.42,0,0,1-9-1.07,70.15,70.15,0,0,1-22-8.07Q68,208.55,66,207.23a69.44,69.44,0,0,1-30.75-51.86c-.19-2-.29-4.59-.29-6.62V103A69.58,69.58,0,0,1,44.31,68.13Z" transform="translate(-33.06 -31.44)"/><path class="cls-6" d="M45.14,68.61a68.7,68.7,0,0,1,59.43-34.3h45.21a79.17,79.17,0,0,1,9.5.58,68.52,68.52,0,0,1,25.49,8.37q2.07,1.17,4,2.48A68.41,68.41,0,0,1,219.3,97.21c.18,1.91.27,4.66.27,6.58v45.52A68.65,68.65,0,0,1,150.93,218H102l-.6,0a76.47,76.47,0,0,1-8.9-1,69.4,69.4,0,0,1-21.8-7.9q-2.07-1.19-4-2.49A68.41,68.41,0,0,1,36.2,155.05c-.18-1.9-.27-4.65-.27-6.57V103A68.67,68.67,0,0,1,45.14,68.61Z" transform="translate(-33.06 -31.44)"/><path class="cls-7" d="M46,69.09a67.74,67.74,0,0,1,58.6-33.82H149.4a82.24,82.24,0,0,1,9.42.54A67.39,67.39,0,0,1,184.12,44q2.06,1.16,4,2.45a67.39,67.39,0,0,1,30.22,51.08c.17,1.8.25,4.72.25,6.54v45.24A67.68,67.68,0,0,1,150.93,217H102.46l-.6,0A79.24,79.24,0,0,1,93,216a68,68,0,0,1-21.65-7.74c-1.37-.78-2.72-1.59-4-2.46a67.42,67.42,0,0,1-30.22-51.08c-.16-1.8-.25-4.72-.25-6.53V103A67.66,67.66,0,0,1,46,69.09Z" transform="translate(-33.06 -31.44)"/><path class="cls-8" d="M46.8,69.57a66.78,66.78,0,0,1,57.77-33.34H149a85.74,85.74,0,0,1,9.35.51,66.48,66.48,0,0,1,25.11,8q2,1.14,4,2.42a66.33,66.33,0,0,1,29.95,50.69c.16,1.69.24,4.79.24,6.5v45A66.73,66.73,0,0,1,150.93,216H102.87l-.59,0a85.89,85.89,0,0,1-8.75-.9A67.19,67.19,0,0,1,72,207.53c-1.36-.76-2.7-1.57-4-2.42a66.4,66.4,0,0,1-29.95-50.7c-.16-1.69-.24-4.78-.24-6.49V103A66.68,66.68,0,0,1,46.8,69.57Z" transform="translate(-33.06 -31.44)"/><path class="cls-9" d="M47.63,70.05a65.81,65.81,0,0,1,56.94-32.86h44.06a89.31,89.31,0,0,1,9.26.48,65.4,65.4,0,0,1,24.93,7.81q2,1.13,4,2.38a65.93,65.93,0,0,1,21.08,22.19,65.23,65.23,0,0,1,8.6,28.12c.15,1.59.23,4.86.23,6.46v44.68a65.79,65.79,0,0,1-65.77,65.77H103.29l-.59,0c-2.17-.14-6.52-.42-8.68-.84a66.07,66.07,0,0,1-21.33-7.42c-1.35-.75-2.68-1.55-4-2.39A65.33,65.33,0,0,1,39,154.1c-.15-1.59-.22-4.86-.22-6.46V103A65.77,65.77,0,0,1,47.63,70.05Z" transform="translate(-33.06 -31.44)"/><path class="cls-10" d="M48.46,70.53a64.85,64.85,0,0,1,56.11-32.38h43.67c2.18,0,7,.15,9.19.44a64.51,64.51,0,0,1,24.74,7.63q2,1.11,3.94,2.35a64.41,64.41,0,0,1,29.42,49.92c.14,1.48.21,4.92.21,6.42v44.4a64.83,64.83,0,0,1-64.81,64.81H103.7l-.57,0c-2-.12-6.6-.39-8.61-.78a65.18,65.18,0,0,1-21.18-7.26c-1.35-.74-2.66-1.53-4-2.36A64.32,64.32,0,0,1,40,153.78c-.14-1.48-.21-4.93-.21-6.42V103A64.78,64.78,0,0,1,48.46,70.53Z" transform="translate(-33.06 -31.44)"/><path class="cls-11" d="M49.29,71a63.89,63.89,0,0,1,55.28-31.9h43.29c2,0,7.11.13,9.1.41A63.45,63.45,0,0,1,181.52,47c1.33.73,2.64,1.5,3.91,2.32a63.37,63.37,0,0,1,29.15,49.53c.13,1.37.2,5,.2,6.37v44.13a63.87,63.87,0,0,1-63.85,63.85H104.11l-.56,0c-1.89-.12-6.67-.37-8.54-.73a63.85,63.85,0,0,1-21-7.1c-1.34-.73-2.64-1.5-3.92-2.32a64,64,0,0,1-20.78-21.73,63.34,63.34,0,0,1-8.37-27.8c-.13-1.38-.2-5-.2-6.38V103A63.88,63.88,0,0,1,49.29,71Z" transform="translate(-33.06 -31.44)"/><path class="cls-12" d="M50.12,71.49a63,63,0,0,1,54.45-31.43h42.91c1.86,0,7.18.13,9,.39a62.56,62.56,0,0,1,24.37,7.25c1.32.72,2.62,1.48,3.88,2.28a62.92,62.92,0,0,1,20.63,21.51,62.21,62.21,0,0,1,8.26,27.64c.12,1.27.18,5.05.18,6.33v43.85a62.9,62.9,0,0,1-62.89,62.89h-46.4l-.56,0c-1.74-.11-6.74-.33-8.47-.67a63,63,0,0,1-20.86-6.94c-1.33-.72-2.62-1.48-3.89-2.29a62.89,62.89,0,0,1-20.63-21.5,62.24,62.24,0,0,1-8.26-27.64c-.12-1.27-.18-5.06-.18-6.34V103A62.84,62.84,0,0,1,50.12,71.49Z" transform="translate(-33.06 -31.44)"/><path class="cls-13" d="M51,72A61.94,61.94,0,0,1,104.57,41h42.52c1.71,0,7.26.12,8.95.35a61.53,61.53,0,0,1,24.18,7.07c1.31.71,2.6,1.45,3.86,2.25A61.49,61.49,0,0,1,212.7,99.44c.11,1.17.16,5.13.16,6.3v43.57a61.94,61.94,0,0,1-61.93,61.93h-46l-.55,0c-1.6-.1-6.81-.3-8.39-.61a61.82,61.82,0,0,1-20.71-6.78q-2-1.07-3.86-2.26A61.87,61.87,0,0,1,51,180.3a61.23,61.23,0,0,1-8.14-27.48c-.11-1.16-.17-5.12-.17-6.29V103A61.86,61.86,0,0,1,51,72Z" transform="translate(-33.06 -31.44)"/><path class="cls-14" d="M51.78,72.45A61,61,0,0,1,104.57,42h42.14c1.55,0,7.33.11,8.86.32a60.65,60.65,0,0,1,24,6.88c1.31.69,2.58,1.43,3.83,2.22a60.49,60.49,0,0,1,28.35,48.36c.1,1.06.15,5.19.15,6.26v43.29a61,61,0,0,1-61,61H104.81c-1.45-.09-6.88-.28-8.32-.56a61,61,0,0,1-20.56-6.62q-2-1.05-3.83-2.22a61,61,0,0,1-20.32-21.06,60.29,60.29,0,0,1-8-27.31c-.1-1.06-.15-5.19-.15-6.25V103A61,61,0,0,1,51.78,72.45Z" transform="translate(-33.06 -31.44)"/><path class="cls-15" d="M52.61,72.93a60,60,0,0,1,52-30h41.75c1.4,0,7.41.1,8.79.29a59.62,59.62,0,0,1,23.81,6.69c1.3.68,2.56,1.41,3.8,2.18a59.58,59.58,0,0,1,28.09,48c.09,1,.13,5.26.13,6.22v43a60.05,60.05,0,0,1-60,60H105.77l-.54,0c-1.31-.08-7-.25-8.25-.51a59.66,59.66,0,0,1-20.4-6.45c-1.29-.69-2.56-1.41-3.8-2.19a59.58,59.58,0,0,1-28.09-48c-.09-1-.13-5.25-.13-6.21V103A60,60,0,0,1,52.61,72.93Z" transform="translate(-33.06 -31.44)"/><path class="cls-16" d="M53.44,73.41A59.05,59.05,0,0,1,104.57,43.9h41.37c1.24,0,7.48.08,8.7.25a58.61,58.61,0,0,1,23.63,6.51c1.29.67,2.55,1.39,3.78,2.15a59.09,59.09,0,0,1,20,20.6,58.4,58.4,0,0,1,7.81,27c.08.85.12,5.32.12,6.18v42.73a59.09,59.09,0,0,1-59.06,59.06H106.19l-.54,0c-1.16-.07-7-.22-8.18-.45a58.83,58.83,0,0,1-20.24-6.29c-1.28-.67-2.54-1.39-3.77-2.15a59.06,59.06,0,0,1-20-20.61,58.27,58.27,0,0,1-7.8-27c-.08-.84-.12-5.32-.12-6.17V103A59.06,59.06,0,0,1,53.44,73.41Z" transform="translate(-33.06 -31.44)"/><path class="cls-17" d="M54.27,73.89a58.09,58.09,0,0,1,50.3-29h41c1.09,0,7.55.07,8.62.22a57.76,57.76,0,0,1,23.44,6.32c1.28.66,2.53,1.36,3.75,2.12a57.68,57.68,0,0,1,27.55,47.2c.07.74.11,5.39.11,6.14v42.45a58.12,58.12,0,0,1-58.1,58.1H106.07c-1-.07-7.1-.2-8.1-.4a57.78,57.78,0,0,1-20.09-6.13c-1.27-.66-2.52-1.37-3.75-2.12a58.11,58.11,0,0,1-19.86-20.38,57.44,57.44,0,0,1-7.69-26.83c-.07-.74-.11-5.38-.11-6.13V103A58.08,58.08,0,0,1,54.27,73.89Z" transform="translate(-33.06 -31.44)"/><path class="cls-18" d="M55.1,74.37a57.16,57.16,0,0,1,49.47-28.56h40.6c.94,0,7.63.07,8.55.2A56.75,56.75,0,0,1,177,52.14c1.27.65,2.51,1.34,3.72,2.08A57.2,57.2,0,0,1,200.4,74.37,56.55,56.55,0,0,1,208,101c.06.63.09,5.45.09,6.1v42.17a57.16,57.16,0,0,1-57.14,57.14H106.49c-.87-.05-7.17-.17-8-.34a56.75,56.75,0,0,1-19.93-6c-1.26-.65-2.5-1.35-3.72-2.09A57.12,57.12,0,0,1,55.1,177.89a56.55,56.55,0,0,1-7.58-26.67c-.06-.63-.09-5.45-.09-6.09V103A57.07,57.07,0,0,1,55.1,74.37Z" transform="translate(-33.06 -31.44)"/><path class="cls-19" d="M55.93,74.85a56.2,56.2,0,0,1,48.64-28.08h40.22c.78,0,7.69.06,8.46.16a55.87,55.87,0,0,1,23.08,6q1.88.95,3.69,2a56.19,56.19,0,0,1,19.55,19.92A55.62,55.62,0,0,1,207,101.36c.05.53.07,5.52.07,6v41.9a56.2,56.2,0,0,1-56.18,56.18h-44c-.73,0-7.25-.14-8-.28a55.74,55.74,0,0,1-19.77-5.81c-1.25-.64-2.49-1.32-3.69-2a55.86,55.86,0,0,1-27-46.43c0-.53-.08-5.52-.08-6.06V103A56.16,56.16,0,0,1,55.93,74.85Z" transform="translate(-33.06 -31.44)"/><path class="cls-20" d="M56.76,75.33a55.23,55.23,0,0,1,47.81-27.6H144.4c.63,0,7.77,0,8.39.13a54.88,54.88,0,0,1,22.89,5.77c1.24.62,2.46,1.29,3.66,2a55.42,55.42,0,0,1,19.41,19.7,54.79,54.79,0,0,1,7.34,26.35c0,.42.06,5.59.06,6v41.62a55.23,55.23,0,0,1-55.22,55.22H107.34c-.58,0-7.32-.12-7.89-.23a54.93,54.93,0,0,1-19.62-5.65c-1.24-.63-2.47-1.3-3.66-2a54.95,54.95,0,0,1-26.76-46c0-.43-.06-5.59-.06-6V103A55.15,55.15,0,0,1,56.76,75.33Z" transform="translate(-33.06 -31.44)"/><path class="cls-21" d="M57.59,75.81a54.27,54.27,0,0,1,47-27.12H144c.47,0,7.84,0,8.3.1A54.06,54.06,0,0,1,175,54.37c1.23.61,2.45,1.27,3.63,2A54,54,0,0,1,205.15,102c0,.31,0,5.65,0,6v41.34a54.28,54.28,0,0,1-54.27,54.26H107.76c-.44,0-7.39-.08-7.82-.17a53.93,53.93,0,0,1-19.46-5.49c-1.24-.62-2.45-1.28-3.64-2a54.07,54.07,0,0,1-26.49-45.65c0-.32,0-5.65,0-6V103A54.24,54.24,0,0,1,57.59,75.81Z" transform="translate(-33.06 -31.44)"/><path class="cls-22" d="M58.42,76.29a53.31,53.31,0,0,1,46.15-26.64h39.07c.31,0,7.91,0,8.22.06a53.07,53.07,0,0,1,22.52,5.4c1.22.6,2.43,1.24,3.61,1.94a53.13,53.13,0,0,1,26.22,45.27c0,.21,0,5.72,0,5.93v41.06a53.35,53.35,0,0,1-53.31,53.31H108.18c-.29,0-7.46-.05-7.75-.11a53,53,0,0,1-19.3-5.33c-1.23-.61-2.43-1.26-3.61-1.95A53.17,53.17,0,0,1,51.3,150c0-.21,0-5.72,0-5.93V103A53.25,53.25,0,0,1,58.42,76.29Z" transform="translate(-33.06 -31.44)"/><path class="cls-23" d="M59.24,76.77a52.38,52.38,0,0,1,45.33-26.16h38.68c.16,0,8,0,8.14,0a52.3,52.3,0,0,1,22.34,5.21c1.21.58,2.41,1.22,3.58,1.9a52.67,52.67,0,0,1,18.95,19,52.14,52.14,0,0,1,7,25.87c0,.1,0,5.78,0,5.89v40.78a52.38,52.38,0,0,1-52.35,52.35H108.6c-.15,0-7.53,0-7.68-.06a52,52,0,0,1-19.14-5.17c-1.22-.6-2.41-1.24-3.58-1.92a52.28,52.28,0,0,1-26-44.88c0-.11,0-5.78,0-5.89V103A52.33,52.33,0,0,1,59.24,76.77Z" transform="translate(-33.06 -31.44)"/><path class="cls-24" d="M202.32,103a51.4,51.4,0,0,0-51.39-51.38H104.57A51.38,51.38,0,0,0,53.18,103v46.36a51.69,51.69,0,0,0,48.24,51.39h49.51a51.4,51.4,0,0,0,51.39-51.39Z" transform="translate(-33.06 -31.44)"/></g><polygon class="cls-25" points="94.7 48.34 117.88 25.16 94.7 25.16 94.7 48.34"/><polygon class="cls-26" points="48.34 94.7 71.52 71.52 48.34 71.52 48.34 94.7"/><polygon class="cls-27" points="94.7 48.34 117.87 71.52 117.87 48.34 94.7 48.34"/><polygon class="cls-27" points="71.52 48.34 94.7 71.52 94.7 48.34 71.52 48.34"/><polygon class="cls-27" points="117.88 48.34 141.05 71.52 141.05 48.34 117.88 48.34"/><polygon class="cls-28" points="71.52 71.52 94.7 94.7 94.7 71.52 71.52 71.52"/><polygon class="cls-29" points="48.34 48.34 71.52 71.52 71.52 48.34 48.34 48.34"/><polygon class="cls-30" points="71.52 25.16 94.7 48.34 94.7 25.16 71.52 25.16"/><polygon class="cls-31" points="71.52 164.23 94.7 141.05 71.52 141.05 71.52 164.23"/><polygon class="cls-31" points="94.7 141.05 117.87 117.88 94.7 117.88 94.7 141.05"/><polygon class="cls-32" points="94.7 141.05 71.52 164.23 94.7 164.23 94.7 141.05"/><polygon class="cls-33" points="71.52 94.7 94.7 117.87 94.7 94.7 71.52 94.7"/><polygon class="cls-34" points="48.34 117.88 71.52 141.05 71.52 117.88 48.34 117.88"/><polygon class="cls-35" points="117.88 164.23 94.7 141.05 94.7 164.23 117.88 164.23"/><polygon class="cls-36" points="117.88 164.23 141.05 141.05 117.88 141.05 117.88 164.23"/><polygon class="cls-34" points="71.52 71.52 48.34 48.34 48.34 71.52 71.52 71.52"/><polygon class="cls-37" points="71.52 25.16 94.7 48.34 71.52 48.34 71.52 25.16"/><polygon class="cls-38" points="71.52 48.34 94.7 71.52 71.52 71.52 71.52 48.34"/><polygon class="cls-39" points="141.05 94.7 117.88 71.52 141.05 71.52 141.05 94.7"/><polygon class="cls-40" points="48.34 94.7 25.16 117.87 25.16 94.7 48.34 94.7"/><polyline class="cls-41" points="48.34 48.34 25.16 71.52 48.34 71.52"/><polygon class="cls-34" points="94.7 71.52 117.87 94.7 94.7 94.7 94.7 71.52"/><polygon class="cls-42" points="141.05 117.88 117.88 94.7 141.05 94.7 141.05 117.88"/><polygon class="cls-43" points="141.05 94.7 164.23 71.52 164.23 94.7 141.05 94.7"/><polygon class="cls-35" points="48.34 141.05 25.16 117.87 48.34 117.87 48.34 141.05"/><polygon class="cls-44" points="25.16 71.52 48.34 94.7 25.16 94.7 25.16 71.52"/><polygon class="cls-45" points="71.52 141.05 94.7 117.88 71.52 117.88 71.52 141.05"/><polygon class="cls-41" points="48.34 117.87 71.52 94.7 48.34 94.7 48.34 117.87"/><polygon class="cls-46" points="117.88 117.87 94.7 94.7 94.7 117.87 117.88 117.87"/><polygon class="cls-47" points="71.52 141.05 48.34 117.88 48.34 141.05 71.52 141.05"/><polygon class="cls-37" points="164.23 117.87 141.05 94.7 141.05 117.87 164.23 117.87"/><polygon class="cls-48" points="25.16 117.87 48.34 94.7 48.34 117.87 25.16 117.87"/><polygon class="cls-49" points="48.34 117.87 71.52 94.7 71.52 117.87 48.34 117.87"/><polygon class="cls-50" points="117.88 117.87 94.7 141.05 117.88 141.05 117.88 117.87"/><polygon class="cls-51" points="164.23 117.87 141.05 141.05 141.05 117.87 164.23 117.87"/><polygon class="cls-51" points="141.05 117.87 117.88 141.05 117.88 117.87 141.05 117.87"/><polygon class="cls-52" points="141.05 48.34 117.88 25.16 117.88 48.34 141.05 48.34"/><polygon class="cls-53" points="141.05 71.52 117.88 48.34 117.88 71.52 141.05 71.52"/><polygon class="cls-53" points="141.05 94.7 117.88 71.52 117.88 94.7 141.05 94.7"/><polygon class="cls-53" points="141.05 117.88 117.88 94.7 117.88 117.88 141.05 117.88"/><polygon class="cls-25" points="164.23 71.52 141.05 48.34 141.05 71.52 164.23 71.52"/><polygon class="cls-25" points="141.05 48.34 141.05 48.34 141.05 48.34 141.05 48.34"/><polygon class="cls-25" points="117.88 25.16 117.88 25.16 117.88 48.34 117.88 48.34 117.88 25.16 141.05 48.34 141.05 48.34 117.88 25.16"/><path class="cls-54" d="M174.11,79.78h0L197.29,103h0a46.09,46.09,0,0,0-6.22-23.18Z" transform="translate(-33.06 -31.44)"/><path class="cls-55" d="M174.11,62.82v17h17A46.59,46.59,0,0,0,174.11,62.82Z" transform="translate(-33.06 -31.44)"/><path class="cls-56" d="M174.11,62.82a46.09,46.09,0,0,0-23.18-6.22l23.18,23.18Z" transform="translate(-33.06 -31.44)"/><path class="cls-57" d="M81.39,79.78h0L58.22,103h0a46.06,46.06,0,0,1,6.21-23.18Z" transform="translate(-33.06 -31.44)"/><path class="cls-58" d="M81.39,62.82v17h-17A46.59,46.59,0,0,1,81.39,62.82Z" transform="translate(-33.06 -31.44)"/><path class="cls-59" d="M81.39,62.82a46.12,46.12,0,0,1,23.18-6.22L81.39,79.78Z" transform="translate(-33.06 -31.44)"/><path class="cls-60" d="M81.39,172.49h0L58.22,149.31h0a46.08,46.08,0,0,0,6.21,23.18Z" transform="translate(-33.06 -31.44)"/><path class="cls-31" d="M81.39,189.45v-17h-17A46.59,46.59,0,0,0,81.39,189.45Z" transform="translate(-33.06 -31.44)"/><path class="cls-32" d="M81.39,189.45a46.12,46.12,0,0,0,23.18,6.22L81.39,172.49Z" transform="translate(-33.06 -31.44)"/><path class="cls-30" d="M174.11,172.49h0l23.18-23.18h0a46.09,46.09,0,0,1-6.22,23.18Z" transform="translate(-33.06 -31.44)"/><path class="cls-34" d="M174.11,189.45v-17h17A46.59,46.59,0,0,1,174.11,189.45Z" transform="translate(-33.06 -31.44)"/><path class="cls-61" d="M174.11,189.45a46.09,46.09,0,0,1-23.18,6.22l23.18-23.18Z" transform="translate(-33.06 -31.44)"/><path class="cls-62" d="M81.54,170.05A2.25,2.25,0,0,1,79,167.51q0-6.85,15.43-26a228.41,228.41,0,0,1,32.19-33q6.1-12.83,6.1-19.94,0-8.51-8.51-8.5-8,0-18.86,8A89.77,89.77,0,0,0,87,105.85q-7.5,9.84-7.49,15.43c0,2.71,1.56,4.06,4.7,4.06q6.72,0,14.67-6.85a58.53,58.53,0,0,0,11.87-13.34c.93-1.52,1.69-2.28,2.29-2.28a.78.78,0,0,1,.89.88,2.41,2.41,0,0,1-.51,1.53q-4.32,6.48-13.72,14.86t-17.14,8.38q-7.75,0-7.75-5.72,0-5,5.33-12.82a93.33,93.33,0,0,1,13-15.18,82.69,82.69,0,0,1,17.27-12.57Q120,77,127.51,77q9.78,0,9.78,9.65,0,6.35-4.57,17.14,12.57-9.25,20.19-9.27,4.58,0,4.58,4.83T149,118a300.19,300.19,0,0,1-17,25.08l-8.51,11.31c0,.17,0,.25.13.25q4.82-3.3,17-14.48t22.35-19.3q10.23-8.13,15.18-8.13a2.58,2.58,0,0,1,2.92,2.92q0,2.93-7.62,13.08T158.12,149.6q-7.62,10.67-7.62,14.73t3.43,4.07q3.93,0,10.29-4a62.43,62.43,0,0,0,8.89-6.42c1.69-1.6,2.75-2.41,3.17-2.41s.64.17.64.51q0,1.51-4.26,5.21a54,54,0,0,1-10.67,7q-6.41,3.3-11,3.3c-4.06,0-6.1-1.67-6.1-5s1.42-7.43,4.26-12.26a105.62,105.62,0,0,1,9.33-13.46Q173,123.58,174.63,118c0-.93-.42-1.4-1.27-1.4q-3,0-18.8,13.72t-23.11,20.83q-7.36,7.11-9.91,9.65c-1.69,1.69-3,3.05-3.93,4.06s-1.87,1.95-2.8,2.8c-1.77,1.6-3,2.41-3.55,2.41a.4.4,0,0,1-.26-.13,1.8,1.8,0,0,1-1.14-1.78q0-3.16,8.13-13.33A359.8,359.8,0,0,0,142.44,121q10.09-16,10.09-21.34c0-1.35-.84-2-2.54-2q-6.23,0-19.56,11.17-9.65,19.82-26.41,40.52T81.54,170.05Zm2.79-3.3q3.3,0,16.64-17.34a249.41,249.41,0,0,0,22.48-34.48A270.15,270.15,0,0,0,96,144.46q-13,16.18-13,20.89A1.23,1.23,0,0,0,84.33,166.75Z" transform="translate(-33.06 -31.44)"/><g class="cls-63"><path class="cls-62" d="M85,160.46a2.25,2.25,0,0,1-2.54-2.54q0-6.85,15.43-26a227.94,227.94,0,0,1,32.2-33q6.09-12.83,6.1-19.94,0-8.51-8.51-8.5-8,0-18.86,8A89.52,89.52,0,0,0,90.5,96.26Q83,106.1,83,111.69q0,4.07,4.7,4.06,6.74,0,14.67-6.85a58.29,58.29,0,0,0,11.87-13.34c.93-1.52,1.7-2.28,2.29-2.28a.78.78,0,0,1,.89.88,2.35,2.35,0,0,1-.51,1.53q-4.32,6.48-13.71,14.86t-17.15,8.38q-7.76,0-7.75-5.72,0-5,5.34-12.82a92.35,92.35,0,0,1,13-15.18,82.42,82.42,0,0,1,17.27-12.57q9.58-5.26,17.08-5.27,9.78,0,9.78,9.65,0,6.35-4.57,17.14,12.57-9.25,20.19-9.27,4.58,0,4.57,4.83t-8.51,18.73a299.66,299.66,0,0,1-17,25.09l-8.51,11.3c0,.17,0,.25.13.25q4.83-3.3,17-14.48t22.35-19.3q10.22-8.13,15.17-8.13a2.59,2.59,0,0,1,2.93,2.92q0,2.93-7.62,13.08T161.62,140Q154,150.68,154,154.74c0,2.72,1.14,4.07,3.42,4.07q3.95,0,10.29-4a61.84,61.84,0,0,0,8.89-6.42c1.69-1.6,2.75-2.41,3.18-2.41s.63.17.63.51q0,1.51-4.25,5.21a54.6,54.6,0,0,1-10.67,7q-6.42,3.3-11,3.3-6.09,0-6.09-5t4.25-12.26A106.71,106.71,0,0,1,162,131.25q14.48-17.27,16.13-22.86c0-.93-.43-1.4-1.27-1.4q-3.06,0-18.8,13.72T135,141.54q-7.38,7.11-9.91,9.65c-1.7,1.69-3,3.05-3.94,4.06s-1.86,1.95-2.79,2.8c-1.78,1.6-3,2.41-3.56,2.41a.34.34,0,0,1-.25-.13,1.8,1.8,0,0,1-1.14-1.78q0-3.17,8.12-13.33a361.11,361.11,0,0,0,24.45-33.78Q156,95.44,156,90.1c0-1.35-.85-2-2.54-2q-6.23,0-19.56,11.17-9.66,19.82-26.42,40.52T85,160.46Zm2.8-3.3q3.3,0,16.64-17.34a248.39,248.39,0,0,0,22.47-34.48,270.08,270.08,0,0,0-27.49,29.53q-13,16.19-13,20.89A1.24,1.24,0,0,0,87.83,157.16Z" transform="translate(-33.06 -31.44)"/></g><path class="cls-64" d="M81.7,167a2.3,2.3,0,0,1-2.6-2.6q0-7,15.8-26.65a232.51,232.51,0,0,1,32.95-33.8q6.24-13.14,6.24-20.41,0-8.72-8.71-8.71-8.19,0-19.3,8.19a92,92,0,0,0-18.79,18.26q-7.67,10.08-7.67,15.8,0,4.15,4.81,4.16,6.88,0,15-7a59.83,59.83,0,0,0,12.15-13.65q1.43-2.34,2.34-2.34a.8.8,0,0,1,.91.91,2.43,2.43,0,0,1-.52,1.56q-4.42,6.63-14,15.21t-17.55,8.58q-7.93,0-7.93-5.85,0-5.07,5.46-13.13A94.88,94.88,0,0,1,93.6,89.93a84.84,84.84,0,0,1,17.68-12.87q9.81-5.39,17.48-5.39,10,0,10,9.88,0,6.49-4.68,17.55,12.87-9.5,20.67-9.49c3.12,0,4.68,1.64,4.68,4.94s-2.9,9.68-8.71,19.17a307.17,307.17,0,0,1-17.42,25.68L124.6,151c0,.18,0,.27.13.27q4.94-3.39,17.36-14.82T165,116.65q10.46-8.33,15.53-8.32a2.64,2.64,0,0,1,3,3q0,3-7.8,13.39T160.09,146q-7.8,10.92-7.8,15.08t3.51,4.16q4,0,10.53-4.1a63.84,63.84,0,0,0,9.1-6.56c1.73-1.65,2.82-2.48,3.25-2.48s.65.18.65.53c0,1-1.45,2.81-4.35,5.33a55.79,55.79,0,0,1-10.92,7.14q-6.57,3.39-11.25,3.39c-4.16,0-6.24-1.72-6.24-5.14s1.45-7.6,4.36-12.55a108.79,108.79,0,0,1,9.55-13.77q14.82-17.69,16.51-23.4c0-1-.43-1.43-1.3-1.43q-3.12,0-19.24,14t-23.66,21.31q-7.54,7.29-10.14,9.88c-1.73,1.74-3.08,3.12-4,4.16s-1.91,2-2.86,2.87c-1.82,1.64-3,2.47-3.64,2.47a.4.4,0,0,1-.26-.13,1.85,1.85,0,0,1-1.17-1.83q0-3.24,8.32-13.64a371.26,371.26,0,0,0,25-34.58q10.34-16.38,10.33-21.84c0-1.39-.87-2.08-2.6-2.08q-6.37,0-20,11.44-9.89,20.28-27,41.47T81.7,167Zm2.86-3.38q3.38,0,17-17.75a254.7,254.7,0,0,0,23-35.29,276.15,276.15,0,0,0-28.14,30.22q-13.33,16.58-13.33,21.39A1.27,1.27,0,0,0,84.56,163.58Z" transform="translate(-33.06 -31.44)"/></g></g></svg>