<svg id="Layer_1" data-name="Layer 1" xmlns="http://www.w3.org/2000/svg" viewBox="0 0 139.07 139.07"><defs><style>.cls-1{fill:#009444;}.cls-2{fill:#9e1f63;}.cls-3{fill:#b8aacf;}.cls-4{fill:#92278f;}.cls-5{fill:#27aae1;}.cls-6{fill:#f2c7c8;}.cls-7{fill:#ec008c;}.cls-8{fill:#44c8f5;}.cls-9{fill:#8a5a37;}.cls-10{fill:#a87948;}.cls-11{fill:#e5b59a;}.cls-12{fill:#c4161c;}.cls-13{fill:#023f88;}.cls-14{fill:#602d23;}.cls-15{fill:#ffcb05;}.cls-16{fill:#fab8a5;}.cls-17{fill:#1c75bc;}.cls-18{fill:#92adda;}.cls-19{fill:#39b54a;}.cls-20{fill:#e39717;}.cls-21{fill:#ef413d;}.cls-22{fill:#da1c5c;}.cls-23{fill:#bcbec0;}.cls-24{fill:#00a79d;}.cls-25{fill:#3d5799;}.cls-26{fill:#558560;}.cls-27{fill:#dda07f;}.cls-28{fill:#fbc4b4;}.cls-29{fill:#da785d;}.cls-30{fill:#d0543b;}.cls-31{fill:#fab485;}.cls-32{fill:#f37021;}.cls-33{fill:#f15a22;}.cls-34{fill:#33a3dc;}.cls-35{fill:#8dc63f;}.cls-36{fill:#bfdc92;}.cls-37{fill:#cfe5ae;}.cls-38{fill:#f9ec00;}.cls-39{fill:#d7df23;}.cls-40{fill:#ee3d96;}.cls-41{fill:#eeb0b4;}.cls-42{fill:#ed1c24;}.cls-43{fill:#ed0677;}.cls-44{fill:#fff;stroke:#fff;}.cls-44,.cls-46{stroke-miterlimit:10;stroke-width:2px;}.cls-45{opacity:0.22;}.cls-46{fill:#231f20;stroke:#231f20;}</style></defs><polygon class="cls-1" points="69.54 23.18 92.72 0 69.54 0 69.54 23.18"/><polygon class="cls-2" points="23.18 69.54 46.36 46.36 23.18 46.36 23.18 69.54"/><polygon class="cls-3" points="69.54 23.18 92.72 46.36 92.72 23.18 69.54 23.18"/><polygon class="cls-4" points="46.36 23.18 69.54 46.36 69.54 23.18 46.36 23.18"/><polygon class="cls-5" points="92.72 23.18 115.89 46.36 115.89 23.18 92.72 23.18"/><polygon class="cls-6" points="46.36 46.36 69.54 69.54 69.54 46.36 46.36 46.36"/><polygon class="cls-7" points="23.18 23.18 46.36 46.36 46.36 23.18 23.18 23.18"/><polygon class="cls-8" points="46.36 0 69.54 23.18 69.54 0 46.36 0"/><polygon class="cls-9" points="46.36 139.07 69.54 115.89 46.36 115.89 46.36 139.07"/><polygon class="cls-9" points="69.54 115.89 92.72 92.72 69.54 92.72 69.54 115.89"/><polygon class="cls-10" points="69.54 115.89 46.36 139.07 69.54 139.07 69.54 115.89"/><polygon class="cls-11" points="46.36 69.54 69.54 92.71 69.54 69.54 46.36 69.54"/><polygon class="cls-12" points="23.18 92.72 46.36 115.89 46.36 92.72 23.18 92.72"/><polygon class="cls-13" points="115.89 69.54 139.07 92.71 139.07 69.54 115.89 69.54"/><polygon class="cls-14" points="23.18 115.89 46.36 139.07 46.36 115.89 23.18 115.89"/><polygon class="cls-15" points="92.72 139.07 69.54 115.89 69.54 139.07 92.72 139.07"/><polygon class="cls-16" points="92.72 139.07 115.89 115.89 92.72 115.89 92.72 139.07"/><polygon class="cls-4" points="46.36 46.36 23.18 23.18 23.18 46.36 46.36 46.36"/><polygon class="cls-17" points="46.36 0 69.54 23.18 46.36 23.18 46.36 0"/><polygon class="cls-18" points="46.36 23.18 69.54 46.36 46.36 46.36 46.36 23.18"/><polygon class="cls-19" points="115.89 69.54 92.72 46.36 115.89 46.36 115.89 69.54"/><polygon class="cls-20" points="23.18 69.54 0 92.71 0 69.54 23.18 69.54"/><polyline class="cls-21" points="23.18 23.18 0 46.36 23.18 46.36"/><polyline class="cls-22" points="46.36 0 23.18 23.18 46.36 23.18"/><polygon class="cls-23" points="69.54 46.36 92.72 69.54 69.54 69.54 69.54 46.36"/><polygon class="cls-24" points="69.54 23.18 92.72 46.36 69.54 46.36 69.54 23.18"/><polygon class="cls-25" points="115.89 92.72 92.72 69.54 115.89 69.54 115.89 92.72"/><polygon class="cls-26" points="115.89 69.54 139.07 46.36 139.07 69.54 115.89 69.54"/><polygon class="cls-15" points="23.18 115.89 0 92.71 23.18 92.71 23.18 115.89"/><polygon class="cls-27" points="0 46.36 23.18 69.54 0 69.54 0 46.36"/><polygon class="cls-28" points="46.36 115.89 69.54 92.72 46.36 92.72 46.36 115.89"/><polygon class="cls-21" points="23.18 92.71 46.36 69.54 23.18 69.54 23.18 92.71"/><polygon class="cls-29" points="92.72 92.71 69.54 69.54 69.54 92.71 92.72 92.71"/><polygon class="cls-30" points="46.36 115.89 23.18 92.72 23.18 115.89 46.36 115.89"/><polygon class="cls-17" points="139.07 92.71 115.89 69.54 115.89 92.71 139.07 92.71"/><polygon class="cls-31" points="0 92.71 23.18 69.54 23.18 92.71 0 92.71"/><polygon class="cls-32" points="23.18 92.71 46.36 69.54 46.36 92.71 23.18 92.71"/><polygon class="cls-33" points="92.72 92.71 69.54 115.89 92.72 115.89 92.72 92.71"/><polygon class="cls-34" points="139.07 92.71 115.89 115.89 115.89 92.71 139.07 92.71"/><polygon class="cls-34" points="115.89 92.71 92.72 115.89 92.72 92.71 115.89 92.71"/><polygon class="cls-35" points="115.89 23.18 92.72 0 92.72 23.18 115.89 23.18"/><polygon class="cls-36" points="115.89 46.36 92.72 23.18 92.72 46.36 115.89 46.36"/><polygon class="cls-36" points="115.89 69.54 92.72 46.36 92.72 69.54 115.89 69.54"/><polygon class="cls-36" points="115.89 92.72 92.72 69.54 92.72 92.72 115.89 92.72"/><polygon class="cls-1" points="139.07 46.36 115.89 23.18 115.89 46.36 139.07 46.36"/><polygon class="cls-1" points="115.89 23.18 115.89 23.18 115.89 23.18 115.89 23.18"/><polygon class="cls-1" points="92.72 0 92.72 0 92.72 23.18 92.72 23.18 92.72 0 115.89 23.18 115.89 23.18 92.72 0"/><path class="cls-37" d="M118.24,25.41h0l23.18,23.18h0a46.12,46.12,0,0,0-6.22-23.18Z" transform="translate(-2.35 -2.23)"/><path class="cls-38" d="M118.24,8.45v17h17A46.59,46.59,0,0,0,118.24,8.45Z" transform="translate(-2.35 -2.23)"/><path class="cls-39" d="M118.24,8.45A46.19,46.19,0,0,0,95.06,2.24l23.18,23.17Z" transform="translate(-2.35 -2.23)"/><path class="cls-40" d="M25.52,25.41h0L2.35,48.59h0A46.11,46.11,0,0,1,8.56,25.41Z" transform="translate(-2.35 -2.23)"/><path class="cls-41" d="M25.52,8.45v17h-17A46.67,46.67,0,0,1,25.52,8.45Z" transform="translate(-2.35 -2.23)"/><path class="cls-42" d="M25.52,8.45A46.11,46.11,0,0,1,48.7,2.24L25.52,25.41Z" transform="translate(-2.35 -2.23)"/><path class="cls-14" d="M25.52,118.13h0L2.35,95h0a46.08,46.08,0,0,0,6.21,23.18Z" transform="translate(-2.35 -2.23)"/><path class="cls-9" d="M25.52,135.09v-17h-17A46.59,46.59,0,0,0,25.52,135.09Z" transform="translate(-2.35 -2.23)"/><path class="cls-10" d="M25.52,135.09A46.21,46.21,0,0,0,48.7,141.3L25.52,118.13Z" transform="translate(-2.35 -2.23)"/><path class="cls-8" d="M118.24,118.13h0L141.42,95h0a46.09,46.09,0,0,1-6.22,23.18Z" transform="translate(-2.35 -2.23)"/><path class="cls-4" d="M118.24,135.09v-17h17A46.67,46.67,0,0,1,118.24,135.09Z" transform="translate(-2.35 -2.23)"/><path class="cls-43" d="M118.24,135.09a46.19,46.19,0,0,1-23.18,6.21l23.18-23.17Z" transform="translate(-2.35 -2.23)"/><path class="cls-44" d="M24.67,115.69a2.25,2.25,0,0,1-2.54-2.54q0-6.87,15.43-26a228.41,228.41,0,0,1,32.19-33q6.1-12.83,6.1-19.94,0-8.5-8.51-8.51-8,0-18.86,8A90.07,90.07,0,0,0,30.13,51.49q-7.5,9.84-7.49,15.43c0,2.71,1.56,4.06,4.7,4.06Q34.06,71,42,64.12A58.29,58.29,0,0,0,53.88,50.79c.93-1.53,1.69-2.29,2.29-2.29a.78.78,0,0,1,.88.89,2.42,2.42,0,0,1-.5,1.53q-4.32,6.46-13.72,14.85T25.69,74.16q-7.76,0-7.75-5.72,0-4.95,5.33-12.83a93.7,93.7,0,0,1,13-15.17A83.09,83.09,0,0,1,53.56,27.86q9.59-5.26,17.08-5.27,9.78,0,9.78,9.66,0,6.34-4.57,17.14Q88.42,40.12,96,40.12q4.58,0,4.58,4.83T92.11,63.68a301.85,301.85,0,0,1-17,25.08l-8.51,11.3c0,.18,0,.26.13.26q4.82-3.3,17-14.48T106,66.54q10.23-8.13,15.18-8.13a2.58,2.58,0,0,1,2.92,2.92q0,2.92-7.62,13.08T101.25,95.24Q93.63,105.91,93.63,110T97.06,114q3.93,0,10.29-4a61.76,61.76,0,0,0,8.89-6.41c1.69-1.61,2.75-2.41,3.17-2.41s.64.17.64.51c0,1-1.42,2.75-4.26,5.2a53.86,53.86,0,0,1-10.67,7q-6.41,3.3-11,3.3-6.11,0-6.1-5T92.3,99.94a105.62,105.62,0,0,1,9.33-13.46q14.48-17.28,16.13-22.86c0-.94-.42-1.4-1.27-1.4q-3,0-18.8,13.71T74.58,96.76q-7.36,7.13-9.91,9.66t-3.93,4.06c-.94,1-1.87,2-2.8,2.79-1.77,1.61-3,2.42-3.55,2.42a.4.4,0,0,1-.26-.13A1.8,1.8,0,0,1,53,113.78q0-3.16,8.13-13.33A361.17,361.17,0,0,0,85.57,66.66q10.09-16,10.09-21.33c0-1.36-.84-2-2.54-2q-6.23,0-19.56,11.17Q63.91,74.29,47.15,95T24.67,115.69Zm2.79-3.31q3.3,0,16.64-17.33A249.41,249.41,0,0,0,66.58,60.57a271,271,0,0,0-27.5,29.52q-13,16.2-13,20.9A1.23,1.23,0,0,0,27.46,112.38Z" transform="translate(-2.35 -2.23)"/><g class="cls-45"><path class="cls-44" d="M29.16,106.1a2.25,2.25,0,0,1-2.54-2.54q0-6.87,15.43-26a227.94,227.94,0,0,1,32.2-33q6.09-12.82,6.09-19.94,0-8.5-8.5-8.51-8,0-18.86,8A89.82,89.82,0,0,0,34.63,41.9q-7.5,9.84-7.5,15.43,0,4.06,4.7,4.06,6.74,0,14.67-6.86A58.05,58.05,0,0,0,58.37,41.2c.93-1.53,1.7-2.29,2.29-2.29a.79.79,0,0,1,.89.89A2.37,2.37,0,0,1,61,41.33Q56.72,47.8,47.33,56.18T30.18,64.57q-7.75,0-7.75-5.72,0-5,5.34-12.83a93.12,93.12,0,0,1,13-15.17A82.75,82.75,0,0,1,58.06,18.28Q67.65,13,75.14,13q9.78,0,9.78,9.66,0,6.35-4.58,17.14,12.59-9.27,20.2-9.27,4.58,0,4.57,4.83T96.6,54.09a299.42,299.42,0,0,1-17,25.08l-8.51,11.3c0,.18.05.26.13.26q4.83-3.3,17-14.48T110.51,57q10.21-8.13,15.17-8.13a2.58,2.58,0,0,1,2.92,2.92q0,2.92-7.61,13.08T105.75,85.65q-7.62,10.66-7.62,14.73t3.42,4.06q3.95,0,10.29-4A61.18,61.18,0,0,0,120.73,94c1.69-1.61,2.75-2.41,3.18-2.41s.63.17.63.51c0,1-1.42,2.75-4.25,5.2a54.16,54.16,0,0,1-10.67,7q-6.42,3.3-11,3.3-6.09,0-6.09-5t4.25-12.25a106.71,106.71,0,0,1,9.34-13.46Q120.61,59.61,122.26,54c0-.94-.43-1.4-1.27-1.4q-3.06,0-18.8,13.71T79.08,87.17q-7.38,7.13-9.91,9.66t-3.94,4.06c-.93,1-1.86,2-2.79,2.79-1.78,1.61-3,2.42-3.56,2.42a.38.38,0,0,1-.25-.13,1.8,1.8,0,0,1-1.14-1.78q0-3.16,8.12-13.33A361.17,361.17,0,0,0,90.06,57.07q10.09-16,10.1-21.33c0-1.36-.85-2-2.54-2q-6.23,0-19.56,11.17Q68.4,64.7,51.64,85.39T29.16,106.1Zm2.8-3.31q3.3,0,16.64-17.33A248.39,248.39,0,0,0,71.07,51,270.08,270.08,0,0,0,43.58,80.51q-13,16.18-13,20.89A1.23,1.23,0,0,0,32,102.79Z" transform="translate(-2.35 -2.23)"/></g><path class="cls-46" d="M25.83,112.59a2.3,2.3,0,0,1-2.6-2.6q0-7,15.8-26.65a233.52,233.52,0,0,1,33-33.8q6.24-13.12,6.24-20.41,0-8.7-8.71-8.71-8.19,0-19.3,8.19A91.76,91.76,0,0,0,31.42,46.88q-7.67,10.07-7.67,15.79c0,2.78,1.6,4.16,4.81,4.16q6.89,0,15-7A59.83,59.83,0,0,0,55.73,46.16q1.43-2.34,2.34-2.34a.81.81,0,0,1,.91.91,2.39,2.39,0,0,1-.52,1.56Q54,52.92,44.42,61.5T26.87,70.08q-7.94,0-7.93-5.85,0-5.07,5.46-13.13A94.82,94.82,0,0,1,37.73,35.57,84.12,84.12,0,0,1,55.41,22.7q9.81-5.4,17.48-5.4,10,0,10,9.88,0,6.51-4.68,17.55,12.87-9.48,20.67-9.49,4.68,0,4.68,4.94T94.86,59.36A305.28,305.28,0,0,1,77.44,85L68.73,96.6c0,.18,0,.26.13.26Q73.8,93.49,86.22,82T109.1,62.28Q119.56,54,124.63,54a2.65,2.65,0,0,1,3,3q0,3-7.8,13.39t-15.6,21.32q-7.8,10.92-7.8,15.08c0,2.78,1.17,4.16,3.51,4.16q4,0,10.53-4.09a62.92,62.92,0,0,0,9.1-6.57c1.73-1.64,2.82-2.47,3.25-2.47s.65.18.65.52q0,1.56-4.35,5.33a55.35,55.35,0,0,1-10.92,7.15q-6.57,3.38-11.25,3.38-6.24,0-6.24-5.13t4.36-12.55a108.91,108.91,0,0,1,9.55-13.78Q119.43,65,121.12,59.29c0-.95-.43-1.43-1.3-1.43q-3.12,0-19.24,14T76.92,93.22q-7.55,7.29-10.14,9.88c-1.73,1.74-3.08,3.12-4,4.16s-1.91,2-2.86,2.86q-2.73,2.47-3.64,2.47a.36.36,0,0,1-.26-.13,1.84,1.84,0,0,1-1.17-1.82q0-3.24,8.32-13.65a369.94,369.94,0,0,0,25-34.58Q98.51,46,98.5,40.57c0-1.38-.87-2.08-2.6-2.08q-6.37,0-20,11.44Q66,70.21,48.84,91.4T25.83,112.59Zm2.86-3.38q3.37,0,17-17.74a254.78,254.78,0,0,0,23-35.3A276.26,276.26,0,0,0,40.59,86.4Q27.25,103,27.26,107.78A1.26,1.26,0,0,0,28.69,109.21Z" transform="translate(-2.35 -2.23)"/></svg>