<?xml version="1.0" encoding="utf-8"?>
<!-- Generator: Adobe Illustrator 25.3.1, SVG Export Plug-In . SVG Version: 6.00 Build 0)  -->
<svg version="1.1" id="Layer_1" xmlns="http://www.w3.org/2000/svg" xmlns:xlink="http://www.w3.org/1999/xlink" x="0px" y="0px"
	 viewBox="0 0 1280 720" style="enable-background:new 0 0 1280 720;" xml:space="preserve">
<style type="text/css">
	.st0{fill-rule:evenodd;clip-rule:evenodd;fill:#FFF5EA;}
	.st1{opacity:0.1;fill:#010101;}
	.st2{fill:#3E2F3C;}
	.st3{fill:#5C465A;}
	.st4{fill:#891728;}
	.st5{fill:#A42C2B;}
	.st6{fill:#EE6D59;}
	.st7{opacity:0.3;fill:#010101;}
	.st8{fill:#C0433D;}
	.st9{fill:#C6C29C;}
	.st10{fill:#E1DEB4;}
	.st11{fill:#2DABAE;}
	.st12{fill:#218B9D;}
	.st13{fill:#FFFFFF;}
	.st14{fill:#F2EED1;}
	.st15{fill:#1E7E89;}
	.st16{fill:#F4C269;}
	.st17{fill:#EEA74F;}
	.st18{fill-rule:evenodd;clip-rule:evenodd;fill:#F3B887;}
	.st19{fill-rule:evenodd;clip-rule:evenodd;fill:#1E7E89;}
	.st20{fill-rule:evenodd;clip-rule:evenodd;fill:#5C465A;}
	.st21{fill-rule:evenodd;clip-rule:evenodd;fill:#218B9D;}
	.st22{fill-rule:evenodd;clip-rule:evenodd;fill:#3E2F3C;}
	.st23{fill-rule:evenodd;clip-rule:evenodd;fill:#2DABAE;}
	.st24{fill:#FED5B2;}
	.st25{fill-rule:evenodd;clip-rule:evenodd;fill:#FED5B2;}
	.st26{fill-rule:evenodd;clip-rule:evenodd;fill:#EAAA79;}
	.st27{fill:#F3B887;}
	.st28{fill:#EC9661;}
	.st29{fill:#D79142;}
	.st30{fill:#C6823E;}
	.st31{opacity:5.000000e-02;fill:#010101;}
	.st32{fill-rule:evenodd;clip-rule:evenodd;fill:#C0433D;}
	.st33{fill-rule:evenodd;clip-rule:evenodd;fill:#D79142;}
	.st34{fill-rule:evenodd;clip-rule:evenodd;fill:#F4C269;}
	.st35{fill-rule:evenodd;clip-rule:evenodd;fill:#EE6D59;}
	.st36{fill-rule:evenodd;clip-rule:evenodd;fill:#F2EED1;}
	.st37{fill-rule:evenodd;clip-rule:evenodd;fill:#EEA74F;}
	.st38{fill-rule:evenodd;clip-rule:evenodd;fill:#A42C2B;}
</style>
<rect x="-1" y="-0.8" class="st0" width="1281.3" height="721.7"/>
<g>
	
		<rect x="579.5" y="28" transform="matrix(1.137326e-03 -1 1 1.137326e-03 547.753 612.3181)" class="st1" width="1.7" height="7.9"/>
	<g>
		
			<rect x="629.9" y="123.8" transform="matrix(1.137326e-03 -1 1 1.137326e-03 511.856 765.5093)" class="st2" width="18.4" height="5.5"/>
		
			<rect x="624.3" y="123.8" transform="matrix(1.137326e-03 -1 1 1.137326e-03 506.3193 759.9537)" class="st3" width="18.4" height="5.5"/>
		<g>
			
				<rect x="683.8" y="67.9" transform="matrix(1.137326e-03 -1 1 1.137326e-03 611.6833 759.0546)" class="st4" width="4" height="10.8"/>
			
				<rect x="683.8" y="38.1" transform="matrix(1.137326e-03 -1 1 1.137326e-03 641.5296 729.31)" class="st4" width="4" height="10.8"/>
			<g>
				<polygon class="st5" points="695.5,85.6 696.5,37.3 696.5,31.2 692.5,31.2 692.5,37.3 692.5,85.6 				"/>
				<polygon class="st6" points="689.4,85.6 692.5,85.6 692.5,37.3 692.5,31.2 688.6,31.2 688.6,37.3 				"/>
				<polygon class="st2" points="692.5,85.6 692.5,88.7 699.9,85.6 				"/>
				<polygon class="st3" points="692.5,85.6 692.5,88.7 685,85.6 				"/>
			</g>
			<g>
				<polygon class="st5" points="682.7,31.2 676.4,31.2 676.3,138.7 681.2,138.7 				"/>
				<polygon class="st6" points="670,31.2 676.4,31.2 676.3,138.7 671.3,138.7 				"/>
			</g>
			<polygon class="st7" points="681.5,118.8 681.6,109.6 671,109.6 671.1,118.8 			"/>
			<polygon class="st1" points="670.1,34.6 682.7,34.6 682.7,31.2 670,31.2 			"/>
			
				<rect x="691.7" y="28.2" transform="matrix(1.137326e-03 -1 1 1.137326e-03 659.6328 724.5803)" class="st1" width="1.7" height="7.9"/>
		</g>
		<path class="st8" d="M636.3,143.8L636.3,143.8c27.6,0,54.2,4.1,77.6,11.7l2.1-9.4c-24-7.9-49.5-12.2-79.7-12.3h0l0,0L636.3,143.8
			L636.3,143.8z"/>
		
			<rect x="665.7" y="81.9" transform="matrix(1.137326e-03 -1 1 1.137326e-03 553.675 782.9406)" class="st8" width="6.1" height="64.8"/>
		<path class="st3" d="M549.6,168.8c25.8-8.7,55.7-14.9,86.8-14.8l0-8.7l0-1.4c-27.6,0-54.2,4-77.6,11.5c-4.5,1.4-8.9,3-13.1,4.6
			L549.6,168.8z"/>
		<path class="st2" d="M636.3,154c31.1,0,60.9,6.3,86.7,15l3.9-8.8c-4.2-1.7-8.6-3.2-13.1-4.7c-23.3-7.6-49.9-11.7-77.6-11.7h0
			l0,1.4L636.3,154L636.3,154z"/>
		<path class="st9" d="M636.3,159c3,0,6,0.1,8.9,0.2c30,1.2,57.6,8.2,80.4,16.8l2.5-5.2c-1.7-0.6-3.3-1.2-5-1.7
			c-25.8-8.7-55.6-15-86.7-15h0L636.3,159L636.3,159C636.3,159,636.3,159,636.3,159z"/>
		<path class="st10" d="M546.9,175.5c22.8-8.4,50.5-15.2,80.5-16.2c2.9-0.1,5.9-0.2,8.9-0.1c0,0,0,0,0,0v0l0-5
			c-31.1-0.2-61,5.9-86.8,14.4c-1.7,0.6-3.4,1.1-5,1.7L546.9,175.5z"/>
		
			<rect x="585" y="67.8" transform="matrix(1.137326e-03 -1 1 1.137326e-03 513.1152 660.1496)" class="st4" width="4" height="10.8"/>
		<rect x="585" y="38" transform="matrix(1.137326e-03 -1 1 1.137326e-03 542.9615 630.405)" class="st4" width="4" height="10.8"/>
		<g>
			<polygon class="st5" points="583.4,85.5 584.3,37.2 584.3,31.1 580.4,31.1 580.4,37.2 580.3,85.5 			"/>
			<polygon class="st6" points="577.3,85.5 580.3,85.5 580.4,37.2 580.4,31.1 576.4,31.1 576.4,37.2 			"/>
			<polygon class="st2" points="580.3,85.5 580.3,88.6 587.8,85.5 			"/>
			<polygon class="st3" points="580.3,85.5 580.3,88.6 572.9,85.4 			"/>
		</g>
		<g>
			<polygon class="st5" points="602.9,31.1 596.5,31.1 596.4,138.6 601.3,138.6 			"/>
			<polygon class="st6" points="590.2,31.1 596.5,31.1 596.4,138.6 591.5,138.6 			"/>
		</g>
		<polygon class="st7" points="591.2,118.7 591.1,109.5 601.8,109.5 601.6,118.8 		"/>
		<polygon class="st1" points="602.8,34.5 590.2,34.5 590.2,31.1 602.9,31.1 		"/>
		<path class="st6" d="M636.3,143.8l0-9.9l0,0c-30.2,0-55.7,4.2-79.7,12.1l2.1,9.4C582.1,147.8,608.7,143.8,636.3,143.8L636.3,143.8
			z"/>
		
			<rect x="600.9" y="81.8" transform="matrix(1.137326e-03 -1 1 1.137326e-03 489.0315 718.0762)" class="st6" width="6.1" height="64.8"/>
	</g>
	<g>
		<circle class="st11" cx="637.4" cy="3.5" r="3.1"/>
		<path class="st11" d="M646.6,6.6c1.7,0,3.1-1.4,3.1-3.1c0-1.7-1.4-3.1-3.1-3.1c-1.7,0-3.1,1.4-3.1,3.1S644.9,6.6,646.6,6.6z"/>
		<path class="st11" d="M697.4,6.7c1.7,0,3.1-1.4,3.1-3.1s-1.4-3.1-3.1-3.1c-1.7,0-3.1,1.4-3.1,3.1S695.6,6.6,697.4,6.7z"/>
		<path class="st11" d="M563.1,18.6l37.4,0c1.5,0.2,2.7,1.5,2.7,3.1c0,1.7-1.4,3.1-3.1,3.1L549,24.8c-2,0-3.6,1.4-3.6,3.1
			c0,1.7,1.6,3.1,3.6,3.1l175,0.2c2,0,3.6-1.4,3.6-3.1c0-1.7-1.6-3.1-3.6-3.1l-51.7-0.1c-1.7,0-3.1-1.4-3.1-3.1
			c0-1.6,1.2-2.9,2.7-3.1l31.9,0c2,0,3.6-1.4,3.6-3.1c0-1.7-1.6-3.1-3.6-3.1l-20,0c-1.7,0-3.1-1.3-3.1-2.9c0-1.6,1.4-2.9,3.1-2.9
			l3.9,0c1.7,0,3.1-1.4,3.1-3.1c0-1.7-1.4-3.1-3.1-3.1l-25.1,0c-1.7,0-3.1,1.4-3.1,3.1s1.4,3.1,3.1,3.1l10.1,0
			c1.7,0,3.1,1.3,3.1,2.9c0,1.6-1.4,2.9-3.1,2.9l-50.7-0.1c-1.7,0-3.1-1.3-3.1-2.9c0-1.6,1.4-2.9,3.1-2.9l4.4,0
			c1.7,0,3.1-1.4,3.1-3.1s-1.4-3.1-3.1-3.1l-36.6,0c-1.7,0-3.1,1.4-3.1,3.1s1.4,3.1,3.1,3.1l21,0c1.7,0,3.1,1.3,3.1,2.9
			c0,1.6-1.4,2.9-3.1,2.9l-47.6-0.1c-2,0-3.6,1.4-3.6,3.1C559.5,17.2,561.1,18.6,563.1,18.6z M626.7,18.7l31,0
			c1.7,0,3.1,1.4,3.1,3.1c0,1.7-1.4,3.1-3.1,3.1l-31,0c-1.7,0-3.1-1.4-3.1-3.1C623.6,20.1,625,18.7,626.7,18.7z M617.8,18.7
			c1.7,0,3.1,1.4,3.1,3.1c0,1.7-1.4,3.1-3.1,3.1c-1.7,0-3.1-1.4-3.1-3.1C614.8,20.1,616.1,18.7,617.8,18.7z M609,18.7
			c1.7,0,3.1,1.4,3.1,3.1c0,1.7-1.4,3.1-3.1,3.1s-3.1-1.4-3.1-3.1C605.9,20.1,607.3,18.7,609,18.7z"/>
	</g>
</g>
<g>
	<polygon class="st10" points="587.4,642.1 579.4,626.3 597.5,602.5 602.1,605 610.9,602.5 616.8,608.1 622.1,605 628,602.5 
		636.3,604.1 636.2,642.1 	"/>
	<polygon class="st9" points="685,642.2 693.1,626.4 675.1,602.6 670.4,605.1 661.7,602.5 655.7,608.2 650.4,605 644.5,602.5 
		636.3,604.1 636.2,642.1 	"/>
	<polygon class="st3" points="636.3,626.3 628.3,630.3 621.2,625.8 614.3,629.1 608.3,622.2 597.6,629.6 597.6,625.2 588.7,631.5 
		579.4,626.3 508.4,711.7 636.2,711.8 	"/>
	<polygon class="st2" points="636.3,626.3 644.2,630.4 651.3,625.8 658.2,629.1 664.2,622.2 674.9,629.7 674.9,625.3 683.9,631.6 
		693.1,626.4 763.9,712 636.2,711.8 	"/>
	<path class="st11" d="M773.7,720.7l-275-0.3c-2.4,0-4.4-2-4.3-4.4l0,0c0-2.4,2-4.4,4.4-4.3l275,0.3c2.4,0,4.4,2,4.3,4.4l0,0
		C778,718.7,776.1,720.7,773.7,720.7z"/>
	<path class="st12" d="M498.7,720.4l275,0.3c2.4,0,4.4-2,4.4-4.3l-283.7-0.3C494.3,718.5,496.3,720.4,498.7,720.4z"/>
</g>
<g>
	<g>
		<path class="st3" d="M1104.7,379.6c1.6,0,3.2-0.9,4-2.4c22.4-41.9,57.5-62.9,104.4-62.4c35.4,0.4,64.4,13.3,64.7,13.5
			c2.3,1,5,0,6.1-2.3c1-2.3,0-5-2.3-6.1c-1.3-0.6-31.1-13.9-68.4-14.3c-34.8-0.3-82.6,11-112.6,67.3c-1.2,2.2-0.3,5,1.9,6.2
			C1103.2,379.4,1103.9,379.6,1104.7,379.6z"/>
	</g>
	<g>
		<path class="st3" d="M1033.9,453.7c35,0,62.8-9.8,82.8-29.3c36.7-35.7,34-90.2,33.8-92.5c-0.1-2.5-2.3-4.4-4.8-4.3
			c-2.5,0.1-4.5,2.3-4.3,4.8l0,0c0,0.5,2.6,52.8-31.1,85.5c-21.5,20.8-53.1,29.5-93.9,25.9c-2.5-0.2-4.7,1.6-5,4.2
			c-0.2,2.5,1.6,4.7,4.2,5C1021.9,453.5,1028,453.7,1033.9,453.7z"/>
	</g>
	<g>
		<path class="st3" d="M1162.7,421.2c0.9,0,1.7-0.2,2.5-0.7c28.2-18.5,56.7-24.7,84.5-18.4c20.6,4.7,33,14.6,33.1,14.7
			c2,1.6,4.8,1.3,6.5-0.6c1.6-2,1.3-4.8-0.6-6.5c-0.6-0.5-14.2-11.5-36.9-16.6c-20.9-4.7-53.7-5.1-91.6,19.6
			c-2.1,1.4-2.7,4.2-1.3,6.3C1159.8,420.4,1161.3,421.2,1162.7,421.2z"/>
	</g>
	<g>
		<path class="st3" d="M1021.1,378.5c0.8,0,1.7-0.3,2.4-0.9c37.6-33.8,87.6-13.4,88.1-13.2c1.8,0.8,3.9-0.1,4.7-1.9
			c0.8-1.8-0.1-3.9-1.9-4.7c-0.6-0.2-13.8-5.7-32.2-6.7c-24.5-1.4-46.5,6-63.4,21.2c-1.5,1.3-1.6,3.6-0.3,5
			C1019.2,378.1,1020.1,378.5,1021.1,378.5z"/>
	</g>
	<g>
		<path class="st3" d="M1081.1,358.1c0.3,0,0.7,0,1-0.2c1.9-0.6,2.9-2.5,2.4-4.4c-0.1-0.4-11.5-36.7-56.1-24.8
			c-1.9,0.5-3,2.5-2.5,4.4c0.5,1.9,2.5,3,4.4,2.5c37.8-10.1,47.1,18.7,47.5,19.9C1078.1,357.1,1079.5,358.1,1081.1,358.1z"/>
	</g>
	<g>
		<path class="st3" d="M1163.8,322.6c0.7,0,1.3-0.2,1.9-0.6c1.7-1.1,2.2-3.3,1.1-4.9c-0.4-0.6-9.8-15.3-28.5-27.6
			c-17.2-11.4-45.8-22.6-84.2-11.7c-1.9,0.5-3,2.5-2.5,4.4c0.5,1.9,2.5,3,4.4,2.5c28.7-8.2,55.1-4.5,78.3,10.8
			c17.4,11.4,26.3,25.3,26.4,25.5C1161.5,322,1162.6,322.6,1163.8,322.6z"/>
	</g>
	<g>
		<path class="st3" d="M1279.1,369.4c1,0,2-0.4,2.7-1.3c1.3-1.5,1-3.8-0.5-5c-0.5-0.4-11.3-9.3-28.1-15.3c-22.4-8-44.7-6.8-64.5,3.5
			c-1.7,0.9-2.4,3.1-1.5,4.8c0.9,1.7,3.1,2.4,4.8,1.5c43.5-22.6,84.3,10.6,84.7,10.9C1277.4,369.2,1278.2,369.4,1279.1,369.4z"/>
	</g>
	<g>
		<path class="st3" d="M1098.3,436.6c0.8,0,1.6-0.3,2.3-0.8c1.5-1.3,1.7-3.5,0.5-5c-0.4-0.4-8.9-10.6-25.1-18.6
			c-15-7.3-39.6-14-72.1-4.4c-1.9,0.6-3,2.5-2.4,4.4c0.6,1.9,2.5,3,4.4,2.4c24.2-7.1,46.6-5.8,66.6,3.8c15,7.2,23,16.7,23.1,16.8
			C1096.2,436.2,1097.2,436.6,1098.3,436.6z"/>
	</g>
	<g>
		<path class="st3" d="M1169.9,453.4c32.1,0,51.7-13.2,62.7-25.1c13.6-14.6,17.5-30.2,17.7-30.8c0.5-1.9-0.7-3.8-2.6-4.3
			c-1.9-0.5-3.8,0.7-4.3,2.6c-0.1,0.2-3.8,14.7-16.2,27.9c-16.6,17.7-40.2,25.1-70,21.9c-2-0.2-3.7,1.2-3.9,3.2
			c-0.2,2,1.2,3.7,3.2,3.9C1161.2,453.2,1165.7,453.4,1169.9,453.4z"/>
	</g>
	<g>
		<g>
			<path class="st13" d="M1254,428.7c-1.2,4.8,1.8,9.6,6.6,10.7c4.8,1.2,9.6-1.8,10.7-6.6c1.2-4.8-1.8-9.6-6.6-10.7
				C1260,421,1255.2,424,1254,428.7z"/>
			<path class="st14" d="M1260.5,439.9c-2.4-0.6-4.5-2.1-5.8-4.2c-1.3-2.1-1.7-4.7-1.1-7.1c1.2-5,6.3-8.2,11.3-6.9
				c5,1.2,8.1,6.3,6.9,11.3c-0.6,2.4-2.1,4.5-4.2,5.8c-1.5,0.9-3.2,1.4-4.9,1.4C1261.9,440.2,1261.2,440.1,1260.5,439.9z
				 M1254.5,428.8c-0.5,2.2-0.2,4.4,1,6.3c1.2,1.9,3,3.3,5.2,3.8c2.2,0.5,4.4,0.2,6.3-1c1.9-1.2,3.3-3,3.8-5.2
				c1.1-4.5-1.7-9-6.2-10.1c-0.7-0.2-1.3-0.2-2-0.2C1258.9,422.4,1255.4,425,1254.5,428.8z"/>
		</g>
		<g>
			<path class="st8" d="M1264.8,422.1l2.9-11.8c1.3,0.3,1.7-1.6,3.4-1.2c2.9,0.7,3.7,4,2.6,8.7c-1.3,5.5-5.1,9.3-8.9,9.2
				L1264.8,422.1z"/>
		</g>
		<g>
			<path class="st6" d="M1264.8,422.1l2.9-11.8c-1.3-0.3-0.7-2.2-2.4-2.6c-2.9-0.7-5.1,1.9-6.3,6.6c-1.3,5.5,0.3,10.6,3.7,12.3
				L1264.8,422.1z"/>
		</g>
		<g>
			<path class="st8" d="M1271.5,430.2l12.1-0.9c0.1,1.3,2,1.1,2.2,2.8c0.2,3-2.7,4.8-7.5,5.1c-5.6,0.4-10.5-2-11.5-5.6L1271.5,430.2
				z"/>
		</g>
		<g>
			<path class="st6" d="M1271.5,430.2l12.1-0.9c-0.1-1.3,1.8-1.4,1.7-3.1c-0.2-3-3.4-4.3-8.2-3.9c-5.6,0.4-10,3.6-10.5,7.3
				L1271.5,430.2z"/>
		</g>
		<g>
			<path class="st8" d="M1266,439.3l4.6,11.2c-1.2,0.5-0.4,2.3-2,2.9c-2.7,1.1-5.4-1.1-7.2-5.5c-2.1-5.2-1.3-10.6,1.7-12.7
				L1266,439.3z"/>
		</g>
		<g>
			<path class="st6" d="M1266,439.3l4.6,11.2c1.2-0.5,1.9,1.3,3.5,0.7c2.7-1.1,3-4.5,1.2-9c-2.1-5.2-6.5-8.4-10.2-7.8L1266,439.3z"
				/>
		</g>
		<g>
			<path class="st8" d="M1255.8,436.9l-9.3,7.9c0.9,1-0.7,2.2,0.5,3.5c1.9,2.3,5.3,1.5,8.9-1.6c4.3-3.6,6-8.8,4.2-12.1L1255.8,436.9
				z"/>
		</g>
		<g>
			<path class="st6" d="M1255.8,436.9l-9.3,7.9c-0.9-1-2.3,0.3-3.4-1c-1.9-2.3-0.6-5.4,3-8.5c4.3-3.6,9.6-4.5,12.6-2.3L1255.8,436.9
				z"/>
		</g>
		<g>
			<path class="st8" d="M1255.1,426.3l-10.4-6.4c-0.7,1.1-2.3,0-3.2,1.5c-1.6,2.5,0.2,5.5,4.3,8c4.8,2.9,10.2,3,12.8,0.3
				L1255.1,426.3z"/>
		</g>
		<g>
			<path class="st6" d="M1255.1,426.3l-10.4-6.4c0.7-1.1-1-2.1-0.1-3.6c1.6-2.5,5-2.3,9.1,0.2c4.8,2.9,7.3,7.8,6,11.3L1255.1,426.3z
				"/>
		</g>
	</g>
	<g>
		<g>
			<path class="st6" d="M1190,310.9c-1.4,3.2,0.1,7,3.3,8.4c3.2,1.4,7-0.1,8.4-3.3c1.4-3.2-0.1-7-3.3-8.4
				C1195.1,306.2,1191.4,307.7,1190,310.9z"/>
		</g>
		<g>
			<g>
				<path class="st8" d="M1197.8,311l0.7-3.5l-2.1,2.8c-2.2-1.6-2.7-5.4-1.1-9.1c1.4-3.2,3.3-4.7,5.3-3.9c1.1,0.5,0.5,1.8,1.4,2.1
					c0.9,0.4,1.4-0.9,2.5-0.4c2,0.9,2.1,3.3,0.8,6.5C1203.6,309.3,1200.4,311.5,1197.8,311z"/>
			</g>
			<g>
				<path class="st8" d="M1198.7,314.6l3.5-0.4l-3.3-1.1c0.8-2.6,4.3-4.2,8.4-3.9c3.4,0.3,5.5,1.7,5.3,3.8c-0.1,1.2-1.5,1-1.6,2
					c-0.1,1,1.3,1,1.2,2.3c-0.2,2.1-2.5,3.1-5.9,2.7C1202.1,319.6,1199,317.2,1198.7,314.6z"/>
			</g>
			<g>
				<path class="st8" d="M1197.2,319.9l0-3.5c2.7,0,5.4,2.8,6.3,6.8c0.8,3.4,0.1,5.8-2,6.2c-1.2,0.3-1.5-1.1-2.4-0.9
					c-0.9,0.2-0.6,1.6-1.8,1.8c-2.1,0.5-3.7-1.4-4.4-4.8c-0.9-4,0.4-7.7,2.8-8.8L1197.2,319.9z"/>
			</g>
			<g>
				<path class="st8" d="M1192.8,314.5l-2.6,2.4l3.4-1.1c0.9,2.5-1,6-4.5,8c-3,1.8-5.4,1.9-6.5,0c-0.6-1.1,0.6-1.7,0.1-2.6
					c-0.5-0.8-1.7-0.1-2.3-1.1c-1.1-1.8,0.2-3.9,3.2-5.7C1187.1,312.5,1191,312.5,1192.8,314.5z"/>
			</g>
			<g>
				<path class="st8" d="M1182,304.2c0.8-0.9,1.8,0,2.5-0.7c0.6-0.7-0.5-1.6,0.4-2.5c1.4-1.6,3.8-1,6.4,1.3c3,2.7,4.2,6.4,2.9,8.7
					l-3.1-1.7l2.1,2.9c-2.2,1.6-6,0.9-9-1.8C1181.5,308.1,1180.6,305.8,1182,304.2z"/>
			</g>
		</g>
	</g>
	<g>
		<g>
			<path class="st13" d="M1203.9,346c-1.2,4.8,1.8,9.6,6.6,10.7c4.8,1.2,9.6-1.8,10.7-6.6c1.2-4.8-1.8-9.6-6.6-10.7
				C1209.8,338.3,1205,341.2,1203.9,346z"/>
			<path class="st14" d="M1210.3,357.2c-5-1.2-8.1-6.3-6.9-11.3c0.6-2.4,2.1-4.5,4.2-5.8c2.1-1.3,4.7-1.7,7.1-1.1
				c2.4,0.6,4.5,2.1,5.8,4.2c1.3,2.1,1.7,4.7,1.1,7.1c-1,4.3-4.9,7.2-9.1,7.2C1211.8,357.4,1211.1,357.4,1210.3,357.2z
				 M1208.2,340.9c-1.9,1.2-3.3,3-3.8,5.2c-1.1,4.5,1.7,9,6.2,10.1c4.5,1.1,9-1.7,10.1-6.2c0.5-2.2,0.2-4.4-1-6.3
				c-1.2-1.9-3-3.3-5.2-3.8c-0.7-0.2-1.3-0.2-2-0.2C1211,339.7,1209.5,340.1,1208.2,340.9z"/>
		</g>
		<g>
			<path class="st8" d="M1214.6,339.3l2.9-11.8c1.3,0.3,1.7-1.6,3.4-1.2c2.9,0.7,3.7,4,2.6,8.7c-1.3,5.5-5.1,9.3-8.9,9.2
				L1214.6,339.3z"/>
		</g>
		<g>
			<path class="st6" d="M1214.6,339.3l2.9-11.8c-1.3-0.3-0.7-2.2-2.4-2.6c-2.9-0.7-5.1,1.9-6.3,6.6c-1.3,5.5,0.3,10.6,3.7,12.3
				L1214.6,339.3z"/>
		</g>
		<g>
			<path class="st8" d="M1221.3,347.4l12.1-0.9c0.1,1.3,2,1.1,2.2,2.8c0.2,3-2.7,4.8-7.5,5.1c-5.6,0.4-10.5-2-11.5-5.6L1221.3,347.4
				z"/>
		</g>
		<g>
			<path class="st6" d="M1221.3,347.4l12.1-0.9c-0.1-1.3,1.8-1.4,1.7-3.1c-0.2-3-3.4-4.3-8.2-3.9c-5.6,0.4-10,3.6-10.5,7.3
				L1221.3,347.4z"/>
		</g>
		<g>
			<path class="st8" d="M1215.9,356.6l4.6,11.2c-1.2,0.5-0.4,2.3-2,2.9c-2.7,1.1-5.4-1.1-7.2-5.5c-2.1-5.2-1.3-10.6,1.7-12.7
				L1215.9,356.6z"/>
		</g>
		<g>
			<path class="st6" d="M1215.9,356.6l4.6,11.2c1.2-0.5,1.9,1.3,3.5,0.7c2.7-1.1,3-4.5,1.2-9c-2.1-5.2-6.5-8.4-10.2-7.8
				L1215.9,356.6z"/>
		</g>
		<g>
			<path class="st8" d="M1205.7,354.1l-9.3,7.9c0.9,1-0.7,2.2,0.5,3.5c1.9,2.3,5.3,1.5,8.9-1.6c4.3-3.6,6-8.8,4.2-12.1L1205.7,354.1
				z"/>
		</g>
		<g>
			<path class="st6" d="M1205.7,354.1l-9.3,7.9c-0.9-1-2.3,0.3-3.4-1c-1.9-2.3-0.6-5.4,3-8.5c4.3-3.6,9.6-4.5,12.6-2.3L1205.7,354.1
				z"/>
		</g>
		<g>
			<path class="st8" d="M1205,343.5l-10.4-6.4c-0.7,1.1-2.3,0-3.2,1.5c-1.6,2.5,0.2,5.5,4.3,8c4.8,2.9,10.2,3,12.8,0.3L1205,343.5z"
				/>
		</g>
		<g>
			<path class="st6" d="M1205,343.5l-10.4-6.4c0.7-1.1-1-2.1-0.1-3.6c1.6-2.5,5-2.3,9.1,0.2c4.8,2.9,7.3,7.8,6,11.3L1205,343.5z"/>
		</g>
	</g>
	<g>
		<g>
			<path class="st6" d="M1097.3,413.2c0,3.5,2.9,6.4,6.4,6.4c3.5,0,6.4-2.9,6.4-6.4c0-3.5-2.9-6.4-6.4-6.4
				C1100.2,406.8,1097.3,409.7,1097.3,413.2z"/>
		</g>
		<g>
			<g>
				<path class="st8" d="M1104.5,410.2l-0.8-3.4l-0.8,3.4c-2.6-0.6-4.6-3.9-4.6-8c0-3.5,1.1-5.6,3.3-5.6c1.3,0,1.2,1.4,2.1,1.4
					c1,0,0.9-1.4,2.1-1.4c2.1,0,3.3,2.2,3.3,5.6C1109.1,406.3,1107.1,409.7,1104.5,410.2z"/>
			</g>
			<g>
				<path class="st8" d="M1106.7,413.1l3-1.8l-3.5,0.3c-0.3-2.7,2.3-5.6,6.1-6.9c3.3-1.1,5.7-0.7,6.4,1.4c0.4,1.2-1,1.6-0.7,2.5
					c0.3,0.9,1.6,0.4,2,1.6c0.7,2-1.1,3.8-4.4,4.9C1111.9,416.3,1108.1,415.5,1106.7,413.1z"/>
			</g>
			<g>
				<path class="st8" d="M1107.5,418.6l-1.4-3.2c2.5-1.1,6.1,0.4,8.4,3.7c2,2.8,2.4,5.2,0.7,6.5c-1,0.7-1.8-0.4-2.6,0.1
					c-0.8,0.6,0.1,1.7-0.9,2.4c-1.7,1.3-3.9,0.2-6-2.6c-2.4-3.3-2.7-7.2-0.9-9.2L1107.5,418.6z"/>
			</g>
			<g>
				<path class="st8" d="M1101.3,415.4l-1.4,3.2l2.6-2.3c1.8,2,1.5,5.9-0.9,9.2c-2,2.8-4.2,3.9-6,2.6c-1-0.7-0.1-1.8-0.9-2.4
					c-0.8-0.6-1.5,0.6-2.6-0.1c-1.7-1.3-1.4-3.7,0.7-6.5C1095.2,415.8,1098.8,414.3,1101.3,415.4z"/>
			</g>
			<g>
				<path class="st8" d="M1087.3,410.2c0.4-1.2,1.7-0.7,2-1.6c0.3-0.9-1.1-1.3-0.7-2.5c0.7-2,3.1-2.4,6.4-1.4
					c3.9,1.3,6.4,4.2,6.1,6.9l-3.5-0.3l3,1.8c-1.3,2.3-5.2,3.2-9,2C1088.4,414,1086.6,412.3,1087.3,410.2z"/>
			</g>
		</g>
	</g>
	<g>
		<g>
			<path class="st13" d="M1059.2,470c0.9,2.2,3.4,3.4,5.6,2.5c2.2-0.9,3.4-3.4,2.5-5.6c-0.9-2.2-3.4-3.4-5.6-2.5
				C1059.5,465.2,1058.4,467.7,1059.2,470z"/>
			<path class="st14" d="M1058.8,470.2L1058.8,470.2c-0.5-1.2-0.4-2.5,0.1-3.7c0.5-1.2,1.5-2.1,2.7-2.5c2.5-0.9,5.3,0.3,6.3,2.8
				c1,2.5-0.3,5.3-2.8,6.3c-0.6,0.2-1.1,0.3-1.7,0.3C1061.3,473.3,1059.5,472.1,1058.8,470.2z M1061.9,464.9c-1,0.4-1.7,1.1-2.1,2
				c-0.4,0.9-0.4,2-0.1,2.9l0,0c0.8,2,3,3,4.9,2.2c2-0.8,3-3,2.2-4.9c-0.6-1.5-2-2.5-3.6-2.5
				C1062.8,464.6,1062.4,464.7,1061.9,464.9z"/>
		</g>
		<g>
			<path class="st8" d="M1061.7,464.4l-2.1-5.5c0.6-0.2,0.2-1.1,1-1.4c1.4-0.5,2.6,0.6,3.4,2.8c1,2.6,0.5,5.2-1,6.2L1061.7,464.4z"
				/>
		</g>
		<g>
			<path class="st6" d="M1061.7,464.4l-2.1-5.5c-0.6,0.2-0.9-0.7-1.7-0.4c-1.4,0.5-1.5,2.2-0.7,4.4c1,2.6,3.1,4.2,4.9,3.9
				L1061.7,464.4z"/>
		</g>
		<g>
			<path class="st8" d="M1066.7,465.8l4.6-3.7c0.4,0.5,1.1-0.1,1.6,0.5c0.9,1.1,0.2,2.7-1.6,4.1c-2.1,1.7-4.8,2.1-6.2,0.9
				L1066.7,465.8z"/>
		</g>
		<g>
			<path class="st6" d="M1066.7,465.8l4.6-3.7c-0.4-0.5,0.4-1.1-0.2-1.7c-0.9-1.1-2.5-0.8-4.4,0.7c-2.1,1.7-3,4.2-2.2,5.8
				L1066.7,465.8z"/>
		</g>
		<g>
			<path class="st8" d="M1067,470.9l5,3.2c-0.4,0.5,0.5,1,0,1.7c-0.8,1.2-2.5,1-4.4-0.2c-2.3-1.5-3.4-3.9-2.8-5.6L1067,470.9z"/>
		</g>
		<g>
			<path class="st6" d="M1067,470.9l5,3.2c0.4-0.5,1.1,0,1.6-0.7c0.8-1.2,0-2.7-2-3.9c-2.3-1.5-4.9-1.6-6.2-0.3L1067,470.9z"/>
		</g>
		<g>
			<path class="st8" d="M1062.2,472.8l-1.6,5.7c0.6,0.2,0.3,1.1,1.2,1.3c1.4,0.4,2.5-0.9,3.1-3.1c0.7-2.6,0-5.2-1.6-6L1062.2,472.8z
				"/>
		</g>
		<g>
			<path class="st6" d="M1062.2,472.8l-1.6,5.7c-0.6-0.2-0.8,0.8-1.7,0.5c-1.4-0.4-1.8-2-1.1-4.3c0.7-2.6,2.6-4.5,4.4-4.4
				L1062.2,472.8z"/>
		</g>
		<g>
			<path class="st8" d="M1059,468.7l-5.9,0.3c0,0.6-0.9,0.7-0.9,1.5c0.1,1.4,1.6,2.1,3.9,2c2.7-0.1,4.9-1.6,5.2-3.4L1059,468.7z"/>
		</g>
		<g>
			<path class="st6" d="M1059,468.7l-5.9,0.3c0-0.6-1-0.6-1-1.4c-0.1-1.4,1.4-2.3,3.7-2.4c2.7-0.1,5.1,1.1,5.5,2.9L1059,468.7z"/>
		</g>
	</g>
	<g>
		<g>
			<path class="st8" d="M1151.4,415.9c1.7,4.1,6.4,6.1,10.5,4.4c4.1-1.7,6.1-6.4,4.4-10.5c-1.7-4.1-6.4-6.1-10.5-4.4
				C1151.7,407.1,1149.7,411.8,1151.4,415.9z"/>
		</g>
		<g>
			<g>
				<path class="st6" d="M1158.3,409l-2.5-3.6l0.7,4.4c-3.3,0.6-7.2-2.3-9.2-7c-1.6-4-1.4-7.1,1.1-8.1c1.5-0.6,2,1.1,3.2,0.6
					c1.1-0.5,0.4-2,1.8-2.6c2.5-1,4.8,1,6.5,5C1161.8,402.2,1161.1,407.1,1158.3,409z"/>
			</g>
			<g>
				<path class="st6" d="M1162.3,411.3l2.7-3.5l-3.9,2c-1.6-3,0-7.6,3.9-10.9c3.3-2.8,6.3-3.5,8.1-1.4c1,1.2-0.4,2.3,0.4,3.2
					c0.8,0.9,2.1-0.3,3.1,0.9c1.7,2,0.6,4.9-2.8,7.7C1169.8,412.6,1165,413.4,1162.3,411.3z"/>
			</g>
			<g>
				<path class="st6" d="M1165.8,417.3l-3.2-3.1c2.3-2.4,7.2-2.4,11.6,0.3c3.7,2.3,5.3,4.9,3.9,7.2c-0.8,1.3-2.3,0.3-2.9,1.4
					c-0.6,1,0.9,1.9,0.1,3.2c-1.4,2.3-4.5,2-8.2-0.2c-4.3-2.7-6.6-7-5.4-10.2L1165.8,417.3z"/>
			</g>
			<g>
				<path class="st6" d="M1157.1,416.5l-0.1,4.4l2-4c3,1.5,4.5,6.2,3.3,11.1c-1,4.2-3.1,6.5-5.7,5.9c-1.5-0.4-1-2.1-2.2-2.3
					c-1.2-0.3-1.5,1.4-3,1.1c-2.6-0.6-3.3-3.6-2.3-7.9C1150.2,419.9,1153.7,416.4,1157.1,416.5z"/>
			</g>
			<g>
				<path class="st6" d="M1138.3,417.2c-0.1-1.6,1.6-1.6,1.6-2.8c-0.1-1.2-1.8-1-1.9-2.6c-0.2-2.7,2.4-4.3,6.8-4.6
					c5.1-0.4,9.4,1.8,10.4,5.1l-4.2,1.3l4.4,0.7c-0.5,3.3-4.5,6.2-9.5,6.5C1141.4,421.1,1138.5,419.8,1138.3,417.2z"/>
			</g>
		</g>
	</g>
	<g>
		<g>
			<path class="st13" d="M1187.2,363.1c0.9,2.2,3.4,3.4,5.6,2.5s3.4-3.4,2.5-5.6c-0.9-2.2-3.4-3.4-5.6-2.5
				C1187.5,358.3,1186.3,360.8,1187.2,363.1z"/>
			<path class="st14" d="M1189.3,366c-1.2-0.5-2.1-1.5-2.5-2.7c-1-2.5,0.3-5.3,2.8-6.3c1.2-0.5,2.5-0.4,3.7,0.1
				c1.2,0.5,2.1,1.5,2.5,2.7c1,2.5-0.3,5.3-2.8,6.3c-0.6,0.2-1.1,0.3-1.7,0.3C1190.6,366.4,1189.9,366.2,1189.3,366z M1189.9,358
				c-2,0.8-3,3-2.2,4.9l0,0c0.4,1,1.1,1.7,2,2.1c0.9,0.4,2,0.4,2.9,0.1c2-0.8,3-3,2.2-4.9c-0.4-1-1.1-1.7-2-2.1
				c-0.5-0.2-1-0.3-1.6-0.3C1190.8,357.7,1190.3,357.8,1189.9,358z"/>
		</g>
		<g>
			<path class="st8" d="M1189.7,357.4l-2.1-5.5c0.6-0.2,0.2-1.1,1-1.4c1.4-0.5,2.6,0.6,3.4,2.8c1,2.6,0.5,5.2-1,6.2L1189.7,357.4z"
				/>
		</g>
		<g>
			<path class="st6" d="M1189.7,357.4l-2.1-5.5c-0.6,0.2-0.9-0.7-1.7-0.4c-1.4,0.5-1.5,2.2-0.7,4.4c1,2.6,3.1,4.2,4.9,3.9
				L1189.7,357.4z"/>
		</g>
		<g>
			<path class="st8" d="M1194.6,358.9l4.6-3.7c0.4,0.5,1.1-0.1,1.6,0.5c0.9,1.1,0.2,2.7-1.6,4.1c-2.1,1.7-4.8,2.1-6.2,0.9
				L1194.6,358.9z"/>
		</g>
		<g>
			<path class="st6" d="M1194.6,358.9l4.6-3.7c-0.4-0.5,0.4-1.1-0.2-1.7c-0.9-1.1-2.5-0.8-4.4,0.7c-2.1,1.7-3,4.2-2.2,5.8
				L1194.6,358.9z"/>
		</g>
		<g>
			<path class="st8" d="M1194.9,364l5,3.2c-0.4,0.5,0.5,1,0,1.7c-0.8,1.2-2.5,1-4.4-0.2c-2.3-1.5-3.4-3.9-2.8-5.6L1194.9,364z"/>
		</g>
		<g>
			<path class="st6" d="M1194.9,364l5,3.2c0.4-0.5,1.1,0,1.6-0.7c0.8-1.2,0-2.7-2-3.9c-2.3-1.5-4.9-1.6-6.2-0.3L1194.9,364z"/>
		</g>
		<g>
			<path class="st8" d="M1190.1,365.9l-1.6,5.7c0.6,0.2,0.3,1.1,1.2,1.3c1.4,0.4,2.5-0.9,3.1-3.1c0.7-2.6,0-5.2-1.6-6L1190.1,365.9z
				"/>
		</g>
		<g>
			<path class="st6" d="M1190.1,365.9l-1.6,5.7c-0.6-0.2-0.8,0.8-1.7,0.5c-1.4-0.4-1.8-2-1.1-4.3c0.7-2.6,2.6-4.5,4.4-4.4
				L1190.1,365.9z"/>
		</g>
		<g>
			<path class="st8" d="M1186.9,361.8l-5.9,0.3c0,0.6-0.9,0.7-0.9,1.5c0.1,1.4,1.6,2.1,3.9,2c2.7-0.1,4.9-1.6,5.2-3.4L1186.9,361.8z
				"/>
		</g>
		<g>
			<path class="st6" d="M1186.9,361.8l-5.9,0.3c0-0.6-1-0.6-1-1.4c-0.1-1.4,1.4-2.3,3.7-2.4c2.7-0.1,5.1,1.1,5.5,2.9L1186.9,361.8z"
				/>
		</g>
	</g>
	<g>
		<g>
			
				<ellipse transform="matrix(0.9546 -0.2979 0.2979 0.9546 -65.835 369.3265)" class="st6" cx="1178.5" cy="400.6" rx="6.4" ry="6.4"/>
		</g>
		<g>
			<g>
				<path class="st8" d="M1179.9,397.8l0-3.5l-1.5,3.2c-2.4-1.1-3.7-4.8-2.9-8.8c0.7-3.4,2.3-5.3,4.4-4.8c1.2,0.3,0.9,1.6,1.8,1.8
					c0.9,0.2,1.2-1.2,2.4-0.9c2.1,0.4,2.7,2.8,2,6.2C1185.3,395,1182.6,397.8,1179.9,397.8z"/>
			</g>
			<g>
				<path class="st8" d="M1181.5,401.1l3.3-1.1l-3.5-0.4c0.3-2.7,3.4-5,7.4-5.4c3.4-0.4,5.7,0.5,6,2.7c0.1,1.2-1.3,1.3-1.2,2.3
					c0.1,1,1.5,0.7,1.6,2c0.2,2.1-1.8,3.5-5.3,3.8C1185.9,405.3,1182.3,403.7,1181.5,401.1z"/>
			</g>
			<g>
				<path class="st8" d="M1181.1,406.7l-0.7-3.5c2.6-0.6,5.8,1.7,7.5,5.4c1.4,3.2,1.3,5.6-0.7,6.5c-1.1,0.5-1.7-0.8-2.5-0.4
					c-0.9,0.4-0.2,1.6-1.4,2.1c-2,0.9-3.9-0.7-5.3-3.8c-1.6-3.7-1.2-7.6,1-9.2L1181.1,406.7z"/>
			</g>
			<g>
				<path class="st8" d="M1175.7,402.2l-2,2.9l3.1-1.7c1.3,2.3,0.2,6.1-2.8,8.8c-2.6,2.3-5,2.9-6.4,1.3c-0.8-0.9,0.2-1.8-0.4-2.5
					c-0.6-0.7-1.6,0.3-2.5-0.7c-1.4-1.6-0.6-3.9,2-6.2C1169.7,401.4,1173.5,400.6,1175.7,402.2z"/>
			</g>
			<g>
				<path class="st8" d="M1163.1,394.2c0.6-1.1,1.8-0.3,2.3-1.2c0.5-0.8-0.8-1.5-0.1-2.6c1.1-1.8,3.5-1.7,6.5,0c3.5,2,5.4,5.4,4.6,8
					l-3.4-1l2.6,2.4c-1.8,2-5.7,2.1-9.2,0C1163.3,398.2,1162,396.1,1163.1,394.2z"/>
			</g>
		</g>
	</g>
	<g>
		<g>
			<path class="st13" d="M1031.8,327.6c0,3.5,2.9,6.4,6.4,6.4c3.5,0,6.4-2.9,6.4-6.4c0-3.5-2.9-6.4-6.4-6.4
				C1034.6,321.2,1031.8,324.1,1031.8,327.6z"/>
			<path class="st14" d="M1031.3,327.6c0-3.8,3.1-6.9,6.9-6.9c3.8,0,6.9,3.1,6.9,6.9c0,3.8-3.1,6.9-6.9,6.9
				C1034.4,334.5,1031.3,331.4,1031.3,327.6z M1032.3,327.6c0,3.2,2.6,5.9,5.9,5.9c3.2,0,5.9-2.6,5.9-5.9c0-3.2-2.6-5.9-5.9-5.9
				C1034.9,321.7,1032.3,324.4,1032.3,327.6z"/>
		</g>
		<g>
			<path class="st8" d="M1038.2,321.2v-8.8c1,0,0.9-1.4,2.1-1.4c2.1,0,3.3,2.2,3.3,5.6c0,4-2,7.4-4.6,8L1038.2,321.2z"/>
		</g>
		<g>
			<path class="st6" d="M1038.2,321.2v-8.8c-1,0-0.9-1.4-2.1-1.4c-2.1,0-3.3,2.2-3.3,5.6c0,4,2,7.4,4.6,8L1038.2,321.2z"/>
		</g>
		<g>
			<path class="st8" d="M1044.2,325.7l8.3-2.7c0.3,0.9,1.6,0.4,2,1.6c0.7,2-1.1,3.8-4.4,4.9c-3.9,1.3-7.7,0.4-9-2L1044.2,325.7z"/>
		</g>
		<g>
			<path class="st6" d="M1044.2,325.7l8.3-2.7c-0.3-0.9,1.1-1.3,0.7-2.5c-0.7-2-3.1-2.4-6.4-1.4c-3.9,1.3-6.4,4.2-6.1,6.9
				L1044.2,325.7z"/>
		</g>
		<g>
			<path class="st8" d="M1042,333l5.2,7.1c-0.8,0.6,0.1,1.7-0.9,2.4c-1.7,1.3-3.9,0.2-6-2.6c-2.4-3.3-2.7-7.2-0.9-9.2L1042,333z"/>
		</g>
		<g>
			<path class="st6" d="M1042,333l5.2,7.1c0.8-0.6,1.5,0.6,2.6-0.1c1.7-1.3,1.4-3.7-0.7-6.5c-2.4-3.3-6-4.8-8.4-3.7L1042,333z"/>
		</g>
		<g>
			<path class="st8" d="M1034.4,333l-5.2,7.1c0.8,0.6-0.1,1.7,0.9,2.4c1.7,1.3,3.9,0.2,6-2.6c2.4-3.3,2.7-7.2,0.9-9.2L1034.4,333z"
				/>
		</g>
		<g>
			<path class="st6" d="M1034.4,333l-5.2,7.1c-0.8-0.6-1.5,0.6-2.6-0.1c-1.7-1.3-1.4-3.7,0.7-6.5c2.4-3.3,6-4.8,8.4-3.7L1034.4,333z
				"/>
		</g>
		<g>
			<path class="st8" d="M1032.1,325.7l-8.3-2.7c-0.3,0.9-1.6,0.4-2,1.6c-0.7,2,1.1,3.8,4.4,4.9c3.9,1.3,7.7,0.4,9-2L1032.1,325.7z"
				/>
		</g>
		<g>
			<path class="st6" d="M1032.1,325.7l-8.3-2.7c0.3-0.9-1.1-1.3-0.7-2.5c0.7-2,3.1-2.4,6.4-1.4c3.9,1.3,6.4,4.2,6.1,6.9
				L1032.1,325.7z"/>
		</g>
	</g>
	<g>
		<g>
			
				<ellipse transform="matrix(0.9456 -0.3254 0.3254 0.9456 -76.3734 362.9498)" class="st6" cx="1046.9" cy="409.8" rx="7.4" ry="7.4"/>
		</g>
		<g>
			<g>
				<path class="st8" d="M1049.2,407.1l0.9-4l-2.5,3.2c-2.4-1.9-2.8-6.4-0.8-10.6c1.8-3.6,4-5.3,6.3-4.2c1.3,0.6,0.5,2.1,1.5,2.5
					c1,0.5,1.6-1,2.9-0.4c2.2,1.1,2.3,3.9,0.5,7.5C1056,405.4,1052.3,407.8,1049.2,407.1z"/>
			</g>
			<g>
				<path class="st8" d="M1050.1,411.2l4.1-0.3l-3.8-1.4c1.1-2.9,5.2-4.7,9.8-4c4,0.6,6.3,2.2,5.9,4.7c-0.2,1.4-1.8,1.1-1.9,2.2
					c-0.2,1.1,1.5,1.2,1.3,2.7c-0.3,2.4-3,3.4-7,2.8C1053.8,417.2,1050.3,414.3,1050.1,411.2z"/>
			</g>
			<g>
				<path class="st8" d="M1048.1,417.3l0.2-4.1c3.1,0.1,6.1,3.5,6.9,8.1c0.7,3.9-0.2,6.6-2.6,7.1c-1.4,0.3-1.6-1.4-2.7-1.2
					c-1.1,0.2-0.7,1.8-2.2,2c-2.4,0.4-4.2-1.8-4.9-5.8c-0.8-4.6,0.8-8.8,3.7-10L1048.1,417.3z"/>
			</g>
			<g>
				<path class="st8" d="M1043.3,410.8l-3.1,2.7l3.9-1.1c0.9,3-1.5,6.9-5.6,9c-3.5,1.9-6.4,1.9-7.5-0.3c-0.7-1.3,0.8-2,0.3-2.9
					c-0.5-1-1.9-0.2-2.6-1.4c-1.2-2.2,0.5-4.5,4-6.4C1036.8,408.2,1041.3,408.5,1043.3,410.8z"/>
			</g>
			<g>
				<path class="st8" d="M1031.4,398.4c1-1,2.1,0.1,2.9-0.7c0.8-0.8-0.4-1.9,0.6-2.9c1.7-1.8,4.4-1,7.3,1.8
					c3.4,3.2,4.5,7.6,2.9,10.2l-3.5-2.1l2.2,3.4c-2.6,1.7-7,0.7-10.3-2.5C1030.6,402.9,1029.7,400.2,1031.4,398.4z"/>
			</g>
		</g>
	</g>
	<g>
		<g>
			<path class="st6" d="M1085.4,281.6c-1.1,4.3,1.4,8.6,5.6,9.8c4.3,1.1,8.6-1.4,9.8-5.6c1.1-4.3-1.4-8.6-5.6-9.8
				C1090.9,274.9,1086.5,277.4,1085.4,281.6z"/>
		</g>
		<g>
			<g>
				<path class="st8" d="M1095,280.3l0.2-4.4l-2,3.9c-3-1.5-4.3-6.2-3-11.1c1.1-4.2,3.2-6.4,5.8-5.7c1.5,0.4,1,2.1,2.1,2.4
					c1.2,0.3,1.5-1.4,3-1c2.6,0.7,3.2,3.7,2.1,7.9C1101.9,277.1,1098.4,280.5,1095,280.3z"/>
			</g>
			<g>
				<path class="st8" d="M1096.8,284.6l4.2-1.2l-4.3-0.7c0.5-3.3,4.6-6,9.6-6.3c4.3-0.2,7.1,1.1,7.2,3.7c0.1,1.6-1.7,1.6-1.6,2.8
					c0.1,1.2,1.8,1,1.9,2.6c0.1,2.7-2.5,4.2-6.8,4.4C1102,290.1,1097.7,287.8,1096.8,284.6z"/>
			</g>
			<g>
				<path class="st8" d="M1095.9,291.4l-0.6-4.3c3.3-0.5,7.1,2.5,9,7.2c1.5,4,1.2,7.1-1.3,8c-1.5,0.6-2-1.1-3.1-0.7
					c-1.1,0.4-0.4,2-1.9,2.6c-2.5,1-4.8-1.1-6.3-5.1c-1.8-4.7-1-9.5,1.9-11.3L1095.9,291.4z"/>
			</g>
			<g>
				<path class="st8" d="M1089.5,285.5l-2.7,3.4l3.9-1.9c1.5,3-0.1,7.6-4.1,10.7c-3.4,2.7-6.4,3.3-8,1.3c-1-1.2,0.4-2.2-0.3-3.2
					c-0.8-0.9-2.1,0.2-3-1c-1.7-2.1-0.4-4.9,2.9-7.6C1082.1,284.1,1086.9,283.4,1089.5,285.5z"/>
			</g>
			<g>
				<path class="st8" d="M1074.3,274.8c0.9-1.3,2.3-0.3,2.9-1.3c0.7-1-0.9-1.9,0-3.2c1.5-2.2,4.5-1.9,8.1,0.4
					c4.2,2.8,6.4,7.1,5.2,10.3l-4.1-1.5l3.1,3.1c-2.4,2.4-7.2,2.2-11.5-0.6C1074.4,279.7,1072.9,277,1074.3,274.8z"/>
			</g>
		</g>
	</g>
	<g>
		<g>
			<path class="st13" d="M979.8,444.5c-1.1,4.3,1.4,8.6,5.6,9.8c4.3,1.1,8.6-1.4,9.8-5.6c1.1-4.3-1.4-8.6-5.6-9.8
				C985.3,437.7,980.9,440.2,979.8,444.5z"/>
			<path class="st14" d="M985.3,454.7c-4.5-1.2-7.2-5.9-6-10.4c1.2-4.5,5.9-7.2,10.4-6c4.5,1.2,7.2,5.9,6,10.4
				c-1,3.8-4.5,6.3-8.2,6.3C986.8,455,986,454.9,985.3,454.7z M980.3,444.6c-1.1,4,1.3,8.1,5.3,9.2c4,1.1,8.1-1.3,9.2-5.3
				c1.1-4-1.3-8.1-5.3-9.2c-0.6-0.2-1.3-0.3-1.9-0.3C984.2,439.1,981.2,441.3,980.3,444.6z"/>
		</g>
		<g>
			<path class="st8" d="M989.6,438.7l2.8-10.6c1.2,0.3,1.5-1.4,3-1c2.6,0.7,3.2,3.7,2.1,7.9c-1.3,4.9-4.8,8.3-8.2,8.1L989.6,438.7z"
				/>
		</g>
		<g>
			<path class="st6" d="M989.6,438.7l2.8-10.6c-1.2-0.3-0.6-2-2.1-2.4c-2.6-0.7-4.7,1.6-5.8,5.7c-1.3,4.9,0,9.6,3,11.1L989.6,438.7z
				"/>
		</g>
		<g>
			<path class="st8" d="M995.4,446.2l10.9-0.6c0.1,1.2,1.8,1,1.9,2.6c0.1,2.7-2.5,4.2-6.8,4.4c-5,0.3-9.3-2-10.2-5.3L995.4,446.2z"
				/>
		</g>
		<g>
			<path class="st6" d="M995.4,446.2l10.9-0.6c-0.1-1.2,1.7-1.2,1.6-2.8c-0.1-2.7-2.9-3.9-7.2-3.7c-5,0.3-9.1,3-9.6,6.3L995.4,446.2
				z"/>
		</g>
		<g>
			<path class="st8" d="M990.3,454.2l3.9,10.2c-1.1,0.4-0.4,2-1.9,2.6c-2.5,1-4.8-1.1-6.3-5.1c-1.8-4.7-1-9.5,1.9-11.3L990.3,454.2z
				"/>
		</g>
		<g>
			<path class="st6" d="M990.3,454.2l3.9,10.2c1.1-0.4,1.7,1.2,3.1,0.7c2.5-1,2.8-4,1.3-8c-1.8-4.7-5.6-7.7-9-7.2L990.3,454.2z"/>
		</g>
		<g>
			<path class="st8" d="M981.2,451.8l-8.5,6.9c0.8,0.9-0.7,2,0.3,3.2c1.7,2.1,4.7,1.5,8-1.3c3.9-3.2,5.6-7.8,4.1-10.7L981.2,451.8z"
				/>
		</g>
		<g>
			<path class="st6" d="M981.2,451.8l-8.5,6.9c-0.8-0.9-2.1,0.2-3-1c-1.7-2.1-0.4-4.9,2.9-7.6c3.9-3.2,8.8-3.8,11.4-1.7L981.2,451.8
				z"/>
		</g>
		<g>
			<path class="st8" d="M980.8,442.3l-9.2-6c-0.7,1-2.1,0-2.9,1.3c-1.5,2.2,0.1,4.9,3.7,7.3c4.2,2.8,9.1,2.9,11.5,0.6L980.8,442.3z"
				/>
		</g>
		<g>
			<path class="st6" d="M980.8,442.3l-9.2-6c0.7-1-0.9-1.9,0-3.2c1.5-2.2,4.5-1.9,8.1,0.4c4.2,2.8,6.4,7.1,5.2,10.3L980.8,442.3z"/>
		</g>
	</g>
	<g>
		<g>
			<path class="st8" d="M1132.9,281.2c-1.1,4.3,1.4,8.6,5.6,9.8c4.3,1.1,8.6-1.4,9.8-5.6c1.1-4.3-1.4-8.6-5.6-9.8
				C1138.4,274.4,1134,277,1132.9,281.2z"/>
		</g>
		<g>
			<g>
				<path class="st6" d="M1142.5,279.9l0.2-4.4l-2,3.9c-3-1.5-4.3-6.2-3-11.1c1.1-4.2,3.2-6.4,5.8-5.7c1.5,0.4,1,2.1,2.1,2.4
					c1.2,0.3,1.5-1.4,3-1c2.6,0.7,3.2,3.7,2.1,7.9C1149.3,276.7,1145.8,280.1,1142.5,279.9z"/>
			</g>
			<g>
				<path class="st6" d="M1144.3,284.1l4.2-1.2l-4.3-0.7c0.5-3.3,4.6-6,9.6-6.3c4.3-0.2,7.1,1.1,7.2,3.7c0.1,1.6-1.7,1.6-1.6,2.8
					c0.1,1.2,1.8,1,1.9,2.6c0.1,2.7-2.5,4.2-6.8,4.4C1149.4,289.7,1145.1,287.4,1144.3,284.1z"/>
			</g>
			<g>
				<path class="st6" d="M1143.4,291l-0.6-4.3c3.3-0.5,7.1,2.5,9,7.2c1.5,4,1.2,7.1-1.3,8c-1.5,0.6-2-1.1-3.1-0.7
					c-1.1,0.4-0.4,2-1.9,2.6c-2.5,1-4.8-1.1-6.3-5.1c-1.8-4.7-1-9.5,1.9-11.3L1143.4,291z"/>
			</g>
			<g>
				<path class="st6" d="M1137,285.1l-2.7,3.4l3.9-1.9c1.5,3-0.1,7.6-4.1,10.7c-3.4,2.7-6.4,3.3-8,1.3c-1-1.2,0.4-2.2-0.3-3.2
					c-0.8-0.9-2.1,0.2-3-1c-1.7-2.1-0.4-4.9,2.9-7.6C1129.6,283.7,1134.4,283,1137,285.1z"/>
			</g>
			<g>
				<path class="st6" d="M1121.8,274.4c0.9-1.3,2.3-0.3,2.9-1.3c0.7-1-0.9-1.9,0-3.2c1.5-2.2,4.5-1.9,8.1,0.4
					c4.2,2.8,6.4,7.1,5.2,10.3l-4.1-1.5l3.1,3.1c-2.4,2.4-7.2,2.2-11.5-0.6C1121.9,279.3,1120.4,276.6,1121.8,274.4z"/>
			</g>
		</g>
	</g>
	<g>
		<g>
			<path class="st13" d="M1230.5,314.1c0.7,2.2,3,3.5,5.3,2.8c2.2-0.7,3.5-3,2.8-5.3c-0.7-2.2-3-3.5-5.3-2.8
				C1231.1,309.5,1229.8,311.9,1230.5,314.1z"/>
			<path class="st14" d="M1230,314.2L1230,314.2c-0.8-2.5,0.7-5.2,3.2-5.9c1.2-0.4,2.5-0.2,3.6,0.4c1.1,0.6,1.9,1.6,2.3,2.8
				c0.4,1.2,0.2,2.5-0.3,3.6c-0.6,1.1-1.6,1.9-2.8,2.3c-0.5,0.1-0.9,0.2-1.4,0.2C1232.5,317.6,1230.7,316.3,1230,314.2z
				 M1233.5,309.3c-2,0.6-3.1,2.7-2.5,4.7v0c0.6,2,2.7,3.1,4.6,2.5c1-0.3,1.7-0.9,2.2-1.8c0.5-0.9,0.6-1.9,0.3-2.8
				c-0.3-1-0.9-1.7-1.8-2.2c-0.5-0.3-1.1-0.4-1.7-0.4C1234.2,309.1,1233.8,309.2,1233.5,309.3z"/>
		</g>
		<g>
			<path class="st8" d="M1233.3,308.8l-1.7-5.5c0.6-0.2,0.3-1.1,1.1-1.3c1.4-0.4,2.5,0.8,3.2,2.9c0.8,2.6,0.2,5.1-1.4,5.9
				L1233.3,308.8z"/>
		</g>
		<g>
			<path class="st6" d="M1233.3,308.8l-1.7-5.5c-0.6,0.2-0.8-0.7-1.6-0.5c-1.4,0.4-1.6,2-1,4.2c0.8,2.6,2.7,4.3,4.5,4.1
				L1233.3,308.8z"/>
		</g>
		<g>
			<path class="st8" d="M1238,310.5l4.7-3.3c0.4,0.5,1.1,0,1.6,0.6c0.8,1.2,0.1,2.6-1.8,3.9c-2.2,1.5-4.8,1.7-6.1,0.5L1238,310.5z"
				/>
		</g>
		<g>
			<path class="st6" d="M1238,310.5l4.7-3.3c-0.4-0.5,0.4-1-0.1-1.7c-0.8-1.2-2.4-0.9-4.3,0.4c-2.2,1.5-3.2,3.9-2.6,5.5L1238,310.5z
				"/>
		</g>
		<g>
			<path class="st8" d="M1238,315.5l4.6,3.5c-0.4,0.5,0.4,1-0.1,1.7c-0.9,1.1-2.5,0.9-4.3-0.5c-2.1-1.6-3.1-4-2.4-5.6L1238,315.5z"
				/>
		</g>
		<g>
			<path class="st6" d="M1238,315.5l4.6,3.5c0.4-0.5,1.1,0.1,1.6-0.6c0.9-1.1,0.1-2.6-1.7-4c-2.1-1.6-4.7-1.9-6-0.7L1238,315.5z"/>
		</g>
		<g>
			<path class="st8" d="M1233.2,317l-1.9,5.5c0.6,0.2,0.3,1.1,1,1.3c1.3,0.5,2.5-0.7,3.3-2.8c0.9-2.5,0.3-5.1-1.2-6L1233.2,317z"/>
		</g>
		<g>
			<path class="st6" d="M1233.2,317l-1.9,5.5c-0.6-0.2-0.9,0.7-1.6,0.4c-1.3-0.5-1.6-2.1-0.8-4.2c0.9-2.5,2.9-4.2,4.6-4L1233.2,317z
				"/>
		</g>
		<g>
			<path class="st8" d="M1230.4,312.8l-5.8-0.1c0,0.6-0.9,0.6-0.9,1.4c0,1.4,1.4,2.2,3.7,2.2c2.7,0,4.9-1.2,5.3-3L1230.4,312.8z"/>
		</g>
		<g>
			<path class="st6" d="M1230.4,312.8l-5.8-0.1c0-0.6-0.9-0.6-0.9-1.4c0-1.4,1.5-2.1,3.8-2.1c2.7,0,4.9,1.4,5.2,3.2L1230.4,312.8z"
				/>
		</g>
	</g>
	<g>
		<g>
			<path class="st8" d="M1175.2,303.2c0,2.7,2.2,4.8,4.8,4.8c2.7,0,4.8-2.2,4.8-4.8c0-2.7-2.2-4.8-4.8-4.8
				C1177.3,298.3,1175.2,300.5,1175.2,303.2z"/>
		</g>
		<g>
			<g>
				<path class="st6" d="M1180.6,300.9l-0.6-2.6l-0.6,2.6c-2-0.4-3.5-3-3.5-6c0-2.6,0.9-4.3,2.5-4.3c0.9,0,0.9,1.1,1.6,1.1
					c0.7,0,0.7-1.1,1.6-1.1c1.6,0,2.5,1.7,2.5,4.3C1184.1,297.9,1182.6,300.5,1180.6,300.9z"/>
			</g>
			<g>
				<path class="st6" d="M1182.3,303.1l2.3-1.4l-2.6,0.2c-0.2-2,1.7-4.2,4.6-5.2c2.5-0.8,4.3-0.5,4.8,1c0.3,0.9-0.7,1.2-0.5,1.9
					c0.2,0.7,1.2,0.3,1.5,1.2c0.5,1.5-0.8,2.9-3.3,3.7C1186.2,305.5,1183.3,304.8,1182.3,303.1z"/>
			</g>
			<g>
				<path class="st6" d="M1182.9,307.2l-1.1-2.4c1.9-0.8,4.6,0.3,6.4,2.8c1.5,2.1,1.8,4,0.5,4.9c-0.8,0.6-1.3-0.3-1.9,0.1
					c-0.6,0.4,0.1,1.2-0.7,1.8c-1.3,0.9-3,0.1-4.5-2c-1.8-2.5-2.1-5.4-0.7-6.9L1182.9,307.2z"/>
			</g>
			<g>
				<path class="st6" d="M1178.2,304.8l-1.1,2.4l2-1.8c1.4,1.5,1.1,4.4-0.7,6.9c-1.5,2.1-3.2,2.9-4.5,2c-0.8-0.6-0.1-1.4-0.7-1.8
					c-0.6-0.4-1.2,0.5-1.9-0.1c-1.3-0.9-1-2.8,0.5-4.9C1173.6,305.1,1176.3,304,1178.2,304.8z"/>
			</g>
			<g>
				<path class="st6" d="M1167.6,300.9c0.3-0.9,1.3-0.5,1.5-1.2c0.2-0.7-0.8-1-0.5-1.9c0.5-1.5,2.3-1.8,4.8-1
					c2.9,0.9,4.8,3.2,4.6,5.2l-2.6-0.2l2.3,1.4c-1,1.8-3.9,2.4-6.8,1.5C1168.4,303.8,1167.1,302.4,1167.6,300.9z"/>
			</g>
		</g>
	</g>
	<g>
		<g>
			<path class="st6" d="M999.5,342.4c0.7,2.2,3,3.5,5.3,2.8c2.2-0.7,3.5-3,2.8-5.3c-0.7-2.2-3-3.5-5.3-2.8
				C1000.1,337.8,998.9,340.1,999.5,342.4z"/>
		</g>
		<g>
			<g>
				<path class="st8" d="M1003.5,339.1l-1.2-2l0.2,2.3c-1.8,0.2-3.7-1.6-4.5-4.1c-0.7-2.2-0.4-3.8,1-4.2c0.8-0.2,1,0.7,1.6,0.5
					c0.6-0.2,0.3-1.1,1.1-1.3c1.4-0.4,2.5,0.8,3.2,2.9C1005.7,335.7,1005.1,338.2,1003.5,339.1z"/>
			</g>
			<g>
				<path class="st8" d="M1005.5,340.5l1.6-1.7l-2.2,0.9c-0.7-1.6,0.4-4,2.6-5.5c1.9-1.3,3.5-1.5,4.3-0.4c0.5,0.7-0.3,1.2,0.1,1.7
					c0.4,0.5,1.1,0,1.6,0.6c0.8,1.2,0.1,2.6-1.8,3.9C1009.4,341.5,1006.8,341.7,1005.5,340.5z"/>
			</g>
			<g>
				<path class="st8" d="M1007,343.8l-1.5-1.8c1.3-1.2,3.9-0.9,6,0.7c1.8,1.4,2.5,2.8,1.7,4c-0.5,0.7-1.2,0.1-1.6,0.6
					c-0.4,0.5,0.4,1-0.1,1.7c-0.9,1.1-2.5,0.9-4.3-0.5c-2.1-1.6-3.1-4-2.4-5.6L1007,343.8z"/>
			</g>
			<g>
				<path class="st8" d="M1002.5,343l-0.3,2.3l1.2-2c1.5,0.9,2.1,3.4,1.2,6c-0.7,2.2-1.9,3.3-3.3,2.8c-0.8-0.3-0.4-1.1-1-1.3
					c-0.6-0.2-0.9,0.7-1.6,0.4c-1.3-0.5-1.6-2.1-0.8-4.2C998.7,344.4,1000.7,342.8,1002.5,343z"/>
			</g>
			<g>
				<path class="st8" d="M992.6,342.4c0-0.8,0.9-0.8,0.9-1.4c0-0.6-0.9-0.6-0.9-1.4c0-1.4,1.5-2.1,3.8-2.1c2.7,0,4.9,1.4,5.2,3.2
					l-2.3,0.5l2.3,0.6c-0.4,1.7-2.6,3-5.3,3C994,344.6,992.6,343.8,992.6,342.4z"/>
			</g>
		</g>
	</g>
	<g>
		<g>
			<path class="st8" d="M1159.7,328.8c0.9,2.5,3.7,3.8,6.2,2.9c2.5-0.9,3.8-3.7,2.9-6.2c-0.9-2.5-3.7-3.8-6.2-2.9
				C1160,323.5,1158.7,326.2,1159.7,328.8z"/>
		</g>
		<g>
			<g>
				<path class="st6" d="M1164,324.8l-1.4-2.2l0.3,2.6c-2,0.3-4.3-1.6-5.4-4.4c-0.9-2.5-0.7-4.3,0.9-4.9c0.9-0.3,1.2,0.7,1.9,0.4
					c0.7-0.2,0.3-1.2,1.2-1.5c1.5-0.6,2.9,0.7,3.8,3.2C1166.3,320.8,1165.7,323.7,1164,324.8z"/>
			</g>
			<g>
				<path class="st6" d="M1166.3,326.2l1.7-2.1l-2.4,1.1c-0.9-1.8,0.2-4.6,2.6-6.5c2.1-1.6,3.9-1.9,4.9-0.7c0.6,0.7-0.3,1.4,0.2,1.9
					c0.4,0.6,1.2-0.1,1.8,0.6c1,1.3,0.2,3-1.8,4.6C1170.8,327.2,1167.9,327.5,1166.3,326.2z"/>
			</g>
			<g>
				<path class="st6" d="M1168.3,329.9l-1.8-1.9c1.5-1.4,4.4-1.3,6.9,0.5c2.2,1.5,3.1,3.1,2.2,4.4c-0.5,0.8-1.4,0.2-1.8,0.8
					c-0.4,0.6,0.5,1.1,0,1.9c-0.9,1.3-2.8,1.1-4.9-0.3c-2.5-1.7-3.8-4.4-3-6.3L1168.3,329.9z"/>
			</g>
			<g>
				<path class="st6" d="M1163.1,329.2l-0.2,2.7l1.3-2.3c1.8,1,2.6,3.8,1.7,6.7c-0.7,2.5-2,3.9-3.6,3.4c-0.9-0.3-0.6-1.3-1.3-1.5
					c-0.7-0.2-0.9,0.8-1.8,0.6c-1.6-0.4-1.9-2.3-1.2-4.8C1158.9,331.1,1161,329.1,1163.1,329.2z"/>
			</g>
			<g>
				<path class="st6" d="M1151.8,329.2c0-0.9,1-0.9,1-1.7c0-0.7-1.1-0.6-1.1-1.6c-0.1-1.6,1.6-2.5,4.2-2.6c3.1-0.1,5.6,1.3,6.1,3.3
					l-2.6,0.7l2.6,0.5c-0.4,2-2.8,3.6-5.9,3.7C1153.5,331.6,1151.8,330.8,1151.8,329.2z"/>
			</g>
		</g>
	</g>
	<g>
		<g>
			<path class="st8" d="M1146.6,445.5c-0.7,2.6,0.8,5.2,3.4,5.9c2.6,0.7,5.2-0.8,5.9-3.4c0.7-2.6-0.8-5.2-3.4-5.9
				C1149.9,441.5,1147.3,443,1146.6,445.5z"/>
		</g>
		<g>
			<g>
				<path class="st6" d="M1152.4,444.8l0.1-2.7l-1.3,2.3c-1.8-0.9-2.6-3.8-1.8-6.7c0.7-2.5,2-3.9,3.5-3.5c0.9,0.2,0.6,1.3,1.3,1.4
					c0.7,0.2,0.9-0.8,1.8-0.6c1.6,0.4,2,2.2,1.3,4.8C1156.6,442.9,1154.4,444.9,1152.4,444.8z"/>
			</g>
			<g>
				<path class="st6" d="M1153.5,447.3l2.6-0.7l-2.6-0.5c0.3-2,2.8-3.6,5.8-3.8c2.6-0.1,4.3,0.7,4.4,2.3c0,0.9-1,0.9-1,1.7
					c0,0.7,1.1,0.6,1.1,1.6c0.1,1.6-1.5,2.5-4.1,2.7C1156.6,450.7,1154,449.3,1153.5,447.3z"/>
			</g>
			<g>
				<path class="st6" d="M1152.9,451.5l-0.4-2.6c2-0.3,4.3,1.5,5.4,4.4c0.9,2.4,0.7,4.3-0.8,4.9c-0.9,0.3-1.2-0.7-1.9-0.4
					c-0.7,0.3-0.3,1.2-1.1,1.6c-1.5,0.6-2.9-0.7-3.8-3.1c-1.1-2.9-0.5-5.8,1.2-6.9L1152.9,451.5z"/>
			</g>
			<g>
				<path class="st6" d="M1149.1,447.9l-1.7,2.1l2.4-1.2c0.9,1.8-0.1,4.6-2.5,6.5c-2,1.6-3.9,2-4.9,0.7c-0.6-0.7,0.3-1.4-0.2-1.9
					c-0.5-0.6-1.2,0.1-1.8-0.6c-1-1.3-0.3-3,1.8-4.6C1144.6,447,1147.5,446.6,1149.1,447.9z"/>
			</g>
			<g>
				<path class="st6" d="M1139.9,441.4c0.5-0.8,1.4-0.2,1.8-0.8c0.4-0.6-0.5-1.1,0-1.9c0.9-1.3,2.7-1.2,4.9,0.3
					c2.6,1.7,3.8,4.3,3.1,6.2l-2.5-0.9l1.8,1.9c-1.4,1.4-4.4,1.3-6.9-0.4C1139.9,444.3,1139,442.7,1139.9,441.4z"/>
			</g>
		</g>
	</g>
	<g>
		<g>
			<path class="st6" d="M1014.4,456.8c0.7,2.2,3,3.5,5.3,2.8c2.2-0.7,3.5-3,2.8-5.3c-0.7-2.2-3-3.5-5.3-2.8
				C1015,452.2,1013.7,454.6,1014.4,456.8z"/>
		</g>
		<g>
			<g>
				<path class="st8" d="M1018.3,453.5l-1.2-2l0.2,2.3c-1.8,0.2-3.7-1.6-4.5-4.1c-0.7-2.2-0.4-3.8,1-4.2c0.8-0.2,1,0.7,1.6,0.5
					c0.6-0.2,0.3-1.1,1.1-1.3c1.4-0.4,2.5,0.8,3.2,2.9C1020.5,450.2,1019.9,452.7,1018.3,453.5z"/>
			</g>
			<g>
				<path class="st8" d="M1020.3,454.9l1.6-1.7l-2.2,0.9c-0.7-1.6,0.4-4,2.6-5.5c1.9-1.3,3.5-1.5,4.3-0.4c0.5,0.7-0.3,1.2,0.1,1.7
					c0.4,0.5,1.1,0,1.6,0.6c0.8,1.2,0.1,2.6-1.8,3.9C1024.2,456,1021.6,456.2,1020.3,454.9z"/>
			</g>
			<g>
				<path class="st8" d="M1021.9,458.3l-1.5-1.8c1.3-1.2,3.9-0.9,6,0.7c1.8,1.4,2.5,2.8,1.7,4c-0.5,0.7-1.2,0.1-1.6,0.6
					c-0.4,0.5,0.4,1-0.1,1.7c-0.9,1.1-2.5,0.9-4.3-0.5c-2.1-1.6-3.1-4-2.4-5.6L1021.9,458.3z"/>
			</g>
			<g>
				<path class="st8" d="M1017.3,457.4l-0.3,2.3l1.2-2c1.5,0.9,2.1,3.4,1.2,6c-0.7,2.2-1.9,3.3-3.3,2.8c-0.8-0.3-0.4-1.1-1-1.3
					c-0.6-0.2-0.9,0.7-1.6,0.4c-1.3-0.5-1.6-2.1-0.8-4.2C1013.6,458.9,1015.6,457.2,1017.3,457.4z"/>
			</g>
			<g>
				<path class="st8" d="M1007.5,456.9c0-0.8,0.9-0.8,0.9-1.4c0-0.6-0.9-0.6-0.9-1.4c0-1.4,1.5-2.1,3.8-2.1c2.7,0,4.9,1.4,5.2,3.2
					l-2.3,0.5l2.3,0.6c-0.4,1.7-2.6,3-5.3,3C1008.9,459.1,1007.4,458.3,1007.5,456.9z"/>
			</g>
		</g>
	</g>
	<g>
		<g>
			<path class="st6" d="M1067.1,348.9c-1,2.5,0.3,5.3,2.8,6.2c2.5,1,5.3-0.3,6.2-2.8c1-2.5-0.3-5.3-2.8-6.2
				C1070.9,345.2,1068.1,346.4,1067.1,348.9z"/>
		</g>
		<g>
			<g>
				<path class="st8" d="M1073,348.7l0.4-2.6l-1.5,2.2c-1.7-1.1-2.2-4-1.1-6.9c0.9-2.4,2.3-3.7,3.8-3.1c0.9,0.3,0.5,1.3,1.1,1.6
					c0.7,0.3,1-0.7,1.9-0.4c1.5,0.6,1.7,2.4,0.8,4.9C1077.3,347.2,1075,349,1073,348.7z"/>
			</g>
			<g>
				<path class="st8" d="M1073.8,351.4l2.6-0.5l-2.6-0.7c0.5-2,3.1-3.3,6.2-3.2c2.6,0.1,4.2,1.1,4.1,2.7c0,0.9-1.1,0.8-1.1,1.6
					c0,0.7,1,0.7,1,1.7c-0.1,1.6-1.8,2.4-4.4,2.3C1076.6,355,1074.1,353.4,1073.8,351.4z"/>
			</g>
			<g>
				<path class="st8" d="M1072.9,355.5l-0.1-2.7c2-0.1,4.2,1.9,4.9,4.9c0.7,2.5,0.3,4.3-1.3,4.8c-0.9,0.2-1.1-0.8-1.8-0.6
					c-0.7,0.2-0.4,1.2-1.3,1.4c-1.6,0.4-2.8-1-3.5-3.5c-0.8-3,0-5.8,1.8-6.7L1072.9,355.5z"/>
			</g>
			<g>
				<path class="st8" d="M1069.4,351.5l-1.9,1.9l2.5-0.9c0.7,1.9-0.6,4.5-3.1,6.2c-2.2,1.4-4,1.6-4.9,0.3c-0.5-0.8,0.4-1.3,0-1.9
					c-0.4-0.6-1.3,0-1.8-0.8c-0.9-1.4,0-3,2.2-4.4C1065,350.2,1067.9,350.1,1069.4,351.5z"/>
			</g>
			<g>
				<path class="st8" d="M1060.9,344.1c0.6-0.7,1.4,0,1.8-0.6c0.5-0.6-0.4-1.2,0.2-1.9c1-1.3,2.8-0.9,4.9,0.8
					c2.4,1.9,3.4,4.7,2.5,6.5l-2.4-1.2l1.6,2.1c-1.6,1.3-4.5,0.9-6.9-1.1C1060.6,347.1,1059.9,345.4,1060.9,344.1z"/>
			</g>
		</g>
	</g>
	<g>
		<g>
			<path class="st8" d="M1239.7,395.3c-1,2.5,0.3,5.3,2.8,6.3c2.5,1,5.3-0.3,6.3-2.8c1-2.5-0.3-5.3-2.8-6.3
				C1243.5,391.6,1240.7,392.8,1239.7,395.3z"/>
		</g>
		<g>
			<g>
				<path class="st6" d="M1245.6,395.1l0.4-2.6l-1.5,2.2c-1.7-1.1-2.2-4-1.1-6.9c0.9-2.4,2.3-3.7,3.9-3.1c0.9,0.3,0.5,1.3,1.1,1.6
					c0.7,0.3,1-0.7,1.9-0.4c1.5,0.6,1.7,2.4,0.8,4.9C1250,393.7,1247.6,395.5,1245.6,395.1z"/>
			</g>
			<g>
				<path class="st6" d="M1246.4,397.8l2.6-0.4l-2.6-0.7c0.5-2,3.1-3.3,6.2-3.2c2.6,0.1,4.2,1.1,4.1,2.7c-0.1,0.9-1.1,0.8-1.1,1.6
					c0,0.7,1,0.7,1,1.7c-0.1,1.6-1.8,2.4-4.4,2.2C1249.2,401.5,1246.7,399.8,1246.4,397.8z"/>
			</g>
			<g>
				<path class="st6" d="M1245.4,401.9l-0.1-2.7c2-0.1,4.1,2,4.9,4.9c0.7,2.5,0.3,4.3-1.3,4.8c-0.9,0.2-1.1-0.8-1.8-0.6
					c-0.7,0.2-0.4,1.2-1.3,1.4c-1.6,0.4-2.8-1-3.5-3.5c-0.8-3,0.1-5.8,1.9-6.7L1245.4,401.9z"/>
			</g>
			<g>
				<path class="st6" d="M1242,397.9l-1.9,1.9l2.5-0.9c0.7,1.9-0.6,4.5-3.2,6.2c-2.2,1.4-4.1,1.6-4.9,0.2c-0.5-0.8,0.4-1.3,0-1.9
					c-0.4-0.6-1.3,0-1.8-0.8c-0.9-1.4,0.1-3,2.2-4.4C1237.6,396.6,1240.5,396.5,1242,397.9z"/>
			</g>
			<g>
				<path class="st6" d="M1233.5,390.4c0.6-0.7,1.4,0,1.8-0.6c0.5-0.6-0.4-1.2,0.2-1.9c1-1.2,2.8-0.9,4.9,0.8
					c2.4,1.9,3.4,4.7,2.4,6.5l-2.4-1.2l1.6,2.1c-1.6,1.3-4.5,0.8-6.9-1.1C1233.3,393.4,1232.5,391.7,1233.5,390.4z"/>
			</g>
		</g>
	</g>
	<g>
		<g>
			<path class="st6" d="M1241.4,346.6c-1,2.5,0.3,5.3,2.8,6.3c2.5,1,5.3-0.3,6.3-2.8c1-2.5-0.3-5.3-2.8-6.3
				C1245.2,342.8,1242.4,344.1,1241.4,346.6z"/>
		</g>
		<g>
			<g>
				<path class="st8" d="M1247.3,346.4l0.4-2.6l-1.5,2.2c-1.7-1.1-2.2-4-1.1-6.9c0.9-2.4,2.3-3.7,3.9-3.1c0.9,0.3,0.5,1.3,1.1,1.6
					c0.7,0.3,1-0.7,1.9-0.4c1.5,0.6,1.7,2.4,0.8,4.9C1251.7,344.9,1249.3,346.7,1247.3,346.4z"/>
			</g>
			<g>
				<path class="st8" d="M1248.1,349.1l2.6-0.4l-2.6-0.7c0.5-2,3.1-3.3,6.2-3.2c2.6,0.1,4.2,1.1,4.1,2.7c-0.1,0.9-1.1,0.8-1.1,1.6
					c0,0.7,1,0.7,1,1.7c-0.1,1.6-1.8,2.4-4.4,2.2C1250.9,352.7,1248.4,351.1,1248.1,349.1z"/>
			</g>
			<g>
				<path class="st8" d="M1247.1,353.2l-0.1-2.7c2-0.1,4.1,2,4.9,4.9c0.7,2.5,0.3,4.3-1.3,4.8c-0.9,0.2-1.1-0.8-1.8-0.6
					c-0.7,0.2-0.4,1.2-1.3,1.4c-1.6,0.4-2.8-1-3.5-3.5c-0.8-3,0.1-5.8,1.9-6.7L1247.1,353.2z"/>
			</g>
			<g>
				<path class="st8" d="M1243.7,349.2l-1.9,1.9l2.5-0.9c0.7,1.9-0.6,4.5-3.2,6.2c-2.2,1.4-4.1,1.6-4.9,0.2c-0.5-0.8,0.4-1.3,0-1.9
					c-0.4-0.6-1.3,0-1.8-0.8c-0.9-1.4,0.1-3,2.2-4.4C1239.3,347.8,1242.2,347.7,1243.7,349.2z"/>
			</g>
			<g>
				<path class="st8" d="M1235.2,341.7c0.6-0.7,1.4,0,1.8-0.6c0.5-0.6-0.4-1.2,0.2-1.9c1-1.2,2.8-0.9,4.9,0.8
					c2.4,1.9,3.4,4.7,2.4,6.5l-2.4-1.2l1.6,2.1c-1.6,1.3-4.5,0.8-6.9-1.1C1234.9,344.7,1234.2,343,1235.2,341.7z"/>
			</g>
		</g>
	</g>
	<g>
		<g>
			<path class="st13" d="M1061.9,413.9c1.8,1.8,4.7,1.9,6.6,0.1c1.8-1.8,1.9-4.7,0.1-6.6c-1.8-1.9-4.7-1.9-6.6-0.1
				C1060.1,409.1,1060.1,412,1061.9,413.9z"/>
			<path class="st14" d="M1061.5,414.2L1061.5,414.2c-1-1-1.5-2.3-1.4-3.7c0-1.4,0.6-2.7,1.6-3.6c2-2,5.3-1.9,7.3,0.1
				c2,2,1.9,5.3-0.1,7.3c-1,1-2.3,1.4-3.6,1.4C1063.9,415.8,1062.5,415.3,1061.5,414.2z M1062.3,407.7c-0.8,0.8-1.2,1.8-1.3,2.9
				s0.4,2.2,1.2,2.9l0,0c1.6,1.6,4.2,1.7,5.9,0.1c1.6-1.6,1.7-4.2,0.1-5.9c-0.8-0.8-1.9-1.3-3-1.3
				C1064.2,406.5,1063.1,406.9,1062.3,407.7z"/>
		</g>
		<g>
			<path class="st8" d="M1062,407.3l-4.4-4.6c0.5-0.5-0.2-1.2,0.4-1.8c1.1-1.1,2.8-0.5,4.6,1.3c2,2.1,2.7,4.9,1.6,6.5L1062,407.3z"
				/>
		</g>
		<g>
			<path class="st6" d="M1062,407.3l-4.4-4.6c-0.5,0.5-1.2-0.3-1.8,0.3c-1.1,1.1-0.6,2.8,1.1,4.6c2,2.1,4.8,2.9,6.4,1.8L1062,407.3z
				"/>
		</g>
		<g>
			<path class="st8" d="M1067.4,406.6l3-5.6c0.6,0.3,1-0.6,1.9-0.2c1.4,0.7,1.3,2.5,0.2,4.7c-1.4,2.6-3.8,4-5.7,3.5L1067.4,406.6z"
				/>
		</g>
		<g>
			<path class="st6" d="M1067.4,406.6l3-5.6c-0.6-0.3-0.1-1.2-0.9-1.6c-1.4-0.7-2.8,0.3-4,2.5c-1.4,2.6-1.2,5.4,0.3,6.7
				L1067.4,406.6z"/>
		</g>
		<g>
			<path class="st8" d="M1069.9,411.6l6.3,1.1c-0.1,0.7,0.9,0.8,0.7,1.7c-0.3,1.5-2,2.1-4.5,1.6c-2.9-0.5-5-2.4-5.1-4.3
				L1069.9,411.6z"/>
		</g>
		<g>
			<path class="st6" d="M1069.9,411.6l6.3,1.1c0.1-0.7,1.1-0.5,1.3-1.4c0.3-1.5-1.1-2.6-3.6-3.1c-2.9-0.5-5.5,0.5-6.3,2.3
				L1069.9,411.6z"/>
		</g>
		<g>
			<path class="st8" d="M1065.9,415.4l0.9,6.3c0.7-0.1,0.8,0.9,1.7,0.8c1.5-0.2,2.1-1.9,1.8-4.4c-0.4-2.9-2.2-5.1-4.1-5.3
				L1065.9,415.4z"/>
		</g>
		<g>
			<path class="st6" d="M1065.9,415.4l0.9,6.3c-0.7,0.1-0.5,1.1-1.4,1.2c-1.5,0.2-2.6-1.2-2.9-3.7c-0.4-2.9,0.7-5.5,2.5-6.2
				L1065.9,415.4z"/>
		</g>
		<g>
			<path class="st8" d="M1061.1,412.7l-5.7,2.8c0.3,0.6-0.6,1-0.2,1.8c0.7,1.4,2.5,1.4,4.7,0.3c2.6-1.3,4.2-3.7,3.7-5.6
				L1061.1,412.7z"/>
		</g>
		<g>
			<path class="st6" d="M1061.1,412.7l-5.7,2.8c-0.3-0.6-1.2-0.1-1.6-1c-0.7-1.4,0.4-2.8,2.6-3.9c2.6-1.3,5.5-1,6.7,0.5
				L1061.1,412.7z"/>
		</g>
	</g>
	<g>
		<g>
			<path class="st8" d="M1103.3,359.7c1.8,1.9,4.7,1.9,6.6,0.1c1.8-1.8,1.9-4.7,0.1-6.6c-1.8-1.9-4.7-1.9-6.6-0.1
				C1101.6,354.9,1101.5,357.9,1103.3,359.7z"/>
		</g>
		<g>
			<g>
				<path class="st6" d="M1105.5,354.5l-2.1-1.4l1.3,2.2c-1.7,1-4.4,0.3-6.4-1.8c-1.7-1.8-2.2-3.5-1.1-4.6c0.7-0.6,1.3,0.1,1.8-0.3
					c0.5-0.5-0.2-1.2,0.4-1.8c1.1-1.1,2.8-0.5,4.6,1.3C1106,350.1,1106.6,352.9,1105.5,354.5z"/>
			</g>
			<g>
				<path class="st6" d="M1108.2,354.9l0.7-2.5l-1.7,1.9c-1.5-1.3-1.6-4.1-0.3-6.7c1.2-2.2,2.7-3.2,4-2.5c0.8,0.4,0.3,1.3,0.9,1.6
					c0.6,0.3,1-0.6,1.9-0.2c1.4,0.7,1.3,2.5,0.2,4.7C1112.5,354,1110,355.5,1108.2,354.9z"/>
			</g>
			<g>
				<path class="st6" d="M1111.3,357.4l-2.4-1c0.7-1.8,3.4-2.8,6.3-2.3c2.5,0.4,3.9,1.5,3.6,3.1c-0.2,0.9-1.1,0.7-1.3,1.4
					c-0.1,0.7,0.9,0.8,0.7,1.7c-0.3,1.5-2,2.1-4.5,1.6c-2.9-0.5-5-2.4-5.1-4.3L1111.3,357.4z"/>
			</g>
			<g>
				<path class="st6" d="M1106.5,358.8l0.9,2.4l0.2-2.5c1.9,0.1,3.7,2.3,4.1,5.3c0.3,2.5-0.3,4.2-1.8,4.4c-0.9,0.1-1-0.9-1.7-0.8
					c-0.7,0.1-0.5,1.1-1.4,1.2c-1.5,0.2-2.6-1.2-2.9-3.7C1103.5,362.1,1104.6,359.5,1106.5,358.8z"/>
			</g>
			<g>
				<path class="st6" d="M1096.5,363.2c-0.4-0.8,0.5-1.2,0.2-1.8c-0.3-0.6-1.2-0.1-1.6-1c-0.7-1.4,0.4-2.8,2.6-3.9
					c2.6-1.3,5.5-1,6.7,0.5l-2,1.6l2.5-0.6c0.5,1.9-1.1,4.3-3.7,5.6C1099,364.6,1097.2,364.6,1096.5,363.2z"/>
			</g>
		</g>
	</g>
	<g>
		<g>
			<path class="st6" d="M1014.7,425.8c1.8,1.8,4.7,1.9,6.6,0.1c1.8-1.8,1.9-4.7,0.1-6.6c-1.8-1.9-4.7-1.9-6.6-0.1
				C1012.9,421,1012.9,423.9,1014.7,425.8z"/>
		</g>
		<g>
			<g>
				<path class="st8" d="M1016.9,420.6l-2.1-1.4l1.3,2.2c-1.7,1-4.4,0.3-6.4-1.8c-1.7-1.8-2.2-3.5-1.1-4.6c0.7-0.6,1.3,0.1,1.8-0.3
					c0.5-0.5-0.2-1.2,0.4-1.8c1.1-1.1,2.8-0.5,4.6,1.3C1017.4,416.2,1018,419,1016.9,420.6z"/>
			</g>
			<g>
				<path class="st8" d="M1019.5,421l0.7-2.5l-1.7,1.9c-1.5-1.3-1.6-4.1-0.3-6.7c1.2-2.2,2.7-3.2,4-2.5c0.8,0.4,0.3,1.3,0.9,1.6
					c0.6,0.3,1-0.6,1.9-0.2c1.4,0.7,1.3,2.5,0.2,4.7C1023.8,420,1021.4,421.5,1019.5,421z"/>
			</g>
			<g>
				<path class="st8" d="M1022.7,423.5l-2.4-1c0.7-1.8,3.4-2.8,6.3-2.3c2.5,0.4,3.9,1.5,3.6,3.1c-0.2,0.9-1.1,0.7-1.3,1.4
					c-0.1,0.7,0.9,0.8,0.7,1.7c-0.3,1.5-2,2.1-4.5,1.6c-2.9-0.5-5-2.4-5.1-4.3L1022.7,423.5z"/>
			</g>
			<g>
				<path class="st8" d="M1017.8,424.9l0.9,2.4l0.2-2.5c1.9,0.1,3.7,2.3,4.1,5.3c0.3,2.5-0.3,4.2-1.8,4.4c-0.9,0.1-1-0.9-1.7-0.8
					c-0.7,0.1-0.5,1.1-1.4,1.2c-1.5,0.2-2.6-1.2-2.9-3.7C1014.9,428.2,1016,425.5,1017.8,424.9z"/>
			</g>
			<g>
				<path class="st8" d="M1007.9,429.2c-0.4-0.8,0.5-1.2,0.2-1.8c-0.3-0.6-1.2-0.1-1.6-1c-0.7-1.4,0.4-2.8,2.6-3.9
					c2.6-1.3,5.5-1,6.7,0.5l-2,1.6l2.5-0.6c0.5,1.9-1.1,4.3-3.7,5.6C1010.4,430.7,1008.6,430.6,1007.9,429.2z"/>
			</g>
		</g>
	</g>
	<g>
		<g>
			<path class="st8" d="M1010.9,379.3c1.8,1.9,4.7,1.9,6.6,0.1c1.8-1.8,1.9-4.7,0.1-6.6c-1.8-1.9-4.7-1.9-6.6-0.1
				C1009.2,374.5,1009.2,377.4,1010.9,379.3z"/>
		</g>
		<g>
			<g>
				<path class="st6" d="M1013.2,374.1l-2.1-1.4l1.3,2.2c-1.7,1-4.4,0.3-6.4-1.8c-1.7-1.8-2.2-3.5-1.1-4.6c0.7-0.6,1.3,0.1,1.8-0.3
					c0.5-0.5-0.2-1.2,0.4-1.8c1.1-1.1,2.8-0.5,4.6,1.3C1013.6,369.7,1014.3,372.5,1013.2,374.1z"/>
			</g>
			<g>
				<path class="st6" d="M1015.8,374.5l0.7-2.5l-1.7,1.9c-1.5-1.3-1.6-4.1-0.3-6.7c1.2-2.2,2.7-3.2,4-2.5c0.8,0.4,0.3,1.3,0.9,1.6
					c0.6,0.3,1-0.6,1.9-0.2c1.4,0.7,1.3,2.5,0.2,4.7C1020.1,373.6,1017.7,375,1015.8,374.5z"/>
			</g>
			<g>
				<path class="st6" d="M1019,377l-2.4-1c0.7-1.8,3.4-2.8,6.3-2.3c2.5,0.4,3.9,1.5,3.6,3.1c-0.2,0.9-1.1,0.7-1.3,1.4
					c-0.1,0.7,0.9,0.8,0.7,1.7c-0.3,1.5-2,2.1-4.5,1.6c-2.9-0.5-5-2.4-5.1-4.3L1019,377z"/>
			</g>
			<g>
				<path class="st6" d="M1014.1,378.4l0.9,2.4l0.2-2.5c1.9,0.1,3.7,2.3,4.1,5.3c0.3,2.5-0.3,4.2-1.8,4.4c-0.9,0.1-1-0.9-1.7-0.8
					c-0.7,0.1-0.5,1.1-1.4,1.2c-1.5,0.2-2.6-1.2-2.9-3.7C1011.2,381.7,1012.3,379.1,1014.1,378.4z"/>
			</g>
			<g>
				<path class="st6" d="M1004.2,382.8c-0.4-0.8,0.5-1.2,0.2-1.8c-0.3-0.6-1.2-0.1-1.6-1c-0.7-1.4,0.4-2.8,2.6-3.9
					c2.6-1.3,5.5-1,6.7,0.5l-2,1.6l2.5-0.6c0.5,1.9-1.1,4.3-3.7,5.6C1006.7,384.2,1004.9,384.2,1004.2,382.8z"/>
			</g>
		</g>
	</g>
	<g>
		<g>
			<path class="st6" d="M1078.2,437.5c1.8,1.8,4.7,1.9,6.6,0.1c1.8-1.8,1.9-4.7,0.1-6.6c-1.8-1.9-4.7-1.9-6.6-0.1
				C1076.5,432.7,1076.4,435.6,1078.2,437.5z"/>
		</g>
		<g>
			<g>
				<path class="st8" d="M1080.4,432.3l-2.1-1.4l1.3,2.2c-1.7,1-4.4,0.3-6.4-1.8c-1.7-1.8-2.2-3.5-1.1-4.6c0.7-0.6,1.3,0.1,1.8-0.3
					c0.5-0.5-0.2-1.2,0.4-1.8c1.1-1.1,2.8-0.5,4.6,1.3C1080.9,427.9,1081.5,430.7,1080.4,432.3z"/>
			</g>
			<g>
				<path class="st8" d="M1083.1,432.7l0.7-2.5l-1.7,1.9c-1.5-1.3-1.6-4.1-0.3-6.7c1.2-2.2,2.7-3.2,4-2.5c0.8,0.4,0.3,1.3,0.9,1.6
					c0.6,0.3,1-0.6,1.9-0.2c1.4,0.7,1.3,2.5,0.2,4.7C1087.4,431.8,1084.9,433.2,1083.1,432.7z"/>
			</g>
			<g>
				<path class="st8" d="M1086.2,435.2l-2.4-1c0.7-1.8,3.4-2.8,6.3-2.3c2.5,0.4,3.9,1.5,3.6,3.1c-0.2,0.9-1.1,0.7-1.3,1.4
					c-0.1,0.7,0.9,0.8,0.7,1.7c-0.3,1.5-2,2.1-4.5,1.6c-2.9-0.5-5-2.4-5.1-4.3L1086.2,435.2z"/>
			</g>
			<g>
				<path class="st8" d="M1081.4,436.6l0.9,2.4l0.2-2.5c1.9,0.1,3.7,2.3,4.1,5.3c0.3,2.5-0.3,4.2-1.8,4.4c-0.9,0.1-1-0.9-1.7-0.8
					c-0.7,0.1-0.5,1.1-1.4,1.2c-1.5,0.2-2.6-1.2-2.9-3.7C1078.4,439.9,1079.5,437.3,1081.4,436.6z"/>
			</g>
			<g>
				<path class="st8" d="M1071.4,440.9c-0.4-0.8,0.5-1.2,0.2-1.8c-0.3-0.6-1.2-0.1-1.6-1c-0.7-1.4,0.4-2.8,2.6-3.9
					c2.6-1.3,5.5-1,6.7,0.5l-2,1.6l2.5-0.6c0.5,1.9-1.1,4.3-3.7,5.6C1073.9,442.4,1072.1,442.3,1071.4,440.9z"/>
			</g>
		</g>
	</g>
	<g>
		<g>
			<path class="st8" d="M1055.1,281c-0.1,4.4,3.5,8,7.9,8.1c4.4,0.1,8-3.5,8.1-7.9c0.1-4.4-3.5-8-7.9-8.1
				C1058.7,273,1055.1,276.6,1055.1,281z"/>
		</g>
		<g>
			<g>
				<path class="st6" d="M1064.1,277.3l-0.9-4.3l-1,4.3c-3.3-0.7-5.7-4.9-5.7-10c0.1-4.3,1.5-7,4.2-7c1.6,0,1.5,1.8,2.7,1.8
					c1.2,0,1.1-1.7,2.7-1.7c2.7,0,4.1,2.8,4,7.1C1069.9,272.5,1067.3,276.6,1064.1,277.3z"/>
			</g>
			<g>
				<path class="st6" d="M1066.8,281l3.8-2.2l-4.4,0.4c-0.3-3.3,2.9-7,7.7-8.5c4.1-1.3,7.1-0.7,7.9,1.8c0.5,1.5-1.2,1.9-0.9,3.1
					c0.4,1.1,2,0.5,2.5,2c0.8,2.5-1.4,4.7-5.5,6C1073.2,285,1068.5,283.9,1066.8,281z"/>
			</g>
			<g>
				<path class="st6" d="M1067.7,287.8l-1.7-4.1c3.1-1.3,7.5,0.6,10.5,4.7c2.5,3.5,2.9,6.6,0.7,8.1c-1.3,0.9-2.2-0.6-3.2,0.1
					c-1,0.7,0.1,2.1-1.2,3c-2.2,1.5-4.9,0.1-7.4-3.4c-2.9-4.1-3.3-9-1-11.4L1067.7,287.8z"/>
			</g>
			<g>
				<path class="st6" d="M1060,283.7l-1.8,4l3.3-2.9c2.2,2.5,1.7,7.4-1.3,11.4c-2.6,3.5-5.3,4.8-7.5,3.2c-1.3-0.9-0.1-2.3-1.1-3
					c-1-0.7-1.9,0.7-3.2-0.2c-2.1-1.6-1.6-4.6,0.9-8.1C1052.5,284.2,1057,282.3,1060,283.7z"/>
			</g>
			<g>
				<path class="st6" d="M1042.6,277.1c0.5-1.5,2.1-0.8,2.5-2c0.4-1.1-1.3-1.6-0.8-3.1c0.9-2.5,3.9-3,8-1.6c4.8,1.6,7.9,5.3,7.5,8.7
					l-4.4-0.5l3.7,2.3c-1.7,2.9-6.5,3.9-11.3,2.3C1043.9,281.8,1041.8,279.6,1042.6,277.1z"/>
			</g>
		</g>
	</g>
</g>
<g>
	
		<rect x="1273.7" y="751.1" transform="matrix(0.7665 -0.6423 0.6423 0.7665 -189.4567 1006.0247)" class="st6" width="30" height="24.9"/>
	
		<rect x="1264" y="756.8" transform="matrix(0.7665 -0.6423 0.6423 0.7665 -187.7993 999.9997)" class="st8" width="34.6" height="2.9"/>
	
		<rect x="1267.8" y="761.3" transform="matrix(0.7665 -0.6423 0.6423 0.7665 -189.8178 1003.4877)" class="st8" width="34.6" height="2.9"/>
	
		<rect x="1274.9" y="769.9" transform="matrix(0.7665 -0.6423 0.6423 0.7665 -193.6385 1010.0901)" class="st8" width="34.6" height="2.9"/>
	
		<rect x="1285.2" y="762.9" transform="matrix(0.7665 -0.6423 0.6423 0.7665 -190.3398 1007.5507)" class="st8" width="10.4" height="5.2"/>
	<path class="st3" d="M1232.7,782.7c0,0,8.3-1.2,17.4-6.1c5-2.7,10.6-5.8,19.2-13l23-19.2l-1.6-1.9l-1.8-2.1l-2.3-2.7L1232.7,782.7z
		"/>
	
		<rect x="1223.6" y="757.6" transform="matrix(0.7665 -0.6423 0.6423 0.7665 -193.5679 985.6864)" class="st12" width="70.2" height="2.9"/>
	<path class="st11" d="M1230.9,780.4l-3.2-7.8c0,0,5.9-0.4,15-8c10.4-8.7,8.2-23,8.2-23l23-19.2l10.8,12.9L1230.9,780.4z"/>
	
		<rect x="1262.7" y="780" transform="matrix(0.7665 -0.6423 0.6423 0.7665 -204.527 1013.4338)" class="st8" width="57.3" height="16"/>
	
		<rect x="1287" y="764.1" transform="matrix(0.7665 -0.6423 0.6423 0.7665 -190.3398 1007.5507)" class="st11" width="6.7" height="2.9"/>
	
		<rect x="1266.4" y="753.8" transform="matrix(0.7665 -0.6423 0.6423 0.7665 -185.5639 999.2978)" class="st7" width="30" height="2.1"/>
	
		<rect x="1258.6" y="781.5" transform="matrix(0.7665 -0.6423 0.6423 0.7665 -202.3123 1009.6069)" class="st7" width="57.3" height="3.1"/>
	
		<rect x="1266.9" y="791.4" transform="matrix(0.7665 -0.6423 0.6423 0.7665 -206.7416 1017.2608)" class="st7" width="57.3" height="3.1"/>
	<path class="st12" d="M1251.1,745.1l24.5-20.6l-1.8-2.1l-23,19.2C1250.9,741.7,1251.1,743,1251.1,745.1z"/>
	
		<rect x="1296.7" y="731.9" transform="matrix(0.7665 -0.6423 0.6423 0.7665 -171.7365 1016.2792)" class="st8" width="30" height="24.9"/>
	
		<rect x="1290.5" y="734.6" transform="matrix(0.7665 -0.6423 0.6423 0.7665 -167.3385 1011.8401)" class="st5" width="34.6" height="2.9"/>
	
		<rect x="1294.3" y="739.1" transform="matrix(0.7665 -0.6423 0.6423 0.7665 -169.357 1015.3281)" class="st5" width="34.6" height="2.9"/>
	
		<rect x="1301.4" y="747.6" transform="matrix(0.7665 -0.6423 0.6423 0.7665 -173.1777 1021.9305)" class="st5" width="34.6" height="2.9"/>
	
		<rect x="1308.1" y="743.7" transform="matrix(0.7665 -0.6423 0.6423 0.7665 -172.6196 1017.8052)" class="st5" width="10.4" height="5.2"/>
	<path class="st2" d="M1340.3,692.5c0,0-2.6,8-9,16c-3.6,4.5-7.6,9.4-16.1,16.6l-23,19.2l-1.6-1.9l-1.8-2.1l-2.3-2.7L1340.3,692.5z"
		/>
	
		<rect x="1277.4" y="712.5" transform="matrix(0.7665 -0.6423 0.6423 0.7665 -152.0543 1009.7097)" class="st15" width="70.2" height="2.9"/>
	<path class="st12" d="M1338.4,690.3l-7.1-4.5c0,0-1.5,5.8-10.5,13.3c-10.4,8.7-24.1,4.1-24.1,4.1l-23,19.2l10.8,12.9L1338.4,690.3z
		"/>
	
		<rect x="1306.6" y="743.2" transform="matrix(0.7665 -0.6423 0.6423 0.7665 -170.6514 1033.0371)" class="st5" width="57.3" height="16"/>
	
		<rect x="1310" y="744.8" transform="matrix(0.7665 -0.6423 0.6423 0.7665 -172.6196 1017.8052)" class="st12" width="6.7" height="2.9"/>
	
		<rect x="1289.4" y="734.5" transform="matrix(0.7665 -0.6423 0.6423 0.7665 -167.8438 1009.5522)" class="st7" width="30" height="2.1"/>
	
		<rect x="1302.5" y="744.7" transform="matrix(0.7665 -0.6423 0.6423 0.7665 -168.4368 1029.2101)" class="st7" width="57.3" height="3.1"/>
	
		<rect x="1310.8" y="754.6" transform="matrix(0.7665 -0.6423 0.6423 0.7665 -172.866 1036.8641)" class="st7" width="57.3" height="3.1"/>
	<path class="st15" d="M1300.1,704l-24.5,20.6l-1.8-2.1l23-19.2C1296.8,703.2,1298.1,703.6,1300.1,704z"/>
	<g>
		
			<rect x="1239.4" y="710.1" transform="matrix(0.7665 -0.6423 0.6423 0.7665 -171.1463 974.3832)" class="st6" width="30" height="24.9"/>
		
			<rect x="1229.6" y="715.8" transform="matrix(0.7665 -0.6423 0.6423 0.7665 -169.4888 968.3582)" class="st8" width="34.6" height="2.9"/>
		
			<rect x="1233.4" y="720.3" transform="matrix(0.7665 -0.6423 0.6423 0.7665 -171.5073 971.8463)" class="st8" width="34.6" height="2.9"/>
		
			<rect x="1240.6" y="728.9" transform="matrix(0.7665 -0.6423 0.6423 0.7665 -175.328 978.4486)" class="st8" width="34.6" height="2.9"/>
		
			<rect x="1250.8" y="721.9" transform="matrix(0.7665 -0.6423 0.6423 0.7665 -172.0293 975.9092)" class="st8" width="10.4" height="5.2"/>
		<path class="st3" d="M1198.4,741.7c0,0,8.3-1.2,17.4-6.1c5-2.7,10.6-5.8,19.2-13l23-19.2l-1.6-1.9l-1.8-2.1l-2.3-2.7L1198.4,741.7
			z"/>
		
			<rect x="1189.3" y="716.6" transform="matrix(0.7665 -0.6423 0.6423 0.7665 -175.2574 954.045)" class="st12" width="70.2" height="2.9"/>
		<path class="st11" d="M1196.5,739.4l-3.2-7.8c0,0,5.9-0.4,15-8c10.4-8.7,8.2-23,8.2-23l23-19.2l10.8,12.9L1196.5,739.4z"/>
		
			<rect x="1252.7" y="723.1" transform="matrix(0.7665 -0.6423 0.6423 0.7665 -172.0293 975.9092)" class="st11" width="6.7" height="2.9"/>
		
			<rect x="1232.1" y="712.8" transform="matrix(0.7665 -0.6423 0.6423 0.7665 -167.2535 967.6563)" class="st7" width="30" height="2.1"/>
		<path class="st12" d="M1216.7,704.1l24.5-20.6l-1.8-2.1l-23,19.2C1216.5,700.7,1216.7,702,1216.7,704.1z"/>
		
			<rect x="1262.3" y="690.9" transform="matrix(0.7665 -0.6423 0.6423 0.7665 -153.4261 984.6377)" class="st8" width="30" height="24.9"/>
		
			<rect x="1256.1" y="693.6" transform="matrix(0.7665 -0.6423 0.6423 0.7665 -149.028 980.1986)" class="st5" width="34.6" height="2.9"/>
		
			<rect x="1259.9" y="698.1" transform="matrix(0.7665 -0.6423 0.6423 0.7665 -151.0465 983.6866)" class="st5" width="34.6" height="2.9"/>
		
			<rect x="1267.1" y="706.6" transform="matrix(0.7665 -0.6423 0.6423 0.7665 -154.8672 990.289)" class="st5" width="34.6" height="2.9"/>
		
			<rect x="1273.8" y="702.7" transform="matrix(0.7665 -0.6423 0.6423 0.7665 -154.3091 986.1637)" class="st5" width="10.4" height="5.2"/>
		<path class="st2" d="M1306,651.5c0,0-2.6,8-9,16c-3.6,4.5-7.6,9.4-16.1,16.6l-23,19.2l-1.6-1.9l-1.8-2.1l-2.3-2.7L1306,651.5z"/>
		
			<rect x="1243" y="671.5" transform="matrix(0.7665 -0.6423 0.6423 0.7665 -133.7438 978.0683)" class="st15" width="70.2" height="2.9"/>
		<path class="st12" d="M1304.1,649.3l-7.1-4.5c0,0-1.5,5.8-10.5,13.3c-10.4,8.7-24.1,4.1-24.1,4.1l-23,19.2l10.8,12.9L1304.1,649.3
			z"/>
		
			<rect x="1275.6" y="703.8" transform="matrix(0.7665 -0.6423 0.6423 0.7665 -154.3091 986.1637)" class="st12" width="6.7" height="2.9"/>
		
			<rect x="1255" y="693.5" transform="matrix(0.7665 -0.6423 0.6423 0.7665 -149.5333 977.9108)" class="st7" width="30" height="2.1"/>
		<path class="st15" d="M1265.8,663l-24.5,20.6l-1.8-2.1l23-19.2C1262.4,662.2,1263.7,662.6,1265.8,663z"/>
	</g>
	<g>
		
			<rect x="1205" y="669.1" transform="matrix(0.7665 -0.6423 0.6423 0.7665 -152.8358 942.7418)" class="st6" width="30" height="24.9"/>
		
			<rect x="1195.3" y="674.8" transform="matrix(0.7665 -0.6423 0.6423 0.7665 -151.1784 936.7167)" class="st8" width="34.6" height="2.9"/>
		
			<rect x="1199" y="679.3" transform="matrix(0.7665 -0.6423 0.6423 0.7665 -153.1969 940.2048)" class="st8" width="34.6" height="2.9"/>
		
			<rect x="1206.2" y="687.9" transform="matrix(0.7665 -0.6423 0.6423 0.7665 -157.0175 946.8072)" class="st8" width="34.6" height="2.9"/>
		
			<rect x="1216.5" y="680.9" transform="matrix(0.7665 -0.6423 0.6423 0.7665 -153.7189 944.2678)" class="st8" width="10.4" height="5.2"/>
		<path class="st3" d="M1164,700.7c0,0,8.3-1.2,17.4-6.1c5-2.7,10.6-5.8,19.2-13l23-19.2l-1.6-1.9l-1.8-2.1l-2.3-2.7L1164,700.7z"/>
		
			<rect x="1154.9" y="675.6" transform="matrix(0.7665 -0.6423 0.6423 0.7665 -156.9469 922.4035)" class="st12" width="70.2" height="2.9"/>
		<path class="st11" d="M1162.1,698.4l-3.2-7.8c0,0,5.9-0.4,15-8c10.4-8.7,8.2-23,8.2-23l23-19.2l10.8,12.9L1162.1,698.4z"/>
		
			<rect x="1218.3" y="682.1" transform="matrix(0.7665 -0.6423 0.6423 0.7665 -153.7189 944.2678)" class="st11" width="6.7" height="2.9"/>
		
			<rect x="1197.7" y="671.8" transform="matrix(0.7665 -0.6423 0.6423 0.7665 -148.943 936.0149)" class="st7" width="30" height="2.1"/>
		<path class="st12" d="M1182.3,663.1l24.5-20.6l-1.8-2.1l-23,19.2C1182.2,659.7,1182.4,661,1182.3,663.1z"/>
		
			<rect x="1228" y="649.9" transform="matrix(0.7665 -0.6423 0.6423 0.7665 -135.1156 952.9963)" class="st8" width="30" height="24.9"/>
		
			<rect x="1221.8" y="652.6" transform="matrix(0.7665 -0.6423 0.6423 0.7665 -130.7176 948.5571)" class="st5" width="34.6" height="2.9"/>
		
			<rect x="1225.6" y="657.1" transform="matrix(0.7665 -0.6423 0.6423 0.7665 -132.7361 952.0452)" class="st5" width="34.6" height="2.9"/>
		
			<rect x="1232.7" y="665.6" transform="matrix(0.7665 -0.6423 0.6423 0.7665 -136.5567 958.6476)" class="st5" width="34.6" height="2.9"/>
		
			<rect x="1239.4" y="661.7" transform="matrix(0.7665 -0.6423 0.6423 0.7665 -135.9987 954.5223)" class="st5" width="10.4" height="5.2"/>
		<path class="st2" d="M1271.6,610.5c0,0-2.6,8-9,16c-3.6,4.5-7.6,9.4-16.1,16.6l-23,19.2l-1.6-1.9l-1.8-2.1l-2.3-2.7L1271.6,610.5z
			"/>
		
			<rect x="1208.7" y="630.5" transform="matrix(0.7665 -0.6423 0.6423 0.7665 -115.4334 946.4268)" class="st15" width="70.2" height="2.9"/>
		<path class="st12" d="M1269.7,608.3l-7.1-4.5c0,0-1.5,5.8-10.5,13.3c-10.4,8.7-24.1,4.1-24.1,4.1l-23,19.2l10.8,12.9L1269.7,608.3
			z"/>
		
			<rect x="1241.3" y="662.8" transform="matrix(0.7665 -0.6423 0.6423 0.7665 -135.9987 954.5223)" class="st12" width="6.7" height="2.9"/>
		
			<rect x="1220.7" y="652.5" transform="matrix(0.7665 -0.6423 0.6423 0.7665 -131.2228 946.2693)" class="st7" width="30" height="2.1"/>
		<path class="st15" d="M1231.4,622l-24.5,20.6l-1.8-2.1l23-19.2C1228.1,621.2,1229.3,621.6,1231.4,622z"/>
	</g>
	<g>
		
			<rect x="1170.7" y="628.1" transform="matrix(0.7665 -0.6423 0.6423 0.7665 -134.5253 911.1004)" class="st6" width="30" height="24.9"/>
		
			<rect x="1160.9" y="633.8" transform="matrix(0.7665 -0.6423 0.6423 0.7665 -132.8679 905.0753)" class="st8" width="34.6" height="2.9"/>
		
			<rect x="1164.7" y="638.3" transform="matrix(0.7665 -0.6423 0.6423 0.7665 -134.8864 908.5634)" class="st8" width="34.6" height="2.9"/>
		
			<rect x="1171.9" y="646.9" transform="matrix(0.7665 -0.6423 0.6423 0.7665 -138.7071 915.1657)" class="st8" width="34.6" height="2.9"/>
		
			<rect x="1182.1" y="639.9" transform="matrix(0.7665 -0.6423 0.6423 0.7665 -135.4084 912.6263)" class="st8" width="10.4" height="5.2"/>
		<path class="st3" d="M1129.7,659.7c0,0,8.3-1.2,17.4-6.1c5-2.7,10.6-5.8,19.2-13l23-19.2l-1.6-1.9l-1.8-2.1l-2.3-2.7L1129.7,659.7
			z"/>
		
			<rect x="1120.5" y="634.6" transform="matrix(0.7665 -0.6423 0.6423 0.7665 -138.6365 890.7621)" class="st12" width="70.2" height="2.9"/>
		<path class="st11" d="M1127.8,657.4l-3.2-7.8c0,0,5.9-0.4,15-8c10.4-8.7,8.2-23,8.2-23l23-19.2l10.8,12.9L1127.8,657.4z"/>
		
			<rect x="1183.9" y="641.1" transform="matrix(0.7665 -0.6423 0.6423 0.7665 -135.4084 912.6263)" class="st11" width="6.7" height="2.9"/>
		
			<rect x="1163.4" y="630.8" transform="matrix(0.7665 -0.6423 0.6423 0.7665 -130.6326 904.3734)" class="st7" width="30" height="2.1"/>
		<path class="st12" d="M1148,622.1l24.5-20.6l-1.8-2.1l-23,19.2C1147.8,618.7,1148,620,1148,622.1z"/>
		
			<rect x="1193.6" y="608.9" transform="matrix(0.7665 -0.6423 0.6423 0.7665 -116.8051 921.3548)" class="st8" width="30" height="24.9"/>
		
			<rect x="1187.4" y="611.6" transform="matrix(0.7665 -0.6423 0.6423 0.7665 -112.4071 916.9157)" class="st5" width="34.6" height="2.9"/>
		
			<rect x="1191.2" y="616.1" transform="matrix(0.7665 -0.6423 0.6423 0.7665 -114.4256 920.4037)" class="st5" width="34.6" height="2.9"/>
		
			<rect x="1198.4" y="624.6" transform="matrix(0.7665 -0.6423 0.6423 0.7665 -118.2463 927.0061)" class="st5" width="34.6" height="2.9"/>
		
			<rect x="1205.1" y="620.7" transform="matrix(0.7665 -0.6423 0.6423 0.7665 -117.6882 922.8808)" class="st5" width="10.4" height="5.2"/>
		<path class="st2" d="M1237.3,569.5c0,0-2.6,8-9,16c-3.6,4.5-7.6,9.4-16.1,16.6l-23,19.2l-1.6-1.9l-1.8-2.1l-2.3-2.7L1237.3,569.5z
			"/>
		
			<rect x="1174.3" y="589.5" transform="matrix(0.7665 -0.6423 0.6423 0.7665 -97.1229 914.7854)" class="st15" width="70.2" height="2.9"/>
		<path class="st12" d="M1235.4,567.3l-7.1-4.5c0,0-1.5,5.8-10.5,13.3c-10.4,8.7-24.1,4.1-24.1,4.1l-23,19.2l10.8,12.9L1235.4,567.3
			z"/>
		
			<rect x="1206.9" y="621.8" transform="matrix(0.7665 -0.6423 0.6423 0.7665 -117.6882 922.8808)" class="st12" width="6.7" height="2.9"/>
		
			<rect x="1186.3" y="611.5" transform="matrix(0.7665 -0.6423 0.6423 0.7665 -112.9123 914.6279)" class="st7" width="30" height="2.1"/>
		<path class="st15" d="M1197,581l-24.5,20.6l-1.8-2.1l23-19.2C1193.7,580.2,1195,580.6,1197,581z"/>
	</g>
	
		<rect x="1136.3" y="587.1" transform="matrix(0.7665 -0.6423 0.6423 0.7665 -116.2149 879.4589)" class="st6" width="30" height="24.9"/>
	
		<rect x="1126.5" y="592.8" transform="matrix(0.7665 -0.6423 0.6423 0.7665 -114.5575 873.4339)" class="st8" width="34.6" height="2.9"/>
	
		<rect x="1130.3" y="597.3" transform="matrix(0.7665 -0.6423 0.6423 0.7665 -116.5759 876.9219)" class="st8" width="34.6" height="2.9"/>
	
		<rect x="1137.5" y="605.9" transform="matrix(0.7665 -0.6423 0.6423 0.7665 -120.3966 883.5243)" class="st8" width="34.6" height="2.9"/>
	
		<rect x="1147.7" y="598.9" transform="matrix(0.7665 -0.6423 0.6423 0.7665 -117.098 880.9849)" class="st8" width="10.4" height="5.2"/>
	<path class="st3" d="M1095.3,618.7c0,0,8.3-1.2,17.4-6.1c5-2.7,10.6-5.8,19.2-13l23-19.2l-1.6-1.9l-1.8-2.1l-2.3-2.7L1095.3,618.7z
		"/>
	
		<rect x="1086.2" y="593.6" transform="matrix(0.7665 -0.6423 0.6423 0.7665 -120.326 859.1207)" class="st12" width="70.2" height="2.9"/>
	<path class="st11" d="M1093.4,616.4l-3.2-7.8c0,0,5.9-0.4,15-8c22.2-18.6,17.3-43.6,17.3-43.6l7.5-6.3l17.2,20.6L1093.4,616.4z"/>
	
		<rect x="1149.6" y="600.1" transform="matrix(0.7665 -0.6423 0.6423 0.7665 -117.098 880.9849)" class="st11" width="6.7" height="2.9"/>
	
		<rect x="1129" y="589.8" transform="matrix(0.7665 -0.6423 0.6423 0.7665 -112.3221 872.732)" class="st7" width="30" height="2.1"/>
	
		<rect x="1159.3" y="567.9" transform="matrix(0.7665 -0.6423 0.6423 0.7665 -98.4947 889.7134)" class="st8" width="30" height="24.9"/>
	
		<rect x="1153.1" y="570.6" transform="matrix(0.7665 -0.6423 0.6423 0.7665 -94.0967 885.2743)" class="st5" width="34.6" height="2.9"/>
	
		<rect x="1156.8" y="575.1" transform="matrix(0.7665 -0.6423 0.6423 0.7665 -96.1151 888.7623)" class="st5" width="34.6" height="2.9"/>
	
		<rect x="1164" y="583.6" transform="matrix(0.7665 -0.6423 0.6423 0.7665 -99.9358 895.3647)" class="st5" width="34.6" height="2.9"/>
	
		<rect x="1170.7" y="579.7" transform="matrix(0.7665 -0.6423 0.6423 0.7665 -99.3778 891.2394)" class="st5" width="10.4" height="5.2"/>
	<path class="st2" d="M1202.9,528.5c0,0-2.6,8-9,16c-3.6,4.5-7.6,9.4-16.1,16.6l-23,19.2l-1.6-1.9l-1.8-2.1l-2.3-2.7L1202.9,528.5z"
		/>
	
		<rect x="1140" y="548.5" transform="matrix(0.7665 -0.6423 0.6423 0.7665 -78.8125 883.144)" class="st15" width="70.2" height="2.9"/>
	
		<rect x="1172.5" y="580.8" transform="matrix(0.7665 -0.6423 0.6423 0.7665 -99.3777 891.2394)" class="st12" width="6.7" height="2.9"/>
	
		<rect x="1152" y="570.5" transform="matrix(0.7665 -0.6423 0.6423 0.7665 -94.6019 882.9865)" class="st7" width="30" height="2.1"/>
	
		<rect x="1123.3" y="547.6" transform="matrix(0.7665 -0.6423 0.6423 0.7665 -90.5672 851.7772)" class="st6" width="5.6" height="5.6"/>
	<path class="st12" d="M1122.5,557.1c0,0,0.2,1.2,0.4,3.3l8.9-7.4l-1.8-2.1L1122.5,557.1z"/>
	<path class="st12" d="M1201,526.3l-7.1-4.5c0,0-1.5,5.8-10.5,13.3c-22.2,18.6-46,9.4-46,9.4l-7.5,6.3l17.2,20.6L1201,526.3z"/>
	
		<rect x="1127.5" y="544.1" transform="matrix(0.7665 -0.6423 0.6423 0.7665 -87.2733 853.6834)" class="st8" width="5.6" height="5.6"/>
	<path class="st15" d="M1137.5,544.5c0,0,1.1,0.4,3.2,0.9l-8.9,7.4l-1.8-2.1L1137.5,544.5z"/>
	<path class="st16" d="M1120.1,545.9c1.6,1.9,4.4,2.1,6.2,0.5l-5.7-6.8C1118.8,541.2,1118.5,544,1120.1,545.9z"/>
	<path class="st17" d="M1120.6,539.6l5.7,6.8c1.9-1.6,2.1-4.4,0.5-6.2C1125.3,538.3,1122.5,538.1,1120.6,539.6z"/>
	<path class="st16" d="M1114.4,539.1c1.6,1.9,4.4,2.1,6.2,0.5l-5.7-6.8C1113.1,534.4,1112.8,537.2,1114.4,539.1z"/>
	<path class="st17" d="M1114.9,532.8l5.7,6.8c1.9-1.6,2.1-4.4,0.5-6.2C1119.6,531.5,1116.8,531.3,1114.9,532.8z"/>
	<path class="st16" d="M1109.9,532.4c1.3,1.5,3.5,1.7,5,0.4l-4.6-5.5C1108.8,528.6,1108.6,530.9,1109.9,532.4z"/>
	<path class="st17" d="M1110.4,527.4l4.6,5.5c1.5-1.3,1.7-3.5,0.4-5C1114.1,526.3,1111.9,526.1,1110.4,527.4z"/>
	<path class="st16" d="M1105.3,526.9c1.3,1.5,3.5,1.7,5,0.4l-4.6-5.5C1104.2,523.2,1104,525.4,1105.3,526.9z"/>
	<path class="st17" d="M1105.8,521.9l4.6,5.5c1.5-1.3,1.7-3.5,0.4-5C1109.5,520.8,1107.3,520.6,1105.8,521.9z"/>
	<path class="st16" d="M1102.3,521.6c0.9,1.1,2.5,1.2,3.5,0.3l-3.2-3.8C1101.5,519,1101.4,520.5,1102.3,521.6z"/>
	<path class="st17" d="M1102.6,518.1l3.2,3.8c1.1-0.9,1.2-2.5,0.3-3.5C1105.2,517.3,1103.6,517.2,1102.6,518.1z"/>
	<path class="st16" d="M1099.1,517.8c0.9,1.1,2.5,1.2,3.5,0.3l-3.2-3.8C1098.3,515.1,1098.2,516.7,1099.1,517.8z"/>
	<path class="st17" d="M1099.4,514.3l3.2,3.8c1.1-0.9,1.2-2.5,0.3-3.5C1102,513.5,1100.4,513.4,1099.4,514.3z"/>
</g>
<g>
	<path class="st18" d="M329.5,632.8c-31.5,0.1-57,13.2-57,29.1c0.1,16,25.7,28.8,57.2,28.7l0.5,0l-0.2-57.8L329.5,632.8L329.5,632.8
		z"/>
	<path class="st18" d="M281.6,682.9l-18.4,0.1c-7,0-13.4,5.8-12.7,12.8l1.3,12.5c0.7,7,13.8,29.5,20.8,29.5l9.2,0
		c7,0,12.5,1.4,12.5-5.6l0.1-36.5C294.4,688.6,288.6,682.9,281.6,682.9L281.6,682.9z"/>
	<polygon class="st19" points="291.8,688 305.1,687.9 305.2,719.1 291.9,719.2 291.8,688 	"/>
	<polygon class="st20" points="291.9,719.2 305.2,719.1 305.2,711.8 291.9,711.8 291.9,719.2 	"/>
	<polygon class="st21" points="318.4,687.9 305.1,687.9 305.2,728 318.5,727.9 318.4,687.9 	"/>
	<polygon class="st22" points="318.5,727.9 305.2,728 305.2,720.6 318.5,720.5 318.5,727.9 	"/>
	<polygon class="st23" points="318.4,687.9 342,687.8 342.2,739 318.5,739.1 318.4,687.9 	"/>
	<polygon class="st20" points="318.5,739.1 342.2,739 342.2,729.6 318.5,729.6 318.5,739.1 	"/>
	<path class="st3" d="M278.9,680.2c-1.6-1.2-2-3.6-0.7-5.2c1.2-1.6,3.6-2,5.2-0.7c7.1,5.4,14.8,8.9,22.8,11.1c7.6,2,15.6,2.8,24,2.6
		l0,7.4c-9,0.1-17.6-0.7-25.9-2.9C295.4,690.1,286.9,686.2,278.9,680.2L278.9,680.2z"/>
	<path class="st24" d="M249.4,708.6c5.5-20.5,18.1-25.5,36.2-25.5c7,0,2.3-11-9.1-13.4c-2.9-0.6-0.9-5.8-1-9.8
		c-0.1-14.5,24.3-26.3,54.5-26.4l-0.2-56.7c-87.7,5.3-103.5,63.3-86.1,100.7C243.7,677.5,228.5,712.9,249.4,708.6L249.4,708.6z"/>
	<path class="st24" d="M272.6,720.3c-12.5,0-22.6,8-22.6,17.7l22.7-0.1l22.6-0.1C295.2,728.1,285.1,720.2,272.6,720.3L272.6,720.3z"
		/>
	<path class="st25" d="M330.5,632.8c31.5-0.1,57.1,12.7,57.2,28.7c0.1,16-25.5,29-57,29.1l-0.5,0l-0.2-57.8L330.5,632.8L330.5,632.8
		z"/>
	<path class="st26" d="M378.7,682.6l18.4-0.1c7,0,13.5,5.7,12.8,12.7l-1.2,12.5c-0.7,7-13.6,29.6-20.6,29.7l-9.2,0
		c-7,0-12.5,1.5-12.6-5.5l-0.3-36.5C366,688.3,371.7,682.6,378.7,682.6L378.7,682.6z"/>
	<polygon class="st19" points="368.5,687.7 355.3,687.8 355.4,718.9 368.7,718.9 368.5,687.7 	"/>
	<polygon class="st20" points="368.7,718.9 355.4,718.9 355.4,711.6 368.6,711.5 368.7,718.9 	"/>
	<polygon class="st21" points="342,687.8 355.3,687.8 355.4,727.8 342.1,727.8 342,687.8 	"/>
	<polygon class="st22" points="342.1,727.8 355.4,727.8 355.4,720.4 342.1,720.5 342.1,727.8 	"/>
	<path class="st2" d="M381.4,679.8c1.6-1.2,1.9-3.6,0.7-5.2c-1.3-1.6-3.6-1.9-5.2-0.7c-7.1,5.4-14.7,9-22.7,11.2
		c-7.6,2.1-15.6,2.9-24,2.8l0,7.4c9,0.1,17.6-0.8,25.9-3C365,689.9,373.5,685.9,381.4,679.8L381.4,679.8z"/>
	<path class="st27" d="M411.1,708c-5.7-20.4-18.3-25.4-36.3-25.2c-7,0.1-2.4-11,9-13.5c2.9-0.6,0.9-5.8,0.9-9.8
		c-0.1-14.5-24.5-26.1-54.7-26l-0.2-56.7c87.7,4.6,103.9,62.5,86.8,100.1C416.6,676.9,432,712.1,411.1,708L411.1,708z"/>
	<path class="st22" d="M329.8,594c-6.2,0-11.1,5-11.1,11.2c0,6.2,5,11.1,11.2,11.1c6.2,0,11.1-5,11.1-11.2
		C341,599,336,594,329.8,594L329.8,594z"/>
	<path class="st20" d="M343.8,605.1l-13.9,0.1l-13.9,0.1c-10,0-18.1,8.2-18.1,18.2l0,2.3c0,10,8.2,18.1,18.2,18.1l13.9-0.1l13.9-0.1
		c10,0,18.1-8.2,18.1-18.2l0-2.3C362,613.2,353.8,605.1,343.8,605.1z"/>
	<path class="st25" d="M307.1,633.6L307.1,633.6l0,0.2l0.1,0c3.8,14.5,9.4,33.3,22.5,33.2c0.1,0,0.3,0,0.5,0l-0.1-33.5l-0.5,0l0,0
		c-3-0.1-5.6-1.8-7-4.1l-0.3,0c-1.5-2.3-4-3.7-6.9-3.7C310.8,625.7,307.2,629.2,307.1,633.6L307.1,633.6L307.1,633.6z"/>
	<path class="st18" d="M352.9,633.4L352.9,633.4l0,0.2l-0.1,0c-3.7,14.5-9.1,33.3-22.2,33.4c-0.2,0-0.3,0-0.5,0l-0.1-33.5l0.5,0l0,0
		c3-0.2,5.6-1.8,7-4.2l0.3,0c1.4-2.3,4-3.8,6.9-3.8C349.1,625.5,352.7,629,352.9,633.4L352.9,633.4L352.9,633.4z"/>
	<path class="st24" d="M388,719.9c12.5,0,22.7,7.8,22.7,17.5l-22.7,0.1l-22.7,0.1C365.4,727.8,375.5,719.9,388,719.9L388,719.9z"/>
	<g>
		<path class="st26" d="M293.3,656.6c1.7,0,3,0.9,3,2.1c0,1.2-1.3,2.1-3,2.1c-1.7,0-3-0.9-3-2.1
			C290.3,657.5,291.7,656.6,293.3,656.6L293.3,656.6z"/>
		<path class="st26" d="M366.8,656.3c1.7,0,3,0.9,3,2.1c0,1.2-1.3,2.1-3,2.1c-1.7,0-3-0.9-3-2.1
			C363.8,657.2,365.1,656.3,366.8,656.3L366.8,656.3z"/>
	</g>
	<path class="st26" d="M330.1,674c2,0,3.7,1.6,3.7,3.7c0,2.1-1.7,3.7-3.7,3.7c-2.1,0-3.7-1.7-3.7-3.7
		C326.4,675.7,328.1,674,330.1,674L330.1,674z"/>
	<path class="st2" d="M313.9,639.2c-0.6-0.2-1-0.8-0.8-1.4c0.2-0.6,0.8-1,1.4-0.8l10.5,3c0.6,0.2,1,0.8,0.8,1.4
		c-0.2,0.6-0.8,1-1.4,0.8L313.9,639.2L313.9,639.2z"/>
	<path class="st2" d="M345.4,636.9c0.6-0.2,1.3,0.2,1.4,0.8c0.2,0.6-0.2,1.3-0.8,1.4l-10.4,3.1c-0.6,0.2-1.3-0.2-1.4-0.8
		c-0.2-0.6,0.2-1.3,0.8-1.4L345.4,636.9L345.4,636.9z"/>
	<path class="st28" d="M333.6,656.3c-0.4,0-0.7-0.4-0.7-0.7c0-0.4,0.4-0.7,0.7-0.7c1.7,0.1,3-0.2,4-0.8c0.9-0.6,1.5-1.6,1.8-2.9
		c0.1-0.4,0.4-0.6,0.8-0.5c0.4,0.1,0.6,0.5,0.5,0.8c-0.4,1.7-1.1,2.9-2.4,3.7C337.2,656.1,335.6,656.4,333.6,656.3L333.6,656.3z"/>
	<path class="st14" d="M265.6,637.9c0,3.3-2.7,6-6,6c-3.3,0-6-2.7-6-6c0-3.3,2.7-6,6-6C262.8,631.9,265.5,634.5,265.6,637.9z"/>
	<path class="st14" d="M285.2,620.3c0,6.4-5.1,11.5-11.5,11.5c-6.4,0-11.5-5.1-11.5-11.5c0-6.4,5.1-11.5,11.5-11.5
		C280,608.8,285.2,613.9,285.2,620.3z"/>
</g>
<g>
	<polygon class="st25" points="54.3,48.4 67.9,32.6 16.5,0.4 8.8,9.4 54.3,48.4 	"/>
	<polygon class="st23" points="-35.4,-41.1 16.5,0.4 8.8,9.4 -41.7,-33.8 -35.4,-41.1 	"/>
	<path class="st3" d="M-47.7-38.9l13.4-15.6c4.3,3.7,1.8,13.7-5.6,22.3L-47.7-38.9L-47.7-38.9z"/>
	<path class="st27" d="M168.6,100.4c0.3,2.6-1.5,5.2-4.2,5.8c-2.6,0.6-5-1.1-5.4-3.8l-4.8-37.6L107.7,72c-2.7,0.4-5-1.4-5.2-4.1
		c-0.2-2.7,1.8-5.2,4.5-5.6l51.1-7.9l0,0c2.5-0.4,4.8,1.3,5.1,3.8L168.6,100.4L168.6,100.4z"/>
	<path class="st25" d="M112.8,70.7c3.5-4.1,3.3-10-0.5-13.2c-3.7-3.2-9.6-2.5-13.1,1.6c-3.5,4.1-3.3,10,0.5,13.2
		C103.5,75.5,109.3,74.8,112.8,70.7L112.8,70.7z"/>
	<path class="st3" d="M61.8,54.9l23.5-27.4c10.7,9.2,16,22.2,15,34.4l-12.8,15L61.8,54.9L61.8,54.9z"/>
	<polygon class="st22" points="61.8,54.9 85.3,27.5 77.8,21 54.3,48.4 61.8,54.9 	"/>
	<path class="st27" d="M123.2,153.4c2.7-0.1,4.9-2.3,5.1-5c0.2-2.7-1.9-4.8-4.5-4.7l-37.9,1.1l-0.1-47.1c0-2.7-2.2-4.7-4.8-4.5
		c-2.7,0.2-4.8,2.6-4.8,5.3l0.1,51.7l0,0c0,2.6,2,4.5,4.5,4.5L123.2,153.4L123.2,153.4z"/>
	<path class="st25" d="M85.4,102.8c-3.5,4.1-9.4,4.8-13.1,1.6c-3.7-3.2-4-9.1-0.5-13.2c3.5-4.1,9.4-4.8,13.1-1.6
		C88.6,92.8,88.9,98.7,85.4,102.8L85.4,102.8z"/>
	<polygon class="st23" points="87.5,76.8 100.3,61.9 173.8,117.4 157.4,136.7 140.9,155.9 74.7,91.8 87.5,76.8 	"/>
	<path class="st22" d="M206.6,159.7c8.2-10.5,0-36.7-23.5-56.8c-23.4-20.1-54.4-23.3-54.4-23.3s5,32.2,28.5,52.3
		C180.7,152,198.4,170.2,206.6,159.7L206.6,159.7z"/>
	<path class="st22" d="M187.7,181.8c-9.1,9.7-36.2,5.6-59.7-14.5c-23.4-20.1-31.4-50.2-31.4-50.2s32.6,0,56,20.1
		C176.1,157.3,196.8,172.1,187.7,181.8L187.7,181.8z"/>
	<path class="st25" d="M201.6,174.5L201.6,174.5c-7.2,8.5-19.5,9.9-27.3,3.3l-17-14.6c-7.8-6.7-8.2-19-1-27.5l0,0
		c7.2-8.5,19.5-9.9,27.3-3.3l17,14.6C208.4,153.7,208.8,166.1,201.6,174.5L201.6,174.5z"/>
	<path class="st20" d="M201.6,174.5L201.6,174.5c-7.2,8.5-19.5,9.9-27.3,3.3l-10.9-9.4c4.4-4.5,9.9-8.6,16.3-11.8
		c8.3-4.1,16.7-6.1,24.1-6.1C208.4,157.5,207.7,167.4,201.6,174.5L201.6,174.5z"/>
	<polygon class="st18" points="54.3,48.4 40.7,64.3 1,18.4 8.7,9.4 54.3,48.4 	"/>
	<polygon class="st21" points="-48,-26.4 1,18.4 8.7,9.4 -41.7,-33.8 -48,-26.4 	"/>
	<path class="st2" d="M-47.7-38.9l-13.4,15.6c4.3,3.7,13.8-0.3,21.2-9L-47.7-38.9L-47.7-38.9z"/>
	<path class="st2" d="M61.8,54.9L38.4,82.3c10.7,9.2,24.4,12.3,36.3,9.6l12.8-15L61.8,54.9L61.8,54.9z"/>
	<polygon class="st20" points="61.8,54.9 38.4,82.3 30.9,75.8 54.3,48.4 61.8,54.9 	"/>
	<path class="st2" d="M187.2,143.5c0.4-0.3,1-0.2,1.2,0.2c0.3,0.4,0.1,1-0.3,1.3l-7.5,5.2c-0.4,0.3-1,0.2-1.2-0.2
		c-0.3-0.4-0.1-1,0.3-1.3L187.2,143.5L187.2,143.5z"/>
	<path class="st5" d="M171.4,139.4c0.5,0.1,0.8,0.5,0.7,1c-0.1,0.5-0.6,0.9-1.1,0.8c-1.4-0.2-2.7,0-3.8,0.5c-0.9,0.4-1.7,1-2.3,1.7
		c-0.6,0.7-1,1.6-1.2,2.6c-0.2,1.1-0.2,2.3,0.2,3.4c0.2,0.5-0.1,1-0.5,1.2c-0.5,0.2-1,0-1.2-0.5c-0.5-1.5-0.6-3-0.3-4.4
		c0.3-1.3,0.8-2.4,1.6-3.4c0.8-1,1.8-1.8,3.1-2.3C168,139.4,169.7,139.1,171.4,139.4L171.4,139.4z"/>
</g>
<g>
	<g>
		<path class="st29" d="M922.6,598.2H910c0,0,0.5,3.5-2.9,4.5c-3.4,1-25.5,8.6-29,12.4s-7.2,53.5-7.9,62.7
			c-0.7,9.3,2.1,10.6,2.1,10.6v15.8l50.3-3.3V598.2z"/>
		<path class="st17" d="M908.4,602.2v44.5c0,7.9,6.4,14.3,14.2,14.3v-62.8H910C910,598.2,910.4,600.8,908.4,602.2z"/>
		<path class="st30" d="M922.6,702.5h-71.4c0,7.4,5.9,13.3,13.2,13.3h58.2V702.5z"/>
		<path class="st29" d="M922.6,702.5h-71.4c0-7.4,5.9-13.3,13.2-13.3h58.2V702.5z"/>
		<path class="st16" d="M922.6,635.3L922.6,635.3l0-37H910c0,0,0.3,2.6-1.7,3.9v38.4C913.2,640.1,919.1,638.8,922.6,635.3z"/>
		<path class="st30" d="M922.6,598.2h12.6c0,0-0.5,3.5,2.9,4.5s25.5,8.6,29,12.4c3.5,3.8,7.2,53.5,7.9,62.7
			c0.7,9.3-2.1,10.6-2.1,10.6v15.8l-50.3-3.3V598.2z"/>
		<path class="st17" d="M936.8,602.2v44.5c0,7.9-6.4,14.3-14.2,14.3v-62.8h12.6C935.2,598.2,934.8,600.8,936.8,602.2z"/>
		<path class="st29" d="M922.6,702.5H994c0,7.4-5.9,13.3-13.2,13.3h-58.2V702.5z"/>
		<path class="st30" d="M922.6,702.5H994c0-7.4-5.9-13.3-13.2-13.3h-58.2V702.5z"/>
		<path class="st16" d="M922.6,635.3L922.6,635.3l0-37h12.6c0,0-0.3,2.6,1.7,3.9v38.4C932,640.1,926.1,638.8,922.6,635.3z"/>
		<path class="st16" d="M893.3,679.6c0,0,31.5,0,34.8,0c3.3,0,6.8,1,6.8,2.9c0,5-19.7,10.4-31.2,10.4c-11.6,0-19.8-6.6-19.8-6.6
			L893.3,679.6z"/>
		<path class="st17" d="M872.3,688.5c4.5,2.3,11.8,2.9,15.9,0.6c0,0,0,0,0,0c2.4-8.8,12.4-9.5,12.4-9.5l-9.6-11l2.2-60.9
			c-6.6,2.5-13.3,5.5-15.1,7.5c-3.5,3.8-7.2,53.5-7.9,62.7C869.5,687.2,872.3,688.5,872.3,688.5z"/>
		<path class="st17" d="M952.9,677.3l-8.4,2.3c0,0-4.3,1.3-10.2,4.5c-5.9,3.2-27.5,3.3-27.5,6.4c0,3.1,3.3,3.5,5.9,3.5
			c2.7,0,21.8,0.7,26.7-1.2c4.9-1.9,17.6-3.7,17.6-3.7L952.9,677.3z"/>
		<path class="st29" d="M972.9,688.5c-4.5,2.3-11.8,2.9-15.9,0.6c0,0,0,0,0,0c-2.4-8.8-12.4-9.5-12.4-9.5l9.6-11l-2.2-60.9
			c6.6,2.5,13.3,5.5,15.1,7.5c3.5,3.8,7.2,53.5,7.9,62.7C975.7,687.2,972.9,688.5,972.9,688.5z"/>
		<path class="st31" d="M922.6,615.7c5.8,0,10.9-2.7,14.2-6.9v-6.6c-2-1.4-1.7-3.9-1.7-3.9h-8h-4.6h0h-2.5h-10c0,0,0.3,2.6-1.7,3.9
			v6.6C911.7,613,916.9,615.7,922.6,615.7z"/>
		<path class="st30" d="M935.8,587.7c-0.3,1.9,1,3.7,2.9,4l0,0c1.9,0.3,3.7-1,4-3l1-7c0.3-1.9-1-3.7-2.9-4l0,0c-1.9-0.3-3.7,1-4,3
			L935.8,587.7z"/>
		<path class="st30" d="M937.3,599.9c0,1.1,0.9,1.9,1.9,1.9l0,0c1,0,1.9-0.9,1.9-1.9v-11.5c0-1.1-0.9-1.9-1.9-1.9l0,0
			c-1,0-1.9,0.9-1.9,1.9V599.9z"/>
		<path class="st30" d="M909.4,587.7c0.3,1.9-1,3.7-2.9,4l0,0c-1.9,0.3-3.7-1-4-3l-1-7c-0.3-1.9,1-3.7,2.9-4l0,0c1.9-0.3,3.7,1,4,3
			L909.4,587.7z"/>
		<path class="st30" d="M907.9,599.9c0,1.1-0.9,1.9-1.9,1.9l0,0c-1,0-1.9-0.9-1.9-1.9v-11.5c0-1.1,0.9-1.9,1.9-1.9l0,0
			c1,0,1.9,0.9,1.9,1.9V599.9z"/>
		<path class="st17" d="M911.5,560c-0.1-6.2,4.9-11.3,11-11.3c0,0,0.1,0,0.1,0V560H911.5z"/>
		<path class="st16" d="M933.7,559.8c0,0.1,0,0.1,0,0.2h-11.1v-11.3C928.7,548.7,933.7,553.6,933.7,559.8z"/>
		<path class="st29" d="M939.8,586.6c0,9.6-7.7,17.3-17.2,17.3l0,0c-9.5,0-17.2-7.8-17.2-17.3v-13.7c0-9.6,7.7-17.3,17.2-17.3l0,0
			c9.5,0,17.2,7.8,17.2,17.3V586.6z"/>
		<path class="st17" d="M905.4,572.8v13.7c0,9.6,7.7,17.3,17.2,17.3v-48.4C913.1,555.5,905.4,563.3,905.4,572.8z"/>
		<path class="st16" d="M905.4,572.8v5.5c0.9-7,5.8-11,15.3-11c1.6,0,1.9,0,1.9,0v-11.8C913.1,555.6,905.4,563.3,905.4,572.8z"/>
		<path class="st17" d="M922.8,555.5c0,0-0.1,0-0.1,0v11.8c0,0,0.3,0,1.9,0c9.4,0,14.3,4,15.3,10.8v-5.3
			C939.8,563.3,932.2,555.5,922.8,555.5z"/>
		<ellipse class="st16" cx="922.6" cy="574.3" rx="2" ry="2.1"/>
		<path class="st17" d="M924.7,574.3c0-1.1-0.9-2.1-2-2.1v4.1C923.7,576.4,924.7,575.5,924.7,574.3z"/>
	</g>
	<rect x="844.2" y="722.5" class="st6" width="156.8" height="20.1"/>
	<rect x="838.1" y="716" class="st8" width="165.6" height="6.7"/>
	<rect x="833.2" y="749.3" class="st3" width="178.9" height="20.1"/>
	<rect x="828.1" y="742.6" class="st2" width="186.2" height="6.7"/>
</g>
<g>
	<path class="st17" d="M386.5,155.1l26.3-17.1c6.5,12.4,8.5,24.6,5,36.4C403.1,172,392.3,165.8,386.5,155.1L386.5,155.1z"/>
	<path class="st3" d="M407,141.7c4.5,8.9,6.5,17.3,5.7,24.9c-8.7-3.1-15.7-8-20.8-15.1L407,141.7L407,141.7z"/>
	<path class="st16" d="M356.6,155.1l-26.4-17c-6.5,12.4-8.4,24.6-4.8,36.4C340.1,172.1,350.8,165.9,356.6,155.1L356.6,155.1z"/>
	<path class="st3" d="M336.1,141.9c-4.5,9-6.5,17.3-5.6,24.9c8.6-3.1,15.7-8.1,20.7-15.2L336.1,141.9L336.1,141.9z"/>
	<path class="st29" d="M405.8,79.1c-5.7,2.6-12.4,0.1-15-5.6c-2.6-5.7-0.1-12.4,5.6-15c17.2-7.9,29.7-1.9,39,11.5
		c7.1,10.1,11.7,24.8,15.2,39.9c1.4,6.1-2.4,12.2-8.5,13.6c-6.1,1.4-12.2-2.4-13.6-8.5c-2.9-12.7-6.6-24.7-11.7-32
		C414,78.9,410.5,77,405.8,79.1L405.8,79.1z"/>
	<path class="st17" d="M418.5,42.1c0-27.3-23-41.9-47.2-41.9l0.1,49.5l0.1,49.5C395.6,99.1,418.5,69.5,418.5,42.1L418.5,42.1z"/>
	<path class="st29" d="M324.2,42.3c0-27.3,22.9-42,47-42.1l0.1,49.5l0.1,49.5C347.3,99.2,324.3,69.6,324.2,42.3L324.2,42.3z"/>
	<path class="st3" d="M371.4,58.7l0.1,40.5c14.2,0,28-10.4,37-24.4C400.2,65,386.7,58.6,371.4,58.7L371.4,58.7z"/>
	<path class="st3" d="M371.4,58.7l0.1,40.5c-14.2,0-28.1-10.3-37-24.3C342.6,65.1,356.1,58.7,371.4,58.7L371.4,58.7z"/>
	<path class="st16" d="M342.7,70.2c3.6,5.1,2.4,12.1-2.7,15.7c-5.1,3.6-12.1,2.4-15.7-2.7c-2-2.8-3.5-5.7-4.5-8.8
		c-2.3-7.1-1.8-14.4,1.3-21.4c2.8-6.2,7.7-12.1,14.7-17c5.5-3.9,12.2-7.3,20.3-9.9c5.9-1.9,12.3,1.4,14.2,7.3
		c1.9,5.9-1.4,12.3-7.3,14.2c-5.8,1.9-10.5,4.2-14.1,6.7c-3.5,2.5-5.9,5.2-7.1,7.8c-0.8,1.8-1,3.7-0.4,5.3
		C341.6,68.5,342.1,69.3,342.7,70.2L342.7,70.2z"/>
	<path class="st17" d="M371.5,115.7l-0.1-42.6c-27.8,0.1-50.4,19.1-50.3,42.7c0,23.5,22.6,42.5,50.5,42.5L371.5,115.7L371.5,115.7z"
		/>
	<path class="st16" d="M421.9,115.6c0-23.5-22.7-42.5-50.5-42.5l0.1,42.6l0.1,42.6C399.4,158.3,421.9,139.2,421.9,115.6L421.9,115.6
		z"/>
	<path class="st3" d="M394.2,100.4c0-3-1.2-5.8-3.2-7.7c-2-2-4.7-3.2-7.7-3.2c-3,0-5.8,1.2-7.7,3.2l0,0c-2,2-3.2,4.7-3.2,7.7l-1.5,0
		c0-3.4,1.4-6.5,3.6-8.8l0,0v0c2.3-2.3,5.4-3.7,8.8-3.7c3.4,0,6.5,1.4,8.8,3.6c2.3,2.2,3.7,5.4,3.7,8.8L394.2,100.4L394.2,100.4z"/>
	<path class="st3" d="M348.7,100.5c0-3,1.2-5.8,3.2-7.7c2-2,4.7-3.2,7.7-3.2c3,0,5.8,1.2,7.7,3.2l0,0c2,2,3.2,4.7,3.2,7.7l1.5,0
		c0-3.4-1.4-6.5-3.7-8.8l0,0l0,0c-2.3-2.2-5.4-3.6-8.8-3.6c-3.4,0-6.5,1.4-8.8,3.7c-2.2,2.3-3.6,5.4-3.6,8.8L348.7,100.5
		L348.7,100.5z"/>
	<polygon class="st20" points="370.6,100.4 372.3,100.4 372.3,109.7 370.6,109.7 370.6,100.4 	"/>
	<path class="st22" d="M393.7,122.4c2.5,0,4.5-2,4.5-4.5c0-2.5-2-4.5-4.5-4.5c-2.5,0-4.5,2-4.5,4.5
		C389.2,120.3,391.2,122.4,393.7,122.4L393.7,122.4z"/>
	<path class="st22" d="M349.3,122.4c-2.5,0-4.5-2-4.6-4.5c0-2.5,2-4.5,4.5-4.5c2.5,0,4.5,2,4.5,4.5
		C353.8,120.4,351.8,122.4,349.3,122.4L349.3,122.4z"/>
	<g>
		<g>
			<path class="st8" d="M338.9,127.3c0.1,0,0.1,0,0.2,0l15.8,2.8c0.6,0.1,1,0.7,0.9,1.3c-0.1,0.6-0.7,1-1.3,0.9l-15.8-2.8
				c-0.6-0.1-1-0.7-0.9-1.3C337.9,127.7,338.3,127.3,338.9,127.3z"/>
		</g>
		<g>
			<path class="st8" d="M404.1,127.2c-0.1,0-0.1,0-0.2,0l-15.8,2.9c-0.6,0.1-1,0.7-0.9,1.3c0.1,0.6,0.7,1,1.3,0.9l15.8-2.9
				c0.6-0.1,1-0.7,0.9-1.3C405.1,127.6,404.7,127.2,404.1,127.2z"/>
		</g>
	</g>
	<path class="st32" d="M371.4,73.3c5.2,0,9.4-4.2,9.3-9.4c0-5.2-4.2-9.4-9.4-9.3c-5.2,0-9.4,4.2-9.3,9.4
		C362,69.1,366.2,73.3,371.4,73.3L371.4,73.3z"/>
	<path class="st33" d="M423.2,13l-39.1,0.1c-7.1,0-12.9-5.8-12.9-12.8L436,0.1C436,7.2,430.3,13,423.2,13L423.2,13z"/>
	<path class="st16" d="M403.7,36.6c12,0,21.7-10.6,21.7-23.6l-21.7,0l-21.7,0C381.9,26.1,391.7,36.6,403.7,36.6L403.7,36.6z"/>
	<path class="st33" d="M319.2,13.2l39.1-0.1c7.1,0,12.9-5.8,12.8-12.9l-64.9,0.1C306.3,7.4,312.1,13.2,319.2,13.2L319.2,13.2z"/>
	<path class="st17" d="M338.8,36.7c-12,0-21.7-10.5-21.7-23.5l21.7,0l21.7,0C360.5,26.1,350.8,36.7,338.8,36.7L338.8,36.7z"/>
	<path class="st34" d="M441.9,127.7c7.7-1.3,12.9-8.6,11.6-16.4c-1.3-7.7-8.6-12.9-16.3-11.6c-7.7,1.3-12.9,8.6-11.6,16.3
		C426.8,123.8,434.1,129,441.9,127.7L441.9,127.7z"/>
	<path class="st8" d="M368,111.5l3.4,0h0l3.4,0c1.9,0,2.9-2.3,1.5-3.7l-3.4-3.5c-0.4-0.4-1-0.6-1.5-0.6v0l0,0l0,0v0
		c-0.6,0-1.1,0.2-1.5,0.6l-3.4,3.5C365.2,109.2,366.1,111.5,368,111.5z"/>
	<path class="st35" d="M373.7,69.7c2,0,3.5-1.6,3.5-3.5c0-2-1.6-3.5-3.5-3.5c-2,0-3.5,1.6-3.5,3.5C370.1,68.1,371.7,69.7,373.7,69.7
		L373.7,69.7z"/>
	<circle class="st36" cx="442.7" cy="118.5" r="5.3"/>
</g>
<g>
	<path class="st26" d="M32.8,650.4L32.8,650.4c-2.4,2.4-7.4,27.4-8,34.8c7.3-0.7,32.6-5.3,35.1-7.8l0,0c6.2-6.2-6.4-7.4,27.6-41.4
		l-13.3-13.3C40.2,656.8,39,644.2,32.8,650.4L32.8,650.4z"/>
	<path class="st35" d="M65.2,667.2c16.8,17.4,15.7,46.3-2.5,64.5l-25.3,25.4l-83.8-83.7l25.3-25.4c18.1-18.1,46.5-19.3,64-3.1
		l-13.5,35.8L65.2,667.2L65.2,667.2z"/>
	<path class="st32" d="M29.5,680.7l-16.3,6L29,636.4c5.1,1.9,9.8,4.8,13.9,8.6L29.5,680.7L29.5,680.7z"/>
	<path class="st32" d="M29.5,680.6l-49.9,18.8l11.3,11.3l83.5-28.9c-2-5.3-5-10.3-9.1-14.5l-35.8,13.5L29.5,680.6L29.5,680.6z"/>
	<polygon class="st8" points="130.7,544.3 129,521.2 130.9,520.9 132.6,544.1 130.7,544.3 	"/>
	<path class="st35" d="M134.3,516.7c-2.3-2.3-6-2.1-8.4,0.3c-2.4,2.4-2.5,6.2-0.3,8.4c2.3,2.2,6,2.1,8.4-0.3
		C136.4,522.7,136.5,519,134.3,516.7L134.3,516.7z"/>
	<polygon class="st8" points="166.1,577.6 189.3,579.2 189,581.1 165.8,579.4 166.1,577.6 	"/>
	<path class="st35" d="M193.5,575.8c2.3,2.3,2.1,6-0.3,8.4c-2.4,2.4-6.2,2.5-8.4,0.3c-2.3-2.2-2.1-6,0.3-8.4
		C187.4,573.7,191.2,573.6,193.5,575.8L193.5,575.8z"/>
	<path class="st2" d="M159.1,551.1c-14.3-14.3-38.3-13.6-53.6,1.7c-15.2,15.2-16,39.2-1.6,53.6s38.3,13.6,53.6-1.7
		C172.7,589.4,173.4,565.4,159.1,551.1z"/>
	<path class="st3" d="M140.6,569.6C117,546,73.2,551.5,42.9,581.9l42.8,42.7l42.8,42.7C158.8,636.9,164.2,593.2,140.6,569.6z"/>
	<path class="st25" d="M102.1,590.9c2.9,2.9,3.7,7.7,6.6,10.6l-50.9,51c-1.4-1.4-3.7-4.2-4.4-4.9c-0.7-0.7-3.4-26.5,7.5-39.4
		l13.8-16.4C81.8,583.3,94.8,583.6,102.1,590.9L102.1,590.9z"/>
	<path class="st18" d="M119.3,608.1c-2.9-2.9-7.7-3.7-10.6-6.6l-50.9,51c1.4,1.4,4.2,3.6,4.9,4.4c0.7,0.7,26.5,3.4,39.4-7.5
		l16.3-13.8C126.9,628.4,126.6,615.4,119.3,608.1L119.3,608.1z"/>
	<polygon class="st8" points="72,638.4 62.7,629.1 72.5,631.3 72,638.4 	"/>
	<polygon class="st6" points="66.7,643.4 64.1,640.5 62.7,629.1 81,647.4 69.6,646 66.7,643.4 	"/>
	<polygon class="st8" points="71.9,638.3 81.1,647.5 78.9,637.7 71.9,638.3 	"/>
	<path class="st35" d="M144.9,591.6c-1.7-1.7-5.2-0.9-7.8,1.8c-2.6,2.6-3.4,6.1-1.8,7.8c1.7,1.7,5.2,0.9,7.8-1.8
		C145.8,596.8,146.6,593.3,144.9,591.6L144.9,591.6z"/>
	<path class="st32" d="M125.8,610.8c-1.7-1.7-0.9-5.1,1.8-7.8c2.6-2.6,6.1-3.5,7.8-1.8c1.7,1.7,0.9,5.2-1.8,7.8
		C130.9,611.7,127.4,612.5,125.8,610.8L125.8,610.8z"/>
	<path class="st32" d="M132.3,588.6c-2.4,0.7-3.6,4.1-2.8,7.6c0.8,3.5,3.4,5.7,5.8,5c2.4-0.7,3.6-4.1,2.8-7.6
		C137.3,590.2,134.7,587.9,132.3,588.6L132.3,588.6z"/>
	<path class="st35" d="M138.4,613.8c-2.4,0.7-4.9-1.6-5.8-5c-0.8-3.5,0.4-6.9,2.8-7.6c2.4-0.7,4.9,1.6,5.8,5
		C142,609.7,140.7,613.1,138.4,613.8L138.4,613.8z"/>
	<path class="st35" d="M122.7,598.2c-0.7,2.4,1.6,4.9,5,5.8c3.5,0.8,6.9-0.4,7.6-2.8c0.7-2.4-1.6-4.9-5-5.8
		C126.8,594.6,123.4,595.8,122.7,598.2L122.7,598.2z"/>
	<path class="st32" d="M147.9,604.2c-0.7,2.4-4.1,3.6-7.6,2.8c-3.5-0.8-5.7-3.4-5-5.8c0.7-2.4,4.1-3.6,7.6-2.8
		C146.4,599.3,148.6,601.9,147.9,604.2L147.9,604.2z"/>
	<path class="st34" d="M138.1,598.5c-1.4-1.4-3.8-1.3-5.3,0.2c-1.5,1.5-1.6,3.9-0.2,5.3c1.4,1.4,3.8,1.3,5.3-0.2
		C139.4,602.3,139.5,599.9,138.1,598.5L138.1,598.5z"/>
	
		<rect x="-60.2" y="706.8" transform="matrix(0.7075 0.7067 -0.7067 0.7075 502.6818 208.8923)" class="st32" width="118.4" height="9.9"/>
</g>
<g>
	<path class="st8" d="M992,89.3c9.1-46.8-18.5-80.4-56.8-87.8l-16.4,84.8l-16.4,84.8C940.7,178.5,982.9,136.1,992,89.3L992,89.3z"/>
	<path class="st6" d="M912.9,116.3l9.1-46.9c33.8,7.5,58.6,9.8,52.8,36.5c-4.7,24.5-33,61.4-70.5,54.7L912.9,116.3L912.9,116.3z"/>
	<path class="st36" d="M931.9,141.6c9.5,1.8,18.7-4.4,20.5-13.9c1.8-9.5-4.4-18.7-13.9-20.5c-9.5-1.8-18.7,4.4-20.5,13.9
		C916.2,130.6,922.4,139.7,931.9,141.6L931.9,141.6z"/>
	<path class="st22" d="M933.9,131.3c3.8,0.7,7.5-1.8,8.2-5.6c0.7-3.8-1.7-7.5-5.5-8.2c-3.8-0.7-7.5,1.7-8.2,5.5
		C927.7,126.8,930.1,130.5,933.9,131.3L933.9,131.3z"/>
	<path class="st2" d="M947.3,148.8c-2.2,1.7-4.6,3.4-7,4.8l-26.9-16.1l4-6.6L947.3,148.8L947.3,148.8z"/>
	<path class="st37" d="M966.5,114.6c-5.3-14.4-15.4-22.9-31.7-23.7C956.4,88.7,969.3,88.5,966.5,114.6L966.5,114.6z"/>
	<path class="st5" d="M849.7,61.7c9.1-46.8,47.2-67.7,85.5-60.3l-16.4,84.8l-16.4,84.8C864,163.7,840.6,108.6,849.7,61.7L849.7,61.7
		z"/>
	<path class="st8" d="M912.9,116.3l9.1-46.9c-34.1-5.7-58-12.8-62.6,14.2c-4.7,24.5,7.8,69.3,45,77.1L912.9,116.3L912.9,116.3z"/>
	<path class="st36" d="M885.9,132.7c-9.5-1.8-15.7-11-13.9-20.5c1.8-9.5,11-15.7,20.5-13.9c9.5,1.8,15.7,11,13.9,20.5
		C904.6,128.3,895.4,134.5,885.9,132.7L885.9,132.7z"/>
	<path class="st22" d="M887.9,122.3c-3.8-0.7-6.3-4.4-5.6-8.2c0.7-3.8,4.4-6.3,8.2-5.5c3.8,0.7,6.3,4.4,5.5,8.2
		C895.4,120.6,891.7,123.1,887.9,122.3L887.9,122.3z"/>
	<path class="st2" d="M868.9,133.7c1.4,2.5,3,4.8,4.7,7.1l31-4.9l-1.2-7.6L868.9,133.7L868.9,133.7z"/>
	<path class="st37" d="M863.9,94.7c10.3-11.4,22.8-15.5,38.3-10.1C882.9,74.5,871,69.5,863.9,94.7L863.9,94.7z"/>
	<path class="st22" d="M914.8,106.9c3.6,0.9,8.7-0.4,12.4-3.6c4.5-3.8,5.4-8.7,1.9-11c-2.8-1.9-7.6-1.4-11.7,0.8
		c-3-3.6-7.2-5.8-10.5-5.1c-4.1,0.8-5.1,5.7-2.3,10.9C906.9,103.2,911.1,106.4,914.8,106.9L914.8,106.9z"/>
	<path class="st2" d="M937.9,76.8c1.2-0.6,2.6-0.1,3.2,1.1c0.6,1.2,0.1,2.6-1.1,3.2c-6.2,3-13.5,3.8-20.5,2.4
		c-6.7-1.3-13.2-4.6-18.4-9.9c-0.9-0.9-0.9-2.4,0-3.3c0.9-0.9,2.4-0.9,3.3,0c4.5,4.6,10.1,7.4,15.9,8.5
		C926.4,80,932.6,79.3,937.9,76.8L937.9,76.8z"/>
	<path class="st22" d="M923.9,59.9L923.9,59.9c-3.4-0.7-5.6-3.9-4.9-7.3l6.5-33.8c0.7-3.4,3.9-5.6,7.3-4.9l0,0
		c3.4,0.7,5.6,3.9,4.9,7.3L931.2,55C930.5,58.4,927.2,60.6,923.9,59.9L923.9,59.9z"/>
	<path class="st37" d="M947.7,68L947.7,68c-3.4-0.7-5.6-3.9-4.9-7.3l6-31.2c0.7-3.4,3.9-5.6,7.3-4.9l0,0c3.4,0.7,5.6,3.9,4.9,7.3
		l-6,31.2C954.4,66.4,951.1,68.7,947.7,68L947.7,68z"/>
	<path class="st37" d="M898.7,58.5L898.7,58.5c-3.4-0.7-5.6-3.9-4.9-7.3l6-30.9c0.7-3.4,3.9-5.6,7.3-4.9l0,0
		c3.4,0.7,5.6,3.9,4.9,7.3l-6,30.9C905.4,57,902.1,59.2,898.7,58.5L898.7,58.5z"/>
	<path class="st22" d="M874.2,53.8L874.2,53.8c-3.4-0.7-5.6-3.9-4.9-7.3l3.7-19.2c0.7-3.4,3.9-5.6,7.3-4.9l0,0
		c3.4,0.7,5.6,3.9,4.9,7.3l-3.7,19.2C880.9,52.2,877.6,54.4,874.2,53.8L874.2,53.8z"/>
	<path class="st22" d="M972.2,72.7L972.2,72.7c-3.4-0.7-5.6-3.9-4.9-7.3l3.6-18.7c0.7-3.4,3.9-5.6,7.3-4.9l0,0
		c3.4,0.7,5.6,3.9,4.9,7.3l-3.6,18.7C978.8,71.2,975.6,73.4,972.2,72.7L972.2,72.7z"/>
</g>
<g>
	<polygon class="st33" points="1156.2,134.2 1153.1,131.4 1195.4,85.5 1198.4,88.3 1156.2,134.2 	"/>
	<polygon class="st33" points="1199.6,89.4 1194.9,88.5 1177.9,157.7 1182.6,158.6 1199.6,89.4 	"/>
	<polygon class="st33" points="1202.8,87.1 1198,87.4 1206.4,183.4 1211.2,183 1202.8,87.1 	"/>
	<polygon class="st33" points="1194.2,84.4 1195.5,89 1128,111.7 1126.6,107.1 1194.2,84.4 	"/>
	<polygon class="st33" points="1196.2,81 1196.3,85.9 1100,85.5 1099.9,80.6 1196.2,81 	"/>
	<polygon class="st8" points="1156.8,130.5 1077.3,57.3 1103.8,188 1156.8,130.5 	"/>
	<polygon class="st6" points="1156.8,130.5 1102.2,80.2 1103.8,188 1156.8,130.5 	"/>
	<polygon class="st5" points="1156.8,130.5 1123.5,99.8 1103.8,188 1156.8,130.5 	"/>
	<polygon class="st8" points="1156.8,130.5 1140.1,115.2 1103.8,188 1156.8,130.5 	"/>
	<polygon class="st6" points="1156.8,130.5 1236.3,203.7 1103.8,188 1156.8,130.5 	"/>
	<polygon class="st8" points="1156.8,130.5 1211.4,180.8 1103.8,188 1156.8,130.5 	"/>
	<polygon class="st5" points="1156.8,130.5 1190.1,161.2 1103.8,188 1156.8,130.5 	"/>
	<polygon class="st6" points="1156.8,130.5 1173.5,145.8 1103.8,188 1156.8,130.5 	"/>
	<polygon class="st33" points="1207,82.6 1199.8,75.9 1256.1,14.7 1263.3,21.4 1207,82.6 	"/>
	<path class="st16" d="M1195.1,88.3l10-10.9c-6-5.5-15.4-5.1-20.9,0.9L1195.1,88.3L1195.1,88.3z"/>
	<path class="st17" d="M1195.1,88.3l10.9,10c5.5-6,5.1-15.4-0.9-20.9L1195.1,88.3L1195.1,88.3z"/>
	<path class="st17" d="M1195.1,88.3l-10.9-10c-5.5,6-5.1,15.4,0.9,20.9L1195.1,88.3L1195.1,88.3z"/>
	<path class="st16" d="M1195.1,88.3l10.9,10c-5.5,6-14.9,6.4-20.9,0.9L1195.1,88.3L1195.1,88.3z"/>
	<path class="st35" d="M1255,23.2L1255,23.2c-4.5-4.1-4.8-11.2-0.7-15.7l25.4-27.6c4.1-4.5,11.2-4.8,15.7-0.6l0,0
		c4.5,4.1,4.8,11.2,0.6,15.7l-25.4,27.6C1266.5,27.1,1259.5,27.4,1255,23.2L1255,23.2z"/>
	<polygon class="st32" points="1270.6,22.6 1254.3,7.6 1279.8,-20.1 1296.1,-5.1 1270.6,22.6 	"/>
	<path class="st34" d="M1093.1,199.7L1093.1,199.7c-3.2-3-3.5-8.1-0.5-11.3l9.2-10l11.8,10.8l-9.2,10
		C1101.5,202.4,1096.4,202.7,1093.1,199.7L1093.1,199.7z"/>
	<polygon class="st37" points="1092.7,188.4 1104.4,199.2 1113.6,189.2 1101.8,178.4 1092.7,188.4 	"/>
</g>
<g>
	<path class="st21" d="M-20.4,278.7h5.3c1.3,0,2.4,1.2,2.4,2.7v157.8c0,1.5-1.1,2.7-2.4,2.7h-5.3c-1.3,0-2.3-1.2-2.3-2.7V281.3
		C-22.8,279.9-21.7,278.7-20.4,278.7L-20.4,278.7z"/>
	<polygon class="st21" points="17.7,336.8 -12.8,336.8 -12.8,342.7 17.7,342.7 17.7,336.8 	"/>
	<polygon class="st21" points="17.7,373.7 -12.8,373.7 -12.8,367.9 17.7,367.9 17.7,373.7 	"/>
	<path class="st37" d="M241.6,316.8H32.3v73.5h136.3l73-43.1V316.8L241.6,316.8z M12.4,353.5c0,20.3,8.9,36.8,19.9,36.8v-36.8v-36.8
		C21.3,316.8,12.4,333.2,12.4,353.5L12.4,353.5z"/>
	<path class="st38" d="M32.3,325.8c-6.6,0-12,12.4-12,27.7c0,15.3,5.4,27.7,12,27.7c6.6,0,12-12.4,12-27.7
		C44.3,338.2,39,325.8,32.3,325.8L32.3,325.8z"/>
	<path class="st32" d="M109.7,316.8H60.8c-0.7,1.6-1.2,3.5-1.5,5.3c-7.1,43.9,43.7,50.2,51,0C110.6,320.2,110.3,318.4,109.7,316.8
		L109.7,316.8z"/>
	<path class="st36" d="M77.1,328.8c-4.7,0-8.5,4.3-8.5,9.7c0,5.3,3.8,9.7,8.5,9.7c4.7,0,8.5-4.3,8.5-9.7
		C85.6,333.1,81.8,328.8,77.1,328.8L77.1,328.8z"/>
	<path class="st22" d="M74.3,334.7c-2.5,0-4.6,2.4-4.6,5.2c0,2.9,2.1,5.2,4.6,5.2c2.5,0,4.6-2.3,4.6-5.2
		C78.9,337,76.9,334.7,74.3,334.7L74.3,334.7z"/>
	<path class="st35" d="M241.6,316.8h60.4c0,6.5-15.8,19.9-24.7,19.2h-35.6V316.8L241.6,316.8z"/>
	<path class="st32" d="M241.6,347c19.4,11,39.3,25.1,60.9,10.6c-4.7-1.7-17-13.3-25.3-21.6h-35.6V347L241.6,347z"/>
	<path class="st32" d="M-17.8,259.6c-6,0-10.8,5.5-10.8,12.4c0,6.8,4.8,12.4,10.8,12.4s10.8-5.5,10.8-12.4
		C-6.9,265.2-11.8,259.6-17.8,259.6L-17.8,259.6z"/>
	<path class="st36" d="M-19.6,265.2c-2.3,0-4.2,2.1-4.2,4.8c0,2.6,1.9,4.8,4.2,4.8c2.3,0,4.2-2.1,4.2-4.8
		C-15.4,267.3-17.3,265.2-19.6,265.2L-19.6,265.2z"/>
	<path class="st16" d="M239.5,329.2c0-10.6-12.2-12.4-22.4-12.5v0h-0.1c-0.2,0-0.4,0-0.7,0h-10.7v0.3v3v48.3l32.7-19.3
		c-2.2-4.3-7.6-7.3-14-7.7v-0.1C232.8,340.9,239.5,335.6,239.5,329.2z"/>
	<path class="st29" d="M219.4,329.2c0-10.6-12.2-12.4-22.4-12.5v0h-0.1c-0.2,0-0.4,0-0.7,0h-10.7v0.3v3v60.1l23.4-13.8
		c-1.4-0.4-3-0.7-4.6-0.8v-0.1c8.5-0.4,15.1-5.7,15.1-12.1c0-6.4-6.7-11.7-15.1-12.1v-0.1C212.8,340.9,219.4,335.6,219.4,329.2z"/>
	<path class="st16" d="M184.3,365.7L184.3,365.7c8.5-0.5,15.1-5.8,15.1-12.2c0-6.4-6.7-11.7-15.1-12.1v-0.1
		c8.5-0.5,15.1-5.7,15.1-12.1c0-10.6-12.2-12.4-22.4-12.5v0h-0.1c-0.2,0-0.4,0-0.7,0h-10.7v0.3v3v67.4v2.5v0.3h3l29.4-17.4
		C195.6,368.9,190.4,366,184.3,365.7z"/>
	<path class="st29" d="M179.4,353.5c0-6.4-6.7-11.7-15.1-12.1v-0.1c8.5-0.5,15.1-5.7,15.1-12.1c0-10.6-12.2-12.4-22.4-12.5v0h-0.1
		c-0.2,0-0.4,0-0.7,0h-10.7v0.3v3v67.4v2.5v0.3h10.3v0c10.4,0,23.6-1.5,23.6-12.5c0-6.4-6.7-11.7-15.1-12.1v-0.1
		C172.7,365.2,179.4,359.9,179.4,353.5z"/>
	<path class="st16" d="M159.4,353.5c0-6.4-6.7-11.7-15.1-12.1v-0.1c8.5-0.5,15.1-5.7,15.1-12.1c0-10.6-12.2-12.4-22.4-12.5v0h-0.1
		c-0.2,0-0.4,0-0.7,0h-10.7v0.3v3v67.4v2.5v0.3h10.3v0c10.4,0,23.6-1.5,23.6-12.5c0-6.4-6.7-11.7-15.1-12.1v-0.1
		C152.7,365.2,159.4,359.9,159.4,353.5z"/>
	<path class="st8" d="M136.8,390.3h-32.4c0-16.2,14.5-29.4,32.4-29.4s32.4,13.2,32.4,29.4H136.8L136.8,390.3z"/>
	<path class="st6" d="M136.8,390.3h-18.6c0-9.3,8.3-16.9,18.6-16.9c10.3,0,18.6,7.6,18.6,16.9H136.8L136.8,390.3z"/>
	<path class="st14" d="M135.1,331.8c0,4.5-3.2,8.1-7.1,8.1c-3.9,0-7.1-3.6-7.1-8.1s3.2-8.1,7.1-8.1
		C131.9,323.6,135.1,327.3,135.1,331.8z"/>
	<ellipse class="st14" cx="144.1" cy="330.9" rx="4.2" ry="4.8"/>
</g>
</svg>
