<svg width="1281" height="800" viewBox="0 0 1281 800" fill="none" xmlns="http://www.w3.org/2000/svg">
<rect width="1279" height="800" fill="#0C0C0D"/>
<path d="M820.016 756.45C820.016 759.617 818.866 762.083 816.566 763.85C814.266 765.617 811.166 766.5 807.266 766.5C805.266 766.5 803.416 766.35 801.716 766.05C800.016 765.75 798.599 765.333 797.466 764.8V760.5C798.666 761.033 800.149 761.517 801.916 761.95C803.716 762.383 805.566 762.6 807.466 762.6C810.133 762.6 812.133 762.083 813.466 761.05C814.833 760.017 815.516 758.617 815.516 756.85C815.516 755.683 815.266 754.7 814.766 753.9C814.266 753.1 813.399 752.367 812.166 751.7C810.966 751 809.283 750.267 807.116 749.5C804.083 748.4 801.783 747.05 800.216 745.45C798.683 743.85 797.916 741.667 797.916 738.9C797.916 737 798.399 735.383 799.366 734.05C800.333 732.683 801.666 731.633 803.366 730.9C805.099 730.167 807.083 729.8 809.316 729.8C811.283 729.8 813.083 729.983 814.716 730.35C816.349 730.717 817.833 731.2 819.166 731.8L817.766 735.65C816.533 735.117 815.183 734.667 813.716 734.3C812.283 733.933 810.783 733.75 809.216 733.75C806.983 733.75 805.299 734.233 804.166 735.2C803.033 736.133 802.466 737.383 802.466 738.95C802.466 740.15 802.716 741.15 803.216 741.95C803.716 742.75 804.533 743.467 805.666 744.1C806.799 744.733 808.333 745.417 810.266 746.15C812.366 746.917 814.133 747.75 815.566 748.65C817.033 749.517 818.133 750.567 818.866 751.8C819.633 753.033 820.016 754.583 820.016 756.45ZM835.557 762.9C836.224 762.9 836.907 762.85 837.607 762.75C838.307 762.617 838.874 762.483 839.307 762.35V765.7C838.841 765.933 838.174 766.117 837.307 766.25C836.441 766.417 835.607 766.5 834.807 766.5C833.407 766.5 832.107 766.267 830.907 765.8C829.741 765.3 828.791 764.45 828.057 763.25C827.324 762.05 826.957 760.367 826.957 758.2V742.6H823.157V740.5L827.007 738.75L828.757 733.05H831.357V739.2H839.107V742.6H831.357V758.1C831.357 759.733 831.741 760.95 832.507 761.75C833.307 762.517 834.324 762.9 835.557 762.9ZM867.974 752.55C867.974 756.983 866.84 760.417 864.574 762.85C862.34 765.283 859.307 766.5 855.474 766.5C853.107 766.5 850.99 765.967 849.124 764.9C847.29 763.8 845.84 762.217 844.774 760.15C843.707 758.05 843.174 755.517 843.174 752.55C843.174 748.117 844.29 744.7 846.524 742.3C848.757 739.9 851.79 738.7 855.624 738.7C858.057 738.7 860.19 739.25 862.024 740.35C863.89 741.417 865.34 742.983 866.374 745.05C867.44 747.083 867.974 749.583 867.974 752.55ZM847.724 752.55C847.724 755.717 848.34 758.233 849.574 760.1C850.84 761.933 852.84 762.85 855.574 762.85C858.274 762.85 860.257 761.933 861.524 760.1C862.79 758.233 863.424 755.717 863.424 752.55C863.424 749.383 862.79 746.9 861.524 745.1C860.257 743.3 858.257 742.4 855.524 742.4C852.79 742.4 850.807 743.3 849.574 745.1C848.34 746.9 847.724 749.383 847.724 752.55ZM887.447 738.7C887.947 738.7 888.481 738.733 889.047 738.8C889.647 738.833 890.164 738.9 890.597 739L890.047 743.05C889.614 742.95 889.131 742.867 888.597 742.8C888.097 742.733 887.614 742.7 887.147 742.7C885.781 742.7 884.497 743.083 883.297 743.85C882.097 744.583 881.131 745.633 880.397 747C879.697 748.333 879.347 749.9 879.347 751.7V766H874.947V739.2H878.547L879.047 744.1H879.247C880.114 742.633 881.231 741.367 882.597 740.3C883.964 739.233 885.581 738.7 887.447 738.7ZM891.402 739.2H896.102L901.902 754.45C902.402 755.783 902.852 757.067 903.252 758.3C903.652 759.5 903.952 760.65 904.152 761.75H904.352C904.552 760.917 904.868 759.833 905.302 758.5C905.735 757.133 906.185 755.767 906.652 754.4L912.102 739.2H916.852L905.302 769.7C904.368 772.233 903.152 774.25 901.652 775.75C900.185 777.25 898.152 778 895.552 778C894.752 778 894.052 777.95 893.452 777.85C892.852 777.783 892.335 777.7 891.902 777.6V774.1C892.268 774.167 892.702 774.233 893.202 774.3C893.735 774.367 894.285 774.4 894.852 774.4C896.385 774.4 897.618 773.967 898.552 773.1C899.518 772.233 900.268 771.083 900.802 769.65L902.202 766.1L891.402 739.2ZM930.04 762.9C930.707 762.9 931.39 762.85 932.09 762.75C932.79 762.617 933.357 762.483 933.79 762.35V765.7C933.323 765.933 932.657 766.117 931.79 766.25C930.923 766.417 930.09 766.5 929.29 766.5C927.89 766.5 926.59 766.267 925.39 765.8C924.223 765.3 923.273 764.45 922.54 763.25C921.807 762.05 921.44 760.367 921.44 758.2V742.6H917.64V740.5L921.49 738.75L923.24 733.05H925.84V739.2H933.59V742.6H925.84V758.1C925.84 759.733 926.223 760.95 926.99 761.75C927.79 762.517 928.807 762.9 930.04 762.9ZM949.506 738.7C951.806 738.7 953.773 739.2 955.406 740.2C957.073 741.2 958.34 742.617 959.206 744.45C960.106 746.25 960.556 748.367 960.556 750.8V753.45H942.206C942.273 756.483 943.04 758.8 944.506 760.4C946.006 761.967 948.09 762.75 950.756 762.75C952.456 762.75 953.956 762.6 955.256 762.3C956.59 761.967 957.956 761.5 959.356 760.9V764.75C957.99 765.35 956.64 765.783 955.306 766.05C953.973 766.35 952.39 766.5 950.556 766.5C948.023 766.5 945.773 765.983 943.806 764.95C941.873 763.917 940.356 762.383 939.256 760.35C938.19 758.283 937.656 755.767 937.656 752.8C937.656 749.867 938.14 747.35 939.106 745.25C940.106 743.15 941.49 741.533 943.256 740.4C945.056 739.267 947.14 738.7 949.506 738.7ZM949.456 742.3C947.356 742.3 945.69 742.983 944.456 744.35C943.256 745.683 942.54 747.55 942.306 749.95H955.956C955.923 747.683 955.39 745.85 954.356 744.45C953.323 743.017 951.69 742.3 949.456 742.3ZM971.779 766H967.379V728H971.779V766ZM984.67 766H980.27V728H984.67V766ZM995.41 729.15C996.077 729.15 996.66 729.383 997.16 729.85C997.693 730.283 997.96 730.983 997.96 731.95C997.96 732.883 997.693 733.583 997.16 734.05C996.66 734.517 996.077 734.75 995.41 734.75C994.677 734.75 994.06 734.517 993.56 734.05C993.06 733.583 992.81 732.883 992.81 731.95C992.81 730.983 993.06 730.283 993.56 729.85C994.06 729.383 994.677 729.15 995.41 729.15ZM997.56 739.2V766H993.16V739.2H997.56ZM1018.95 738.7C1022.15 738.7 1024.57 739.483 1026.2 741.05C1027.83 742.583 1028.65 745.083 1028.65 748.55V766H1024.3V748.85C1024.3 744.55 1022.3 742.4 1018.3 742.4C1015.33 742.4 1013.28 743.233 1012.15 744.9C1011.02 746.567 1010.45 748.967 1010.45 752.1V766H1006.05V739.2H1009.6L1010.25 742.85H1010.5C1011.37 741.45 1012.57 740.417 1014.1 739.75C1015.63 739.05 1017.25 738.7 1018.95 738.7ZM1046.46 738.7C1048.23 738.7 1049.81 739.033 1051.21 739.7C1052.64 740.367 1053.86 741.383 1054.86 742.75H1055.11L1055.71 739.2H1059.21V766.45C1059.21 770.283 1058.23 773.167 1056.26 775.1C1054.33 777.033 1051.31 778 1047.21 778C1043.28 778 1040.06 777.433 1037.56 776.3V772.25C1040.19 773.65 1043.49 774.35 1047.46 774.35C1049.76 774.35 1051.56 773.667 1052.86 772.3C1054.19 770.967 1054.86 769.133 1054.86 766.8V765.75C1054.86 765.35 1054.88 764.783 1054.91 764.05C1054.94 763.283 1054.98 762.75 1055.01 762.45H1054.81C1053.01 765.15 1050.24 766.5 1046.51 766.5C1043.04 766.5 1040.33 765.283 1038.36 762.85C1036.43 760.417 1035.46 757.017 1035.46 752.65C1035.46 748.383 1036.43 745 1038.36 742.5C1040.33 739.967 1043.03 738.7 1046.46 738.7ZM1047.06 742.4C1044.83 742.4 1043.09 743.3 1041.86 745.1C1040.63 746.867 1040.01 749.4 1040.01 752.7C1040.01 756 1040.61 758.533 1041.81 760.3C1043.04 762.033 1044.83 762.9 1047.16 762.9C1049.86 762.9 1051.83 762.183 1053.06 760.75C1054.29 759.283 1054.91 756.933 1054.91 753.7V752.65C1054.91 748.983 1054.28 746.367 1053.01 744.8C1051.74 743.2 1049.76 742.4 1047.06 742.4ZM1087.99 752.3L1078.74 739.2H1083.74L1090.64 749.3L1097.49 739.2H1102.44L1093.19 752.3L1102.94 766H1097.94L1090.64 755.3L1083.24 766H1078.29L1087.99 752.3ZM1151.22 747.8C1151.22 753.833 1149.57 758.383 1146.27 761.45C1143 764.483 1138.43 766 1132.57 766H1122.62V730.3H1133.62C1137.22 730.3 1140.33 730.967 1142.97 732.3C1145.6 733.633 1147.63 735.6 1149.07 738.2C1150.5 740.767 1151.22 743.967 1151.22 747.8ZM1146.47 747.95C1146.47 743.183 1145.28 739.7 1142.92 737.5C1140.58 735.267 1137.27 734.15 1132.97 734.15H1127.12V762.15H1131.97C1141.63 762.15 1146.47 757.417 1146.47 747.95ZM1168.89 738.7C1171.19 738.7 1173.16 739.2 1174.79 740.2C1176.46 741.2 1177.72 742.617 1178.59 744.45C1179.49 746.25 1179.94 748.367 1179.94 750.8V753.45H1161.59C1161.66 756.483 1162.42 758.8 1163.89 760.4C1165.39 761.967 1167.47 762.75 1170.14 762.75C1171.84 762.75 1173.34 762.6 1174.64 762.3C1175.97 761.967 1177.34 761.5 1178.74 760.9V764.75C1177.37 765.35 1176.02 765.783 1174.69 766.05C1173.36 766.35 1171.77 766.5 1169.94 766.5C1167.41 766.5 1165.16 765.983 1163.19 764.95C1161.26 763.917 1159.74 762.383 1158.64 760.35C1157.57 758.283 1157.04 755.767 1157.04 752.8C1157.04 749.867 1157.52 747.35 1158.49 745.25C1159.49 743.15 1160.87 741.533 1162.64 740.4C1164.44 739.267 1166.52 738.7 1168.89 738.7ZM1168.84 742.3C1166.74 742.3 1165.07 742.983 1163.84 744.35C1162.64 745.683 1161.92 747.55 1161.69 749.95H1175.34C1175.31 747.683 1174.77 745.85 1173.74 744.45C1172.71 743.017 1171.07 742.3 1168.84 742.3ZM1204.21 758.6C1204.21 761.2 1203.25 763.167 1201.31 764.5C1199.38 765.833 1196.78 766.5 1193.51 766.5C1191.65 766.5 1190.03 766.35 1188.66 766.05C1187.33 765.75 1186.15 765.333 1185.11 764.8V760.8C1186.18 761.333 1187.46 761.833 1188.96 762.3C1190.5 762.733 1192.05 762.95 1193.61 762.95C1195.85 762.95 1197.46 762.6 1198.46 761.9C1199.46 761.167 1199.96 760.2 1199.96 759C1199.96 758.333 1199.78 757.733 1199.41 757.2C1199.05 756.667 1198.38 756.133 1197.41 755.6C1196.48 755.067 1195.13 754.467 1193.36 753.8C1191.63 753.133 1190.15 752.467 1188.91 751.8C1187.68 751.133 1186.73 750.333 1186.06 749.4C1185.4 748.467 1185.06 747.267 1185.06 745.8C1185.06 743.533 1185.98 741.783 1187.81 740.55C1189.68 739.317 1192.11 738.7 1195.11 738.7C1196.75 738.7 1198.26 738.867 1199.66 739.2C1201.1 739.5 1202.43 739.933 1203.66 740.5L1202.16 744C1201.03 743.533 1199.85 743.133 1198.61 742.8C1197.38 742.467 1196.11 742.3 1194.81 742.3C1193.01 742.3 1191.63 742.6 1190.66 743.2C1189.73 743.767 1189.26 744.55 1189.26 745.55C1189.26 746.283 1189.48 746.917 1189.91 747.45C1190.35 747.95 1191.06 748.45 1192.06 748.95C1193.1 749.417 1194.46 749.983 1196.16 750.65C1197.86 751.283 1199.31 751.933 1200.51 752.6C1201.71 753.267 1202.63 754.083 1203.26 755.05C1203.9 755.983 1204.21 757.167 1204.21 758.6ZM1212.94 729.15C1213.61 729.15 1214.19 729.383 1214.69 729.85C1215.22 730.283 1215.49 730.983 1215.49 731.95C1215.49 732.883 1215.22 733.583 1214.69 734.05C1214.19 734.517 1213.61 734.75 1212.94 734.75C1212.21 734.75 1211.59 734.517 1211.09 734.05C1210.59 733.583 1210.34 732.883 1210.34 731.95C1210.34 730.983 1210.59 730.283 1211.09 729.85C1211.59 729.383 1212.21 729.15 1212.94 729.15ZM1215.09 739.2V766H1210.69V739.2H1215.09ZM1233.08 738.7C1234.85 738.7 1236.43 739.033 1237.83 739.7C1239.26 740.367 1240.48 741.383 1241.48 742.75H1241.73L1242.33 739.2H1245.83V766.45C1245.83 770.283 1244.85 773.167 1242.88 775.1C1240.95 777.033 1237.93 778 1233.83 778C1229.9 778 1226.68 777.433 1224.18 776.3V772.25C1226.81 773.65 1230.11 774.35 1234.08 774.35C1236.38 774.35 1238.18 773.667 1239.48 772.3C1240.81 770.967 1241.48 769.133 1241.48 766.8V765.75C1241.48 765.35 1241.5 764.783 1241.53 764.05C1241.56 763.283 1241.6 762.75 1241.63 762.45H1241.43C1239.63 765.15 1236.86 766.5 1233.13 766.5C1229.66 766.5 1226.95 765.283 1224.98 762.85C1223.05 760.417 1222.08 757.017 1222.08 752.65C1222.08 748.383 1223.05 745 1224.98 742.5C1226.95 739.967 1229.65 738.7 1233.08 738.7ZM1233.68 742.4C1231.45 742.4 1229.71 743.3 1228.48 745.1C1227.25 746.867 1226.63 749.4 1226.63 752.7C1226.63 756 1227.23 758.533 1228.43 760.3C1229.66 762.033 1231.45 762.9 1233.78 762.9C1236.48 762.9 1238.45 762.183 1239.68 760.75C1240.91 759.283 1241.53 756.933 1241.53 753.7V752.65C1241.53 748.983 1240.9 746.367 1239.63 744.8C1238.36 743.2 1236.38 742.4 1233.68 742.4ZM1267.24 738.7C1270.44 738.7 1272.86 739.483 1274.49 741.05C1276.13 742.583 1276.94 745.083 1276.94 748.55V766H1272.59V748.85C1272.59 744.55 1270.59 742.4 1266.59 742.4C1263.63 742.4 1261.58 743.233 1260.44 744.9C1259.31 746.567 1258.74 748.967 1258.74 752.1V766H1254.34V739.2H1257.89L1258.54 742.85H1258.79C1259.66 741.45 1260.86 740.417 1262.39 739.75C1263.93 739.05 1265.54 738.7 1267.24 738.7Z" fill="white"/>
</svg>
